<?xml version="1.0" encoding="us-ascii" standalone="no"?><svg xmlns="http://www.w3.org/2000/svg" xmlns:xlink="http://www.w3.org/1999/xlink" contentStyleType="text/css" height="288px" preserveAspectRatio="none" style="width:265px;height:288px;background:#FFFFFF;" version="1.1" viewBox="0 0 265 288" width="265px" zoomAndPan="magnify"><defs/><g><text fill="#000000" font-family="sans-serif" font-size="14" font-weight="bold" lengthAdjust="spacing" textLength="237" x="10" y="30.1074">Generic listing sequence diagram</text><rect fill="#FFFFFF" height="63.582" style="stroke:#181818;stroke-width:1.0;" width="10" x="57.25" y="133.2422"/><rect fill="#FFFFFF" height="31.291" style="stroke:#181818;stroke-width:1.0;" width="10" x="183.25" y="156.5332"/><line style="stroke:#181818;stroke-width:0.5;stroke-dasharray:5.0,5.0;" x1="61.75" x2="61.75" y1="123.2422" y2="205.8242"/><line style="stroke:#181818;stroke-width:0.5;stroke-dasharray:5.0,5.0;" x1="188.25" x2="188.25" y1="123.2422" y2="205.8242"/><text fill="#000000" font-family="sans-serif" font-size="14" lengthAdjust="spacing" textLength="39" x="39.75" y="119.7285">Admin</text><ellipse cx="62.25" cy="53.1211" fill="#E2E2F0" rx="8" ry="8" style="stroke:#181818;stroke-width:0.5;"/><path d="M62.25,61.1211 L62.25,88.1211 M49.25,69.1211 L75.25,69.1211 M62.25,88.1211 L49.25,103.1211 M62.25,88.1211 L75.25,103.1211 " fill="none" style="stroke:#181818;stroke-width:0.5;"/><text fill="#000000" font-family="sans-serif" font-size="14" lengthAdjust="spacing" textLength="39" x="39.75" y="219.9316">Admin</text><ellipse cx="62.25" cy="231.9453" fill="#E2E2F0" rx="8" ry="8" style="stroke:#181818;stroke-width:0.5;"/><path d="M62.25,239.9453 L62.25,266.9453 M49.25,247.9453 L75.25,247.9453 M62.25,266.9453 L49.25,281.9453 M62.25,266.9453 L75.25,281.9453 " fill="none" style="stroke:#181818;stroke-width:0.5;"/><rect fill="#E2E2F0" height="32.6211" rx="2.5" ry="2.5" style="stroke:#181818;stroke-width:0.5;" width="60" x="158.25" y="89.6211"/><text fill="#000000" font-family="sans-serif" font-size="14" lengthAdjust="spacing" textLength="46" x="165.25" y="111.7285">System</text><rect fill="#E2E2F0" height="32.6211" rx="2.5" ry="2.5" style="stroke:#181818;stroke-width:0.5;" width="60" x="158.25" y="204.8242"/><text fill="#000000" font-family="sans-serif" font-size="14" lengthAdjust="spacing" textLength="46" x="165.25" y="226.9316">System</text><rect fill="#FFFFFF" height="63.582" style="stroke:#181818;stroke-width:1.0;" width="10" x="57.25" y="133.2422"/><rect fill="#FFFFFF" height="31.291" style="stroke:#181818;stroke-width:1.0;" width="10" x="183.25" y="156.5332"/><polygon fill="#181818" points="171.25,152.5332,181.25,156.5332,171.25,160.5332,175.25,156.5332" style="stroke:#181818;stroke-width:1.0;"/><line style="stroke:#181818;stroke-width:1.0;" x1="67.25" x2="177.25" y1="156.5332" y2="156.5332"/><text fill="#000000" font-family="sans-serif" font-size="13" lengthAdjust="spacing" textLength="97" x="74.25" y="151.2705">requests to list x</text><polygon fill="#181818" points="78.25,183.8242,68.25,187.8242,78.25,191.8242,74.25,187.8242" style="stroke:#181818;stroke-width:1.0;"/><line style="stroke:#181818;stroke-width:1.0;stroke-dasharray:2.0,2.0;" x1="72.25" x2="187.25" y1="187.8242" y2="187.8242"/><text fill="#000000" font-family="sans-serif" font-size="13" lengthAdjust="spacing" textLength="83" x="84.25" y="182.5615">shows list of x</text><!--SRC=[NOsx3SCm34HxJd4BU04N0Lnb05Sf2Obn25YI8pA_xHtPAOom8OYxzyZ1IyKGasQmOMWdBLnTWowS7UF7N5BBnij8vEgpu2nPgWRCQgvvWidz8Ja8el9KEH5nS7sooyz8sq9tQXRqg0qmDtZP97WVaEqHjMBt1NQoXztAo_PokRO-HVb3ZhC2]--></g></svg>