<?xml version="1.0" encoding="us-ascii" standalone="no"?><svg xmlns="http://www.w3.org/2000/svg" xmlns:xlink="http://www.w3.org/1999/xlink" contentStyleType="text/css" height="1725px" preserveAspectRatio="none" style="width:2124px;height:1725px;background:#FFFFFF;" version="1.1" viewBox="0 0 2124 1725" width="2124px" zoomAndPan="magnify"><defs/><g><text fill="#000000" font-family="sans-serif" font-size="14" font-weight="bold" lengthAdjust="spacing" textLength="298" x="914.5" y="30.1074">US 1013 - Ranking candidates' applications</text><rect fill="#FFFFFF" height="1500.6289" style="stroke:#181818;stroke-width:1.0;" width="10" x="88.5" y="133.2422"/><rect fill="#FFFFFF" height="1461.3379" style="stroke:#181818;stroke-width:1.0;" width="10" x="408.5" y="156.5332"/><rect fill="#FFFFFF" height="243.8281" style="stroke:#181818;stroke-width:1.0;" width="10" x="413.5" y="876.5566"/><rect fill="#FFFFFF" height="219.0371" style="stroke:#181818;stroke-width:1.0;" width="10" x="741.5" y="231.4453"/><rect fill="#FFFFFF" height="93.873" style="stroke:#181818;stroke-width:1.0;" width="10" x="741.5" y="618.2285"/><rect fill="#FFFFFF" height="93.873" style="stroke:#181818;stroke-width:1.0;" width="10" x="741.5" y="743.3926"/><rect fill="#FFFFFF" height="251.3672" style="stroke:#181818;stroke-width:1.0;" width="10" x="741.5" y="1335.2129"/><rect fill="#FFFFFF" height="93.873" style="stroke:#181818;stroke-width:1.0;" width="10" x="924" y="262.7363"/><rect fill="#FFFFFF" height="31.291" style="stroke:#181818;stroke-width:1.0;" width="10" x="1060" y="294.0273"/><rect fill="#FFFFFF" height="31.291" style="stroke:#181818;stroke-width:1.0;" width="10" x="1193" y="387.9004"/><rect fill="#FFFFFF" height="31.291" style="stroke:#181818;stroke-width:1.0;" width="10" x="1193" y="649.5195"/><rect fill="#FFFFFF" height="14" style="stroke:#181818;stroke-width:1.0;" width="10" x="1193" y="1558.5801"/><rect fill="#FFFFFF" height="31.291" style="stroke:#181818;stroke-width:1.0;" width="10" x="1368.5" y="774.6836"/><rect fill="#FFFFFF" height="31.291" style="stroke:#181818;stroke-width:1.0;" width="10" x="1517.5" y="912.8477"/><rect fill="#FFFFFF" height="31.291" style="stroke:#181818;stroke-width:1.0;" width="10" x="1625" y="975.4297"/><rect fill="#FFFFFF" height="51.582" style="stroke:#181818;stroke-width:1.0;" width="10" x="1625" y="1410.125"/><rect fill="#FFFFFF" height="14" style="stroke:#181818;stroke-width:1.0;" width="10" x="1625" y="1513.2891"/><rect fill="#FFFFFF" height="31.291" style="stroke:#181818;stroke-width:1.0;" width="10" x="1719.5" y="1038.0117"/><rect fill="none" height="122.4551" style="stroke:#000000;stroke-width:1.5;" width="663.5" x="20" y="465.4824"/><rect fill="none" height="469.6953" style="stroke:#000000;stroke-width:1.5;" width="2108" x="10" y="1156.1758"/><rect fill="none" height="122.4551" style="stroke:#000000;stroke-width:1.5;" width="901.5" x="20" y="1182.4668"/><line style="stroke:#181818;stroke-width:0.5;stroke-dasharray:5.0,5.0;" x1="93" x2="93" y1="123.2422" y2="1642.8711"/><line style="stroke:#181818;stroke-width:0.5;stroke-dasharray:5.0,5.0;" x1="413" x2="413" y1="123.2422" y2="1642.8711"/><line style="stroke:#181818;stroke-width:0.5;stroke-dasharray:5.0,5.0;" x1="746" x2="746" y1="196.3438" y2="1642.8711"/><line style="stroke:#181818;stroke-width:0.5;stroke-dasharray:5.0,5.0;" x1="929" x2="929" y1="123.2422" y2="1642.8711"/><line style="stroke:#181818;stroke-width:0.5;stroke-dasharray:5.0,5.0;" x1="1065" x2="1065" y1="123.2422" y2="1642.8711"/><line style="stroke:#181818;stroke-width:0.5;stroke-dasharray:5.0,5.0;" x1="1198" x2="1198" y1="123.2422" y2="1642.8711"/><line style="stroke:#181818;stroke-width:0.5;stroke-dasharray:5.0,5.0;" x1="1373" x2="1373" y1="123.2422" y2="1642.8711"/><line style="stroke:#181818;stroke-width:0.5;stroke-dasharray:5.0,5.0;" x1="1522" x2="1522" y1="123.2422" y2="1642.8711"/><line style="stroke:#181818;stroke-width:0.5;stroke-dasharray:5.0,5.0;" x1="1630" x2="1630" y1="123.2422" y2="1642.8711"/><line style="stroke:#181818;stroke-width:0.5;stroke-dasharray:5.0,5.0;" x1="1724" x2="1724" y1="123.2422" y2="1642.8711"/><line style="stroke:#181818;stroke-width:0.5;stroke-dasharray:5.0,5.0;" x1="1797" x2="1797" y1="1375.0234" y2="1642.8711"/><text fill="#000000" font-family="sans-serif" font-size="14" lengthAdjust="spacing" textLength="121" x="30" y="119.7285">Customer Manager</text><ellipse cx="93.5" cy="53.1211" fill="#E2E2F0" rx="8" ry="8" style="stroke:#181818;stroke-width:0.5;"/><path d="M93.5,61.1211 L93.5,88.1211 M80.5,69.1211 L106.5,69.1211 M93.5,88.1211 L80.5,103.1211 M93.5,88.1211 L106.5,103.1211 " fill="none" style="stroke:#181818;stroke-width:0.5;"/><text fill="#000000" font-family="sans-serif" font-size="14" lengthAdjust="spacing" textLength="121" x="30" y="1656.9785">Customer Manager</text><ellipse cx="93.5" cy="1668.9922" fill="#E2E2F0" rx="8" ry="8" style="stroke:#181818;stroke-width:0.5;"/><path d="M93.5,1676.9922 L93.5,1703.9922 M80.5,1684.9922 L106.5,1684.9922 M93.5,1703.9922 L80.5,1718.9922 M93.5,1703.9922 L106.5,1718.9922 " fill="none" style="stroke:#181818;stroke-width:0.5;"/><rect fill="#E2E2F0" height="32.6211" rx="2.5" ry="2.5" style="stroke:#181818;stroke-width:0.5;" width="131" x="348" y="89.6211"/><text fill="#000000" font-family="sans-serif" font-size="14" lengthAdjust="spacing" textLength="117" x="355" y="111.7285">RankCandidatesUI</text><rect fill="#E2E2F0" height="32.6211" rx="2.5" ry="2.5" style="stroke:#181818;stroke-width:0.5;" width="131" x="348" y="1641.8711"/><text fill="#000000" font-family="sans-serif" font-size="14" lengthAdjust="spacing" textLength="117" x="355" y="1663.9785">RankCandidatesUI</text><rect fill="#E2E2F0" height="32.6211" rx="2.5" ry="2.5" style="stroke:#181818;stroke-width:0.5;" width="181" x="656" y="1641.8711"/><text fill="#000000" font-family="sans-serif" font-size="14" lengthAdjust="spacing" textLength="167" x="663" y="1663.9785">RankCandidatesController</text><rect fill="#E2E2F0" height="32.6211" rx="2.5" ry="2.5" style="stroke:#181818;stroke-width:0.5;" width="164" x="847" y="89.6211"/><text fill="#000000" font-family="sans-serif" font-size="14" lengthAdjust="spacing" textLength="150" x="854" y="111.7285">Jobs4uUserAuthService</text><rect fill="#E2E2F0" height="32.6211" rx="2.5" ry="2.5" style="stroke:#181818;stroke-width:0.5;" width="164" x="847" y="1641.8711"/><text fill="#000000" font-family="sans-serif" font-size="14" lengthAdjust="spacing" textLength="150" x="854" y="1663.9785">Jobs4uUserAuthService</text><rect fill="#E2E2F0" height="32.6211" rx="2.5" ry="2.5" style="stroke:#181818;stroke-width:0.5;" width="88" x="1021" y="89.6211"/><text fill="#000000" font-family="sans-serif" font-size="14" lengthAdjust="spacing" textLength="74" x="1028" y="111.7285">Jobs4uUser</text><rect fill="#E2E2F0" height="32.6211" rx="2.5" ry="2.5" style="stroke:#181818;stroke-width:0.5;" width="88" x="1021" y="1641.8711"/><text fill="#000000" font-family="sans-serif" font-size="14" lengthAdjust="spacing" textLength="74" x="1028" y="1663.9785">Jobs4uUser</text><rect fill="#E2E2F0" height="32.6211" rx="2.5" ry="2.5" style="stroke:#181818;stroke-width:0.5;" width="158" x="1119" y="89.6211"/><text fill="#000000" font-family="sans-serif" font-size="14" lengthAdjust="spacing" textLength="144" x="1126" y="111.7285">JobOpeningRepository</text><rect fill="#E2E2F0" height="32.6211" rx="2.5" ry="2.5" style="stroke:#181818;stroke-width:0.5;" width="158" x="1119" y="1641.8711"/><text fill="#000000" font-family="sans-serif" font-size="14" lengthAdjust="spacing" textLength="144" x="1126" y="1663.9785">JobOpeningRepository</text><rect fill="#E2E2F0" height="32.6211" rx="2.5" ry="2.5" style="stroke:#181818;stroke-width:0.5;" width="173" x="1287" y="89.6211"/><text fill="#000000" font-family="sans-serif" font-size="14" lengthAdjust="spacing" textLength="159" x="1294" y="111.7285">JobApplicationRepository</text><rect fill="#E2E2F0" height="32.6211" rx="2.5" ry="2.5" style="stroke:#181818;stroke-width:0.5;" width="173" x="1287" y="1641.8711"/><text fill="#000000" font-family="sans-serif" font-size="14" lengthAdjust="spacing" textLength="159" x="1294" y="1663.9785">JobApplicationRepository</text><rect fill="#E2E2F0" height="32.6211" rx="2.5" ry="2.5" style="stroke:#181818;stroke-width:0.5;" width="105" x="1470" y="89.6211"/><text fill="#000000" font-family="sans-serif" font-size="14" lengthAdjust="spacing" textLength="91" x="1477" y="111.7285">JobApplication</text><rect fill="#E2E2F0" height="32.6211" rx="2.5" ry="2.5" style="stroke:#181818;stroke-width:0.5;" width="105" x="1470" y="1641.8711"/><text fill="#000000" font-family="sans-serif" font-size="14" lengthAdjust="spacing" textLength="91" x="1477" y="1663.9785">JobApplication</text><rect fill="#E2E2F0" height="32.6211" rx="2.5" ry="2.5" style="stroke:#181818;stroke-width:0.5;" width="90" x="1585" y="89.6211"/><text fill="#000000" font-family="sans-serif" font-size="14" lengthAdjust="spacing" textLength="76" x="1592" y="111.7285">JobOpening</text><rect fill="#E2E2F0" height="32.6211" rx="2.5" ry="2.5" style="stroke:#181818;stroke-width:0.5;" width="90" x="1585" y="1641.8711"/><text fill="#000000" font-family="sans-serif" font-size="14" lengthAdjust="spacing" textLength="76" x="1592" y="1663.9785">JobOpening</text><rect fill="#E2E2F0" height="32.6211" rx="2.5" ry="2.5" style="stroke:#181818;stroke-width:0.5;" width="79" x="1685" y="89.6211"/><text fill="#000000" font-family="sans-serif" font-size="14" lengthAdjust="spacing" textLength="65" x="1692" y="111.7285">Vacancies</text><rect fill="#E2E2F0" height="32.6211" rx="2.5" ry="2.5" style="stroke:#181818;stroke-width:0.5;" width="79" x="1685" y="1641.8711"/><text fill="#000000" font-family="sans-serif" font-size="14" lengthAdjust="spacing" textLength="65" x="1692" y="1663.9785">Vacancies</text><rect fill="#E2E2F0" height="32.6211" rx="2.5" ry="2.5" style="stroke:#181818;stroke-width:0.5;" width="47" x="1774" y="1641.8711"/><text fill="#000000" font-family="sans-serif" font-size="14" lengthAdjust="spacing" textLength="33" x="1781" y="1663.9785">Rank</text><rect fill="#FFFFFF" height="1500.6289" style="stroke:#181818;stroke-width:1.0;" width="10" x="88.5" y="133.2422"/><rect fill="#FFFFFF" height="1461.3379" style="stroke:#181818;stroke-width:1.0;" width="10" x="408.5" y="156.5332"/><rect fill="#FFFFFF" height="243.8281" style="stroke:#181818;stroke-width:1.0;" width="10" x="413.5" y="876.5566"/><rect fill="#FFFFFF" height="219.0371" style="stroke:#181818;stroke-width:1.0;" width="10" x="741.5" y="231.4453"/><rect fill="#FFFFFF" height="93.873" style="stroke:#181818;stroke-width:1.0;" width="10" x="741.5" y="618.2285"/><rect fill="#FFFFFF" height="93.873" style="stroke:#181818;stroke-width:1.0;" width="10" x="741.5" y="743.3926"/><rect fill="#FFFFFF" height="251.3672" style="stroke:#181818;stroke-width:1.0;" width="10" x="741.5" y="1335.2129"/><rect fill="#FFFFFF" height="93.873" style="stroke:#181818;stroke-width:1.0;" width="10" x="924" y="262.7363"/><rect fill="#FFFFFF" height="31.291" style="stroke:#181818;stroke-width:1.0;" width="10" x="1060" y="294.0273"/><rect fill="#FFFFFF" height="31.291" style="stroke:#181818;stroke-width:1.0;" width="10" x="1193" y="387.9004"/><rect fill="#FFFFFF" height="31.291" style="stroke:#181818;stroke-width:1.0;" width="10" x="1193" y="649.5195"/><rect fill="#FFFFFF" height="14" style="stroke:#181818;stroke-width:1.0;" width="10" x="1193" y="1558.5801"/><rect fill="#FFFFFF" height="31.291" style="stroke:#181818;stroke-width:1.0;" width="10" x="1368.5" y="774.6836"/><rect fill="#FFFFFF" height="31.291" style="stroke:#181818;stroke-width:1.0;" width="10" x="1517.5" y="912.8477"/><rect fill="#FFFFFF" height="31.291" style="stroke:#181818;stroke-width:1.0;" width="10" x="1625" y="975.4297"/><rect fill="#FFFFFF" height="51.582" style="stroke:#181818;stroke-width:1.0;" width="10" x="1625" y="1410.125"/><rect fill="#FFFFFF" height="14" style="stroke:#181818;stroke-width:1.0;" width="10" x="1625" y="1513.2891"/><rect fill="#FFFFFF" height="31.291" style="stroke:#181818;stroke-width:1.0;" width="10" x="1719.5" y="1038.0117"/><polygon fill="#181818" points="396.5,152.5332,406.5,156.5332,396.5,160.5332,400.5,156.5332" style="stroke:#181818;stroke-width:1.0;"/><line style="stroke:#181818;stroke-width:1.0;" x1="98.5" x2="402.5" y1="156.5332" y2="156.5332"/><text fill="#000000" font-family="sans-serif" font-size="13" lengthAdjust="spacing" textLength="183" x="105.5" y="151.2705">requests to rank the candidates</text><polygon fill="#181818" points="644,183.8242,654,187.8242,644,191.8242,648,187.8242" style="stroke:#181818;stroke-width:1.0;"/><line style="stroke:#181818;stroke-width:1.0;" x1="418.5" x2="650" y1="187.8242" y2="187.8242"/><text fill="#000000" font-family="sans-serif" font-size="13" lengthAdjust="spacing" textLength="36" x="425.5" y="182.5615">create</text><rect fill="#E2E2F0" height="32.6211" rx="2.5" ry="2.5" style="stroke:#181818;stroke-width:0.5;" width="181" x="656" y="164.5332"/><text fill="#000000" font-family="sans-serif" font-size="14" lengthAdjust="spacing" textLength="167" x="663" y="186.6406">RankCandidatesController</text><polygon fill="#181818" points="729.5,227.4453,739.5,231.4453,729.5,235.4453,733.5,231.4453" style="stroke:#181818;stroke-width:1.0;"/><line style="stroke:#181818;stroke-width:1.0;" x1="418.5" x2="735.5" y1="231.4453" y2="231.4453"/><text fill="#000000" font-family="sans-serif" font-size="13" lengthAdjust="spacing" textLength="224" x="425.5" y="226.1826">findAllCustomerManagerJobOpenings()</text><polygon fill="#181818" points="912,258.7363,922,262.7363,912,266.7363,916,262.7363" style="stroke:#181818;stroke-width:1.0;"/><line style="stroke:#181818;stroke-width:1.0;" x1="751.5" x2="918" y1="262.7363" y2="262.7363"/><text fill="#000000" font-family="sans-serif" font-size="13" lengthAdjust="spacing" textLength="113" x="758.5" y="257.4736">authenticatedUser()</text><polygon fill="#181818" points="1048,290.0273,1058,294.0273,1048,298.0273,1052,294.0273" style="stroke:#181818;stroke-width:1.0;"/><line style="stroke:#181818;stroke-width:1.0;" x1="934" x2="1054" y1="294.0273" y2="294.0273"/><text fill="#000000" font-family="sans-serif" font-size="13" lengthAdjust="spacing" textLength="59" x="941" y="288.7646">getEmail()</text><polygon fill="#181818" points="945,321.3184,935,325.3184,945,329.3184,941,325.3184" style="stroke:#181818;stroke-width:1.0;"/><line style="stroke:#181818;stroke-width:1.0;stroke-dasharray:2.0,2.0;" x1="939" x2="1064" y1="325.3184" y2="325.3184"/><text fill="#000000" font-family="sans-serif" font-size="13" lengthAdjust="spacing" textLength="31" x="951" y="320.0557">email</text><polygon fill="#181818" points="762.5,352.6094,752.5,356.6094,762.5,360.6094,758.5,356.6094" style="stroke:#181818;stroke-width:1.0;"/><line style="stroke:#181818;stroke-width:1.0;stroke-dasharray:2.0,2.0;" x1="756.5" x2="928" y1="356.6094" y2="356.6094"/><text fill="#000000" font-family="sans-serif" font-size="13" lengthAdjust="spacing" textLength="31" x="768.5" y="351.3467">email</text><polygon fill="#181818" points="1181,383.9004,1191,387.9004,1181,391.9004,1185,387.9004" style="stroke:#181818;stroke-width:1.0;"/><line style="stroke:#181818;stroke-width:1.0;" x1="751.5" x2="1187" y1="387.9004" y2="387.9004"/><text fill="#000000" font-family="sans-serif" font-size="13" lengthAdjust="spacing" textLength="253" x="758.5" y="382.6377">findJobOpeningsOfCustomerManager(email)</text><polygon fill="#181818" points="762.5,415.1914,752.5,419.1914,762.5,423.1914,758.5,419.1914" style="stroke:#181818;stroke-width:1.0;"/><line style="stroke:#181818;stroke-width:1.0;stroke-dasharray:2.0,2.0;" x1="756.5" x2="1197" y1="419.1914" y2="419.1914"/><text fill="#000000" font-family="sans-serif" font-size="13" lengthAdjust="spacing" textLength="86" x="768.5" y="413.9287">jobOpeningList</text><polygon fill="#181818" points="429.5,446.4824,419.5,450.4824,429.5,454.4824,425.5,450.4824" style="stroke:#181818;stroke-width:1.0;"/><line style="stroke:#181818;stroke-width:1.0;stroke-dasharray:2.0,2.0;" x1="423.5" x2="745.5" y1="450.4824" y2="450.4824"/><text fill="#000000" font-family="sans-serif" font-size="13" lengthAdjust="spacing" textLength="86" x="435.5" y="445.2197">jobOpeningList</text><path d="M20,465.4824 L270,465.4824 L270,474.7734 L260,484.7734 L20,484.7734 L20,465.4824 " fill="#EEEEEE" style="stroke:#000000;stroke-width:1.5;"/><rect fill="none" height="122.4551" style="stroke:#000000;stroke-width:1.5;" width="663.5" x="20" y="465.4824"/><text fill="#000000" font-family="sans-serif" font-size="13" font-weight="bold" lengthAdjust="spacing" textLength="205" x="35" y="480.5107">do while(!verificationSuccessful)</text><polygon fill="#181818" points="109.5,504.0645,99.5,508.0645,109.5,512.0645,105.5,508.0645" style="stroke:#181818;stroke-width:1.0;"/><line style="stroke:#181818;stroke-width:1.0;stroke-dasharray:2.0,2.0;" x1="103.5" x2="407.5" y1="508.0645" y2="508.0645"/><text fill="#000000" font-family="sans-serif" font-size="13" lengthAdjust="spacing" textLength="163" x="115.5" y="502.8018">asks to select a job opening</text><polygon fill="#181818" points="396.5,555.6465,406.5,559.6465,396.5,563.6465,400.5,559.6465" style="stroke:#181818;stroke-width:1.0;"/><line style="stroke:#181818;stroke-width:1.0;" x1="98.5" x2="402.5" y1="559.6465" y2="559.6465"/><text fill="#000000" font-family="sans-serif" font-size="13" lengthAdjust="spacing" textLength="123" x="105.5" y="554.3838">selects a job opening</text><path d="M423,521.0645 L423,582.0645 L673,582.0645 L673,531.0645 L663,521.0645 L423,521.0645 " fill="#FEFFDD" style="stroke:#181818;stroke-width:0.5;"/><path d="M663,521.0645 L663,531.0645 L673,531.0645 L663,521.0645 " fill="#FEFFDD" style="stroke:#181818;stroke-width:0.5;"/><text fill="#000000" font-family="sans-serif" font-size="13" lengthAdjust="spacing" textLength="4" x="429" y="540.0928">&#160;</text><text fill="#000000" font-family="sans-serif" font-size="13" lengthAdjust="spacing" textLength="229" x="429" y="557.3838">loops until a valid job opening is chosen</text><text fill="#000000" font-family="sans-serif" font-size="13" lengthAdjust="spacing" textLength="4" x="429" y="574.6748">&#160;</text><polygon fill="#181818" points="729.5,614.2285,739.5,618.2285,729.5,622.2285,733.5,618.2285" style="stroke:#181818;stroke-width:1.0;"/><line style="stroke:#181818;stroke-width:1.0;" x1="418.5" x2="735.5" y1="618.2285" y2="618.2285"/><text fill="#000000" font-family="sans-serif" font-size="13" lengthAdjust="spacing" textLength="219" x="425.5" y="612.9658">findJobOpening(jobOpeningReference)</text><polygon fill="#181818" points="1181,645.5195,1191,649.5195,1181,653.5195,1185,649.5195" style="stroke:#181818;stroke-width:1.0;"/><line style="stroke:#181818;stroke-width:1.0;" x1="751.5" x2="1187" y1="649.5195" y2="649.5195"/><text fill="#000000" font-family="sans-serif" font-size="13" lengthAdjust="spacing" textLength="377" x="758.5" y="644.2568">findByJobReference(JobReference.valueOf(jobOpeningReference))</text><polygon fill="#181818" points="762.5,676.8105,752.5,680.8105,762.5,684.8105,758.5,680.8105" style="stroke:#181818;stroke-width:1.0;"/><line style="stroke:#181818;stroke-width:1.0;stroke-dasharray:2.0,2.0;" x1="756.5" x2="1197" y1="680.8105" y2="680.8105"/><text fill="#000000" font-family="sans-serif" font-size="13" lengthAdjust="spacing" textLength="65" x="768.5" y="675.5479">jobOpening</text><polygon fill="#181818" points="429.5,708.1016,419.5,712.1016,429.5,716.1016,425.5,712.1016" style="stroke:#181818;stroke-width:1.0;"/><line style="stroke:#181818;stroke-width:1.0;stroke-dasharray:2.0,2.0;" x1="423.5" x2="745.5" y1="712.1016" y2="712.1016"/><text fill="#000000" font-family="sans-serif" font-size="13" lengthAdjust="spacing" textLength="65" x="435.5" y="706.8389">jobOpening</text><polygon fill="#181818" points="729.5,739.3926,739.5,743.3926,729.5,747.3926,733.5,743.3926" style="stroke:#181818;stroke-width:1.0;"/><line style="stroke:#181818;stroke-width:1.0;stroke-dasharray:2.0,2.0;" x1="418.5" x2="735.5" y1="743.3926" y2="743.3926"/><text fill="#000000" font-family="sans-serif" font-size="13" lengthAdjust="spacing" textLength="176" x="425.5" y="738.1299">getApplicationList(jobOpening)</text><polygon fill="#181818" points="1356.5,770.6836,1366.5,774.6836,1356.5,778.6836,1360.5,774.6836" style="stroke:#181818;stroke-width:1.0;"/><line style="stroke:#181818;stroke-width:1.0;" x1="751.5" x2="1362.5" y1="774.6836" y2="774.6836"/><text fill="#000000" font-family="sans-serif" font-size="13" lengthAdjust="spacing" textLength="268" x="758.5" y="769.4209">findJobApplicationsByJobOpening(jobOpening)</text><polygon fill="#181818" points="762.5,801.9746,752.5,805.9746,762.5,809.9746,758.5,805.9746" style="stroke:#181818;stroke-width:1.0;"/><line style="stroke:#181818;stroke-width:1.0;stroke-dasharray:2.0,2.0;" x1="756.5" x2="1372.5" y1="805.9746" y2="805.9746"/><text fill="#000000" font-family="sans-serif" font-size="13" lengthAdjust="spacing" textLength="102" x="768.5" y="800.7119">jobApplicationList</text><polygon fill="#181818" points="429.5,833.2656,419.5,837.2656,429.5,841.2656,425.5,837.2656" style="stroke:#181818;stroke-width:1.0;"/><line style="stroke:#181818;stroke-width:1.0;stroke-dasharray:2.0,2.0;" x1="423.5" x2="745.5" y1="837.2656" y2="837.2656"/><text fill="#000000" font-family="sans-serif" font-size="13" lengthAdjust="spacing" textLength="102" x="435.5" y="832.0029">jobApplicationList</text><line style="stroke:#181818;stroke-width:1.0;" x1="418.5" x2="465.5" y1="863.5566" y2="863.5566"/><line style="stroke:#181818;stroke-width:1.0;" x1="465.5" x2="465.5" y1="863.5566" y2="876.5566"/><line style="stroke:#181818;stroke-width:1.0;" x1="424.5" x2="465.5" y1="876.5566" y2="876.5566"/><polygon fill="#181818" points="434.5,872.5566,424.5,876.5566,434.5,880.5566,430.5,876.5566" style="stroke:#181818;stroke-width:1.0;"/><text fill="#000000" font-family="sans-serif" font-size="13" lengthAdjust="spacing" textLength="206" x="430.5" y="858.2939">numberOfRankings(jobApplications)</text><polygon fill="#181818" points="1505.5,908.8477,1515.5,912.8477,1505.5,916.8477,1509.5,912.8477" style="stroke:#181818;stroke-width:1.0;"/><line style="stroke:#181818;stroke-width:1.0;" x1="423.5" x2="1511.5" y1="912.8477" y2="912.8477"/><text fill="#000000" font-family="sans-serif" font-size="13" lengthAdjust="spacing" textLength="94" x="430.5" y="907.585">getJobOpening()</text><polygon fill="#181818" points="434.5,940.1387,424.5,944.1387,434.5,948.1387,430.5,944.1387" style="stroke:#181818;stroke-width:1.0;"/><line style="stroke:#181818;stroke-width:1.0;stroke-dasharray:2.0,2.0;" x1="428.5" x2="1521.5" y1="944.1387" y2="944.1387"/><text fill="#000000" font-family="sans-serif" font-size="13" lengthAdjust="spacing" textLength="65" x="440.5" y="938.876">jobOpening</text><polygon fill="#181818" points="1613,971.4297,1623,975.4297,1613,979.4297,1617,975.4297" style="stroke:#181818;stroke-width:1.0;"/><line style="stroke:#181818;stroke-width:1.0;" x1="423.5" x2="1619" y1="975.4297" y2="975.4297"/><text fill="#000000" font-family="sans-serif" font-size="13" lengthAdjust="spacing" textLength="145" x="430.5" y="970.167">getNumberOfVacancies()</text><polygon fill="#181818" points="434.5,1002.7207,424.5,1006.7207,434.5,1010.7207,430.5,1006.7207" style="stroke:#181818;stroke-width:1.0;"/><line style="stroke:#181818;stroke-width:1.0;stroke-dasharray:2.0,2.0;" x1="428.5" x2="1629" y1="1006.7207" y2="1006.7207"/><text fill="#000000" font-family="sans-serif" font-size="13" lengthAdjust="spacing" textLength="64" x="440.5" y="1001.458">vancancies</text><polygon fill="#181818" points="1707.5,1034.0117,1717.5,1038.0117,1707.5,1042.0117,1711.5,1038.0117" style="stroke:#181818;stroke-width:1.0;"/><line style="stroke:#181818;stroke-width:1.0;" x1="423.5" x2="1713.5" y1="1038.0117" y2="1038.0117"/><text fill="#000000" font-family="sans-serif" font-size="13" lengthAdjust="spacing" textLength="145" x="430.5" y="1032.749">getNumberOfVacancies()</text><polygon fill="#181818" points="434.5,1065.3027,424.5,1069.3027,434.5,1073.3027,430.5,1069.3027" style="stroke:#181818;stroke-width:1.0;"/><line style="stroke:#181818;stroke-width:1.0;stroke-dasharray:2.0,2.0;" x1="428.5" x2="1723.5" y1="1069.3027" y2="1069.3027"/><text fill="#000000" font-family="sans-serif" font-size="13" lengthAdjust="spacing" textLength="64" x="440.5" y="1064.04">vancancies</text><line style="stroke:#181818;stroke-width:1.0;stroke-dasharray:2.0,2.0;" x1="423.5" x2="465.5" y1="1119.3848" y2="1119.3848"/><line style="stroke:#181818;stroke-width:1.0;stroke-dasharray:2.0,2.0;" x1="465.5" x2="465.5" y1="1119.3848" y2="1132.3848"/><line style="stroke:#181818;stroke-width:1.0;stroke-dasharray:2.0,2.0;" x1="418.5" x2="465.5" y1="1132.3848" y2="1132.3848"/><polygon fill="#181818" points="428.5,1128.3848,418.5,1132.3848,428.5,1136.3848,424.5,1132.3848" style="stroke:#181818;stroke-width:1.0;"/><text fill="#000000" font-family="sans-serif" font-size="13" lengthAdjust="spacing" textLength="143" x="430.5" y="1114.1221">MULTIPLIER*vancancies</text><path d="M585,1082.3027 L585,1143.3027 L865,1143.3027 L865,1092.3027 L855,1082.3027 L585,1082.3027 " fill="#FEFFDD" style="stroke:#181818;stroke-width:0.5;"/><path d="M855,1082.3027 L855,1092.3027 L865,1092.3027 L855,1082.3027 " fill="#FEFFDD" style="stroke:#181818;stroke-width:0.5;"/><text fill="#000000" font-family="sans-serif" font-size="13" lengthAdjust="spacing" textLength="4" x="591" y="1101.3311">&#160;</text><text fill="#000000" font-family="sans-serif" font-size="13" lengthAdjust="spacing" textLength="259" x="591" y="1118.6221">The multiplier is an arbitrarily chosen number</text><text fill="#000000" font-family="sans-serif" font-size="13" lengthAdjust="spacing" textLength="4" x="591" y="1135.9131">&#160;</text><path d="M10,1156.1758 L727,1156.1758 L727,1165.4668 L717,1175.4668 L10,1175.4668 L10,1156.1758 " fill="#EEEEEE" style="stroke:#000000;stroke-width:1.5;"/><rect fill="none" height="469.6953" style="stroke:#000000;stroke-width:1.5;" width="2108" x="10" y="1156.1758"/><text fill="#000000" font-family="sans-serif" font-size="13" font-weight="bold" lengthAdjust="spacing" textLength="672" x="25" y="1171.2041">repeats for the number calculated through the number of vacancies or (if lesser) the number of candidates</text><path d="M20,1182.4668 L270,1182.4668 L270,1191.7578 L260,1201.7578 L20,1201.7578 L20,1182.4668 " fill="#EEEEEE" style="stroke:#000000;stroke-width:1.5;"/><rect fill="none" height="122.4551" style="stroke:#000000;stroke-width:1.5;" width="901.5" x="20" y="1182.4668"/><text fill="#000000" font-family="sans-serif" font-size="13" font-weight="bold" lengthAdjust="spacing" textLength="205" x="35" y="1197.4951">do while(!verificationSuccessful)</text><polygon fill="#181818" points="109.5,1221.0488,99.5,1225.0488,109.5,1229.0488,105.5,1225.0488" style="stroke:#181818;stroke-width:1.0;"/><line style="stroke:#181818;stroke-width:1.0;stroke-dasharray:2.0,2.0;" x1="103.5" x2="407.5" y1="1225.0488" y2="1225.0488"/><text fill="#000000" font-family="sans-serif" font-size="13" lengthAdjust="spacing" textLength="286" x="115.5" y="1219.7861">asks to select a candidate for the current position</text><polygon fill="#181818" points="396.5,1272.6309,406.5,1276.6309,396.5,1280.6309,400.5,1276.6309" style="stroke:#181818;stroke-width:1.0;"/><line style="stroke:#181818;stroke-width:1.0;" x1="98.5" x2="402.5" y1="1276.6309" y2="1276.6309"/><text fill="#000000" font-family="sans-serif" font-size="13" lengthAdjust="spacing" textLength="113" x="105.5" y="1271.3682">selects a candidate</text><path d="M423,1238.0488 L423,1299.0488 L911,1299.0488 L911,1248.0488 L901,1238.0488 L423,1238.0488 " fill="#FEFFDD" style="stroke:#181818;stroke-width:0.5;"/><path d="M901,1238.0488 L901,1248.0488 L911,1248.0488 L901,1238.0488 " fill="#FEFFDD" style="stroke:#181818;stroke-width:0.5;"/><text fill="#000000" font-family="sans-serif" font-size="13" lengthAdjust="spacing" textLength="4" x="429" y="1257.0771">&#160;</text><text fill="#000000" font-family="sans-serif" font-size="13" lengthAdjust="spacing" textLength="467" x="429" y="1274.3682">loops until a valid candidate is chosen (valid candidates haven't been ranked yet.)</text><text fill="#000000" font-family="sans-serif" font-size="13" lengthAdjust="spacing" textLength="4" x="429" y="1291.6592">&#160;</text><polygon fill="#181818" points="729.5,1331.2129,739.5,1335.2129,729.5,1339.2129,733.5,1335.2129" style="stroke:#181818;stroke-width:1.0;"/><line style="stroke:#181818;stroke-width:1.0;" x1="418.5" x2="735.5" y1="1335.2129" y2="1335.2129"/><text fill="#000000" font-family="sans-serif" font-size="13" lengthAdjust="spacing" textLength="304" x="425.5" y="1329.9502">rankApplication(jobOpening, jobApplication, position)</text><polygon fill="#181818" points="1762,1362.5039,1772,1366.5039,1762,1370.5039,1766,1366.5039" style="stroke:#181818;stroke-width:1.0;"/><line style="stroke:#181818;stroke-width:1.0;" x1="751.5" x2="1768" y1="1366.5039" y2="1366.5039"/><text fill="#000000" font-family="sans-serif" font-size="13" lengthAdjust="spacing" textLength="36" x="758.5" y="1361.2412">create</text><rect fill="#E2E2F0" height="32.6211" rx="2.5" ry="2.5" style="stroke:#181818;stroke-width:0.5;" width="47" x="1774" y="1343.2129"/><text fill="#000000" font-family="sans-serif" font-size="14" lengthAdjust="spacing" textLength="33" x="1781" y="1365.3203">Rank</text><polygon fill="#181818" points="1613,1406.125,1623,1410.125,1613,1414.125,1617,1410.125" style="stroke:#181818;stroke-width:1.0;"/><line style="stroke:#181818;stroke-width:1.0;" x1="751.5" x2="1619" y1="1410.125" y2="1410.125"/><text fill="#000000" font-family="sans-serif" font-size="13" lengthAdjust="spacing" textLength="77" x="758.5" y="1404.8623">getRankList()</text><polygon fill="#181818" points="762.5,1457.707,752.5,1461.707,762.5,1465.707,758.5,1461.707" style="stroke:#181818;stroke-width:1.0;"/><line style="stroke:#181818;stroke-width:1.0;stroke-dasharray:2.0,2.0;" x1="756.5" x2="1629" y1="1461.707" y2="1461.707"/><text fill="#000000" font-family="sans-serif" font-size="13" lengthAdjust="spacing" textLength="46" x="768.5" y="1456.4443">rankList</text><path d="M1640,1423.125 L1640,1484.125 L2103,1484.125 L2103,1433.125 L2093,1423.125 L1640,1423.125 " fill="#FEFFDD" style="stroke:#181818;stroke-width:0.5;"/><path d="M2093,1423.125 L2093,1433.125 L2103,1433.125 L2093,1423.125 " fill="#FEFFDD" style="stroke:#181818;stroke-width:0.5;"/><text fill="#000000" font-family="sans-serif" font-size="13" lengthAdjust="spacing" textLength="4" x="1646" y="1442.1533">&#160;</text><text fill="#000000" font-family="sans-serif" font-size="13" lengthAdjust="spacing" textLength="442" x="1646" y="1459.4443">After obtaining the rankList, the Rank created by the controller is added to it.</text><text fill="#000000" font-family="sans-serif" font-size="13" lengthAdjust="spacing" textLength="4" x="1646" y="1476.7354">&#160;</text><polygon fill="#181818" points="1613,1509.2891,1623,1513.2891,1613,1517.2891,1617,1513.2891" style="stroke:#181818;stroke-width:1.0;"/><line style="stroke:#181818;stroke-width:1.0;" x1="751.5" x2="1619" y1="1513.2891" y2="1513.2891"/><text fill="#000000" font-family="sans-serif" font-size="13" lengthAdjust="spacing" textLength="123" x="758.5" y="1508.0264">setRankList(rankList)</text><polygon fill="#181818" points="762.5,1523.2891,752.5,1527.2891,762.5,1531.2891,758.5,1527.2891" style="stroke:#181818;stroke-width:1.0;"/><line style="stroke:#181818;stroke-width:1.0;stroke-dasharray:2.0,2.0;" x1="756.5" x2="1629" y1="1527.2891" y2="1527.2891"/><polygon fill="#181818" points="1181,1554.5801,1191,1558.5801,1181,1562.5801,1185,1558.5801" style="stroke:#181818;stroke-width:1.0;"/><line style="stroke:#181818;stroke-width:1.0;" x1="751.5" x2="1187" y1="1558.5801" y2="1558.5801"/><text fill="#000000" font-family="sans-serif" font-size="13" lengthAdjust="spacing" textLength="99" x="758.5" y="1553.3174">save(jobOpening)</text><polygon fill="#181818" points="762.5,1568.5801,752.5,1572.5801,762.5,1576.5801,758.5,1572.5801" style="stroke:#181818;stroke-width:1.0;"/><line style="stroke:#181818;stroke-width:1.0;stroke-dasharray:2.0,2.0;" x1="756.5" x2="1197" y1="1572.5801" y2="1572.5801"/><polygon fill="#181818" points="429.5,1582.5801,419.5,1586.5801,429.5,1590.5801,425.5,1586.5801" style="stroke:#181818;stroke-width:1.0;"/><line style="stroke:#181818;stroke-width:1.0;stroke-dasharray:2.0,2.0;" x1="423.5" x2="745.5" y1="1586.5801" y2="1586.5801"/><polygon fill="#181818" points="109.5,1613.8711,99.5,1617.8711,109.5,1621.8711,105.5,1617.8711" style="stroke:#181818;stroke-width:1.0;"/><line style="stroke:#181818;stroke-width:1.0;stroke-dasharray:2.0,2.0;" x1="103.5" x2="412.5" y1="1617.8711" y2="1617.8711"/><text fill="#000000" font-family="sans-serif" font-size="13" lengthAdjust="spacing" textLength="114" x="115.5" y="1612.6084">ranks the candidate</text><!--SRC=[hLTDKzim4BthLsovO3h0b6bFFNI6CXpIWT89f7V5NYS2HN8bEPty-wvasP4T9u4fDolQVVlrTbVXkTC6Jcvgw_GA3TnpnHTeJe3RzfjLt3YHYueh1rEkNcwuAaJ17ThPnClD9WT4RhHoHaj9s2HwypIzcpBcX9C8iqUu-dJr6Iw2Yb0Bo3krK-1L9KNEdT3ACiPp9zPqqJd5uWTSV2C7u2iO_5EZTHQS1aDuu9QO02OGv2_B3VhFw0y144mu459pD_or5AgubhBDL3J_GyyVAbJalCtE4XiHk54c59ApN-gPHNDTk-KZchN8aL0vdL0v7oWM_hg7Cgh5s3XOpmf1Bz3ThhYGUn1J6BWuu29w4COAF0BIyoL9t27zNbXfic9IfrXfAuYYcrY19DyFvQ0MMR0qY7O7ABYy2vzw_Dm9t0dhXgwF84RFMoeUq8-yM1XTLr1e-BiK4hCFQpIYZ6n_hFCShIrh7uhd8C6sP2V2s9T0SOiISmVS6mFTMDjjYaRA3iMK9bUCM2p9EQbrPQ4c3aeIMtCfYbGOX8LygIqgnb0Lu5N3rrX_RBEJFIU9Aj6Wol58V-mh-VSDNNOWMNgu97ThV2X7hRqh4Vw716C4Y7Lj3L6lNc_ddMTD4jAHl2MAO-sINDkGojqA3J8r2XYoDMvgaB518CFCxK7VpTuXdDxS3WggNitHF9HnbTYiZs3F1WkWKUtxqnGYIT7-n0pJSRJkG_NEVXHkRF-CKVpcjBboWJORPt7AtQtfDUaqQdlesfhju5zZjVkLiQtUCPk9KgHwaBwVtJrDVjrDRgSVKyLq7ZtHsbxLqWbA5aqo6ZzS0JTpuGmtGcxYD8e5JuTIOjvNk9cn1YlQvXPAUkRu5q6ZHWy3cTVIBrtwbGGNo_HMbnHN6oefPg84IJCPpTb0B7rWlEDGxs0xl_FQq5Xp43ecC6Z_hE-qZq_whQ5kpaCskBAmv6jKfmxcIDV-SKLfsw2xF3ko4xnemlfav9mFEloy2snasiN7cczjI6PVE6-VQoExfA6tbmiZzPMzb7hVJ9uqYzUbywMVEow2XYzEAtaUJi6lngi2vfkcVDjdi6TqKNZYQH3kSW-3K__68xD9PAq3RudmBUPwYyKI6_PlZpVlsJUkrWFRTDjGFX-s_mzWPpu4lZBs3m00]--></g></svg>