<?xml version="1.0" encoding="us-ascii" standalone="no"?><svg xmlns="http://www.w3.org/2000/svg" xmlns:xlink="http://www.w3.org/1999/xlink" contentStyleType="text/css" height="476px" preserveAspectRatio="none" style="width:426px;height:476px;background:#FFFFFF;" version="1.1" viewBox="0 0 426 476" width="426px" zoomAndPan="magnify"><defs/><g><text fill="#000000" font-family="sans-serif" font-size="14" font-weight="bold" lengthAdjust="spacing" textLength="398" x="10" y="30.1074">US 1006b - Displaying a candidate's data and applications</text><rect fill="#FFFFFF" height="251.3281" style="stroke:#181818;stroke-width:1.0;" width="10" x="90.75" y="133.2422"/><rect fill="#FFFFFF" height="219.0371" style="stroke:#181818;stroke-width:1.0;" width="10" x="351.75" y="156.5332"/><line style="stroke:#181818;stroke-width:0.5;stroke-dasharray:5.0,5.0;" x1="95.25" x2="95.25" y1="123.2422" y2="393.5703"/><line style="stroke:#181818;stroke-width:0.5;stroke-dasharray:5.0,5.0;" x1="356.75" x2="356.75" y1="123.2422" y2="393.5703"/><text fill="#000000" font-family="sans-serif" font-size="14" lengthAdjust="spacing" textLength="121" x="32.25" y="119.7285">Customer Manager</text><ellipse cx="95.75" cy="53.1211" fill="#E2E2F0" rx="8" ry="8" style="stroke:#181818;stroke-width:0.5;"/><path d="M95.75,61.1211 L95.75,88.1211 M82.75,69.1211 L108.75,69.1211 M95.75,88.1211 L82.75,103.1211 M95.75,88.1211 L108.75,103.1211 " fill="none" style="stroke:#181818;stroke-width:0.5;"/><text fill="#000000" font-family="sans-serif" font-size="14" lengthAdjust="spacing" textLength="121" x="32.25" y="407.6777">Customer Manager</text><ellipse cx="95.75" cy="419.6914" fill="#E2E2F0" rx="8" ry="8" style="stroke:#181818;stroke-width:0.5;"/><path d="M95.75,427.6914 L95.75,454.6914 M82.75,435.6914 L108.75,435.6914 M95.75,454.6914 L82.75,469.6914 M95.75,454.6914 L108.75,469.6914 " fill="none" style="stroke:#181818;stroke-width:0.5;"/><rect fill="#E2E2F0" height="32.6211" rx="2.5" ry="2.5" style="stroke:#181818;stroke-width:0.5;" width="60" x="326.75" y="89.6211"/><text fill="#000000" font-family="sans-serif" font-size="14" lengthAdjust="spacing" textLength="46" x="333.75" y="111.7285">System</text><rect fill="#E2E2F0" height="32.6211" rx="2.5" ry="2.5" style="stroke:#181818;stroke-width:0.5;" width="60" x="326.75" y="392.5703"/><text fill="#000000" font-family="sans-serif" font-size="14" lengthAdjust="spacing" textLength="46" x="333.75" y="414.6777">System</text><rect fill="#FFFFFF" height="251.3281" style="stroke:#181818;stroke-width:1.0;" width="10" x="90.75" y="133.2422"/><rect fill="#FFFFFF" height="219.0371" style="stroke:#181818;stroke-width:1.0;" width="10" x="351.75" y="156.5332"/><polygon fill="#181818" points="339.75,152.5332,349.75,156.5332,339.75,160.5332,343.75,156.5332" style="stroke:#181818;stroke-width:1.0;"/><line style="stroke:#181818;stroke-width:1.0;" x1="100.75" x2="345.75" y1="156.5332" y2="156.5332"/><text fill="#000000" font-family="sans-serif" font-size="13" lengthAdjust="spacing" textLength="232" x="107.75" y="151.2705">requests to display a candidate's details</text><polygon fill="#181818" points="111.75,183.8242,101.75,187.8242,111.75,191.8242,107.75,187.8242" style="stroke:#181818;stroke-width:1.0;"/><line style="stroke:#181818;stroke-width:1.0;stroke-dasharray:2.0,2.0;" x1="105.75" x2="350.75" y1="187.8242" y2="187.8242"/><text fill="#000000" font-family="sans-serif" font-size="13" lengthAdjust="spacing" textLength="118" x="117.75" y="182.5615">shows candidate list</text><polygon fill="#181818" points="111.75,215.1152,101.75,219.1152,111.75,223.1152,107.75,219.1152" style="stroke:#181818;stroke-width:1.0;"/><line style="stroke:#181818;stroke-width:1.0;stroke-dasharray:2.0,2.0;" x1="105.75" x2="350.75" y1="219.1152" y2="219.1152"/><text fill="#000000" font-family="sans-serif" font-size="13" lengthAdjust="spacing" textLength="224" x="117.75" y="213.8525">asks to type the candidate's first name</text><polygon fill="#181818" points="339.75,246.4063,349.75,250.4063,339.75,254.4063,343.75,250.4063" style="stroke:#181818;stroke-width:1.0;"/><line style="stroke:#181818;stroke-width:1.0;" x1="100.75" x2="345.75" y1="250.4063" y2="250.4063"/><text fill="#000000" font-family="sans-serif" font-size="13" lengthAdjust="spacing" textLength="108" x="107.75" y="245.1436">provides first name</text><polygon fill="#181818" points="111.75,277.6973,101.75,281.6973,111.75,285.6973,107.75,281.6973" style="stroke:#181818;stroke-width:1.0;"/><line style="stroke:#181818;stroke-width:1.0;stroke-dasharray:2.0,2.0;" x1="105.75" x2="350.75" y1="281.6973" y2="281.6973"/><text fill="#000000" font-family="sans-serif" font-size="13" lengthAdjust="spacing" textLength="224" x="117.75" y="276.4346">asks to type the candidate's last name</text><polygon fill="#181818" points="339.75,308.9883,349.75,312.9883,339.75,316.9883,343.75,312.9883" style="stroke:#181818;stroke-width:1.0;"/><line style="stroke:#181818;stroke-width:1.0;" x1="100.75" x2="345.75" y1="312.9883" y2="312.9883"/><text fill="#000000" font-family="sans-serif" font-size="13" lengthAdjust="spacing" textLength="108" x="107.75" y="307.7256">provides last name</text><polygon fill="#181818" points="111.75,340.2793,101.75,344.2793,111.75,348.2793,107.75,344.2793" style="stroke:#181818;stroke-width:1.0;"/><line style="stroke:#181818;stroke-width:1.0;stroke-dasharray:2.0,2.0;" x1="105.75" x2="350.75" y1="344.2793" y2="344.2793"/><text fill="#000000" font-family="sans-serif" font-size="13" lengthAdjust="spacing" textLength="168" x="117.75" y="339.0166">displays the candidate's data</text><polygon fill="#181818" points="111.75,371.5703,101.75,375.5703,111.75,379.5703,107.75,375.5703" style="stroke:#181818;stroke-width:1.0;"/><line style="stroke:#181818;stroke-width:1.0;stroke-dasharray:2.0,2.0;" x1="105.75" x2="355.75" y1="375.5703" y2="375.5703"/><text fill="#000000" font-family="sans-serif" font-size="13" lengthAdjust="spacing" textLength="212" x="117.75" y="370.3076">displays the candidate's applications</text><!--SRC=[bP6nRiCm34HtVSKXIoO3wT8XGvTsxMHawCXQR49KbXIHIU6_Z-mKQEmCRHSH0e_lY2DrbWfMpoUrr7F1AqNQSrc153lbuZ8LaquoHKCxg74_jjgtrZbdOe6nQ_6msJo-ey6BQ0uqIDo3q57quibuhQY5KF-Wd8DqP9AYLeAZpkHSDLSpDxvedaO-jYXyFB6QmXBy5Rtaif44lU5CcutZJSLCk2tqaBxqPmv1rEv4f9-JaGsPOGUU-Nn8KKEadfSxvfBEudak-Gywq6_a6yK2_1sAta77l1t-B9zVnVCipGi0]--></g></svg>