<?xml version="1.0" encoding="us-ascii" standalone="no"?><svg xmlns="http://www.w3.org/2000/svg" xmlns:xlink="http://www.w3.org/1999/xlink" contentStyleType="text/css" height="641px" preserveAspectRatio="none" style="width:618px;height:641px;background:#FFFFFF;" version="1.1" viewBox="0 0 618 641" width="618px" zoomAndPan="magnify"><defs/><g><text fill="#000000" font-family="sans-serif" font-size="14" font-weight="bold" lengthAdjust="spacing" textLength="273" x="174.25" y="30.1074">US 1017 - Uploading Interview Answers</text><rect fill="#FFFFFF" height="416.3652" style="stroke:#181818;stroke-width:1.0;" width="10" x="78.5" y="133.2422"/><rect fill="#FFFFFF" height="366.7832" style="stroke:#181818;stroke-width:1.0;" width="10" x="320.5" y="173.8242"/><rect fill="none" height="122.4551" style="stroke:#000000;stroke-width:1.5;" width="585.5" x="10" y="188.8242"/><rect fill="none" height="122.4551" style="stroke:#000000;stroke-width:1.5;" width="602.5" x="10" y="325.2793"/><line style="stroke:#181818;stroke-width:0.5;stroke-dasharray:5.0,5.0;" x1="83" x2="83" y1="123.2422" y2="558.6074"/><line style="stroke:#181818;stroke-width:0.5;stroke-dasharray:5.0,5.0;" x1="325.5" x2="325.5" y1="123.2422" y2="558.6074"/><text fill="#000000" font-family="sans-serif" font-size="14" lengthAdjust="spacing" textLength="121" x="20" y="119.7285">Customer Manager</text><ellipse cx="83.5" cy="53.1211" fill="#E2E2F0" rx="8" ry="8" style="stroke:#181818;stroke-width:0.5;"/><path d="M83.5,61.1211 L83.5,88.1211 M70.5,69.1211 L96.5,69.1211 M83.5,88.1211 L70.5,103.1211 M83.5,88.1211 L96.5,103.1211 " fill="none" style="stroke:#181818;stroke-width:0.5;"/><text fill="#000000" font-family="sans-serif" font-size="14" lengthAdjust="spacing" textLength="121" x="20" y="572.7148">Customer Manager</text><ellipse cx="83.5" cy="584.7285" fill="#E2E2F0" rx="8" ry="8" style="stroke:#181818;stroke-width:0.5;"/><path d="M83.5,592.7285 L83.5,619.7285 M70.5,600.7285 L96.5,600.7285 M83.5,619.7285 L70.5,634.7285 M83.5,619.7285 L96.5,634.7285 " fill="none" style="stroke:#181818;stroke-width:0.5;"/><rect fill="#E2E2F0" height="32.6211" rx="2.5" ry="2.5" style="stroke:#181818;stroke-width:0.5;" width="60" x="295.5" y="89.6211"/><text fill="#000000" font-family="sans-serif" font-size="14" lengthAdjust="spacing" textLength="46" x="302.5" y="111.7285">System</text><rect fill="#E2E2F0" height="32.6211" rx="2.5" ry="2.5" style="stroke:#181818;stroke-width:0.5;" width="60" x="295.5" y="557.6074"/><text fill="#000000" font-family="sans-serif" font-size="14" lengthAdjust="spacing" textLength="46" x="302.5" y="579.7148">System</text><rect fill="#FFFFFF" height="416.3652" style="stroke:#181818;stroke-width:1.0;" width="10" x="78.5" y="133.2422"/><rect fill="#FFFFFF" height="366.7832" style="stroke:#181818;stroke-width:1.0;" width="10" x="320.5" y="173.8242"/><polygon fill="#181818" points="308.5,169.8242,318.5,173.8242,308.5,177.8242,312.5,173.8242" style="stroke:#181818;stroke-width:1.0;"/><line style="stroke:#181818;stroke-width:1.0;" x1="88.5" x2="314.5" y1="173.8242" y2="173.8242"/><text fill="#000000" font-family="sans-serif" font-size="13" lengthAdjust="spacing" textLength="213" x="95.5" y="151.2705">requests to upload a text file with the</text><text fill="#000000" font-family="sans-serif" font-size="13" lengthAdjust="spacing" textLength="209" x="99.5" y="168.5615">candidate responses for an interview</text><path d="M10,188.8242 L260,188.8242 L260,198.1152 L250,208.1152 L10,208.1152 L10,188.8242 " fill="#EEEEEE" style="stroke:#000000;stroke-width:1.5;"/><rect fill="none" height="122.4551" style="stroke:#000000;stroke-width:1.5;" width="585.5" x="10" y="188.8242"/><text fill="#000000" font-family="sans-serif" font-size="13" font-weight="bold" lengthAdjust="spacing" textLength="205" x="25" y="203.8525">do while(!verificationSuccessful)</text><polygon fill="#181818" points="99.5,227.4063,89.5,231.4063,99.5,235.4063,95.5,231.4063" style="stroke:#181818;stroke-width:1.0;"/><line style="stroke:#181818;stroke-width:1.0;stroke-dasharray:2.0,2.0;" x1="93.5" x2="319.5" y1="231.4063" y2="231.4063"/><text fill="#000000" font-family="sans-serif" font-size="13" lengthAdjust="spacing" textLength="163" x="105.5" y="226.1436">asks to select a job opening</text><polygon fill="#181818" points="308.5,278.9883,318.5,282.9883,308.5,286.9883,312.5,282.9883" style="stroke:#181818;stroke-width:1.0;"/><line style="stroke:#181818;stroke-width:1.0;" x1="88.5" x2="314.5" y1="282.9883" y2="282.9883"/><text fill="#000000" font-family="sans-serif" font-size="13" lengthAdjust="spacing" textLength="123" x="95.5" y="277.7256">selects a job opening</text><path d="M335,244.4063 L335,305.4063 L585,305.4063 L585,254.4063 L575,244.4063 L335,244.4063 " fill="#FEFFDD" style="stroke:#181818;stroke-width:0.5;"/><path d="M575,244.4063 L575,254.4063 L585,254.4063 L575,244.4063 " fill="#FEFFDD" style="stroke:#181818;stroke-width:0.5;"/><text fill="#000000" font-family="sans-serif" font-size="13" lengthAdjust="spacing" textLength="4" x="341" y="263.4346">&#160;</text><text fill="#000000" font-family="sans-serif" font-size="13" lengthAdjust="spacing" textLength="229" x="341" y="280.7256">loops until a valid job opening is chosen</text><text fill="#000000" font-family="sans-serif" font-size="13" lengthAdjust="spacing" textLength="4" x="341" y="298.0166">&#160;</text><path d="M10,325.2793 L260,325.2793 L260,334.5703 L250,344.5703 L10,344.5703 L10,325.2793 " fill="#EEEEEE" style="stroke:#000000;stroke-width:1.5;"/><rect fill="none" height="122.4551" style="stroke:#000000;stroke-width:1.5;" width="602.5" x="10" y="325.2793"/><text fill="#000000" font-family="sans-serif" font-size="13" font-weight="bold" lengthAdjust="spacing" textLength="205" x="25" y="340.3076">do while(!verificationSuccessful)</text><polygon fill="#181818" points="99.5,363.8613,89.5,367.8613,99.5,371.8613,95.5,367.8613" style="stroke:#181818;stroke-width:1.0;"/><line style="stroke:#181818;stroke-width:1.0;stroke-dasharray:2.0,2.0;" x1="93.5" x2="319.5" y1="367.8613" y2="367.8613"/><text fill="#000000" font-family="sans-serif" font-size="13" lengthAdjust="spacing" textLength="180" x="105.5" y="362.5986">asks to select a job application</text><polygon fill="#181818" points="308.5,415.4434,318.5,419.4434,308.5,423.4434,312.5,419.4434" style="stroke:#181818;stroke-width:1.0;"/><line style="stroke:#181818;stroke-width:1.0;" x1="88.5" x2="314.5" y1="419.4434" y2="419.4434"/><text fill="#000000" font-family="sans-serif" font-size="13" lengthAdjust="spacing" textLength="108" x="95.5" y="414.1807">selects application</text><path d="M335,380.8613 L335,441.8613 L602,441.8613 L602,390.8613 L592,380.8613 L335,380.8613 " fill="#FEFFDD" style="stroke:#181818;stroke-width:0.5;"/><path d="M592,380.8613 L592,390.8613 L602,390.8613 L592,380.8613 " fill="#FEFFDD" style="stroke:#181818;stroke-width:0.5;"/><text fill="#000000" font-family="sans-serif" font-size="13" lengthAdjust="spacing" textLength="4" x="341" y="399.8896">&#160;</text><text fill="#000000" font-family="sans-serif" font-size="13" lengthAdjust="spacing" textLength="246" x="341" y="417.1807">loops until a valid job application is chosen</text><text fill="#000000" font-family="sans-serif" font-size="13" lengthAdjust="spacing" textLength="4" x="341" y="434.4717">&#160;</text><polygon fill="#181818" points="99.5,474.0254,89.5,478.0254,99.5,482.0254,95.5,478.0254" style="stroke:#181818;stroke-width:1.0;"/><line style="stroke:#181818;stroke-width:1.0;stroke-dasharray:2.0,2.0;" x1="93.5" x2="319.5" y1="478.0254" y2="478.0254"/><text fill="#000000" font-family="sans-serif" font-size="13" lengthAdjust="spacing" textLength="190" x="105.5" y="472.7627">asks to select a file for uploading</text><polygon fill="#181818" points="308.5,505.3164,318.5,509.3164,308.5,513.3164,312.5,509.3164" style="stroke:#181818;stroke-width:1.0;"/><line style="stroke:#181818;stroke-width:1.0;" x1="88.5" x2="314.5" y1="509.3164" y2="509.3164"/><text fill="#000000" font-family="sans-serif" font-size="13" lengthAdjust="spacing" textLength="73" x="95.5" y="504.0537">selects a file</text><polygon fill="#181818" points="99.5,536.6074,89.5,540.6074,99.5,544.6074,95.5,540.6074" style="stroke:#181818;stroke-width:1.0;"/><line style="stroke:#181818;stroke-width:1.0;stroke-dasharray:2.0,2.0;" x1="93.5" x2="324.5" y1="540.6074" y2="540.6074"/><text fill="#000000" font-family="sans-serif" font-size="13" lengthAdjust="spacing" textLength="113" x="105.5" y="535.3447">uploads the text file</text><!--SRC=[hLAxJWCn4Epz5KigA2AH2Ya54gAYe3gbGA8nlhtSWhCstlKT_3tsXOWZY4T1OrdopEoCTwpJa61ndKN33XFSMhPRJ0km0Xl1PA9DIewYPONcLHHtzQcvQumnIkeHDWsipbSNi8HDzC6sn5kuOSKq48vmnJ9YaeAsJccmYdjTKqzONbOfM4F2vuoY0XeWJp9WGV55eQCoOoJjGNkyPt2MMsghJaA9WGK5kfB1Cj1XwcpOv7IRGexG1XZxedPwCc2YZfnL2jnavr2ao_xCc6fcMKnDvjObwTFaID2Zq-BeCJn0YCWbut62FKQEGHogKzhsQemF8GfaLl85DbXFxHmC9E3w8CZ68BTGgTFjdmFO6FqxzziGSyXV8im8FyJupTsqwxhCV6ZIzxzSiLyKzpofLVbeZp4jVkh36m00]--></g></svg>