<?xml version="1.0" encoding="us-ascii" standalone="no"?><svg xmlns="http://www.w3.org/2000/svg" xmlns:xlink="http://www.w3.org/1999/xlink" contentStyleType="text/css" height="501px" preserveAspectRatio="none" style="width:406px;height:501px;background:#FFFFFF;" version="1.1" viewBox="0 0 406 501" width="406px" zoomAndPan="magnify"><defs/><g><text fill="#000000" font-family="sans-serif" font-size="14" font-weight="bold" lengthAdjust="spacing" textLength="237" x="83.75" y="30.1074">Generic listing sequence diagram</text><rect fill="#FFFFFF" height="275.9883" style="stroke:#181818;stroke-width:1.0;" width="10" x="19.5" y="133.2422"/><rect fill="#FFFFFF" height="243.6973" style="stroke:#181818;stroke-width:1.0;" width="10" x="145.5" y="156.5332"/><rect fill="#FFFFFF" height="137.4941" style="stroke:#181818;stroke-width:1.0;" width="10" x="248.5" y="231.4453"/><rect fill="#FFFFFF" height="31.291" style="stroke:#181818;stroke-width:1.0;" width="10" x="354.5" y="306.3574"/><line style="stroke:#181818;stroke-width:0.5;stroke-dasharray:5.0,5.0;" x1="24" x2="24" y1="123.2422" y2="418.2305"/><line style="stroke:#181818;stroke-width:0.5;stroke-dasharray:5.0,5.0;" x1="150.5" x2="150.5" y1="123.2422" y2="418.2305"/><line style="stroke:#181818;stroke-width:0.5;stroke-dasharray:5.0,5.0;" x1="253.5" x2="253.5" y1="196.3438" y2="418.2305"/><line style="stroke:#181818;stroke-width:0.5;stroke-dasharray:5.0,5.0;" x1="359.5" x2="359.5" y1="271.2559" y2="418.2305"/><text fill="#000000" font-family="sans-serif" font-size="14" lengthAdjust="spacing" textLength="33" x="5" y="119.7285">Actor</text><ellipse cx="24.5" cy="53.1211" fill="#E2E2F0" rx="8" ry="8" style="stroke:#181818;stroke-width:0.5;"/><path d="M24.5,61.1211 L24.5,88.1211 M11.5,69.1211 L37.5,69.1211 M24.5,88.1211 L11.5,103.1211 M24.5,88.1211 L37.5,103.1211 " fill="none" style="stroke:#181818;stroke-width:0.5;"/><text fill="#000000" font-family="sans-serif" font-size="14" lengthAdjust="spacing" textLength="33" x="5" y="432.3379">Actor</text><ellipse cx="24.5" cy="444.3516" fill="#E2E2F0" rx="8" ry="8" style="stroke:#181818;stroke-width:0.5;"/><path d="M24.5,452.3516 L24.5,479.3516 M11.5,460.3516 L37.5,460.3516 M24.5,479.3516 L11.5,494.3516 M24.5,479.3516 L37.5,494.3516 " fill="none" style="stroke:#181818;stroke-width:0.5;"/><rect fill="#E2E2F0" height="32.6211" rx="2.5" ry="2.5" style="stroke:#181818;stroke-width:0.5;" width="26" x="137.5" y="89.6211"/><text fill="#000000" font-family="sans-serif" font-size="14" lengthAdjust="spacing" textLength="12" x="144.5" y="111.7285">UI</text><rect fill="#E2E2F0" height="32.6211" rx="2.5" ry="2.5" style="stroke:#181818;stroke-width:0.5;" width="26" x="137.5" y="417.2305"/><text fill="#000000" font-family="sans-serif" font-size="14" lengthAdjust="spacing" textLength="12" x="144.5" y="439.3379">UI</text><rect fill="#E2E2F0" height="32.6211" rx="2.5" ry="2.5" style="stroke:#181818;stroke-width:0.5;" width="76" x="215.5" y="417.2305"/><text fill="#000000" font-family="sans-serif" font-size="14" lengthAdjust="spacing" textLength="62" x="222.5" y="439.3379">Controller</text><rect fill="#E2E2F0" height="32.6211" rx="2.5" ry="2.5" style="stroke:#181818;stroke-width:0.5;" width="82" x="318.5" y="417.2305"/><text fill="#000000" font-family="sans-serif" font-size="14" lengthAdjust="spacing" textLength="68" x="325.5" y="439.3379">Repository</text><rect fill="#FFFFFF" height="275.9883" style="stroke:#181818;stroke-width:1.0;" width="10" x="19.5" y="133.2422"/><rect fill="#FFFFFF" height="243.6973" style="stroke:#181818;stroke-width:1.0;" width="10" x="145.5" y="156.5332"/><rect fill="#FFFFFF" height="137.4941" style="stroke:#181818;stroke-width:1.0;" width="10" x="248.5" y="231.4453"/><rect fill="#FFFFFF" height="31.291" style="stroke:#181818;stroke-width:1.0;" width="10" x="354.5" y="306.3574"/><polygon fill="#181818" points="133.5,152.5332,143.5,156.5332,133.5,160.5332,137.5,156.5332" style="stroke:#181818;stroke-width:1.0;"/><line style="stroke:#181818;stroke-width:1.0;" x1="29.5" x2="139.5" y1="156.5332" y2="156.5332"/><text fill="#000000" font-family="sans-serif" font-size="13" lengthAdjust="spacing" textLength="97" x="36.5" y="151.2705">requests to list x</text><polygon fill="#181818" points="203.5,183.8242,213.5,187.8242,203.5,191.8242,207.5,187.8242" style="stroke:#181818;stroke-width:1.0;"/><line style="stroke:#181818;stroke-width:1.0;" x1="155.5" x2="209.5" y1="187.8242" y2="187.8242"/><text fill="#000000" font-family="sans-serif" font-size="13" lengthAdjust="spacing" textLength="36" x="162.5" y="182.5615">create</text><rect fill="#E2E2F0" height="32.6211" rx="2.5" ry="2.5" style="stroke:#181818;stroke-width:0.5;" width="76" x="215.5" y="164.5332"/><text fill="#000000" font-family="sans-serif" font-size="14" lengthAdjust="spacing" textLength="62" x="222.5" y="186.6406">Controller</text><polygon fill="#181818" points="236.5,227.4453,246.5,231.4453,236.5,235.4453,240.5,231.4453" style="stroke:#181818;stroke-width:1.0;"/><line style="stroke:#181818;stroke-width:1.0;" x1="155.5" x2="242.5" y1="231.4453" y2="231.4453"/><text fill="#000000" font-family="sans-serif" font-size="13" lengthAdjust="spacing" textLength="37" x="162.5" y="226.1826">getX();</text><polygon fill="#181818" points="306.5,258.7363,316.5,262.7363,306.5,266.7363,310.5,262.7363" style="stroke:#181818;stroke-width:1.0;"/><line style="stroke:#181818;stroke-width:1.0;" x1="258.5" x2="312.5" y1="262.7363" y2="262.7363"/><text fill="#000000" font-family="sans-serif" font-size="13" lengthAdjust="spacing" textLength="36" x="265.5" y="257.4736">create</text><rect fill="#E2E2F0" height="32.6211" rx="2.5" ry="2.5" style="stroke:#181818;stroke-width:0.5;" width="82" x="318.5" y="239.4453"/><text fill="#000000" font-family="sans-serif" font-size="14" lengthAdjust="spacing" textLength="68" x="325.5" y="261.5527">Repository</text><polygon fill="#181818" points="342.5,302.3574,352.5,306.3574,342.5,310.3574,346.5,306.3574" style="stroke:#181818;stroke-width:1.0;"/><line style="stroke:#181818;stroke-width:1.0;" x1="258.5" x2="348.5" y1="306.3574" y2="306.3574"/><text fill="#000000" font-family="sans-serif" font-size="13" lengthAdjust="spacing" textLength="15" x="265.5" y="301.0947">x()</text><polygon fill="#181818" points="269.5,333.6484,259.5,337.6484,269.5,341.6484,265.5,337.6484" style="stroke:#181818;stroke-width:1.0;"/><line style="stroke:#181818;stroke-width:1.0;stroke-dasharray:2.0,2.0;" x1="263.5" x2="358.5" y1="337.6484" y2="337.6484"/><text fill="#000000" font-family="sans-serif" font-size="13" lengthAdjust="spacing" textLength="7" x="275.5" y="332.3857">x</text><polygon fill="#181818" points="166.5,364.9395,156.5,368.9395,166.5,372.9395,162.5,368.9395" style="stroke:#181818;stroke-width:1.0;"/><line style="stroke:#181818;stroke-width:1.0;stroke-dasharray:2.0,2.0;" x1="160.5" x2="252.5" y1="368.9395" y2="368.9395"/><text fill="#000000" font-family="sans-serif" font-size="13" lengthAdjust="spacing" textLength="7" x="172.5" y="363.6768">x</text><polygon fill="#181818" points="40.5,396.2305,30.5,400.2305,40.5,404.2305,36.5,400.2305" style="stroke:#181818;stroke-width:1.0;"/><line style="stroke:#181818;stroke-width:1.0;stroke-dasharray:2.0,2.0;" x1="34.5" x2="149.5" y1="400.2305" y2="400.2305"/><text fill="#000000" font-family="sans-serif" font-size="13" lengthAdjust="spacing" textLength="58" x="46.5" y="394.9678">shows list</text><!--SRC=[VL1B2W8n3Dtt55dgmWie238BSIi8RaidZ87QZctytTvCHvbKn2xwo_iappgE2JR3RdgRc1prDZ0STjMpYO5Jz1vhr1xxc4cuJsEOs2DiCM0Y1vuoK-WWu-MAmI6qPBjapyPOntIpZ6zJKmvOhCKIbf06VEOC78i6F1H3cZ9Dmk6g6Z925Fhq8pAke7wMEkJZRBvIibfh95Q3ARPeJHLbymVocCsLbTPLiCLtap9rYpzPskeJMet-ZaPGOyPBoATupoNNYZ7aMgqN]--></g></svg>