<?xml version="1.0" encoding="us-ascii" standalone="no"?><svg xmlns="http://www.w3.org/2000/svg" xmlns:xlink="http://www.w3.org/1999/xlink" contentStyleType="text/css" height="480px" preserveAspectRatio="none" style="width:584px;height:480px;background:#FFFFFF;" version="1.1" viewBox="0 0 584 480" width="584px" zoomAndPan="magnify"><defs/><g><text fill="#000000" font-family="sans-serif" font-size="14" font-weight="bold" lengthAdjust="spacing" textLength="449" x="69.25" y="30.1074">US1009 - Selecting a Job Requirement Specifications to be used</text><rect fill="#FFFFFF" height="255.3281" style="stroke:#181818;stroke-width:1.0;" width="10" x="88.5" y="133.2422"/><rect fill="#FFFFFF" height="231.0371" style="stroke:#181818;stroke-width:1.0;" width="10" x="523.5" y="156.5332"/><rect fill="none" height="209.0371" style="stroke:#000000;stroke-width:1.5;" width="568.5" x="10" y="171.5332"/><rect fill="none" height="113.1641" style="stroke:#000000;stroke-width:1.5;" width="548.5" x="20" y="260.4063"/><line style="stroke:#181818;stroke-width:0.5;stroke-dasharray:5.0,5.0;" x1="93" x2="93" y1="123.2422" y2="397.5703"/><line style="stroke:#181818;stroke-width:0.5;stroke-dasharray:5.0,5.0;" x1="528.5" x2="528.5" y1="123.2422" y2="397.5703"/><text fill="#000000" font-family="sans-serif" font-size="14" lengthAdjust="spacing" textLength="121" x="30" y="119.7285">Customer Manager</text><ellipse cx="93.5" cy="53.1211" fill="#E2E2F0" rx="8" ry="8" style="stroke:#181818;stroke-width:0.5;"/><path d="M93.5,61.1211 L93.5,88.1211 M80.5,69.1211 L106.5,69.1211 M93.5,88.1211 L80.5,103.1211 M93.5,88.1211 L106.5,103.1211 " fill="none" style="stroke:#181818;stroke-width:0.5;"/><text fill="#000000" font-family="sans-serif" font-size="14" lengthAdjust="spacing" textLength="121" x="30" y="411.6777">Customer Manager</text><ellipse cx="93.5" cy="423.6914" fill="#E2E2F0" rx="8" ry="8" style="stroke:#181818;stroke-width:0.5;"/><path d="M93.5,431.6914 L93.5,458.6914 M80.5,439.6914 L106.5,439.6914 M93.5,458.6914 L80.5,473.6914 M93.5,458.6914 L106.5,473.6914 " fill="none" style="stroke:#181818;stroke-width:0.5;"/><rect fill="#E2E2F0" height="32.6211" rx="2.5" ry="2.5" style="stroke:#181818;stroke-width:0.5;" width="60" x="498.5" y="89.6211"/><text fill="#000000" font-family="sans-serif" font-size="14" lengthAdjust="spacing" textLength="46" x="505.5" y="111.7285">System</text><rect fill="#E2E2F0" height="32.6211" rx="2.5" ry="2.5" style="stroke:#181818;stroke-width:0.5;" width="60" x="498.5" y="396.5703"/><text fill="#000000" font-family="sans-serif" font-size="14" lengthAdjust="spacing" textLength="46" x="505.5" y="418.6777">System</text><rect fill="#FFFFFF" height="255.3281" style="stroke:#181818;stroke-width:1.0;" width="10" x="88.5" y="133.2422"/><rect fill="#FFFFFF" height="231.0371" style="stroke:#181818;stroke-width:1.0;" width="10" x="523.5" y="156.5332"/><polygon fill="#181818" points="511.5,152.5332,521.5,156.5332,511.5,160.5332,515.5,156.5332" style="stroke:#181818;stroke-width:1.0;"/><line style="stroke:#181818;stroke-width:1.0;" x1="98.5" x2="517.5" y1="156.5332" y2="156.5332"/><text fill="#000000" font-family="sans-serif" font-size="13" lengthAdjust="spacing" textLength="406" x="105.5" y="151.2705">requests to select a Job Requirement Specifications for a Job Opening</text><path d="M10,171.5332 L71,171.5332 L71,180.8242 L61,190.8242 L10,190.8242 L10,171.5332 " fill="#EEEEEE" style="stroke:#000000;stroke-width:1.5;"/><rect fill="none" height="209.0371" style="stroke:#000000;stroke-width:1.5;" width="568.5" x="10" y="171.5332"/><text fill="#000000" font-family="sans-serif" font-size="13" font-weight="bold" lengthAdjust="spacing" textLength="16" x="25" y="186.5615">alt</text><text fill="#000000" font-family="sans-serif" font-size="11" font-weight="bold" lengthAdjust="spacing" textLength="313" x="86" y="185.4033">[if they have any job openings without job requirements]</text><polygon fill="#181818" points="109.5,210.1152,99.5,214.1152,109.5,218.1152,105.5,214.1152" style="stroke:#181818;stroke-width:1.0;"/><line style="stroke:#181818;stroke-width:1.0;stroke-dasharray:2.0,2.0;" x1="103.5" x2="522.5" y1="214.1152" y2="214.1152"/><text fill="#000000" font-family="sans-serif" font-size="13" lengthAdjust="spacing" textLength="246" x="115.5" y="208.8525">lists job openings without job requirements</text><polygon fill="#181818" points="511.5,241.4063,521.5,245.4063,511.5,249.4063,515.5,245.4063" style="stroke:#181818;stroke-width:1.0;"/><line style="stroke:#181818;stroke-width:1.0;" x1="98.5" x2="517.5" y1="245.4063" y2="245.4063"/><text fill="#000000" font-family="sans-serif" font-size="13" lengthAdjust="spacing" textLength="56" x="105.5" y="240.1436">picks one</text><path d="M20,260.4063 L81,260.4063 L81,269.6973 L71,279.6973 L20,279.6973 L20,260.4063 " fill="#EEEEEE" style="stroke:#000000;stroke-width:1.5;"/><rect fill="none" height="113.1641" style="stroke:#000000;stroke-width:1.5;" width="548.5" x="20" y="260.4063"/><text fill="#000000" font-family="sans-serif" font-size="13" font-weight="bold" lengthAdjust="spacing" textLength="16" x="35" y="275.4346">alt</text><text fill="#000000" font-family="sans-serif" font-size="11" font-weight="bold" lengthAdjust="spacing" textLength="332" x="96" y="274.2764">[if there are any job requirements registered in the system]</text><polygon fill="#181818" points="109.5,298.9883,99.5,302.9883,109.5,306.9883,105.5,302.9883" style="stroke:#181818;stroke-width:1.0;"/><line style="stroke:#181818;stroke-width:1.0;stroke-dasharray:2.0,2.0;" x1="103.5" x2="522.5" y1="302.9883" y2="302.9883"/><text fill="#000000" font-family="sans-serif" font-size="13" lengthAdjust="spacing" textLength="207" x="115.5" y="297.7256">lists job requirements specifications</text><polygon fill="#181818" points="511.5,330.2793,521.5,334.2793,511.5,338.2793,515.5,334.2793" style="stroke:#181818;stroke-width:1.0;"/><line style="stroke:#181818;stroke-width:1.0;" x1="98.5" x2="517.5" y1="334.2793" y2="334.2793"/><text fill="#000000" font-family="sans-serif" font-size="13" lengthAdjust="spacing" textLength="56" x="105.5" y="329.0166">picks one</text><polygon fill="#181818" points="109.5,361.5703,99.5,365.5703,109.5,369.5703,105.5,365.5703" style="stroke:#181818;stroke-width:1.0;"/><line style="stroke:#181818;stroke-width:1.0;stroke-dasharray:2.0,2.0;" x1="103.5" x2="522.5" y1="365.5703" y2="365.5703"/><text fill="#000000" font-family="sans-serif" font-size="13" lengthAdjust="spacing" textLength="195" x="115.5" y="360.3076">informs user of operation success</text><!--SRC=[ZPBBJWCn34Nt-OghxYkL9LsmOOU4a1Zn0MxgQGqpoH1xYlhtU1wY3oJeAebbttjiXwBbWiLZhvPRBdYcH3ik2v0Ypi5sYeMEYacKZf9XKHtLk1tpfci89jOmtggxrUeUIrJSS3H9En2UyWQl_DbBuPQzlEeuIYsHJ79IMCQ6qIjlGo2lEP3nB_jm5S3oORR66iN5MMsKqj7uVzVQEv-INZfE3dhodbkYnY0rRCz7xEd0e7J4knVagK3n9RRFlOt1ShBI46QqfLDUWw_HoC1wcz9VRNSIFnGvSJXZBSvPJgpdOlxOkRMdR25fI8REsxkHzq9DBmOQRaNzqqgIxwNLuJSKv7eOK1dreNsCh6x3oUdhdtFBrtiBuHi0]--></g></svg>