<?xml version="1.0" encoding="us-ascii" standalone="no"?><svg xmlns="http://www.w3.org/2000/svg" xmlns:xlink="http://www.w3.org/1999/xlink" contentStyleType="text/css" height="858px" preserveAspectRatio="none" style="width:865px;height:858px;background:#FFFFFF;" version="1.1" viewBox="0 0 865 858" width="865px" zoomAndPan="magnify"><defs/><g><text fill="#000000" font-family="sans-serif" font-size="14" font-weight="bold" lengthAdjust="spacing" textLength="342" x="260.75" y="30.1074">US 1000b - Toggling user status in the backoffice</text><rect fill="#FFFFFF" height="633.6074" style="stroke:#181818;stroke-width:1.0;" width="10" x="37.5" y="133.2422"/><rect fill="#FFFFFF" height="601.3164" style="stroke:#181818;stroke-width:1.0;" width="10" x="259.5" y="156.5332"/><rect fill="#FFFFFF" height="49.291" style="stroke:#181818;stroke-width:1.0;" width="10" x="473.5" y="371.9004"/><rect fill="#FFFFFF" height="282.0762" style="stroke:#181818;stroke-width:1.0;" width="10" x="473.5" y="444.4824"/><rect fill="#FFFFFF" height="115.582" style="stroke:#181818;stroke-width:1.0;" width="10" x="478.5" y="589.9766"/><rect fill="#FFFFFF" height="31.291" style="stroke:#181818;stroke-width:1.0;" width="10" x="678.5" y="519.3945"/><rect fill="#FFFFFF" height="14" style="stroke:#181818;stroke-width:1.0;" width="10" x="678.5" y="671.5586"/><rect fill="#FFFFFF" height="14" style="stroke:#181818;stroke-width:1.0;" width="10" x="810.5" y="626.2676"/><rect fill="none" height="136.4551" style="stroke:#000000;stroke-width:1.5;" width="587" x="10" y="277.7363"/><line style="stroke:#181818;stroke-width:0.5;stroke-dasharray:5.0,5.0;" x1="42" x2="42" y1="123.2422" y2="775.8496"/><line style="stroke:#181818;stroke-width:0.5;stroke-dasharray:5.0,5.0;" x1="264" x2="264" y1="123.2422" y2="775.8496"/><line style="stroke:#181818;stroke-width:0.5;stroke-dasharray:5.0,5.0;" x1="478" x2="478" y1="196.3438" y2="775.8496"/><line style="stroke:#181818;stroke-width:0.5;stroke-dasharray:5.0,5.0;" x1="683.5" x2="683.5" y1="484.293" y2="775.8496"/><line style="stroke:#181818;stroke-width:0.5;stroke-dasharray:5.0,5.0;" x1="815.5" x2="815.5" y1="123.2422" y2="775.8496"/><text fill="#000000" font-family="sans-serif" font-size="14" lengthAdjust="spacing" textLength="39" x="20" y="119.7285">Admin</text><ellipse cx="42.5" cy="53.1211" fill="#E2E2F0" rx="8" ry="8" style="stroke:#181818;stroke-width:0.5;"/><path d="M42.5,61.1211 L42.5,88.1211 M29.5,69.1211 L55.5,69.1211 M42.5,88.1211 L29.5,103.1211 M42.5,88.1211 L55.5,103.1211 " fill="none" style="stroke:#181818;stroke-width:0.5;"/><text fill="#000000" font-family="sans-serif" font-size="14" lengthAdjust="spacing" textLength="39" x="20" y="789.957">Admin</text><ellipse cx="42.5" cy="801.9707" fill="#E2E2F0" rx="8" ry="8" style="stroke:#181818;stroke-width:0.5;"/><path d="M42.5,809.9707 L42.5,836.9707 M29.5,817.9707 L55.5,817.9707 M42.5,836.9707 L29.5,851.9707 M42.5,836.9707 L55.5,851.9707 " fill="none" style="stroke:#181818;stroke-width:0.5;"/><rect fill="#E2E2F0" height="32.6211" rx="2.5" ry="2.5" style="stroke:#181818;stroke-width:0.5;" width="167" x="181" y="89.6211"/><text fill="#000000" font-family="sans-serif" font-size="14" lengthAdjust="spacing" textLength="153" x="188" y="111.7285">DisableBackofficeUserUI</text><rect fill="#E2E2F0" height="32.6211" rx="2.5" ry="2.5" style="stroke:#181818;stroke-width:0.5;" width="167" x="181" y="774.8496"/><text fill="#000000" font-family="sans-serif" font-size="14" lengthAdjust="spacing" textLength="153" x="188" y="796.957">DisableBackofficeUserUI</text><rect fill="#E2E2F0" height="32.6211" rx="2.5" ry="2.5" style="stroke:#181818;stroke-width:0.5;" width="217" x="370" y="774.8496"/><text fill="#000000" font-family="sans-serif" font-size="14" lengthAdjust="spacing" textLength="203" x="377" y="796.957">DisableBackofficeUserController</text><rect fill="#E2E2F0" height="32.6211" rx="2.5" ry="2.5" style="stroke:#181818;stroke-width:0.5;" width="156" x="605.5" y="774.8496"/><text fill="#000000" font-family="sans-serif" font-size="14" lengthAdjust="spacing" textLength="142" x="612.5" y="796.957">Jobs4uUserRepository</text><rect fill="#E2E2F0" height="32.6211" rx="2.5" ry="2.5" style="stroke:#181818;stroke-width:0.5;" width="88" x="771.5" y="89.6211"/><text fill="#000000" font-family="sans-serif" font-size="14" lengthAdjust="spacing" textLength="74" x="778.5" y="111.7285">Jobs4uUser</text><rect fill="#E2E2F0" height="32.6211" rx="2.5" ry="2.5" style="stroke:#181818;stroke-width:0.5;" width="88" x="771.5" y="774.8496"/><text fill="#000000" font-family="sans-serif" font-size="14" lengthAdjust="spacing" textLength="74" x="778.5" y="796.957">Jobs4uUser</text><rect fill="#FFFFFF" height="633.6074" style="stroke:#181818;stroke-width:1.0;" width="10" x="37.5" y="133.2422"/><rect fill="#FFFFFF" height="601.3164" style="stroke:#181818;stroke-width:1.0;" width="10" x="259.5" y="156.5332"/><rect fill="#FFFFFF" height="49.291" style="stroke:#181818;stroke-width:1.0;" width="10" x="473.5" y="371.9004"/><rect fill="#FFFFFF" height="282.0762" style="stroke:#181818;stroke-width:1.0;" width="10" x="473.5" y="444.4824"/><rect fill="#FFFFFF" height="115.582" style="stroke:#181818;stroke-width:1.0;" width="10" x="478.5" y="589.9766"/><rect fill="#FFFFFF" height="31.291" style="stroke:#181818;stroke-width:1.0;" width="10" x="678.5" y="519.3945"/><rect fill="#FFFFFF" height="14" style="stroke:#181818;stroke-width:1.0;" width="10" x="678.5" y="671.5586"/><rect fill="#FFFFFF" height="14" style="stroke:#181818;stroke-width:1.0;" width="10" x="810.5" y="626.2676"/><polygon fill="#181818" points="247.5,152.5332,257.5,156.5332,247.5,160.5332,251.5,156.5332" style="stroke:#181818;stroke-width:1.0;"/><line style="stroke:#181818;stroke-width:1.0;" x1="47.5" x2="253.5" y1="156.5332" y2="156.5332"/><text fill="#000000" font-family="sans-serif" font-size="13" lengthAdjust="spacing" textLength="193" x="54.5" y="151.2705">requests to toggle a user's status</text><polygon fill="#181818" points="358,183.8242,368,187.8242,358,191.8242,362,187.8242" style="stroke:#181818;stroke-width:1.0;"/><line style="stroke:#181818;stroke-width:1.0;" x1="269.5" x2="364" y1="187.8242" y2="187.8242"/><text fill="#000000" font-family="sans-serif" font-size="13" lengthAdjust="spacing" textLength="36" x="276.5" y="182.5615">create</text><rect fill="#E2E2F0" height="32.6211" rx="2.5" ry="2.5" style="stroke:#181818;stroke-width:0.5;" width="217" x="370" y="164.5332"/><text fill="#000000" font-family="sans-serif" font-size="14" lengthAdjust="spacing" textLength="203" x="377" y="186.6406">DisableBackofficeUserController</text><polygon fill="#181818" points="58.5,227.4453,48.5,231.4453,58.5,235.4453,54.5,231.4453" style="stroke:#181818;stroke-width:1.0;"/><line style="stroke:#181818;stroke-width:1.0;stroke-dasharray:2.0,2.0;" x1="52.5" x2="258.5" y1="231.4453" y2="231.4453"/><text fill="#000000" font-family="sans-serif" font-size="13" lengthAdjust="spacing" textLength="135" x="64.5" y="226.1826">shows backoffice users</text><polygon fill="#181818" points="58.5,258.7363,48.5,262.7363,58.5,266.7363,54.5,262.7363" style="stroke:#181818;stroke-width:1.0;"/><line style="stroke:#181818;stroke-width:1.0;stroke-dasharray:2.0,2.0;" x1="52.5" x2="258.5" y1="262.7363" y2="262.7363"/><text fill="#000000" font-family="sans-serif" font-size="13" lengthAdjust="spacing" textLength="141" x="64.5" y="257.4736">asks for the user's email</text><path d="M10,277.7363 L278,277.7363 L278,287.0273 L268,297.0273 L10,297.0273 L10,277.7363 " fill="#EEEEEE" style="stroke:#000000;stroke-width:1.5;"/><rect fill="none" height="136.4551" style="stroke:#000000;stroke-width:1.5;" width="587" x="10" y="277.7363"/><text fill="#000000" font-family="sans-serif" font-size="13" font-weight="bold" lengthAdjust="spacing" textLength="223" x="25" y="292.7646">do while (!verificationUnsuccessful)</text><polygon fill="#181818" points="247.5,316.3184,257.5,320.3184,247.5,324.3184,251.5,320.3184" style="stroke:#181818;stroke-width:1.0;"/><line style="stroke:#181818;stroke-width:1.0;" x1="47.5" x2="253.5" y1="320.3184" y2="320.3184"/><text fill="#000000" font-family="sans-serif" font-size="13" lengthAdjust="spacing" textLength="104" x="54.5" y="315.0557">provides the email</text><polygon fill="#181818" points="461.5,367.9004,471.5,371.9004,461.5,375.9004,465.5,371.9004" style="stroke:#181818;stroke-width:1.0;"/><line style="stroke:#181818;stroke-width:1.0;" x1="269.5" x2="467.5" y1="371.9004" y2="371.9004"/><text fill="#000000" font-family="sans-serif" font-size="13" lengthAdjust="spacing" textLength="146" x="276.5" y="366.6377">emailIsSatisfiedBy(email)</text><path d="M126,333.3184 L126,394.3184 L254,394.3184 L254,343.3184 L244,333.3184 L126,333.3184 " fill="#FEFFDD" style="stroke:#181818;stroke-width:0.5;"/><path d="M244,333.3184 L244,343.3184 L254,343.3184 L244,333.3184 " fill="#FEFFDD" style="stroke:#181818;stroke-width:0.5;"/><text fill="#000000" font-family="sans-serif" font-size="13" lengthAdjust="spacing" textLength="4" x="132" y="352.3467">&#160;</text><text fill="#000000" font-family="sans-serif" font-size="13" lengthAdjust="spacing" textLength="107" x="132" y="369.6377">validates the email</text><text fill="#000000" font-family="sans-serif" font-size="13" lengthAdjust="spacing" textLength="4" x="132" y="386.9287">&#160;</text><polygon fill="#181818" points="280.5,402.1914,270.5,406.1914,280.5,410.1914,276.5,406.1914" style="stroke:#181818;stroke-width:1.0;"/><line style="stroke:#181818;stroke-width:1.0;stroke-dasharray:2.0,2.0;" x1="274.5" x2="472.5" y1="406.1914" y2="406.1914"/><polygon fill="#181818" points="461.5,440.4824,471.5,444.4824,461.5,448.4824,465.5,444.4824" style="stroke:#181818;stroke-width:1.0;"/><line style="stroke:#181818;stroke-width:1.0;" x1="269.5" x2="467.5" y1="444.4824" y2="444.4824"/><text fill="#000000" font-family="sans-serif" font-size="13" lengthAdjust="spacing" textLength="185" x="276.5" y="439.2197">findUserAndToggleStatus(email)</text><polygon fill="#181818" points="593.5,471.7734,603.5,475.7734,593.5,479.7734,597.5,475.7734" style="stroke:#181818;stroke-width:1.0;"/><line style="stroke:#181818;stroke-width:1.0;" x1="483.5" x2="599.5" y1="475.7734" y2="475.7734"/><text fill="#000000" font-family="sans-serif" font-size="13" lengthAdjust="spacing" textLength="36" x="490.5" y="470.5107">create</text><rect fill="#E2E2F0" height="32.6211" rx="2.5" ry="2.5" style="stroke:#181818;stroke-width:0.5;" width="156" x="605.5" y="452.4824"/><text fill="#000000" font-family="sans-serif" font-size="14" lengthAdjust="spacing" textLength="142" x="612.5" y="474.5898">Jobs4uUserRepository</text><polygon fill="#181818" points="666.5,515.3945,676.5,519.3945,666.5,523.3945,670.5,519.3945" style="stroke:#181818;stroke-width:1.0;"/><line style="stroke:#181818;stroke-width:1.0;" x1="483.5" x2="672.5" y1="519.3945" y2="519.3945"/><text fill="#000000" font-family="sans-serif" font-size="13" lengthAdjust="spacing" textLength="176" x="490.5" y="514.1318">findJobs4uUserByEmail(email)</text><polygon fill="#181818" points="494.5,546.6855,484.5,550.6855,494.5,554.6855,490.5,550.6855" style="stroke:#181818;stroke-width:1.0;"/><line style="stroke:#181818;stroke-width:1.0;stroke-dasharray:2.0,2.0;" x1="488.5" x2="682.5" y1="550.6855" y2="550.6855"/><text fill="#000000" font-family="sans-serif" font-size="13" lengthAdjust="spacing" textLength="25" x="500.5" y="545.4229">user</text><line style="stroke:#181818;stroke-width:1.0;" x1="483.5" x2="530.5" y1="576.9766" y2="576.9766"/><line style="stroke:#181818;stroke-width:1.0;" x1="530.5" x2="530.5" y1="576.9766" y2="589.9766"/><line style="stroke:#181818;stroke-width:1.0;" x1="489.5" x2="530.5" y1="589.9766" y2="589.9766"/><polygon fill="#181818" points="499.5,585.9766,489.5,589.9766,499.5,593.9766,495.5,589.9766" style="stroke:#181818;stroke-width:1.0;"/><text fill="#000000" font-family="sans-serif" font-size="13" lengthAdjust="spacing" textLength="133" x="495.5" y="571.7139">toggleUserStatus(user)</text><polygon fill="#181818" points="798.5,622.2676,808.5,626.2676,798.5,630.2676,802.5,626.2676" style="stroke:#181818;stroke-width:1.0;"/><line style="stroke:#181818;stroke-width:1.0;" x1="488.5" x2="804.5" y1="626.2676" y2="626.2676"/><text fill="#000000" font-family="sans-serif" font-size="13" lengthAdjust="spacing" textLength="81" x="495.5" y="621.0049">toggleStatus()</text><polygon fill="#181818" points="499.5,636.2676,489.5,640.2676,499.5,644.2676,495.5,640.2676" style="stroke:#181818;stroke-width:1.0;"/><line style="stroke:#181818;stroke-width:1.0;stroke-dasharray:2.0,2.0;" x1="493.5" x2="814.5" y1="640.2676" y2="640.2676"/><polygon fill="#181818" points="666.5,667.5586,676.5,671.5586,666.5,675.5586,670.5,671.5586" style="stroke:#181818;stroke-width:1.0;"/><line style="stroke:#181818;stroke-width:1.0;" x1="488.5" x2="672.5" y1="671.5586" y2="671.5586"/><text fill="#000000" font-family="sans-serif" font-size="13" lengthAdjust="spacing" textLength="59" x="495.5" y="666.2959">save(user)</text><polygon fill="#181818" points="499.5,681.5586,489.5,685.5586,499.5,689.5586,495.5,685.5586" style="stroke:#181818;stroke-width:1.0;"/><line style="stroke:#181818;stroke-width:1.0;stroke-dasharray:2.0,2.0;" x1="493.5" x2="682.5" y1="685.5586" y2="685.5586"/><line style="stroke:#181818;stroke-width:1.0;stroke-dasharray:2.0,2.0;" x1="488.5" x2="530.5" y1="704.5586" y2="704.5586"/><line style="stroke:#181818;stroke-width:1.0;stroke-dasharray:2.0,2.0;" x1="530.5" x2="530.5" y1="704.5586" y2="717.5586"/><line style="stroke:#181818;stroke-width:1.0;stroke-dasharray:2.0,2.0;" x1="483.5" x2="530.5" y1="717.5586" y2="717.5586"/><polygon fill="#181818" points="493.5,713.5586,483.5,717.5586,493.5,721.5586,489.5,717.5586" style="stroke:#181818;stroke-width:1.0;"/><polygon fill="#181818" points="280.5,722.5586,270.5,726.5586,280.5,730.5586,276.5,726.5586" style="stroke:#181818;stroke-width:1.0;"/><line style="stroke:#181818;stroke-width:1.0;stroke-dasharray:2.0,2.0;" x1="274.5" x2="477.5" y1="726.5586" y2="726.5586"/><polygon fill="#181818" points="58.5,753.8496,48.5,757.8496,58.5,761.8496,54.5,757.8496" style="stroke:#181818;stroke-width:1.0;"/><line style="stroke:#181818;stroke-width:1.0;stroke-dasharray:2.0,2.0;" x1="52.5" x2="263.5" y1="757.8496" y2="757.8496"/><text fill="#000000" font-family="sans-serif" font-size="13" lengthAdjust="spacing" textLength="142" x="64.5" y="752.5869">toggles the user's status</text><!--SRC=[XLD1RkCm3Bph5UofxI505jXJ3m6IjeSizfJK3r0iEX6gIguekyZlIqbEAYSk0XYmHG-7CnGfw-0yBDM7jY09bl4eMkc3hdKhRO0NJN9dS2NhTzSqkiQAq5Vh2AxMjv7FpWRlZ44VCvxVDlytewH_RaT_kuZSOEj8S_bZHFwSVe4d0VmM8kXW4Aej_9dFvpkOmPlRxussU-WYZe8C7G7x2mU4tLcT4B8EkfS11zSYlM2sO6Fm11u_EwH041m_p8WW4-Cz3Pm50xT2r1xZP_Oec8EPqe79yhySvN2kz0HqS5zKQ4hyT0MJz4xGy6TqC4Z03wcD47llkXQKWw-3PeKFTprwpLGoQ6ShIrrT8r7JcSTBVwrtlLP8YNHW6ujEmJLjcOiQZMfrV4WXfhAEdHfiWX2zD5gnkH4HMWKHKxHew4icdoKL2IU4malGM4UZhOfNlRGgNIrkK_lFOYwpXuieHkXKTL44YrkP_XlB_ipRwlWQorqNBSiK-RF2G9VcjB0vAUs4piCMQmu-O_hZhvrSf3Kuvmqv9JwlIKATLOtaPC1q5qZsUANWbkTRPYTnamCoFHl5RcJNLAx6QJjBXqmblW40]--></g></svg>