<?xml version="1.0" encoding="us-ascii" standalone="no"?><svg xmlns="http://www.w3.org/2000/svg" xmlns:xlink="http://www.w3.org/1999/xlink" contentStyleType="text/css" height="1168px" preserveAspectRatio="none" style="width:1614px;height:1168px;background:#FFFFFF;" version="1.1" viewBox="0 0 1614 1168" width="1614px" zoomAndPan="magnify"><defs/><g><text fill="#000000" font-family="sans-serif" font-size="14" font-weight="bold" lengthAdjust="spacing" textLength="323" x="647" y="30.1074">US 1000a - Registering users in the backoffice</text><rect fill="#FFFFFF" height="943.459" style="stroke:#181818;stroke-width:1.0;" width="10" x="37.5" y="133.2422"/><rect fill="#FFFFFF" height="904.168" style="stroke:#181818;stroke-width:1.0;" width="10" x="218.5" y="156.5332"/><rect fill="#FFFFFF" height="406.8906" style="stroke:#181818;stroke-width:1.0;" width="10" x="513.5" y="622.5195"/><rect fill="#FFFFFF" height="297.6875" style="stroke:#181818;stroke-width:1.0;" width="10" x="989.5" y="717.7227"/><rect fill="#FFFFFF" height="14" style="stroke:#181818;stroke-width:1.0;" width="10" x="1515" y="987.4102"/><rect fill="none" height="122.4551" style="stroke:#000000;stroke-width:1.5;" width="438.5" x="10" y="215.1543"/><rect fill="none" height="654.5098" style="stroke:#000000;stroke-width:1.5;" width="1598" x="10" y="414.1914"/><line style="stroke:#181818;stroke-width:0.5;stroke-dasharray:5.0,5.0;" x1="42" x2="42" y1="123.2422" y2="1085.7012"/><line style="stroke:#181818;stroke-width:0.5;stroke-dasharray:5.0,5.0;" x1="223" x2="223" y1="123.2422" y2="1085.7012"/><line style="stroke:#181818;stroke-width:0.5;stroke-dasharray:5.0,5.0;" x1="518" x2="518" y1="196.3438" y2="1085.7012"/><line style="stroke:#181818;stroke-width:0.5;stroke-dasharray:5.0,5.0;" x1="994" x2="994" y1="662.3301" y2="1085.7012"/><line style="stroke:#181818;stroke-width:0.5;stroke-dasharray:5.0,5.0;" x1="1152" x2="1152" y1="777.8242" y2="1085.7012"/><line style="stroke:#181818;stroke-width:0.5;stroke-dasharray:5.0,5.0;" x1="1238" x2="1238" y1="821.4453" y2="1085.7012"/><line style="stroke:#181818;stroke-width:0.5;stroke-dasharray:5.0,5.0;" x1="1310" x2="1310" y1="865.0664" y2="1085.7012"/><line style="stroke:#181818;stroke-width:0.5;stroke-dasharray:5.0,5.0;" x1="1388" x2="1388" y1="908.6875" y2="1085.7012"/><line style="stroke:#181818;stroke-width:0.5;stroke-dasharray:5.0,5.0;" x1="1520" x2="1520" y1="952.3086" y2="1085.7012"/><text fill="#000000" font-family="sans-serif" font-size="14" lengthAdjust="spacing" textLength="39" x="20" y="119.7285">Admin</text><ellipse cx="42.5" cy="53.1211" fill="#E2E2F0" rx="8" ry="8" style="stroke:#181818;stroke-width:0.5;"/><path d="M42.5,61.1211 L42.5,88.1211 M29.5,69.1211 L55.5,69.1211 M42.5,88.1211 L29.5,103.1211 M42.5,88.1211 L55.5,103.1211 " fill="none" style="stroke:#181818;stroke-width:0.5;"/><text fill="#000000" font-family="sans-serif" font-size="14" lengthAdjust="spacing" textLength="39" x="20" y="1099.8086">Admin</text><ellipse cx="42.5" cy="1111.8223" fill="#E2E2F0" rx="8" ry="8" style="stroke:#181818;stroke-width:0.5;"/><path d="M42.5,1119.8223 L42.5,1146.8223 M29.5,1127.8223 L55.5,1127.8223 M42.5,1146.8223 L29.5,1161.8223 M42.5,1146.8223 L55.5,1161.8223 " fill="none" style="stroke:#181818;stroke-width:0.5;"/><rect fill="#E2E2F0" height="32.6211" rx="2.5" ry="2.5" style="stroke:#181818;stroke-width:0.5;" width="173" x="137" y="89.6211"/><text fill="#000000" font-family="sans-serif" font-size="14" lengthAdjust="spacing" textLength="159" x="144" y="111.7285">RegisterBackofficeUserUI</text><rect fill="#E2E2F0" height="32.6211" rx="2.5" ry="2.5" style="stroke:#181818;stroke-width:0.5;" width="173" x="137" y="1084.7012"/><text fill="#000000" font-family="sans-serif" font-size="14" lengthAdjust="spacing" textLength="159" x="144" y="1106.8086">RegisterBackofficeUserUI</text><rect fill="#E2E2F0" height="32.6211" rx="2.5" ry="2.5" style="stroke:#181818;stroke-width:0.5;" width="223" x="407" y="1084.7012"/><text fill="#000000" font-family="sans-serif" font-size="14" lengthAdjust="spacing" textLength="209" x="414" y="1106.8086">RegisterBackofficeUserController</text><rect fill="#E2E2F0" height="32.6211" rx="2.5" ry="2.5" style="stroke:#181818;stroke-width:0.5;" width="217" x="886" y="1084.7012"/><text fill="#000000" font-family="sans-serif" font-size="14" lengthAdjust="spacing" textLength="203" x="893" y="1106.8086">Jobs4uUserManagementService</text><rect fill="#E2E2F0" height="32.6211" rx="2.5" ry="2.5" style="stroke:#181818;stroke-width:0.5;" width="78" x="1113" y="1084.7012"/><text fill="#000000" font-family="sans-serif" font-size="14" lengthAdjust="spacing" textLength="64" x="1120" y="1106.8086">Username</text><rect fill="#E2E2F0" height="32.6211" rx="2.5" ry="2.5" style="stroke:#181818;stroke-width:0.5;" width="75" x="1201" y="1084.7012"/><text fill="#000000" font-family="sans-serif" font-size="14" lengthAdjust="spacing" textLength="61" x="1208" y="1106.8086">Password</text><rect fill="#E2E2F0" height="32.6211" rx="2.5" ry="2.5" style="stroke:#181818;stroke-width:0.5;" width="48" x="1286" y="1084.7012"/><text fill="#000000" font-family="sans-serif" font-size="14" lengthAdjust="spacing" textLength="34" x="1293" y="1106.8086">Email</text><rect fill="#E2E2F0" height="32.6211" rx="2.5" ry="2.5" style="stroke:#181818;stroke-width:0.5;" width="88" x="1344" y="1084.7012"/><text fill="#000000" font-family="sans-serif" font-size="14" lengthAdjust="spacing" textLength="74" x="1351" y="1106.8086">Jobs4uUser</text><rect fill="#E2E2F0" height="32.6211" rx="2.5" ry="2.5" style="stroke:#181818;stroke-width:0.5;" width="156" x="1442" y="1084.7012"/><text fill="#000000" font-family="sans-serif" font-size="14" lengthAdjust="spacing" textLength="142" x="1449" y="1106.8086">Jobs4uUserRepository</text><rect fill="#FFFFFF" height="943.459" style="stroke:#181818;stroke-width:1.0;" width="10" x="37.5" y="133.2422"/><rect fill="#FFFFFF" height="904.168" style="stroke:#181818;stroke-width:1.0;" width="10" x="218.5" y="156.5332"/><rect fill="#FFFFFF" height="406.8906" style="stroke:#181818;stroke-width:1.0;" width="10" x="513.5" y="622.5195"/><rect fill="#FFFFFF" height="297.6875" style="stroke:#181818;stroke-width:1.0;" width="10" x="989.5" y="717.7227"/><rect fill="#FFFFFF" height="14" style="stroke:#181818;stroke-width:1.0;" width="10" x="1515" y="987.4102"/><polygon fill="#181818" points="206.5,152.5332,216.5,156.5332,206.5,160.5332,210.5,156.5332" style="stroke:#181818;stroke-width:1.0;"/><line style="stroke:#181818;stroke-width:1.0;" x1="47.5" x2="212.5" y1="156.5332" y2="156.5332"/><text fill="#000000" font-family="sans-serif" font-size="13" lengthAdjust="spacing" textLength="152" x="54.5" y="151.2705">requests to register a user</text><polygon fill="#181818" points="395,183.8242,405,187.8242,395,191.8242,399,187.8242" style="stroke:#181818;stroke-width:1.0;"/><line style="stroke:#181818;stroke-width:1.0;" x1="228.5" x2="401" y1="187.8242" y2="187.8242"/><text fill="#000000" font-family="sans-serif" font-size="13" lengthAdjust="spacing" textLength="36" x="235.5" y="182.5615">create</text><rect fill="#E2E2F0" height="32.6211" rx="2.5" ry="2.5" style="stroke:#181818;stroke-width:0.5;" width="223" x="407" y="164.5332"/><text fill="#000000" font-family="sans-serif" font-size="14" lengthAdjust="spacing" textLength="209" x="414" y="186.6406">RegisterBackofficeUserController</text><path d="M10,215.1543 L186,215.1543 L186,224.4453 L176,234.4453 L10,234.4453 L10,215.1543 " fill="#EEEEEE" style="stroke:#000000;stroke-width:1.5;"/><rect fill="none" height="122.4551" style="stroke:#000000;stroke-width:1.5;" width="438.5" x="10" y="215.1543"/><text fill="#000000" font-family="sans-serif" font-size="13" font-weight="bold" lengthAdjust="spacing" textLength="131" x="25" y="230.1826">do while (!validRole)</text><polygon fill="#181818" points="58.5,253.7363,48.5,257.7363,58.5,261.7363,54.5,257.7363" style="stroke:#181818;stroke-width:1.0;"/><line style="stroke:#181818;stroke-width:1.0;stroke-dasharray:2.0,2.0;" x1="52.5" x2="217.5" y1="257.7363" y2="257.7363"/><text fill="#000000" font-family="sans-serif" font-size="13" lengthAdjust="spacing" textLength="107" x="64.5" y="252.4736">asks to select role</text><polygon fill="#181818" points="206.5,305.3184,216.5,309.3184,206.5,313.3184,210.5,309.3184" style="stroke:#181818;stroke-width:1.0;"/><line style="stroke:#181818;stroke-width:1.0;" x1="47.5" x2="212.5" y1="309.3184" y2="309.3184"/><text fill="#000000" font-family="sans-serif" font-size="13" lengthAdjust="spacing" textLength="67" x="54.5" y="304.0557">selects role</text><path d="M233,270.7363 L233,331.7363 L438,331.7363 L438,280.7363 L428,270.7363 L233,270.7363 " fill="#FEFFDD" style="stroke:#181818;stroke-width:0.5;"/><path d="M428,270.7363 L428,280.7363 L438,280.7363 L428,270.7363 " fill="#FEFFDD" style="stroke:#181818;stroke-width:0.5;"/><text fill="#000000" font-family="sans-serif" font-size="13" lengthAdjust="spacing" textLength="4" x="239" y="289.7646">&#160;</text><text fill="#000000" font-family="sans-serif" font-size="13" lengthAdjust="spacing" textLength="184" x="239" y="307.0557">loops until a valid role is chosen</text><text fill="#000000" font-family="sans-serif" font-size="13" lengthAdjust="spacing" textLength="4" x="239" y="324.3467">&#160;</text><polygon fill="#181818" points="58.5,363.9004,48.5,367.9004,58.5,371.9004,54.5,367.9004" style="stroke:#181818;stroke-width:1.0;"/><line style="stroke:#181818;stroke-width:1.0;stroke-dasharray:2.0,2.0;" x1="52.5" x2="217.5" y1="367.9004" y2="367.9004"/><text fill="#000000" font-family="sans-serif" font-size="13" lengthAdjust="spacing" textLength="107" x="64.5" y="362.6377">asks for username</text><polygon fill="#181818" points="206.5,395.1914,216.5,399.1914,206.5,403.1914,210.5,399.1914" style="stroke:#181818;stroke-width:1.0;"/><line style="stroke:#181818;stroke-width:1.0;" x1="47.5" x2="212.5" y1="399.1914" y2="399.1914"/><text fill="#000000" font-family="sans-serif" font-size="13" lengthAdjust="spacing" textLength="108" x="54.5" y="393.9287">provides username</text><path d="M10,414.1914 L265,414.1914 L265,423.4824 L255,433.4824 L10,433.4824 L10,414.1914 " fill="#EEEEEE" style="stroke:#000000;stroke-width:1.5;"/><rect fill="none" height="654.5098" style="stroke:#000000;stroke-width:1.5;" width="1598" x="10" y="414.1914"/><text fill="#000000" font-family="sans-serif" font-size="13" font-weight="bold" lengthAdjust="spacing" textLength="210" x="25" y="429.2197">do while (!registrationSuccessful)</text><polygon fill="#181818" points="58.5,473.0645,48.5,477.0645,58.5,481.0645,54.5,477.0645" style="stroke:#181818;stroke-width:1.0;"/><line style="stroke:#181818;stroke-width:1.0;stroke-dasharray:2.0,2.0;" x1="52.5" x2="217.5" y1="477.0645" y2="477.0645"/><text fill="#000000" font-family="sans-serif" font-size="13" lengthAdjust="spacing" textLength="105" x="64.5" y="471.8018">asks for password</text><path d="M233,438.4824 L233,499.4824 L729,499.4824 L729,448.4824 L719,438.4824 L233,438.4824 " fill="#FEFFDD" style="stroke:#181818;stroke-width:0.5;"/><path d="M719,438.4824 L719,448.4824 L729,448.4824 L719,438.4824 " fill="#FEFFDD" style="stroke:#181818;stroke-width:0.5;"/><text fill="#000000" font-family="sans-serif" font-size="13" lengthAdjust="spacing" textLength="4" x="239" y="457.5107">&#160;</text><text fill="#000000" font-family="sans-serif" font-size="13" lengthAdjust="spacing" textLength="475" x="239" y="474.8018">Loops until the registration is successful. Errors and mistakes will restart the loop.</text><text fill="#000000" font-family="sans-serif" font-size="13" lengthAdjust="spacing" textLength="4" x="239" y="492.0928">&#160;</text><polygon fill="#181818" points="206.5,524.6465,216.5,528.6465,206.5,532.6465,210.5,528.6465" style="stroke:#181818;stroke-width:1.0;"/><line style="stroke:#181818;stroke-width:1.0;" x1="47.5" x2="212.5" y1="528.6465" y2="528.6465"/><text fill="#000000" font-family="sans-serif" font-size="13" lengthAdjust="spacing" textLength="106" x="54.5" y="523.3838">provides password</text><polygon fill="#181818" points="58.5,555.9375,48.5,559.9375,58.5,563.9375,54.5,559.9375" style="stroke:#181818;stroke-width:1.0;"/><line style="stroke:#181818;stroke-width:1.0;stroke-dasharray:2.0,2.0;" x1="52.5" x2="217.5" y1="559.9375" y2="559.9375"/><text fill="#000000" font-family="sans-serif" font-size="13" lengthAdjust="spacing" textLength="81" x="64.5" y="554.6748">asks for email</text><polygon fill="#181818" points="206.5,587.2285,216.5,591.2285,206.5,595.2285,210.5,591.2285" style="stroke:#181818;stroke-width:1.0;"/><line style="stroke:#181818;stroke-width:1.0;" x1="47.5" x2="212.5" y1="591.2285" y2="591.2285"/><text fill="#000000" font-family="sans-serif" font-size="13" lengthAdjust="spacing" textLength="82" x="54.5" y="585.9658">provides email</text><polygon fill="#181818" points="501.5,618.5195,511.5,622.5195,501.5,626.5195,505.5,622.5195" style="stroke:#181818;stroke-width:1.0;"/><line style="stroke:#181818;stroke-width:1.0;" x1="228.5" x2="507.5" y1="622.5195" y2="622.5195"/><text fill="#000000" font-family="sans-serif" font-size="13" lengthAdjust="spacing" textLength="266" x="235.5" y="617.2568">registerUser(role, username, password, email)</text><polygon fill="#181818" points="874,649.8105,884,653.8105,874,657.8105,878,653.8105" style="stroke:#181818;stroke-width:1.0;"/><line style="stroke:#181818;stroke-width:1.0;" x1="523.5" x2="880" y1="653.8105" y2="653.8105"/><text fill="#000000" font-family="sans-serif" font-size="13" lengthAdjust="spacing" textLength="36" x="530.5" y="648.5479">create</text><rect fill="#E2E2F0" height="32.6211" rx="2.5" ry="2.5" style="stroke:#181818;stroke-width:0.5;" width="217" x="886" y="630.5195"/><text fill="#000000" font-family="sans-serif" font-size="14" lengthAdjust="spacing" textLength="203" x="893" y="652.627">Jobs4uUserManagementService</text><polygon fill="#181818" points="977.5,713.7227,987.5,717.7227,977.5,721.7227,981.5,717.7227" style="stroke:#181818;stroke-width:1.0;"/><line style="stroke:#181818;stroke-width:1.0;" x1="523.5" x2="983.5" y1="717.7227" y2="717.7227"/><text fill="#000000" font-family="sans-serif" font-size="13" lengthAdjust="spacing" textLength="447" x="530.5" y="712.46">registerCustomerManager(rawUsername, rawPassword, rawEmail, isEnabled)</text><path d="M225,679.1406 L225,740.1406 L508,740.1406 L508,689.1406 L498,679.1406 L225,679.1406 " fill="#FEFFDD" style="stroke:#181818;stroke-width:0.5;"/><path d="M498,679.1406 L498,689.1406 L508,689.1406 L498,679.1406 " fill="#FEFFDD" style="stroke:#181818;stroke-width:0.5;"/><text fill="#000000" font-family="sans-serif" font-size="13" lengthAdjust="spacing" textLength="4" x="231" y="698.1689">&#160;</text><text fill="#000000" font-family="sans-serif" font-size="13" lengthAdjust="spacing" textLength="262" x="231" y="715.46">There is a switch case for each available role.</text><text fill="#000000" font-family="sans-serif" font-size="13" lengthAdjust="spacing" textLength="4" x="231" y="732.751">&#160;</text><polygon fill="#181818" points="1101,765.3047,1111,769.3047,1101,773.3047,1105,769.3047" style="stroke:#181818;stroke-width:1.0;"/><line style="stroke:#181818;stroke-width:1.0;" x1="999.5" x2="1107" y1="769.3047" y2="769.3047"/><text fill="#000000" font-family="sans-serif" font-size="13" lengthAdjust="spacing" textLength="36" x="1006.5" y="764.042">create</text><rect fill="#E2E2F0" height="32.6211" rx="2.5" ry="2.5" style="stroke:#181818;stroke-width:0.5;" width="78" x="1113" y="746.0137"/><text fill="#000000" font-family="sans-serif" font-size="14" lengthAdjust="spacing" textLength="64" x="1120" y="768.1211">Username</text><polygon fill="#181818" points="1189,808.9258,1199,812.9258,1189,816.9258,1193,812.9258" style="stroke:#181818;stroke-width:1.0;"/><line style="stroke:#181818;stroke-width:1.0;" x1="999.5" x2="1195" y1="812.9258" y2="812.9258"/><text fill="#000000" font-family="sans-serif" font-size="13" lengthAdjust="spacing" textLength="36" x="1006.5" y="807.6631">create</text><rect fill="#E2E2F0" height="32.6211" rx="2.5" ry="2.5" style="stroke:#181818;stroke-width:0.5;" width="75" x="1201" y="789.6348"/><text fill="#000000" font-family="sans-serif" font-size="14" lengthAdjust="spacing" textLength="61" x="1208" y="811.7422">Password</text><polygon fill="#181818" points="1274,852.5469,1284,856.5469,1274,860.5469,1278,856.5469" style="stroke:#181818;stroke-width:1.0;"/><line style="stroke:#181818;stroke-width:1.0;" x1="999.5" x2="1280" y1="856.5469" y2="856.5469"/><text fill="#000000" font-family="sans-serif" font-size="13" lengthAdjust="spacing" textLength="36" x="1006.5" y="851.2842">create</text><rect fill="#E2E2F0" height="32.6211" rx="2.5" ry="2.5" style="stroke:#181818;stroke-width:0.5;" width="48" x="1286" y="833.2559"/><text fill="#000000" font-family="sans-serif" font-size="14" lengthAdjust="spacing" textLength="34" x="1293" y="855.3633">Email</text><polygon fill="#181818" points="1332,896.168,1342,900.168,1332,904.168,1336,900.168" style="stroke:#181818;stroke-width:1.0;"/><line style="stroke:#181818;stroke-width:1.0;" x1="999.5" x2="1338" y1="900.168" y2="900.168"/><text fill="#000000" font-family="sans-serif" font-size="13" lengthAdjust="spacing" textLength="36" x="1006.5" y="894.9053">create</text><rect fill="#E2E2F0" height="32.6211" rx="2.5" ry="2.5" style="stroke:#181818;stroke-width:0.5;" width="88" x="1344" y="876.877"/><text fill="#000000" font-family="sans-serif" font-size="14" lengthAdjust="spacing" textLength="74" x="1351" y="898.9844">Jobs4uUser</text><polygon fill="#181818" points="1430,939.7891,1440,943.7891,1430,947.7891,1434,943.7891" style="stroke:#181818;stroke-width:1.0;"/><line style="stroke:#181818;stroke-width:1.0;" x1="999.5" x2="1436" y1="943.7891" y2="943.7891"/><text fill="#000000" font-family="sans-serif" font-size="13" lengthAdjust="spacing" textLength="36" x="1006.5" y="938.5264">create</text><rect fill="#E2E2F0" height="32.6211" rx="2.5" ry="2.5" style="stroke:#181818;stroke-width:0.5;" width="156" x="1442" y="920.498"/><text fill="#000000" font-family="sans-serif" font-size="14" lengthAdjust="spacing" textLength="142" x="1449" y="942.6055">Jobs4uUserRepository</text><polygon fill="#181818" points="1503,983.4102,1513,987.4102,1503,991.4102,1507,987.4102" style="stroke:#181818;stroke-width:1.0;"/><line style="stroke:#181818;stroke-width:1.0;" x1="999.5" x2="1509" y1="987.4102" y2="987.4102"/><text fill="#000000" font-family="sans-serif" font-size="13" lengthAdjust="spacing" textLength="59" x="1006.5" y="982.1475">save(user)</text><polygon fill="#181818" points="1010.5,997.4102,1000.5,1001.4102,1010.5,1005.4102,1006.5,1001.4102" style="stroke:#181818;stroke-width:1.0;"/><line style="stroke:#181818;stroke-width:1.0;stroke-dasharray:2.0,2.0;" x1="1004.5" x2="1519" y1="1001.4102" y2="1001.4102"/><polygon fill="#181818" points="534.5,1011.4102,524.5,1015.4102,534.5,1019.4102,530.5,1015.4102" style="stroke:#181818;stroke-width:1.0;"/><line style="stroke:#181818;stroke-width:1.0;stroke-dasharray:2.0,2.0;" x1="528.5" x2="993.5" y1="1015.4102" y2="1015.4102"/><polygon fill="#181818" points="239.5,1025.4102,229.5,1029.4102,239.5,1033.4102,235.5,1029.4102" style="stroke:#181818;stroke-width:1.0;"/><line style="stroke:#181818;stroke-width:1.0;stroke-dasharray:2.0,2.0;" x1="233.5" x2="517.5" y1="1029.4102" y2="1029.4102"/><polygon fill="#181818" points="58.5,1056.7012,48.5,1060.7012,58.5,1064.7012,54.5,1060.7012" style="stroke:#181818;stroke-width:1.0;"/><line style="stroke:#181818;stroke-width:1.0;stroke-dasharray:2.0,2.0;" x1="52.5" x2="222.5" y1="1060.7012" y2="1060.7012"/><text fill="#000000" font-family="sans-serif" font-size="13" lengthAdjust="spacing" textLength="101" x="64.5" y="1055.4385">registers the user</text><!--SRC=[ZLHDZzem4BtxLqnl8B4hAlMqXqfRn66hhRI2vGSCoK0i73kr7L3_VSTEOXmWqfxyzTvyFWyMtbXuBMkf0HsyXgDeq7fPo0QrXmqTfVDaVs5nCeU3B6ZdoExU0dhtzWNeocXlZL9a0sNrkNdVZ5Y_pTxzQ0Fo3seyKatQRycUcHu8_NP42M2DzVZo0vsx65kEBjSrIZNXBcR0wyJpXXhZ99VZNm1UJq9uwHN1RWlVbyibmbDANEeZj4nrmDNq5S4-LK88BBmyewU-nY8kyFIJgmWlOEblIyuxy8RtdJd0Q2sZSi75obBOTeKKJ6OJyS1MYlWcnD6Qje7ImAMI7EhisncLB3T6qRoZCAVp_yB9dQ9NHueA3zmgkWskUtBzcpRitifZvOLGnZGEMksbucYZbuW2wQ2eZ2Cj1EaI0YVk7hi_yBOTcdhZlB7cB4jo6U0klQvY5hqqUjiM1JbtQDLysbapY6MKpNkMJMXVRZPav9BfPrXRQxZHoCdL3C8JHtYHIZ69JzP70w4ypta59bAxXZCLC4KXJ_7xrx4O1Xa5CSz2KnQfX8laST5nvvd8UcLrMah_JtHcsVxmEQzoU_0qE5-rpfjw-DiS1rvsAGW-VAGu-11_wu8hlTQuLrJE-_PuqmZnMP6Dka9m5-cB2Wfqr1K7-OHd9WTQ5E2ewYcrb4oVN1eaOeWybBQ_p1BiuMd4vF3XyXxU3PyS6s_kS748tKPmRouVGHaucrDNojIxmpFDWWhoXkU6C_JJjQ52bFGGdlmCkXiXRxKJTJj2P5CiK_qW7XS_KJS3CrAm4KR9Vm00]--></g></svg>