<?xml version="1.0" encoding="us-ascii" standalone="no"?><svg xmlns="http://www.w3.org/2000/svg" xmlns:xlink="http://www.w3.org/1999/xlink" contentStyleType="text/css" height="1182px" preserveAspectRatio="none" style="width:1544px;height:1182px;background:#FFFFFF;" version="1.1" viewBox="0 0 1544 1182" width="1544px" zoomAndPan="magnify"><defs/><g><text fill="#000000" font-family="sans-serif" font-size="14" font-weight="bold" lengthAdjust="spacing" textLength="239" x="651.75" y="29.5332">US 2000a - Registering candidates</text><rect fill="#FFFFFF" height="960.2969" style="stroke:#181818;stroke-width:1.0;" width="10" x="31.5" y="131.2188"/><rect fill="#FFFFFF" height="928.9453" style="stroke:#181818;stroke-width:1.0;" width="10" x="243.5" y="153.5703"/><rect fill="#FFFFFF" height="810.6328" style="stroke:#181818;stroke-width:1.0;" width="10" x="248.5" y="234.5313"/><rect fill="#FFFFFF" height="344.3594" style="stroke:#181818;stroke-width:1.0;" width="10" x="759.5" y="664.4531"/><rect fill="#FFFFFF" height="427.0625" style="stroke:#181818;stroke-width:1.0;" width="10" x="905.5" y="664.4531"/><rect fill="#FFFFFF" height="14" style="stroke:#181818;stroke-width:1.0;" width="10" x="1460" y="980.8125"/><line style="stroke:#181818;stroke-width:0.5;stroke-dasharray:5.0,5.0;" x1="36" x2="36" y1="121.2188" y2="1100.5156"/><line style="stroke:#181818;stroke-width:0.5;stroke-dasharray:5.0,5.0;" x1="248.5" x2="248.5" y1="121.2188" y2="1100.5156"/><line style="stroke:#181818;stroke-width:0.5;stroke-dasharray:5.0,5.0;" x1="764.5" x2="764.5" y1="192.875" y2="1100.5156"/><line style="stroke:#181818;stroke-width:0.5;stroke-dasharray:5.0,5.0;" x1="910.5" x2="910.5" y1="121.2188" y2="1100.5156"/><line style="stroke:#181818;stroke-width:0.5;stroke-dasharray:5.0,5.0;" x1="996.5" x2="996.5" y1="734.1094" y2="1100.5156"/><line style="stroke:#181818;stroke-width:0.5;stroke-dasharray:5.0,5.0;" x1="1068.5" x2="1068.5" y1="776.7188" y2="1100.5156"/><line style="stroke:#181818;stroke-width:0.5;stroke-dasharray:5.0,5.0;" x1="1141.5" x2="1141.5" y1="819.3281" y2="1100.5156"/><line style="stroke:#181818;stroke-width:0.5;stroke-dasharray:5.0,5.0;" x1="1228.5" x2="1228.5" y1="861.9375" y2="1100.5156"/><line style="stroke:#181818;stroke-width:0.5;stroke-dasharray:5.0,5.0;" x1="1329.5" x2="1329.5" y1="904.5469" y2="1100.5156"/><line style="stroke:#181818;stroke-width:0.5;stroke-dasharray:5.0,5.0;" x1="1464.5" x2="1464.5" y1="947.1563" y2="1100.5156"/><text fill="#000000" font-family="sans-serif" font-size="14" lengthAdjust="spacing" textLength="57" x="5" y="118.1426">Operator</text><ellipse cx="36.5" cy="52.1094" fill="#E2E2F0" rx="8" ry="8" style="stroke:#181818;stroke-width:0.5;"/><path d="M36.5,60.1094 L36.5,87.1094 M23.5,68.1094 L49.5,68.1094 M36.5,87.1094 L23.5,102.1094 M36.5,87.1094 L49.5,102.1094 " fill="none" style="stroke:#181818;stroke-width:0.5;"/><text fill="#000000" font-family="sans-serif" font-size="14" lengthAdjust="spacing" textLength="57" x="5" y="1114.0488">Operator</text><ellipse cx="36.5" cy="1125.625" fill="#E2E2F0" rx="8" ry="8" style="stroke:#181818;stroke-width:0.5;"/><path d="M36.5,1133.625 L36.5,1160.625 M23.5,1141.625 L49.5,1141.625 M36.5,1160.625 L23.5,1175.625 M36.5,1160.625 L49.5,1175.625 " fill="none" style="stroke:#181818;stroke-width:0.5;"/><rect fill="#E2E2F0" height="31.6094" rx="2.5" ry="2.5" style="stroke:#181818;stroke-width:0.5;" width="144" x="176.5" y="88.6094"/><text fill="#000000" font-family="sans-serif" font-size="14" lengthAdjust="spacing" textLength="130" x="183.5" y="110.1426">RegisterCandidateUI</text><rect fill="#E2E2F0" height="31.6094" rx="2.5" ry="2.5" style="stroke:#181818;stroke-width:0.5;" width="144" x="176.5" y="1099.5156"/><text fill="#000000" font-family="sans-serif" font-size="14" lengthAdjust="spacing" textLength="130" x="183.5" y="1121.0488">RegisterCandidateUI</text><rect fill="#E2E2F0" height="31.6094" rx="2.5" ry="2.5" style="stroke:#181818;stroke-width:0.5;" width="194" x="667.5" y="1099.5156"/><text fill="#000000" font-family="sans-serif" font-size="14" lengthAdjust="spacing" textLength="180" x="674.5" y="1121.0488">RegisterCandidateController</text><rect fill="#E2E2F0" height="31.6094" rx="2.5" ry="2.5" style="stroke:#181818;stroke-width:0.5;" width="78" x="871.5" y="88.6094"/><text fill="#000000" font-family="sans-serif" font-size="14" lengthAdjust="spacing" textLength="64" x="878.5" y="110.1426">Username</text><rect fill="#E2E2F0" height="31.6094" rx="2.5" ry="2.5" style="stroke:#181818;stroke-width:0.5;" width="78" x="871.5" y="1099.5156"/><text fill="#000000" font-family="sans-serif" font-size="14" lengthAdjust="spacing" textLength="64" x="878.5" y="1121.0488">Username</text><rect fill="#E2E2F0" height="31.6094" rx="2.5" ry="2.5" style="stroke:#181818;stroke-width:0.5;" width="75" x="959.5" y="1099.5156"/><text fill="#000000" font-family="sans-serif" font-size="14" lengthAdjust="spacing" textLength="61" x="966.5" y="1121.0488">Password</text><rect fill="#E2E2F0" height="31.6094" rx="2.5" ry="2.5" style="stroke:#181818;stroke-width:0.5;" width="48" x="1044.5" y="1099.5156"/><text fill="#000000" font-family="sans-serif" font-size="14" lengthAdjust="spacing" textLength="34" x="1051.5" y="1121.0488">Email</text><rect fill="#E2E2F0" height="31.6094" rx="2.5" ry="2.5" style="stroke:#181818;stroke-width:0.5;" width="78" x="1102.5" y="1099.5156"/><text fill="#000000" font-family="sans-serif" font-size="14" lengthAdjust="spacing" textLength="64" x="1109.5" y="1121.0488">FirstName</text><rect fill="#E2E2F0" height="31.6094" rx="2.5" ry="2.5" style="stroke:#181818;stroke-width:0.5;" width="77" x="1190.5" y="1099.5156"/><text fill="#000000" font-family="sans-serif" font-size="14" lengthAdjust="spacing" textLength="63" x="1197.5" y="1121.0488">LastName</text><rect fill="#E2E2F0" height="31.6094" rx="2.5" ry="2.5" style="stroke:#181818;stroke-width:0.5;" width="104" x="1277.5" y="1099.5156"/><text fill="#000000" font-family="sans-serif" font-size="14" lengthAdjust="spacing" textLength="90" x="1284.5" y="1121.0488">PhoneNumber</text><rect fill="#E2E2F0" height="31.6094" rx="2.5" ry="2.5" style="stroke:#181818;stroke-width:0.5;" width="147" x="1391.5" y="1099.5156"/><text fill="#000000" font-family="sans-serif" font-size="14" lengthAdjust="spacing" textLength="133" x="1398.5" y="1121.0488">CandidateRepository</text><rect fill="#FFFFFF" height="960.2969" style="stroke:#181818;stroke-width:1.0;" width="10" x="31.5" y="131.2188"/><rect fill="#FFFFFF" height="928.9453" style="stroke:#181818;stroke-width:1.0;" width="10" x="243.5" y="153.5703"/><rect fill="#FFFFFF" height="810.6328" style="stroke:#181818;stroke-width:1.0;" width="10" x="248.5" y="234.5313"/><rect fill="#FFFFFF" height="344.3594" style="stroke:#181818;stroke-width:1.0;" width="10" x="759.5" y="664.4531"/><rect fill="#FFFFFF" height="427.0625" style="stroke:#181818;stroke-width:1.0;" width="10" x="905.5" y="664.4531"/><rect fill="#FFFFFF" height="14" style="stroke:#181818;stroke-width:1.0;" width="10" x="1460" y="980.8125"/><polygon fill="#181818" points="231.5,149.5703,241.5,153.5703,231.5,157.5703,235.5,153.5703" style="stroke:#181818;stroke-width:1.0;"/><line style="stroke:#181818;stroke-width:1.0;" x1="41.5" x2="237.5" y1="153.5703" y2="153.5703"/><text fill="#000000" font-family="sans-serif" font-size="13" lengthAdjust="spacing" textLength="183" x="48.5" y="148.7139">requests to register a candidate</text><polygon fill="#181818" points="655.5,179.9219,665.5,183.9219,655.5,187.9219,659.5,183.9219" style="stroke:#181818;stroke-width:1.0;"/><line style="stroke:#181818;stroke-width:1.0;" x1="253.5" x2="661.5" y1="183.9219" y2="183.9219"/><text fill="#000000" font-family="sans-serif" font-size="13" lengthAdjust="spacing" textLength="36" x="260.5" y="179.0654">create</text><rect fill="#E2E2F0" height="31.6094" rx="2.5" ry="2.5" style="stroke:#181818;stroke-width:0.5;" width="194" x="667.5" y="161.5703"/><text fill="#000000" font-family="sans-serif" font-size="14" lengthAdjust="spacing" textLength="180" x="674.5" y="183.1035">RegisterCandidateController</text><line style="stroke:#181818;stroke-width:1.0;" x1="253.5" x2="300.5" y1="221.5313" y2="221.5313"/><line style="stroke:#181818;stroke-width:1.0;" x1="300.5" x2="300.5" y1="221.5313" y2="234.5313"/><line style="stroke:#181818;stroke-width:1.0;" x1="259.5" x2="300.5" y1="234.5313" y2="234.5313"/><polygon fill="#181818" points="269.5,230.5313,259.5,234.5313,269.5,238.5313,265.5,234.5313" style="stroke:#181818;stroke-width:1.0;"/><text fill="#000000" font-family="sans-serif" font-size="13" lengthAdjust="spacing" textLength="54" x="265.5" y="216.6748">doShow()</text><polygon fill="#181818" points="52.5,265.8828,42.5,269.8828,52.5,273.8828,48.5,269.8828" style="stroke:#181818;stroke-width:1.0;"/><line style="stroke:#181818;stroke-width:1.0;stroke-dasharray:2.0,2.0;" x1="46.5" x2="247.5" y1="269.8828" y2="269.8828"/><text fill="#000000" font-family="sans-serif" font-size="13" lengthAdjust="spacing" textLength="107" x="58.5" y="265.0264">asks for username</text><polygon fill="#181818" points="236.5,296.2344,246.5,300.2344,236.5,304.2344,240.5,300.2344" style="stroke:#181818;stroke-width:1.0;"/><line style="stroke:#181818;stroke-width:1.0;" x1="41.5" x2="242.5" y1="300.2344" y2="300.2344"/><text fill="#000000" font-family="sans-serif" font-size="13" lengthAdjust="spacing" textLength="108" x="48.5" y="295.3779">provides username</text><polygon fill="#181818" points="52.5,326.5859,42.5,330.5859,52.5,334.5859,48.5,330.5859" style="stroke:#181818;stroke-width:1.0;"/><line style="stroke:#181818;stroke-width:1.0;stroke-dasharray:2.0,2.0;" x1="46.5" x2="247.5" y1="330.5859" y2="330.5859"/><text fill="#000000" font-family="sans-serif" font-size="13" lengthAdjust="spacing" textLength="105" x="58.5" y="325.7295">asks for password</text><polygon fill="#181818" points="236.5,356.9375,246.5,360.9375,236.5,364.9375,240.5,360.9375" style="stroke:#181818;stroke-width:1.0;"/><line style="stroke:#181818;stroke-width:1.0;" x1="41.5" x2="242.5" y1="360.9375" y2="360.9375"/><text fill="#000000" font-family="sans-serif" font-size="13" lengthAdjust="spacing" textLength="106" x="48.5" y="356.0811">provides password</text><polygon fill="#181818" points="52.5,387.2891,42.5,391.2891,52.5,395.2891,48.5,391.2891" style="stroke:#181818;stroke-width:1.0;"/><line style="stroke:#181818;stroke-width:1.0;stroke-dasharray:2.0,2.0;" x1="46.5" x2="247.5" y1="391.2891" y2="391.2891"/><text fill="#000000" font-family="sans-serif" font-size="13" lengthAdjust="spacing" textLength="81" x="58.5" y="386.4326">asks for email</text><polygon fill="#181818" points="236.5,417.6406,246.5,421.6406,236.5,425.6406,240.5,421.6406" style="stroke:#181818;stroke-width:1.0;"/><line style="stroke:#181818;stroke-width:1.0;" x1="41.5" x2="242.5" y1="421.6406" y2="421.6406"/><text fill="#000000" font-family="sans-serif" font-size="13" lengthAdjust="spacing" textLength="82" x="48.5" y="416.7842">provides email</text><polygon fill="#181818" points="52.5,447.9922,42.5,451.9922,52.5,455.9922,48.5,451.9922" style="stroke:#181818;stroke-width:1.0;"/><line style="stroke:#181818;stroke-width:1.0;stroke-dasharray:2.0,2.0;" x1="46.5" x2="247.5" y1="451.9922" y2="451.9922"/><text fill="#000000" font-family="sans-serif" font-size="13" lengthAdjust="spacing" textLength="107" x="58.5" y="447.1357">asks for first name</text><polygon fill="#181818" points="236.5,478.3438,246.5,482.3438,236.5,486.3438,240.5,482.3438" style="stroke:#181818;stroke-width:1.0;"/><line style="stroke:#181818;stroke-width:1.0;" x1="41.5" x2="242.5" y1="482.3438" y2="482.3438"/><text fill="#000000" font-family="sans-serif" font-size="13" lengthAdjust="spacing" textLength="108" x="48.5" y="477.4873">provides first name</text><polygon fill="#181818" points="52.5,508.6953,42.5,512.6953,52.5,516.6953,48.5,512.6953" style="stroke:#181818;stroke-width:1.0;"/><line style="stroke:#181818;stroke-width:1.0;stroke-dasharray:2.0,2.0;" x1="46.5" x2="247.5" y1="512.6953" y2="512.6953"/><text fill="#000000" font-family="sans-serif" font-size="13" lengthAdjust="spacing" textLength="107" x="58.5" y="507.8389">asks for last name</text><polygon fill="#181818" points="236.5,539.0469,246.5,543.0469,236.5,547.0469,240.5,543.0469" style="stroke:#181818;stroke-width:1.0;"/><line style="stroke:#181818;stroke-width:1.0;" x1="41.5" x2="242.5" y1="543.0469" y2="543.0469"/><text fill="#000000" font-family="sans-serif" font-size="13" lengthAdjust="spacing" textLength="108" x="48.5" y="538.1904">provides last name</text><polygon fill="#181818" points="52.5,569.3984,42.5,573.3984,52.5,577.3984,48.5,573.3984" style="stroke:#181818;stroke-width:1.0;"/><line style="stroke:#181818;stroke-width:1.0;stroke-dasharray:2.0,2.0;" x1="46.5" x2="247.5" y1="573.3984" y2="573.3984"/><text fill="#000000" font-family="sans-serif" font-size="13" lengthAdjust="spacing" textLength="132" x="58.5" y="568.542">asks for phone number</text><polygon fill="#181818" points="236.5,599.75,246.5,603.75,236.5,607.75,240.5,603.75" style="stroke:#181818;stroke-width:1.0;"/><line style="stroke:#181818;stroke-width:1.0;" x1="41.5" x2="242.5" y1="603.75" y2="603.75"/><text fill="#000000" font-family="sans-serif" font-size="13" lengthAdjust="spacing" textLength="133" x="48.5" y="598.8936">provides phone number</text><polygon fill="#181818" points="52.5,630.1016,42.5,634.1016,52.5,638.1016,48.5,634.1016" style="stroke:#181818;stroke-width:1.0;"/><line style="stroke:#181818;stroke-width:1.0;stroke-dasharray:2.0,2.0;" x1="46.5" x2="247.5" y1="634.1016" y2="634.1016"/><text fill="#000000" font-family="sans-serif" font-size="13" lengthAdjust="spacing" textLength="125" x="58.5" y="629.2451">register the candidate</text><polygon fill="#181818" points="747.5,660.4531,757.5,664.4531,747.5,668.4531,751.5,664.4531" style="stroke:#181818;stroke-width:1.0;"/><line style="stroke:#181818;stroke-width:1.0;" x1="258.5" x2="753.5" y1="664.4531" y2="664.4531"/><text fill="#000000" font-family="sans-serif" font-size="13" lengthAdjust="spacing" textLength="482" x="265.5" y="659.5967">registerCandidate(username, password, email, firstName, lastName, phoneNumber)</text><polygon fill="#181818" points="893.5,690.8047,903.5,694.8047,893.5,698.8047,897.5,694.8047" style="stroke:#181818;stroke-width:1.0;"/><line style="stroke:#181818;stroke-width:1.0;" x1="769.5" x2="899.5" y1="694.8047" y2="694.8047"/><text fill="#000000" font-family="sans-serif" font-size="13" lengthAdjust="spacing" textLength="36" x="776.5" y="689.9482">create</text><polygon fill="#181818" points="947.5,721.1563,957.5,725.1563,947.5,729.1563,951.5,725.1563" style="stroke:#181818;stroke-width:1.0;"/><line style="stroke:#181818;stroke-width:1.0;" x1="769.5" x2="953.5" y1="725.1563" y2="725.1563"/><text fill="#000000" font-family="sans-serif" font-size="13" lengthAdjust="spacing" textLength="36" x="776.5" y="720.2998">create</text><rect fill="#E2E2F0" height="31.6094" rx="2.5" ry="2.5" style="stroke:#181818;stroke-width:0.5;" width="75" x="959.5" y="702.8047"/><text fill="#000000" font-family="sans-serif" font-size="14" lengthAdjust="spacing" textLength="61" x="966.5" y="724.3379">Password</text><polygon fill="#181818" points="1032.5,763.7656,1042.5,767.7656,1032.5,771.7656,1036.5,767.7656" style="stroke:#181818;stroke-width:1.0;"/><line style="stroke:#181818;stroke-width:1.0;" x1="769.5" x2="1038.5" y1="767.7656" y2="767.7656"/><text fill="#000000" font-family="sans-serif" font-size="13" lengthAdjust="spacing" textLength="36" x="776.5" y="762.9092">create</text><rect fill="#E2E2F0" height="31.6094" rx="2.5" ry="2.5" style="stroke:#181818;stroke-width:0.5;" width="48" x="1044.5" y="745.4141"/><text fill="#000000" font-family="sans-serif" font-size="14" lengthAdjust="spacing" textLength="34" x="1051.5" y="766.9473">Email</text><polygon fill="#181818" points="1090.5,806.375,1100.5,810.375,1090.5,814.375,1094.5,810.375" style="stroke:#181818;stroke-width:1.0;"/><line style="stroke:#181818;stroke-width:1.0;" x1="769.5" x2="1096.5" y1="810.375" y2="810.375"/><text fill="#000000" font-family="sans-serif" font-size="13" lengthAdjust="spacing" textLength="36" x="776.5" y="805.5186">create</text><rect fill="#E2E2F0" height="31.6094" rx="2.5" ry="2.5" style="stroke:#181818;stroke-width:0.5;" width="78" x="1102.5" y="788.0234"/><text fill="#000000" font-family="sans-serif" font-size="14" lengthAdjust="spacing" textLength="64" x="1109.5" y="809.5566">FirstName</text><polygon fill="#181818" points="1178.5,848.9844,1188.5,852.9844,1178.5,856.9844,1182.5,852.9844" style="stroke:#181818;stroke-width:1.0;"/><line style="stroke:#181818;stroke-width:1.0;" x1="769.5" x2="1184.5" y1="852.9844" y2="852.9844"/><text fill="#000000" font-family="sans-serif" font-size="13" lengthAdjust="spacing" textLength="36" x="776.5" y="848.1279">create</text><rect fill="#E2E2F0" height="31.6094" rx="2.5" ry="2.5" style="stroke:#181818;stroke-width:0.5;" width="77" x="1190.5" y="830.6328"/><text fill="#000000" font-family="sans-serif" font-size="14" lengthAdjust="spacing" textLength="63" x="1197.5" y="852.166">LastName</text><polygon fill="#181818" points="1265.5,891.5938,1275.5,895.5938,1265.5,899.5938,1269.5,895.5938" style="stroke:#181818;stroke-width:1.0;"/><line style="stroke:#181818;stroke-width:1.0;" x1="769.5" x2="1271.5" y1="895.5938" y2="895.5938"/><text fill="#000000" font-family="sans-serif" font-size="13" lengthAdjust="spacing" textLength="36" x="776.5" y="890.7373">create</text><rect fill="#E2E2F0" height="31.6094" rx="2.5" ry="2.5" style="stroke:#181818;stroke-width:0.5;" width="104" x="1277.5" y="873.2422"/><text fill="#000000" font-family="sans-serif" font-size="14" lengthAdjust="spacing" textLength="90" x="1284.5" y="894.7754">PhoneNumber</text><polygon fill="#181818" points="1379.5,934.2031,1389.5,938.2031,1379.5,942.2031,1383.5,938.2031" style="stroke:#181818;stroke-width:1.0;"/><line style="stroke:#181818;stroke-width:1.0;" x1="769.5" x2="1385.5" y1="938.2031" y2="938.2031"/><text fill="#000000" font-family="sans-serif" font-size="13" lengthAdjust="spacing" textLength="36" x="776.5" y="933.3467">create</text><rect fill="#E2E2F0" height="31.6094" rx="2.5" ry="2.5" style="stroke:#181818;stroke-width:0.5;" width="147" x="1391.5" y="915.8516"/><text fill="#000000" font-family="sans-serif" font-size="14" lengthAdjust="spacing" textLength="133" x="1398.5" y="937.3848">CandidateRepository</text><polygon fill="#181818" points="1448,976.8125,1458,980.8125,1448,984.8125,1452,980.8125" style="stroke:#181818;stroke-width:1.0;"/><line style="stroke:#181818;stroke-width:1.0;" x1="769.5" x2="1454" y1="980.8125" y2="980.8125"/><text fill="#000000" font-family="sans-serif" font-size="13" lengthAdjust="spacing" textLength="90" x="776.5" y="975.9561">save(candidate)</text><polygon fill="#181818" points="780.5,990.8125,770.5,994.8125,780.5,998.8125,776.5,994.8125" style="stroke:#181818;stroke-width:1.0;"/><line style="stroke:#181818;stroke-width:1.0;stroke-dasharray:2.0,2.0;" x1="774.5" x2="1464" y1="994.8125" y2="994.8125"/><polygon fill="#181818" points="269.5,1004.8125,259.5,1008.8125,269.5,1012.8125,265.5,1008.8125" style="stroke:#181818;stroke-width:1.0;"/><line style="stroke:#181818;stroke-width:1.0;stroke-dasharray:2.0,2.0;" x1="263.5" x2="763.5" y1="1008.8125" y2="1008.8125"/><line style="stroke:#181818;stroke-width:1.0;stroke-dasharray:2.0,2.0;" x1="258.5" x2="300.5" y1="1044.1641" y2="1044.1641"/><line style="stroke:#181818;stroke-width:1.0;stroke-dasharray:2.0,2.0;" x1="300.5" x2="300.5" y1="1044.1641" y2="1057.1641"/><line style="stroke:#181818;stroke-width:1.0;stroke-dasharray:2.0,2.0;" x1="253.5" x2="300.5" y1="1057.1641" y2="1057.1641"/><polygon fill="#181818" points="263.5,1053.1641,253.5,1057.1641,263.5,1061.1641,259.5,1057.1641" style="stroke:#181818;stroke-width:1.0;"/><text fill="#000000" font-family="sans-serif" font-size="13" lengthAdjust="spacing" textLength="27" x="265.5" y="1039.3076">false</text><polygon fill="#181818" points="52.5,1078.5156,42.5,1082.5156,52.5,1086.5156,48.5,1082.5156" style="stroke:#181818;stroke-width:1.0;"/><line style="stroke:#181818;stroke-width:1.0;stroke-dasharray:2.0,2.0;" x1="46.5" x2="247.5" y1="1082.5156" y2="1082.5156"/><text fill="#000000" font-family="sans-serif" font-size="13" lengthAdjust="spacing" textLength="132" x="58.5" y="1077.6592">registers the candidate</text><!--SRC=[XLJRRi8m37tFL-IHII2XFV8mQKARX8JOr8qFy5epefMcImBJ_dwvDBUMC1wewnoVnlQneLPSq9SU1HW397qq7jA3KAncFNIALlZ9f4AnXgvX3IZSRmnG_z-6hNcd16zRjBphzsfRvH5xYQA34-RULv3oXuiczpwTWBMPvva9gNQJy2rSyxuUUOUxy-a3yzp2PIlikMGwzLzpsVX6Y6AgHRf_e_VBvHBe8YJAkazQ-tX92O5QiOksXneI-w2B1rEg5HNuVKQf95LSsuw2GcH8ulSRGjO2ZMdBHeXcq3okXYjQspFljUmDVplodzdTYCKWDCJTPALJ-vBqeCtpKFhn9Nl1BwpHsKH0YQ8V-bIaY80I1TgcbkA7qrBmmVIVtamYXPHeMlYF9K4KQs7aHJkdhs8zCj28AYX27J7LHDvuCPwncU_JF9HxxWetTzdlx5aBtkhZ86YjHB4CEelY2VrttpRP-76D0dJFCB89E4pn1EmcEIBj-nGMnZk1nf6VmFtO9-Ym2QRtJRP1SkNedOQa6o5494iZ1bm_bN31MUXhEgOfSnAoy6qdfC6huE53LcSPADaPNeG7Q2Lce2lRmQjBZaKu2Ylz_W00]--></g></svg>