<?xml version="1.0" encoding="us-ascii" standalone="no"?><svg xmlns="http://www.w3.org/2000/svg" xmlns:xlink="http://www.w3.org/1999/xlink" contentStyleType="text/css" height="504.3px" preserveAspectRatio="none" style="width:489px;height:504px;background:#FFFFFF;" version="1.1" viewBox="0 0 489 504" width="489.9px" zoomAndPan="magnify"><defs/><g><text fill="#000000" font-family="sans-serif" font-size="4.2" font-weight="bold" lengthAdjust="spacing" textLength="98.4" x="196.275" y="9.0322">US 1005 - Listing applications for a job opening</text><rect fill="#FFFFFF" height="436.8668" style="stroke:#181818;stroke-width:0.3;" width="3" x="26.55" y="39.9727"/><rect fill="#FFFFFF" height="429.5795" style="stroke:#181818;stroke-width:0.3;" width="3" x="118.95" y="46.96"/><rect fill="#FFFFFF" height="82.4092" style="stroke:#181818;stroke-width:0.3;" width="3" x="235.05" y="96.0955"/><rect fill="#FFFFFF" height="69.3229" style="stroke:#181818;stroke-width:0.3;" width="3" x="235.05" y="206.6666"/><rect fill="#FFFFFF" height="69.3229" style="stroke:#181818;stroke-width:0.3;" width="3" x="235.05" y="290.366"/><rect fill="#FFFFFF" height="50.5482" style="stroke:#181818;stroke-width:0.3;" width="3" x="235.05" y="402.1166"/><rect fill="#FFFFFF" height="9.3873" style="stroke:#181818;stroke-width:0.3;" width="3" x="315.15" y="118.5691"/><rect fill="#FFFFFF" height="9.3873" style="stroke:#181818;stroke-width:0.3;" width="3" x="315.15" y="216.0539"/><rect fill="#FFFFFF" height="9.3873" style="stroke:#181818;stroke-width:0.3;" width="3" x="315.15" y="299.7533"/><rect fill="#FFFFFF" height="9.3873" style="stroke:#181818;stroke-width:0.3;" width="3" x="363" y="159.7301"/><rect fill="#FFFFFF" height="9.3873" style="stroke:#181818;stroke-width:0.3;" width="3" x="408.75" y="257.2148"/><rect fill="#FFFFFF" height="9.3873" style="stroke:#181818;stroke-width:0.3;" width="3" x="408.75" y="340.9143"/><rect fill="#FFFFFF" height="9.3873" style="stroke:#181818;stroke-width:0.3;" width="3" x="459" y="433.8902"/><rect fill="none" height="291.8543" style="stroke:#000000;stroke-width:0.44999999999999996;" width="429.75" x="6" y="70.2346"/><rect fill="none" height="108.1506" style="stroke:#000000;stroke-width:0.44999999999999996;" width="485.25" x="3" y="366.2889"/><rect fill="none" height="15.1746" style="stroke:#000000;stroke-width:0.44999999999999996;" width="147.45" x="6" y="457.1648"/><line style="stroke:#181818;stroke-width:0.15;stroke-dasharray:5.0,5.0;" x1="27.9" x2="27.9" y1="36.9727" y2="479.5395"/><line style="stroke:#181818;stroke-width:0.15;stroke-dasharray:5.0,5.0;" x1="120.45" x2="120.45" y1="36.9727" y2="479.5395"/><line style="stroke:#181818;stroke-width:0.15;stroke-dasharray:5.0,5.0;" x1="236.55" x2="236.55" y1="85.565" y2="479.5395"/><line style="stroke:#181818;stroke-width:0.15;stroke-dasharray:5.0,5.0;" x1="316.65" x2="316.65" y1="108.0387" y2="479.5395"/><line style="stroke:#181818;stroke-width:0.15;stroke-dasharray:5.0,5.0;" x1="364.35" x2="364.35" y1="144.5496" y2="479.5395"/><line style="stroke:#181818;stroke-width:0.15;stroke-dasharray:5.0,5.0;" x1="410.25" x2="410.25" y1="325.7338" y2="479.5395"/><line style="stroke:#181818;stroke-width:0.15;stroke-dasharray:5.0,5.0;" x1="460.35" x2="460.35" y1="418.7098" y2="479.5395"/><text fill="#000000" font-family="sans-serif" font-size="4.2" lengthAdjust="spacing" textLength="36.3" x="9" y="35.9186">Customer Manager</text><ellipse cx="28.05" cy="15.9363" fill="#E2E2F0" rx="2.4" ry="2.4" style="stroke:#181818;stroke-width:0.15;"/><path d="M28.05,18.3363 L28.05,26.4363 M24.15,20.7363 L31.95,20.7363 M28.05,26.4363 L24.15,30.9363 M28.05,26.4363 L31.95,30.9363 " fill="none" style="stroke:#181818;stroke-width:0.15;"/><text fill="#000000" font-family="sans-serif" font-size="4.2" lengthAdjust="spacing" textLength="36.3" x="9" y="483.7717">Customer Manager</text><ellipse cx="28.05" cy="487.3758" fill="#E2E2F0" rx="2.4" ry="2.4" style="stroke:#181818;stroke-width:0.15;"/><path d="M28.05,489.7758 L28.05,497.8758 M24.15,492.1758 L31.95,492.1758 M28.05,497.8758 L24.15,502.3758 M28.05,497.8758 L31.95,502.3758 " fill="none" style="stroke:#181818;stroke-width:0.15;"/><rect fill="#E2E2F0" height="9.7863" rx="0.75" ry="0.75" style="stroke:#181818;stroke-width:0.15;" width="60" x="90.45" y="26.8863"/><text fill="#000000" font-family="sans-serif" font-size="4.2" lengthAdjust="spacing" textLength="55.8" x="92.55" y="33.5186">ListJobOpeningApplicationsUI</text><rect fill="#E2E2F0" height="9.7863" rx="0.75" ry="0.75" style="stroke:#181818;stroke-width:0.15;" width="60" x="90.45" y="479.2395"/><text fill="#000000" font-family="sans-serif" font-size="4.2" lengthAdjust="spacing" textLength="55.8" x="92.55" y="485.8717">ListJobOpeningApplicationsUI</text><rect fill="#E2E2F0" height="9.7863" rx="0.75" ry="0.75" style="stroke:#181818;stroke-width:0.15;" width="75" x="199.05" y="479.2395"/><text fill="#000000" font-family="sans-serif" font-size="4.2" lengthAdjust="spacing" textLength="70.8" x="201.15" y="485.8717">ListJobOpeningApplicationsController</text><rect fill="#E2E2F0" height="9.7863" rx="0.75" ry="0.75" style="stroke:#181818;stroke-width:0.15;" width="49.2" x="292.05" y="479.2395"/><text fill="#000000" font-family="sans-serif" font-size="4.2" lengthAdjust="spacing" textLength="45" x="294.15" y="485.8717">Jobs4uUserAuthService</text><text fill="#000000" font-family="sans-serif" font-size="4.2" lengthAdjust="spacing" textLength="38.7" x="344.25" y="483.7717">CustomerRepository</text><path d="M359.1,487.8258 C359.1,484.8258 364.5,484.8258 364.5,484.8258 C364.5,484.8258 369.9,484.8258 369.9,487.8258 L369.9,495.6258 C369.9,498.6258 364.5,498.6258 364.5,498.6258 C364.5,498.6258 359.1,498.6258 359.1,495.6258 L359.1,487.8258 " fill="#E2E2F0" style="stroke:#181818;stroke-width:0.44999999999999996;"/><path d="M359.1,487.8258 C359.1,490.8258 364.5,490.8258 364.5,490.8258 C364.5,490.8258 369.9,490.8258 369.9,487.8258 " fill="none" style="stroke:#181818;stroke-width:0.44999999999999996;"/><text fill="#000000" font-family="sans-serif" font-size="4.2" lengthAdjust="spacing" textLength="43.2" x="387.75" y="483.7717">JobOpeningRepository</text><path d="M404.85,487.8258 C404.85,484.8258 410.25,484.8258 410.25,484.8258 C410.25,484.8258 415.65,484.8258 415.65,487.8258 L415.65,495.6258 C415.65,498.6258 410.25,498.6258 410.25,498.6258 C410.25,498.6258 404.85,498.6258 404.85,495.6258 L404.85,487.8258 " fill="#E2E2F0" style="stroke:#181818;stroke-width:0.44999999999999996;"/><path d="M404.85,487.8258 C404.85,490.8258 410.25,490.8258 410.25,490.8258 C410.25,490.8258 415.65,490.8258 415.65,487.8258 " fill="none" style="stroke:#181818;stroke-width:0.44999999999999996;"/><text fill="#000000" font-family="sans-serif" font-size="4.2" lengthAdjust="spacing" textLength="47.7" x="435.75" y="483.7717">JobApplicationRepository</text><path d="M455.1,487.8258 C455.1,484.8258 460.5,484.8258 460.5,484.8258 C460.5,484.8258 465.9,484.8258 465.9,487.8258 L465.9,495.6258 C465.9,498.6258 460.5,498.6258 460.5,498.6258 C460.5,498.6258 455.1,498.6258 455.1,495.6258 L455.1,487.8258 " fill="#E2E2F0" style="stroke:#181818;stroke-width:0.44999999999999996;"/><path d="M455.1,487.8258 C455.1,490.8258 460.5,490.8258 460.5,490.8258 C460.5,490.8258 465.9,490.8258 465.9,487.8258 " fill="none" style="stroke:#181818;stroke-width:0.44999999999999996;"/><rect fill="#FFFFFF" height="436.8668" style="stroke:#181818;stroke-width:0.3;" width="3" x="26.55" y="39.9727"/><rect fill="#FFFFFF" height="429.5795" style="stroke:#181818;stroke-width:0.3;" width="3" x="118.95" y="46.96"/><rect fill="#FFFFFF" height="82.4092" style="stroke:#181818;stroke-width:0.3;" width="3" x="235.05" y="96.0955"/><rect fill="#FFFFFF" height="69.3229" style="stroke:#181818;stroke-width:0.3;" width="3" x="235.05" y="206.6666"/><rect fill="#FFFFFF" height="69.3229" style="stroke:#181818;stroke-width:0.3;" width="3" x="235.05" y="290.366"/><rect fill="#FFFFFF" height="50.5482" style="stroke:#181818;stroke-width:0.3;" width="3" x="235.05" y="402.1166"/><rect fill="#FFFFFF" height="9.3873" style="stroke:#181818;stroke-width:0.3;" width="3" x="315.15" y="118.5691"/><rect fill="#FFFFFF" height="9.3873" style="stroke:#181818;stroke-width:0.3;" width="3" x="315.15" y="216.0539"/><rect fill="#FFFFFF" height="9.3873" style="stroke:#181818;stroke-width:0.3;" width="3" x="315.15" y="299.7533"/><rect fill="#FFFFFF" height="9.3873" style="stroke:#181818;stroke-width:0.3;" width="3" x="363" y="159.7301"/><rect fill="#FFFFFF" height="9.3873" style="stroke:#181818;stroke-width:0.3;" width="3" x="408.75" y="257.2148"/><rect fill="#FFFFFF" height="9.3873" style="stroke:#181818;stroke-width:0.3;" width="3" x="408.75" y="340.9143"/><rect fill="#FFFFFF" height="9.3873" style="stroke:#181818;stroke-width:0.3;" width="3" x="459" y="433.8902"/><polygon fill="#181818" points="115.35,45.76,118.35,46.96,115.35,48.16,116.55,46.96" style="stroke:#181818;stroke-width:0.3;"/><line style="stroke:#181818;stroke-width:0.3;" x1="29.55" x2="117.15" y1="46.96" y2="46.96"/><text fill="#000000" font-family="sans-serif" font-size="3.9" lengthAdjust="spacing" textLength="83.7" x="31.65" y="45.3812">requests to list job applications for a job opening</text><polygon fill="#181818" points="32.85,55.1473,29.85,56.3473,32.85,57.5473,31.65,56.3473" style="stroke:#181818;stroke-width:0.3;"/><line style="stroke:#181818;stroke-width:0.3;stroke-dasharray:2.0,2.0;" x1="31.05" x2="118.65" y1="56.3473" y2="56.3473"/><text fill="#000000" font-family="sans-serif" font-size="3.9" lengthAdjust="spacing" textLength="67.2" x="34.65" y="54.7685">asks if user wants to filter by customer</text><polygon fill="#181818" points="115.35,64.5346,118.35,65.7346,115.35,66.9346,116.55,65.7346" style="stroke:#181818;stroke-width:0.3;"/><line style="stroke:#181818;stroke-width:0.3;" x1="29.55" x2="117.15" y1="65.7346" y2="65.7346"/><text fill="#000000" font-family="sans-serif" font-size="3.9" lengthAdjust="spacing" textLength="14.4" x="31.65" y="64.1558">answers</text><path d="M6,70.2346 L24.3,70.2346 L24.3,73.0219 L21.3,76.0219 L6,76.0219 L6,70.2346 " fill="#EEEEEE" style="stroke:#000000;stroke-width:0.44999999999999996;"/><rect fill="none" height="291.8543" style="stroke:#000000;stroke-width:0.44999999999999996;" width="429.75" x="6" y="70.2346"/><text fill="#000000" font-family="sans-serif" font-size="3.9" font-weight="bold" lengthAdjust="spacing" textLength="4.8" x="10.5" y="74.7431">alt</text><text fill="#000000" font-family="sans-serif" font-size="3.3" font-weight="bold" lengthAdjust="spacing" textLength="32.7" x="28.8" y="74.3956">[if answer was yes]</text><polygon fill="#181818" points="195.45,81.8092,198.45,83.0092,195.45,84.2092,196.65,83.0092" style="stroke:#181818;stroke-width:0.3;"/><line style="stroke:#181818;stroke-width:0.3;" x1="121.95" x2="197.25" y1="83.0092" y2="83.0092"/><text fill="#000000" font-family="sans-serif" font-size="3.9" lengthAdjust="spacing" textLength="10.8" x="124.05" y="81.4304">create</text><rect fill="#E2E2F0" height="9.7863" rx="0.75" ry="0.75" style="stroke:#181818;stroke-width:0.15;" width="75" x="199.05" y="76.0219"/><text fill="#000000" font-family="sans-serif" font-size="4.2" lengthAdjust="spacing" textLength="70.8" x="201.15" y="82.6541">ListJobOpeningApplicationsController</text><polygon fill="#181818" points="231.45,94.8955,234.45,96.0955,231.45,97.2955,232.65,96.0955" style="stroke:#181818;stroke-width:0.3;"/><line style="stroke:#181818;stroke-width:0.3;" x1="121.95" x2="233.25" y1="96.0955" y2="96.0955"/><text fill="#000000" font-family="sans-serif" font-size="3.9" lengthAdjust="spacing" textLength="68.1" x="124.05" y="94.5167">findCustomersFromCustomerManager()</text><polygon fill="#181818" points="288.45,104.2828,291.45,105.4828,288.45,106.6828,289.65,105.4828" style="stroke:#181818;stroke-width:0.3;"/><line style="stroke:#181818;stroke-width:0.3;" x1="238.05" x2="290.25" y1="105.4828" y2="105.4828"/><text fill="#000000" font-family="sans-serif" font-size="3.9" lengthAdjust="spacing" textLength="26.7" x="240.15" y="103.904">create instance</text><rect fill="#E2E2F0" height="9.7863" rx="0.75" ry="0.75" style="stroke:#181818;stroke-width:0.15;" width="49.2" x="292.05" y="98.4955"/><text fill="#000000" font-family="sans-serif" font-size="4.2" lengthAdjust="spacing" textLength="45" x="294.15" y="105.1277">Jobs4uUserAuthService</text><polygon fill="#181818" points="311.55,117.3691,314.55,118.5691,311.55,119.7691,312.75,118.5691" style="stroke:#181818;stroke-width:0.3;"/><line style="stroke:#181818;stroke-width:0.3;" x1="238.05" x2="313.35" y1="118.5691" y2="118.5691"/><text fill="#000000" font-family="sans-serif" font-size="3.9" lengthAdjust="spacing" textLength="69.9" x="240.15" y="116.9903">authenticatedUser().getEmail().toString()</text><polygon fill="#181818" points="241.35,126.7564,238.35,127.9564,241.35,129.1564,240.15,127.9564" style="stroke:#181818;stroke-width:0.3;"/><line style="stroke:#181818;stroke-width:0.3;stroke-dasharray:2.0,2.0;" x1="239.55" x2="316.35" y1="127.9564" y2="127.9564"/><text fill="#000000" font-family="sans-serif" font-size="3.9" lengthAdjust="spacing" textLength="69.9" x="243.15" y="126.3776">current customer manager email (String)</text><polygon fill="#181818" points="340.65,136.1437,343.65,137.3438,340.65,138.5438,341.85,137.3438" style="stroke:#181818;stroke-width:0.3;"/><line style="stroke:#181818;stroke-width:0.3;" x1="238.05" x2="342.45" y1="137.3438" y2="137.3438"/><text fill="#000000" font-family="sans-serif" font-size="3.9" lengthAdjust="spacing" textLength="26.7" x="240.15" y="135.7649">create instance</text><text fill="#000000" font-family="sans-serif" font-size="4.2" lengthAdjust="spacing" textLength="38.7" x="344.25" y="148.6887">CustomerRepository</text><path d="M359.1,133.3564 C359.1,130.3564 364.5,130.3564 364.5,130.3564 C364.5,130.3564 369.9,130.3564 369.9,133.3564 L369.9,141.1564 C369.9,144.1564 364.5,144.1564 364.5,144.1564 C364.5,144.1564 359.1,144.1564 359.1,141.1564 L359.1,133.3564 " fill="#E2E2F0" style="stroke:#181818;stroke-width:0.44999999999999996;"/><path d="M359.1,133.3564 C359.1,136.3564 364.5,136.3564 364.5,136.3564 C364.5,136.3564 369.9,136.3564 369.9,133.3564 " fill="none" style="stroke:#181818;stroke-width:0.44999999999999996;"/><polygon fill="#181818" points="359.4,158.5301,362.4,159.7301,359.4,160.9301,360.6,159.7301" style="stroke:#181818;stroke-width:0.3;"/><line style="stroke:#181818;stroke-width:0.3;" x1="238.05" x2="361.2" y1="159.7301" y2="159.7301"/><text fill="#000000" font-family="sans-serif" font-size="3.9" lengthAdjust="spacing" textLength="83.1" x="240.15" y="158.1513">findCustomersByCustomerManagerEmail(email)</text><polygon fill="#181818" points="241.35,167.9174,238.35,169.1174,241.35,170.3174,240.15,169.1174" style="stroke:#181818;stroke-width:0.3;"/><line style="stroke:#181818;stroke-width:0.3;stroke-dasharray:2.0,2.0;" x1="239.55" x2="364.2" y1="169.1174" y2="169.1174"/><text fill="#000000" font-family="sans-serif" font-size="3.9" lengthAdjust="spacing" textLength="27.9" x="243.15" y="167.5386">List&lt;Customer&gt;</text><polygon fill="#181818" points="125.25,177.3047,122.25,178.5047,125.25,179.7047,124.05,178.5047" style="stroke:#181818;stroke-width:0.3;"/><line style="stroke:#181818;stroke-width:0.3;stroke-dasharray:2.0,2.0;" x1="123.45" x2="236.25" y1="178.5047" y2="178.5047"/><text fill="#000000" font-family="sans-serif" font-size="3.9" lengthAdjust="spacing" textLength="27.9" x="127.05" y="176.9259">List&lt;Customer&gt;</text><polygon fill="#181818" points="32.85,186.692,29.85,187.892,32.85,189.092,31.65,187.892" style="stroke:#181818;stroke-width:0.3;"/><line style="stroke:#181818;stroke-width:0.3;stroke-dasharray:2.0,2.0;" x1="31.05" x2="118.65" y1="187.892" y2="187.892"/><text fill="#000000" font-family="sans-serif" font-size="3.9" lengthAdjust="spacing" textLength="26.7" x="34.65" y="186.3132">lists customers</text><polygon fill="#181818" points="115.35,196.0793,118.35,197.2793,115.35,198.4793,116.55,197.2793" style="stroke:#181818;stroke-width:0.3;"/><line style="stroke:#181818;stroke-width:0.3;" x1="29.55" x2="117.15" y1="197.2793" y2="197.2793"/><text fill="#000000" font-family="sans-serif" font-size="3.9" lengthAdjust="spacing" textLength="30" x="31.65" y="195.7005">picks a customer</text><polygon fill="#181818" points="231.45,205.4666,234.45,206.6666,231.45,207.8666,232.65,206.6666" style="stroke:#181818;stroke-width:0.3;"/><line style="stroke:#181818;stroke-width:0.3;" x1="121.95" x2="233.25" y1="206.6666" y2="206.6666"/><text fill="#000000" font-family="sans-serif" font-size="3.9" lengthAdjust="spacing" textLength="107.4" x="124.05" y="205.0878">findJobOpeningFromCustomerManagerByCustomer(customer)</text><polygon fill="#181818" points="311.55,214.8539,314.55,216.0539,311.55,217.2539,312.75,216.0539" style="stroke:#181818;stroke-width:0.3;"/><line style="stroke:#181818;stroke-width:0.3;" x1="238.05" x2="313.35" y1="216.0539" y2="216.0539"/><text fill="#000000" font-family="sans-serif" font-size="3.9" lengthAdjust="spacing" textLength="69.9" x="240.15" y="214.4751">authenticatedUser().getEmail().toString()</text><polygon fill="#181818" points="241.35,224.2412,238.35,225.4412,241.35,226.6412,240.15,225.4412" style="stroke:#181818;stroke-width:0.3;"/><line style="stroke:#181818;stroke-width:0.3;stroke-dasharray:2.0,2.0;" x1="239.55" x2="316.35" y1="225.4412" y2="225.4412"/><text fill="#000000" font-family="sans-serif" font-size="3.9" lengthAdjust="spacing" textLength="69.9" x="243.15" y="223.8624">current customer manager email (String)</text><polygon fill="#181818" points="384.15,233.6285,387.15,234.8285,384.15,236.0285,385.35,234.8285" style="stroke:#181818;stroke-width:0.3;"/><line style="stroke:#181818;stroke-width:0.3;" x1="238.05" x2="385.95" y1="234.8285" y2="234.8285"/><text fill="#000000" font-family="sans-serif" font-size="3.9" lengthAdjust="spacing" textLength="26.7" x="240.15" y="233.2497">create instance</text><text fill="#000000" font-family="sans-serif" font-size="4.2" lengthAdjust="spacing" textLength="43.2" x="387.75" y="246.1734">JobOpeningRepository</text><path d="M404.85,230.8412 C404.85,227.8412 410.25,227.8412 410.25,227.8412 C410.25,227.8412 415.65,227.8412 415.65,230.8412 L415.65,238.6412 C415.65,241.6412 410.25,241.6412 410.25,241.6412 C410.25,241.6412 404.85,241.6412 404.85,238.6412 L404.85,230.8412 " fill="#E2E2F0" style="stroke:#181818;stroke-width:0.44999999999999996;"/><path d="M404.85,230.8412 C404.85,233.8412 410.25,233.8412 410.25,233.8412 C410.25,233.8412 415.65,233.8412 415.65,230.8412 " fill="none" style="stroke:#181818;stroke-width:0.44999999999999996;"/><polygon fill="#181818" points="405.15,256.0148,408.15,257.2148,405.15,258.4148,406.35,257.2148" style="stroke:#181818;stroke-width:0.3;"/><line style="stroke:#181818;stroke-width:0.3;" x1="238.05" x2="406.95" y1="257.2148" y2="257.2148"/><text fill="#000000" font-family="sans-serif" font-size="3.9" lengthAdjust="spacing" textLength="120.3" x="240.15" y="255.636">findJobOpeningsOfCustomerManagerFromCustomer(email, customer)</text><polygon fill="#181818" points="241.35,265.4021,238.35,266.6021,241.35,267.8021,240.15,266.6021" style="stroke:#181818;stroke-width:0.3;"/><line style="stroke:#181818;stroke-width:0.3;stroke-dasharray:2.0,2.0;" x1="239.55" x2="409.95" y1="266.6021" y2="266.6021"/><text fill="#000000" font-family="sans-serif" font-size="3.9" lengthAdjust="spacing" textLength="31.5" x="243.15" y="265.0233">List&lt;JobOpening&gt;</text><polygon fill="#181818" points="125.25,274.7895,122.25,275.9895,125.25,277.1895,124.05,275.9895" style="stroke:#181818;stroke-width:0.3;"/><line style="stroke:#181818;stroke-width:0.3;stroke-dasharray:2.0,2.0;" x1="123.45" x2="236.25" y1="275.9895" y2="275.9895"/><text fill="#000000" font-family="sans-serif" font-size="3.9" lengthAdjust="spacing" textLength="31.5" x="127.05" y="274.4106">List&lt;JobOpening&gt;</text><line style="stroke:#000000;stroke-width:0.3;stroke-dasharray:2.0,2.0;" x1="6" x2="435.75" y1="278.6895" y2="278.6895"/><text fill="#000000" font-family="sans-serif" font-size="3.3" font-weight="bold" lengthAdjust="spacing" textLength="19.5" x="7.5" y="282.2505">[otherwise]</text><polygon fill="#181818" points="231.45,289.166,234.45,290.366,231.45,291.566,232.65,290.366" style="stroke:#181818;stroke-width:0.3;"/><line style="stroke:#181818;stroke-width:0.3;" x1="121.95" x2="233.25" y1="290.366" y2="290.366"/><text fill="#000000" font-family="sans-serif" font-size="3.9" lengthAdjust="spacing" textLength="69.6" x="124.05" y="288.7872">findJobOpeningFromCustomerManager()</text><polygon fill="#181818" points="311.55,298.5533,314.55,299.7533,311.55,300.9533,312.75,299.7533" style="stroke:#181818;stroke-width:0.3;"/><line style="stroke:#181818;stroke-width:0.3;" x1="238.05" x2="313.35" y1="299.7533" y2="299.7533"/><text fill="#000000" font-family="sans-serif" font-size="3.9" lengthAdjust="spacing" textLength="69.9" x="240.15" y="298.1745">authenticatedUser().getEmail().toString()</text><polygon fill="#181818" points="241.35,307.9406,238.35,309.1406,241.35,310.3406,240.15,309.1406" style="stroke:#181818;stroke-width:0.3;"/><line style="stroke:#181818;stroke-width:0.3;stroke-dasharray:2.0,2.0;" x1="239.55" x2="316.35" y1="309.1406" y2="309.1406"/><text fill="#000000" font-family="sans-serif" font-size="3.9" lengthAdjust="spacing" textLength="69.9" x="243.15" y="307.5618">current customer manager email (String)</text><polygon fill="#181818" points="384.15,317.3279,387.15,318.5279,384.15,319.7279,385.35,318.5279" style="stroke:#181818;stroke-width:0.3;"/><line style="stroke:#181818;stroke-width:0.3;" x1="238.05" x2="385.95" y1="318.5279" y2="318.5279"/><text fill="#000000" font-family="sans-serif" font-size="3.9" lengthAdjust="spacing" textLength="26.7" x="240.15" y="316.9491">create instance</text><text fill="#000000" font-family="sans-serif" font-size="4.2" lengthAdjust="spacing" textLength="43.2" x="387.75" y="329.8729">JobOpeningRepository</text><path d="M404.85,314.5406 C404.85,311.5406 410.25,311.5406 410.25,311.5406 C410.25,311.5406 415.65,311.5406 415.65,314.5406 L415.65,322.3406 C415.65,325.3406 410.25,325.3406 410.25,325.3406 C410.25,325.3406 404.85,325.3406 404.85,322.3406 L404.85,314.5406 " fill="#E2E2F0" style="stroke:#181818;stroke-width:0.44999999999999996;"/><path d="M404.85,314.5406 C404.85,317.5406 410.25,317.5406 410.25,317.5406 C410.25,317.5406 415.65,317.5406 415.65,314.5406 " fill="none" style="stroke:#181818;stroke-width:0.44999999999999996;"/><polygon fill="#181818" points="405.15,339.7143,408.15,340.9143,405.15,342.1143,406.35,340.9143" style="stroke:#181818;stroke-width:0.3;"/><line style="stroke:#181818;stroke-width:0.3;" x1="238.05" x2="406.95" y1="340.9143" y2="340.9143"/><text fill="#000000" font-family="sans-serif" font-size="3.9" lengthAdjust="spacing" textLength="75.9" x="240.15" y="339.3354">findJobOpeningsOfCustomerManager(email)</text><polygon fill="#181818" points="241.35,349.1016,238.35,350.3016,241.35,351.5016,240.15,350.3016" style="stroke:#181818;stroke-width:0.3;"/><line style="stroke:#181818;stroke-width:0.3;stroke-dasharray:2.0,2.0;" x1="239.55" x2="409.95" y1="350.3016" y2="350.3016"/><text fill="#000000" font-family="sans-serif" font-size="3.9" lengthAdjust="spacing" textLength="31.5" x="243.15" y="348.7228">List&lt;JobOpening&gt;</text><polygon fill="#181818" points="125.25,358.4889,122.25,359.6889,125.25,360.8889,124.05,359.6889" style="stroke:#181818;stroke-width:0.3;"/><line style="stroke:#181818;stroke-width:0.3;stroke-dasharray:2.0,2.0;" x1="123.45" x2="236.25" y1="359.6889" y2="359.6889"/><text fill="#000000" font-family="sans-serif" font-size="3.9" lengthAdjust="spacing" textLength="31.5" x="127.05" y="358.1101">List&lt;JobOpening&gt;</text><path d="M3,366.2889 L21.3,366.2889 L21.3,369.0762 L18.3,372.0762 L3,372.0762 L3,366.2889 " fill="#EEEEEE" style="stroke:#000000;stroke-width:0.44999999999999996;"/><rect fill="none" height="108.1506" style="stroke:#000000;stroke-width:0.44999999999999996;" width="485.25" x="3" y="366.2889"/><text fill="#000000" font-family="sans-serif" font-size="3.9" font-weight="bold" lengthAdjust="spacing" textLength="4.8" x="7.5" y="370.7974">alt</text><text fill="#000000" font-family="sans-serif" font-size="3.3" font-weight="bold" lengthAdjust="spacing" textLength="61.5" x="25.8" y="370.4499">[if there are job openings that belong</text><text fill="#000000" font-family="sans-serif" font-size="3.3" font-weight="bold" lengthAdjust="spacing" textLength="57" x="25.8" y="374.8392">to the current Customer Manager]</text><polygon fill="#181818" points="32.85,382.142,29.85,383.342,32.85,384.542,31.65,383.342" style="stroke:#181818;stroke-width:0.3;"/><line style="stroke:#181818;stroke-width:0.3;stroke-dasharray:2.0,2.0;" x1="31.05" x2="118.65" y1="383.342" y2="383.342"/><text fill="#000000" font-family="sans-serif" font-size="3.9" lengthAdjust="spacing" textLength="39" x="34.65" y="381.7632">lists their job openings</text><polygon fill="#181818" points="115.35,391.5293,118.35,392.7293,115.35,393.9293,116.55,392.7293" style="stroke:#181818;stroke-width:0.3;"/><line style="stroke:#181818;stroke-width:0.3;" x1="29.55" x2="117.15" y1="392.7293" y2="392.7293"/><text fill="#000000" font-family="sans-serif" font-size="3.9" lengthAdjust="spacing" textLength="40.2" x="31.65" y="391.1505">selects the job opening</text><polygon fill="#181818" points="231.45,400.9166,234.45,402.1166,231.45,403.3166,232.65,402.1166" style="stroke:#181818;stroke-width:0.3;"/><line style="stroke:#181818;stroke-width:0.3;" x1="121.95" x2="233.25" y1="402.1166" y2="402.1166"/><text fill="#000000" font-family="sans-serif" font-size="3.9" lengthAdjust="spacing" textLength="80.4" x="124.05" y="400.5378">findJobApplicationsByJobOpening(jobOpening)</text><polygon fill="#181818" points="432.15,410.3039,435.15,411.5039,432.15,412.7039,433.35,411.5039" style="stroke:#181818;stroke-width:0.3;"/><line style="stroke:#181818;stroke-width:0.3;" x1="238.05" x2="433.95" y1="411.5039" y2="411.5039"/><text fill="#000000" font-family="sans-serif" font-size="3.9" lengthAdjust="spacing" textLength="26.7" x="240.15" y="409.9251">create instance</text><text fill="#000000" font-family="sans-serif" font-size="4.2" lengthAdjust="spacing" textLength="47.7" x="435.75" y="422.8488">JobApplicationRepository</text><path d="M455.1,407.5166 C455.1,404.5166 460.5,404.5166 460.5,404.5166 C460.5,404.5166 465.9,404.5166 465.9,407.5166 L465.9,415.3166 C465.9,418.3166 460.5,418.3166 460.5,418.3166 C460.5,418.3166 455.1,418.3166 455.1,415.3166 L455.1,407.5166 " fill="#E2E2F0" style="stroke:#181818;stroke-width:0.44999999999999996;"/><path d="M455.1,407.5166 C455.1,410.5166 460.5,410.5166 460.5,410.5166 C460.5,410.5166 465.9,410.5166 465.9,407.5166 " fill="none" style="stroke:#181818;stroke-width:0.44999999999999996;"/><polygon fill="#181818" points="455.4,432.6902,458.4,433.8902,455.4,435.0902,456.6,433.8902" style="stroke:#181818;stroke-width:0.3;"/><line style="stroke:#181818;stroke-width:0.3;" x1="238.05" x2="457.2" y1="433.8902" y2="433.8902"/><text fill="#000000" font-family="sans-serif" font-size="3.9" lengthAdjust="spacing" textLength="80.4" x="240.15" y="432.3114">findJobApplicationsByJobOpening(jobOpening)</text><polygon fill="#181818" points="241.35,442.0775,238.35,443.2775,241.35,444.4775,240.15,443.2775" style="stroke:#181818;stroke-width:0.3;"/><line style="stroke:#181818;stroke-width:0.3;stroke-dasharray:2.0,2.0;" x1="239.55" x2="460.2" y1="443.2775" y2="443.2775"/><text fill="#000000" font-family="sans-serif" font-size="3.9" lengthAdjust="spacing" textLength="36.3" x="243.15" y="441.6987">List&lt;JobApplication&gt;</text><polygon fill="#181818" points="125.25,451.4648,122.25,452.6648,125.25,453.8648,124.05,452.6648" style="stroke:#181818;stroke-width:0.3;"/><line style="stroke:#181818;stroke-width:0.3;stroke-dasharray:2.0,2.0;" x1="123.45" x2="236.25" y1="452.6648" y2="452.6648"/><text fill="#000000" font-family="sans-serif" font-size="3.9" lengthAdjust="spacing" textLength="36.3" x="127.05" y="451.086">List&lt;JobApplication&gt;</text><path d="M6,457.1648 L24.3,457.1648 L24.3,459.9521 L21.3,462.9521 L6,462.9521 L6,457.1648 " fill="#EEEEEE" style="stroke:#000000;stroke-width:0.44999999999999996;"/><rect fill="none" height="15.1746" style="stroke:#000000;stroke-width:0.44999999999999996;" width="147.45" x="6" y="457.1648"/><text fill="#000000" font-family="sans-serif" font-size="3.9" font-weight="bold" lengthAdjust="spacing" textLength="4.8" x="10.5" y="461.6733">alt</text><text fill="#000000" font-family="sans-serif" font-size="3.3" font-weight="bold" lengthAdjust="spacing" textLength="80.7" x="28.8" y="461.3259">[if there are job applications for that job opening]</text><polygon fill="#181818" points="32.85,468.7395,29.85,469.9395,32.85,471.1395,31.65,469.9395" style="stroke:#181818;stroke-width:0.3;"/><line style="stroke:#181818;stroke-width:0.3;stroke-dasharray:2.0,2.0;" x1="31.05" x2="118.65" y1="469.9395" y2="469.9395"/><text fill="#000000" font-family="sans-serif" font-size="3.9" lengthAdjust="spacing" textLength="42" x="34.65" y="468.3606">lists the job applications</text><!--SRC=[xPR1Rjim38RlVWgY9oTOXWxOBi4Ge0qs84E70irosqLnc5IT8taItI1lFygAOzcMqswd7dQ8OJlYJ-hdPqaY8stWQbvQqdiqy5qeiKDp1SB2og992c58Ph8GYk1EMlgcr_S5AgbsDqMHoqoGrCgk5bN0ufN3vrgHqNdE2Jbi_kFXhXN8GVPZwTBVbFIuHFCiCtGZJxV9Hf1O2ujGr_s0XRQIftAi17jlcuYce7PCx7qhAgY_7Hdz8qb8KewmMiA7w-jFCAdSO7KGWG-mPVC5FEarQ9yyIKH6ybaGUliJTuN9ZBs5AHZyNQ8b2wGXPxqgylM22vPRmCIfETKfL__BWjn2wHuFR7sbl9KvyVFw2Dd9o4uPGja36ilIERbm_ym25eveVP9PrTRnU0gPGSuUl9no1hMfcsI_6hsl7qxufQEcwegEn5rT_8c0yHXgOP3Aab1CHNUGgvJvGKNE7jouEQIZzpkaBtiXSxublIJ39eNvQiPgaScfQfUmD8RLphR0tfSBwFGWzMAZP8CzjNDjVJORZvgf38_kc7Txx5ZdfrOL59hO_o8YdqumLKVhvth8B9nHJAggjgRZGcZLoZQ23cDxTjHsI2janeIA4CGEHirt6-6eSIUj5LuYwqr24rkSBdy2qMMkwvYzttOC2ptq4Bs3Y7FHnJ99eacxK3M3Mcp49IDa3SJxPcBEYxNczfc3jFYNjAJ_sRZ4HczHURiKg0rlI-VjoU70nmV-1ViYxtIFWc2DkLQxdugtFHvsRaZtF1HVjJX2cfPeP_coc6Fc1xRtv0YNuVdezjZCBtqwtmxo6Js2N8OWVfpvnse6Za3n714KWe6jTWxendaO4l5MHLde7Pqg9dgTYlIz5-wfuop1JL04dxt-0000]--></g></svg>