<?xml version="1.0" encoding="us-ascii" standalone="no"?><svg xmlns="http://www.w3.org/2000/svg" xmlns:xlink="http://www.w3.org/1999/xlink" contentStyleType="text/css" height="562.1px" preserveAspectRatio="none" style="width:723px;height:562px;background:#FFFFFF;" version="1.1" viewBox="0 0 723 562" width="723.1px" zoomAndPan="magnify"><defs/><g><text fill="#000000" font-family="sans-serif" font-size="9.8" font-weight="bold" lengthAdjust="spacing" textLength="229.6" x="247.45" y="21.0752">US 1005 - Listing applications for a job opening</text><text fill="#000000" font-family="sans-serif" font-size="9.8" font-weight="bold" lengthAdjust="spacing" textLength="127.4" x="298.55" y="34.11">Partial - Finding Openings</text><rect fill="#FFFFFF" height="402.9594" style="stroke:#181818;stroke-width:0.6999999999999998;" width="7" x="80.5" y="96.5043"/><rect fill="#FFFFFF" height="161.7533" style="stroke:#181818;stroke-width:0.6999999999999998;" width="7" x="351.4" y="131.2117"/><rect fill="#FFFFFF" height="161.7533" style="stroke:#181818;stroke-width:0.6999999999999998;" width="7" x="351.4" y="326.5104"/><rect fill="#FFFFFF" height="21.9037" style="stroke:#181818;stroke-width:0.6999999999999998;" width="7" x="538.3" y="153.1154"/><rect fill="#FFFFFF" height="21.9037" style="stroke:#181818;stroke-width:0.6999999999999998;" width="7" x="538.3" y="348.4141"/><rect fill="#FFFFFF" height="21.9037" style="stroke:#181818;stroke-width:0.6999999999999998;" width="7" x="655.2" y="249.1576"/><rect fill="#FFFFFF" height="21.9037" style="stroke:#181818;stroke-width:0.6999999999999998;" width="7" x="655.2" y="444.4562"/><rect fill="none" height="392.4594" style="stroke:#000000;stroke-width:1.0499999999999998;" width="711.2" x="7" y="101.4043"/><line style="stroke:#181818;stroke-width:0.3499999999999999;stroke-dasharray:5.0,5.0;" x1="84" x2="84" y1="89.5043" y2="505.7637"/><line style="stroke:#181818;stroke-width:0.3499999999999999;stroke-dasharray:5.0,5.0;" x1="354.9" x2="354.9" y1="89.5043" y2="505.7637"/><line style="stroke:#181818;stroke-width:0.3499999999999999;stroke-dasharray:5.0,5.0;" x1="541.8" x2="541.8" y1="89.5043" y2="505.7637"/><line style="stroke:#181818;stroke-width:0.3499999999999999;stroke-dasharray:5.0,5.0;" x1="658.7" x2="658.7" y1="409.0352" y2="505.7637"/><rect fill="#E2E2F0" height="22.8348" rx="1.75" ry="1.75" style="stroke:#181818;stroke-width:0.3499999999999999;" width="140" x="14" y="65.9695"/><text fill="#000000" font-family="sans-serif" font-size="9.8" lengthAdjust="spacing" textLength="130.2" x="18.9" y="81.4447">ListJobOpeningApplicationsUI</text><rect fill="#E2E2F0" height="22.8348" rx="1.75" ry="1.75" style="stroke:#181818;stroke-width:0.3499999999999999;" width="140" x="14" y="505.0637"/><text fill="#000000" font-family="sans-serif" font-size="9.8" lengthAdjust="spacing" textLength="130.2" x="18.9" y="520.5389">ListJobOpeningApplicationsUI</text><rect fill="#E2E2F0" height="22.8348" rx="1.75" ry="1.75" style="stroke:#181818;stroke-width:0.3499999999999999;" width="175" x="267.4" y="65.9695"/><text fill="#000000" font-family="sans-serif" font-size="9.8" lengthAdjust="spacing" textLength="165.2" x="272.3" y="81.4447">ListJobOpeningApplicationsController</text><rect fill="#E2E2F0" height="22.8348" rx="1.75" ry="1.75" style="stroke:#181818;stroke-width:0.3499999999999999;" width="175" x="267.4" y="505.0637"/><text fill="#000000" font-family="sans-serif" font-size="9.8" lengthAdjust="spacing" textLength="165.2" x="272.3" y="520.5389">ListJobOpeningApplicationsController</text><rect fill="#E2E2F0" height="22.8348" rx="1.75" ry="1.75" style="stroke:#181818;stroke-width:0.3499999999999999;" width="114.8" x="484.4" y="65.9695"/><text fill="#000000" font-family="sans-serif" font-size="9.8" lengthAdjust="spacing" textLength="105" x="489.3" y="81.4447">Jobs4uUserAuthService</text><rect fill="#E2E2F0" height="22.8348" rx="1.75" ry="1.75" style="stroke:#181818;stroke-width:0.3499999999999999;" width="114.8" x="484.4" y="505.0637"/><text fill="#000000" font-family="sans-serif" font-size="9.8" lengthAdjust="spacing" textLength="105" x="489.3" y="520.5389">Jobs4uUserAuthService</text><text fill="#000000" font-family="sans-serif" font-size="9.8" lengthAdjust="spacing" textLength="100.8" x="606.2" y="515.6389">JobOpeningRepository</text><path d="M646.1,525.0984 C646.1,518.0984 658.7,518.0984 658.7,518.0984 C658.7,518.0984 671.3,518.0984 671.3,525.0984 L671.3,543.2984 C671.3,550.2984 658.7,550.2984 658.7,550.2984 C658.7,550.2984 646.1,550.2984 646.1,543.2984 L646.1,525.0984 " fill="#E2E2F0" style="stroke:#181818;stroke-width:1.0499999999999998;"/><path d="M646.1,525.0984 C646.1,532.0984 658.7,532.0984 658.7,532.0984 C658.7,532.0984 671.3,532.0984 671.3,525.0984 " fill="none" style="stroke:#181818;stroke-width:1.0499999999999998;"/><rect fill="#FFFFFF" height="402.9594" style="stroke:#181818;stroke-width:0.6999999999999998;" width="7" x="80.5" y="96.5043"/><rect fill="#FFFFFF" height="161.7533" style="stroke:#181818;stroke-width:0.6999999999999998;" width="7" x="351.4" y="131.2117"/><rect fill="#FFFFFF" height="161.7533" style="stroke:#181818;stroke-width:0.6999999999999998;" width="7" x="351.4" y="326.5104"/><rect fill="#FFFFFF" height="21.9037" style="stroke:#181818;stroke-width:0.6999999999999998;" width="7" x="538.3" y="153.1154"/><rect fill="#FFFFFF" height="21.9037" style="stroke:#181818;stroke-width:0.6999999999999998;" width="7" x="538.3" y="348.4141"/><rect fill="#FFFFFF" height="21.9037" style="stroke:#181818;stroke-width:0.6999999999999998;" width="7" x="655.2" y="249.1576"/><rect fill="#FFFFFF" height="21.9037" style="stroke:#181818;stroke-width:0.6999999999999998;" width="7" x="655.2" y="444.4562"/><path d="M7,101.4043 L49.7,101.4043 L49.7,107.908 L42.7,114.908 L7,114.908 L7,101.4043 " fill="#EEEEEE" style="stroke:#000000;stroke-width:1.0499999999999998;"/><rect fill="none" height="392.4594" style="stroke:#000000;stroke-width:1.0499999999999998;" width="711.2" x="7" y="101.4043"/><text fill="#000000" font-family="sans-serif" font-size="9.1" font-weight="bold" lengthAdjust="spacing" textLength="11.2" x="17.5" y="111.9241">alt</text><text fill="#000000" font-family="sans-serif" font-size="7.7" font-weight="bold" lengthAdjust="spacing" textLength="76.3" x="60.2" y="111.1134">[if answer was yes]</text><polygon fill="#181818" points="343,128.4117,350,131.2117,343,134.0117,345.8,131.2117" style="stroke:#181818;stroke-width:0.6999999999999998;"/><line style="stroke:#181818;stroke-width:0.6999999999999998;" x1="87.5" x2="347.2" y1="131.2117" y2="131.2117"/><text fill="#000000" font-family="sans-serif" font-size="9.1" lengthAdjust="spacing" textLength="250.6" x="92.4" y="127.5278">findJobOpeningFromCustomerManagerByCustomer(customer)</text><polygon fill="#181818" points="529.9,150.3154,536.9,153.1154,529.9,155.9154,532.7,153.1154" style="stroke:#181818;stroke-width:0.6999999999999998;"/><line style="stroke:#181818;stroke-width:0.6999999999999998;" x1="358.4" x2="534.1" y1="153.1154" y2="153.1154"/><text fill="#000000" font-family="sans-serif" font-size="9.1" lengthAdjust="spacing" textLength="163.1" x="363.3" y="149.4315">authenticatedUser().getEmail().toString()</text><polygon fill="#181818" points="366.1,172.2191,359.1,175.0191,366.1,177.8191,363.3,175.0191" style="stroke:#181818;stroke-width:0.6999999999999998;"/><line style="stroke:#181818;stroke-width:0.6999999999999998;stroke-dasharray:2.0,2.0;" x1="361.9" x2="541.1" y1="175.0191" y2="175.0191"/><text fill="#000000" font-family="sans-serif" font-size="9.1" lengthAdjust="spacing" textLength="163.1" x="370.3" y="171.3353">current customer manager email (String)</text><polygon fill="#181818" points="597.8,194.1229,604.8,196.9229,597.8,199.7229,600.6,196.9229" style="stroke:#181818;stroke-width:0.6999999999999998;"/><line style="stroke:#181818;stroke-width:0.6999999999999998;" x1="358.4" x2="602" y1="196.9229" y2="196.9229"/><text fill="#000000" font-family="sans-serif" font-size="9.1" lengthAdjust="spacing" textLength="62.3" x="363.3" y="193.239">create instance</text><text fill="#000000" font-family="sans-serif" font-size="9.8" lengthAdjust="spacing" textLength="100.8" x="606.2" y="223.3943">JobOpeningRepository</text><path d="M646.1,187.6191 C646.1,180.6191 658.7,180.6191 658.7,180.6191 C658.7,180.6191 671.3,180.6191 671.3,187.6191 L671.3,205.8191 C671.3,212.8191 658.7,212.8191 658.7,212.8191 C658.7,212.8191 646.1,212.8191 646.1,205.8191 L646.1,187.6191 " fill="#E2E2F0" style="stroke:#181818;stroke-width:1.0499999999999998;"/><path d="M646.1,187.6191 C646.1,194.6191 658.7,194.6191 658.7,194.6191 C658.7,194.6191 671.3,194.6191 671.3,187.6191 " fill="none" style="stroke:#181818;stroke-width:1.0499999999999998;"/><polygon fill="#181818" points="646.8,246.3576,653.8,249.1576,646.8,251.9576,649.6,249.1576" style="stroke:#181818;stroke-width:0.6999999999999998;"/><line style="stroke:#181818;stroke-width:0.6999999999999998;" x1="358.4" x2="651" y1="249.1576" y2="249.1576"/><text fill="#000000" font-family="sans-serif" font-size="9.1" lengthAdjust="spacing" textLength="280.7" x="363.3" y="245.4737">findJobOpeningsOfCustomerManagerFromCustomer(email, customer)</text><polygon fill="#181818" points="366.1,268.2613,359.1,271.0613,366.1,273.8613,363.3,271.0613" style="stroke:#181818;stroke-width:0.6999999999999998;"/><line style="stroke:#181818;stroke-width:0.6999999999999998;stroke-dasharray:2.0,2.0;" x1="361.9" x2="658" y1="271.0613" y2="271.0613"/><text fill="#000000" font-family="sans-serif" font-size="9.1" lengthAdjust="spacing" textLength="73.5" x="370.3" y="267.3774">List&lt;JobOpening&gt;</text><polygon fill="#181818" points="95.2,290.165,88.2,292.965,95.2,295.765,92.4,292.965" style="stroke:#181818;stroke-width:0.6999999999999998;"/><line style="stroke:#181818;stroke-width:0.6999999999999998;stroke-dasharray:2.0,2.0;" x1="91" x2="354.2" y1="292.965" y2="292.965"/><text fill="#000000" font-family="sans-serif" font-size="9.1" lengthAdjust="spacing" textLength="73.5" x="99.4" y="289.2812">List&lt;JobOpening&gt;</text><line style="stroke:#000000;stroke-width:0.6999999999999998;stroke-dasharray:2.0,2.0;" x1="7" x2="718.2" y1="299.265" y2="299.265"/><text fill="#000000" font-family="sans-serif" font-size="7.7" font-weight="bold" lengthAdjust="spacing" textLength="45.5" x="10.5" y="307.5741">[otherwise]</text><polygon fill="#181818" points="343,323.7104,350,326.5104,343,329.3104,345.8,326.5104" style="stroke:#181818;stroke-width:0.6999999999999998;"/><line style="stroke:#181818;stroke-width:0.6999999999999998;" x1="87.5" x2="347.2" y1="326.5104" y2="326.5104"/><text fill="#000000" font-family="sans-serif" font-size="9.1" lengthAdjust="spacing" textLength="162.4" x="92.4" y="322.8265">findJobOpeningFromCustomerManager()</text><polygon fill="#181818" points="529.9,345.6141,536.9,348.4141,529.9,351.2141,532.7,348.4141" style="stroke:#181818;stroke-width:0.6999999999999998;"/><line style="stroke:#181818;stroke-width:0.6999999999999998;" x1="358.4" x2="534.1" y1="348.4141" y2="348.4141"/><text fill="#000000" font-family="sans-serif" font-size="9.1" lengthAdjust="spacing" textLength="163.1" x="363.3" y="344.7302">authenticatedUser().getEmail().toString()</text><polygon fill="#181818" points="366.1,367.5178,359.1,370.3178,366.1,373.1178,363.3,370.3178" style="stroke:#181818;stroke-width:0.6999999999999998;"/><line style="stroke:#181818;stroke-width:0.6999999999999998;stroke-dasharray:2.0,2.0;" x1="361.9" x2="541.1" y1="370.3178" y2="370.3178"/><text fill="#000000" font-family="sans-serif" font-size="9.1" lengthAdjust="spacing" textLength="163.1" x="370.3" y="366.6339">current customer manager email (String)</text><polygon fill="#181818" points="597.8,389.4215,604.8,392.2215,597.8,395.0215,600.6,392.2215" style="stroke:#181818;stroke-width:0.6999999999999998;"/><line style="stroke:#181818;stroke-width:0.6999999999999998;" x1="358.4" x2="602" y1="392.2215" y2="392.2215"/><text fill="#000000" font-family="sans-serif" font-size="9.1" lengthAdjust="spacing" textLength="62.3" x="363.3" y="388.5376">create instance</text><text fill="#000000" font-family="sans-serif" font-size="9.8" lengthAdjust="spacing" textLength="100.8" x="606.2" y="418.693">JobOpeningRepository</text><path d="M646.1,382.9178 C646.1,375.9178 658.7,375.9178 658.7,375.9178 C658.7,375.9178 671.3,375.9178 671.3,382.9178 L671.3,401.1178 C671.3,408.1178 658.7,408.1178 658.7,408.1178 C658.7,408.1178 646.1,408.1178 646.1,401.1178 L646.1,382.9178 " fill="#E2E2F0" style="stroke:#181818;stroke-width:1.0499999999999998;"/><path d="M646.1,382.9178 C646.1,389.9178 658.7,389.9178 658.7,389.9178 C658.7,389.9178 671.3,389.9178 671.3,382.9178 " fill="none" style="stroke:#181818;stroke-width:1.0499999999999998;"/><polygon fill="#181818" points="646.8,441.6562,653.8,444.4562,646.8,447.2562,649.6,444.4562" style="stroke:#181818;stroke-width:0.6999999999999998;"/><line style="stroke:#181818;stroke-width:0.6999999999999998;" x1="358.4" x2="651" y1="444.4562" y2="444.4562"/><text fill="#000000" font-family="sans-serif" font-size="9.1" lengthAdjust="spacing" textLength="177.1" x="363.3" y="440.7724">findJobOpeningsOfCustomerManager(email)</text><polygon fill="#181818" points="366.1,463.56,359.1,466.36,366.1,469.16,363.3,466.36" style="stroke:#181818;stroke-width:0.6999999999999998;"/><line style="stroke:#181818;stroke-width:0.6999999999999998;stroke-dasharray:2.0,2.0;" x1="361.9" x2="658" y1="466.36" y2="466.36"/><text fill="#000000" font-family="sans-serif" font-size="9.1" lengthAdjust="spacing" textLength="73.5" x="370.3" y="462.6761">List&lt;JobOpening&gt;</text><polygon fill="#181818" points="95.2,485.4637,88.2,488.2637,95.2,491.0637,92.4,488.2637" style="stroke:#181818;stroke-width:0.6999999999999998;"/><line style="stroke:#181818;stroke-width:0.6999999999999998;stroke-dasharray:2.0,2.0;" x1="91" x2="354.2" y1="488.2637" y2="488.2637"/><text fill="#000000" font-family="sans-serif" font-size="9.1" lengthAdjust="spacing" textLength="73.5" x="99.4" y="484.5798">List&lt;JobOpening&gt;</text><!--SRC=[xPH1Jy9048Nl-olcM8WOJFH230aIIJ0O3CZDoz0EkARiDhjJ2F_UsPPAnGRrQEAbsMpcVVlcpQGPEjQnpj0mJBJd1xkSPcIqMG-oBDKnihR6ByQ07XPZbVseV6WDEvkcv89i-3oRV1AAo5_d2qzkaFFhdDnMnnGg3qUL8ECIFS4HFwFCUitMxKDXqxrIh3abMCpXgjkzWKvXK4e0QzPWPSKKlDabs9BmOfw2Dqn5CT8c2Oe3t2k5CUijCeNc5QOCUWLe_4vQsucHFKcDfDFf5stsO2M4exkHivjXxjbko3sYmJMvktrr4SM7G-luIf6L2j-0hABf0KfGP3XqGKb8BcfThedlDwXJERATivFteXgg2hE2T0uUXHRdpWaDAWEmARq11Hv49Qob4lf2-_3MD89sEy0T1O4sdj5yfu3JnFnqTH9OFSEeC7W13SarhuHgVBGMHTYHssDHlzvpCx9iHmWozlFwSfYKoY9R6P_RQK-_t9ReVpVExKQv3tzY2qmYlmxr3W00]--></g></svg>