<?xml version="1.0" encoding="us-ascii" standalone="no"?><svg xmlns="http://www.w3.org/2000/svg" xmlns:xlink="http://www.w3.org/1999/xlink" contentStyleType="text/css" height="605px" preserveAspectRatio="none" style="width:960px;height:605px;background:#FFFFFF;" version="1.1" viewBox="0 0 960 605" width="960px" zoomAndPan="magnify"><defs/><g><text fill="#000000" font-family="sans-serif" font-size="14" font-weight="bold" lengthAdjust="spacing" textLength="328" x="317.5" y="30.1074">US 1005 - Listing applications for a job opening</text><text fill="#000000" font-family="sans-serif" font-size="14" font-weight="bold" lengthAdjust="spacing" textLength="98" x="432.5" y="48.7285">Partial - Setup</text><rect fill="#FFFFFF" height="361.2402" style="stroke:#181818;stroke-width:1.0;" width="10" x="88.5" y="151.8633"/><rect fill="#FFFFFF" height="360.2402" style="stroke:#181818;stroke-width:1.0;" width="10" x="262.5" y="151.8633"/><rect fill="#FFFFFF" height="168.4941" style="stroke:#181818;stroke-width:1.0;" width="10" x="559.5" y="264.0273"/><rect fill="#FFFFFF" height="31.291" style="stroke:#181818;stroke-width:1.0;" width="10" x="856.5" y="369.9395"/><rect fill="none" height="346.2402" style="stroke:#000000;stroke-width:1.5;" width="944" x="10" y="158.8633"/><rect fill="none" height="50.582" style="stroke:#000000;stroke-width:1.5;" width="357.5" x="20" y="447.5215"/><line style="stroke:#181818;stroke-width:0.5;stroke-dasharray:5.0,5.0;" x1="93" x2="93" y1="141.8633" y2="522.1035"/><line style="stroke:#181818;stroke-width:0.5;stroke-dasharray:5.0,5.0;" x1="267.5" x2="267.5" y1="141.8633" y2="522.1035"/><line style="stroke:#181818;stroke-width:0.5;stroke-dasharray:5.0,5.0;" x1="564.5" x2="564.5" y1="141.8633" y2="522.1035"/><line style="stroke:#181818;stroke-width:0.5;stroke-dasharray:5.0,5.0;" x1="861" x2="861" y1="319.3379" y2="522.1035"/><text fill="#000000" font-family="sans-serif" font-size="14" lengthAdjust="spacing" textLength="121" x="30" y="138.3496">Customer Manager</text><ellipse cx="93.5" cy="71.7422" fill="#E2E2F0" rx="8" ry="8" style="stroke:#181818;stroke-width:0.5;"/><path d="M93.5,79.7422 L93.5,106.7422 M80.5,87.7422 L106.5,87.7422 M93.5,106.7422 L80.5,121.7422 M93.5,106.7422 L106.5,121.7422 " fill="none" style="stroke:#181818;stroke-width:0.5;"/><text fill="#000000" font-family="sans-serif" font-size="14" lengthAdjust="spacing" textLength="121" x="30" y="536.2109">Customer Manager</text><ellipse cx="93.5" cy="548.2246" fill="#E2E2F0" rx="8" ry="8" style="stroke:#181818;stroke-width:0.5;"/><path d="M93.5,556.2246 L93.5,583.2246 M80.5,564.2246 L106.5,564.2246 M93.5,583.2246 L80.5,598.2246 M93.5,583.2246 L106.5,598.2246 " fill="none" style="stroke:#181818;stroke-width:0.5;"/><rect fill="#E2E2F0" height="32.6211" rx="2.5" ry="2.5" style="stroke:#181818;stroke-width:0.5;" width="200" x="167.5" y="108.2422"/><text fill="#000000" font-family="sans-serif" font-size="14" lengthAdjust="spacing" textLength="186" x="174.5" y="130.3496">ListJobOpeningApplicationsUI</text><rect fill="#E2E2F0" height="32.6211" rx="2.5" ry="2.5" style="stroke:#181818;stroke-width:0.5;" width="200" x="167.5" y="521.1035"/><text fill="#000000" font-family="sans-serif" font-size="14" lengthAdjust="spacing" textLength="186" x="174.5" y="543.2109">ListJobOpeningApplicationsUI</text><rect fill="#E2E2F0" height="32.6211" rx="2.5" ry="2.5" style="stroke:#181818;stroke-width:0.5;" width="250" x="439.5" y="108.2422"/><text fill="#000000" font-family="sans-serif" font-size="14" lengthAdjust="spacing" textLength="236" x="446.5" y="130.3496">ListJobOpeningApplicationsController</text><rect fill="#E2E2F0" height="32.6211" rx="2.5" ry="2.5" style="stroke:#181818;stroke-width:0.5;" width="250" x="439.5" y="521.1035"/><text fill="#000000" font-family="sans-serif" font-size="14" lengthAdjust="spacing" textLength="236" x="446.5" y="543.2109">ListJobOpeningApplicationsController</text><text fill="#000000" font-family="sans-serif" font-size="14" lengthAdjust="spacing" textLength="159" x="779" y="536.2109">JobApplicationRepository</text><path d="M843.5,549.7246 C843.5,539.7246 861.5,539.7246 861.5,539.7246 C861.5,539.7246 879.5,539.7246 879.5,549.7246 L879.5,575.7246 C879.5,585.7246 861.5,585.7246 861.5,585.7246 C861.5,585.7246 843.5,585.7246 843.5,575.7246 L843.5,549.7246 " fill="#E2E2F0" style="stroke:#181818;stroke-width:1.5;"/><path d="M843.5,549.7246 C843.5,559.7246 861.5,559.7246 861.5,559.7246 C861.5,559.7246 879.5,559.7246 879.5,549.7246 " fill="none" style="stroke:#181818;stroke-width:1.5;"/><rect fill="#FFFFFF" height="361.2402" style="stroke:#181818;stroke-width:1.0;" width="10" x="88.5" y="151.8633"/><rect fill="#FFFFFF" height="360.2402" style="stroke:#181818;stroke-width:1.0;" width="10" x="262.5" y="151.8633"/><rect fill="#FFFFFF" height="168.4941" style="stroke:#181818;stroke-width:1.0;" width="10" x="559.5" y="264.0273"/><rect fill="#FFFFFF" height="31.291" style="stroke:#181818;stroke-width:1.0;" width="10" x="856.5" y="369.9395"/><path d="M10,158.8633 L71,158.8633 L71,168.1543 L61,178.1543 L10,178.1543 L10,158.8633 " fill="#EEEEEE" style="stroke:#000000;stroke-width:1.5;"/><rect fill="none" height="346.2402" style="stroke:#000000;stroke-width:1.5;" width="944" x="10" y="158.8633"/><text fill="#000000" font-family="sans-serif" font-size="13" font-weight="bold" lengthAdjust="spacing" textLength="16" x="25" y="173.8916">alt</text><text fill="#000000" font-family="sans-serif" font-size="11" font-weight="bold" lengthAdjust="spacing" textLength="398" x="86" y="172.7334">[if there are job openings that belong to the current Customer Manager]</text><polygon fill="#181818" points="109.5,197.4453,99.5,201.4453,109.5,205.4453,105.5,201.4453" style="stroke:#181818;stroke-width:1.0;"/><line style="stroke:#181818;stroke-width:1.0;stroke-dasharray:2.0,2.0;" x1="103.5" x2="261.5" y1="201.4453" y2="201.4453"/><text fill="#000000" font-family="sans-serif" font-size="13" lengthAdjust="spacing" textLength="130" x="115.5" y="196.1826">lists their job openings</text><polygon fill="#181818" points="250.5,228.7363,260.5,232.7363,250.5,236.7363,254.5,232.7363" style="stroke:#181818;stroke-width:1.0;"/><line style="stroke:#181818;stroke-width:1.0;" x1="98.5" x2="256.5" y1="232.7363" y2="232.7363"/><text fill="#000000" font-family="sans-serif" font-size="13" lengthAdjust="spacing" textLength="134" x="105.5" y="227.4736">selects the job opening</text><polygon fill="#181818" points="547.5,260.0273,557.5,264.0273,547.5,268.0273,551.5,264.0273" style="stroke:#181818;stroke-width:1.0;"/><line style="stroke:#181818;stroke-width:1.0;" x1="272.5" x2="553.5" y1="264.0273" y2="264.0273"/><text fill="#000000" font-family="sans-serif" font-size="13" lengthAdjust="spacing" textLength="268" x="279.5" y="258.7646">findJobApplicationsByJobOpening(jobOpening)</text><polygon fill="#181818" points="767,291.3184,777,295.3184,767,299.3184,771,295.3184" style="stroke:#181818;stroke-width:1.0;"/><line style="stroke:#181818;stroke-width:1.0;" x1="569.5" x2="773" y1="295.3184" y2="295.3184"/><text fill="#000000" font-family="sans-serif" font-size="13" lengthAdjust="spacing" textLength="89" x="576.5" y="290.0557">create instance</text><text fill="#000000" font-family="sans-serif" font-size="14" lengthAdjust="spacing" textLength="159" x="779" y="333.1348">JobApplicationRepository</text><path d="M843.5,282.0273 C843.5,272.0273 861.5,272.0273 861.5,272.0273 C861.5,272.0273 879.5,272.0273 879.5,282.0273 L879.5,308.0273 C879.5,318.0273 861.5,318.0273 861.5,318.0273 C861.5,318.0273 843.5,318.0273 843.5,308.0273 L843.5,282.0273 " fill="#E2E2F0" style="stroke:#181818;stroke-width:1.5;"/><path d="M843.5,282.0273 C843.5,292.0273 861.5,292.0273 861.5,292.0273 C861.5,292.0273 879.5,292.0273 879.5,282.0273 " fill="none" style="stroke:#181818;stroke-width:1.5;"/><polygon fill="#181818" points="844.5,365.9395,854.5,369.9395,844.5,373.9395,848.5,369.9395" style="stroke:#181818;stroke-width:1.0;"/><line style="stroke:#181818;stroke-width:1.0;" x1="569.5" x2="850.5" y1="369.9395" y2="369.9395"/><text fill="#000000" font-family="sans-serif" font-size="13" lengthAdjust="spacing" textLength="268" x="576.5" y="364.6768">findJobApplicationsByJobOpening(jobOpening)</text><polygon fill="#181818" points="580.5,397.2305,570.5,401.2305,580.5,405.2305,576.5,401.2305" style="stroke:#181818;stroke-width:1.0;"/><line style="stroke:#181818;stroke-width:1.0;stroke-dasharray:2.0,2.0;" x1="574.5" x2="860.5" y1="401.2305" y2="401.2305"/><text fill="#000000" font-family="sans-serif" font-size="13" lengthAdjust="spacing" textLength="121" x="586.5" y="395.9678">List&lt;JobApplication&gt;</text><polygon fill="#181818" points="283.5,428.5215,273.5,432.5215,283.5,436.5215,279.5,432.5215" style="stroke:#181818;stroke-width:1.0;"/><line style="stroke:#181818;stroke-width:1.0;stroke-dasharray:2.0,2.0;" x1="277.5" x2="563.5" y1="432.5215" y2="432.5215"/><text fill="#000000" font-family="sans-serif" font-size="13" lengthAdjust="spacing" textLength="121" x="289.5" y="427.2588">List&lt;JobApplication&gt;</text><path d="M20,447.5215 L81,447.5215 L81,456.8125 L71,466.8125 L20,466.8125 L20,447.5215 " fill="#EEEEEE" style="stroke:#000000;stroke-width:1.5;"/><rect fill="none" height="50.582" style="stroke:#000000;stroke-width:1.5;" width="357.5" x="20" y="447.5215"/><text fill="#000000" font-family="sans-serif" font-size="13" font-weight="bold" lengthAdjust="spacing" textLength="16" x="35" y="462.5498">alt</text><text fill="#000000" font-family="sans-serif" font-size="11" font-weight="bold" lengthAdjust="spacing" textLength="269" x="96" y="461.3916">[if there are job applications for that job opening]</text><polygon fill="#181818" points="109.5,486.1035,99.5,490.1035,109.5,494.1035,105.5,490.1035" style="stroke:#181818;stroke-width:1.0;"/><line style="stroke:#181818;stroke-width:1.0;stroke-dasharray:2.0,2.0;" x1="103.5" x2="261.5" y1="490.1035" y2="490.1035"/><text fill="#000000" font-family="sans-serif" font-size="13" lengthAdjust="spacing" textLength="140" x="115.5" y="484.8408">lists the job applications</text><!--SRC=[dLB1JiCm3BtdAwoTO5AbSU0oeKcmKz4GQ6CtBcxgZKmXYH8FQN-FqmBjMD4GXrPfy_pUyxDHiuymckyJ-pUAy80EjnH7W0dMYQ8A6Dbe4z0nB4pYUryz1dB6RMz3i4OZ6-_IkcmAoZ_2vzvnzDQAe9JDdvSBLIDZXOb0AdhG9GMVZ7WyPEJWXL9is1AiLt0rcLn3qGYB8c1F4ZRI9yBEL-1RGo_kAPj5AnKhudrG2ZMRTsHgM- - -Ihco36O3_4gH0ENfCINvZGmLMI-gx3CAz3v6aXH-HgkKX5KKiqO3fc35R2OW4uyu1PS16LWAB94btGBxi9PjrcGuXOrnzN5-wUxGZU1YztsyxBfhubVvdOa68nwFnO6EbE769KQdwKm9_DFDBoCUrYW-EnUnFFEROxMPgkaSRzl3LyZdIDge1bVXPDUQbJYPrC3SJygL8bU3gFGEFHEoZHy0]--></g></svg>