<?xml version="1.0" encoding="us-ascii" standalone="no"?><svg xmlns="http://www.w3.org/2000/svg" xmlns:xlink="http://www.w3.org/1999/xlink" contentStyleType="text/css" height="470.4px" preserveAspectRatio="none" style="width:694px;height:470px;background:#FFFFFF;" version="1.1" viewBox="0 0 694 470" width="694.2px" zoomAndPan="magnify"><defs/><g><text fill="#000000" font-family="sans-serif" font-size="8.4" font-weight="bold" lengthAdjust="spacing" textLength="196.8" x="249.75" y="18.0645">US 1005 - Listing applications for a job opening</text><text fill="#000000" font-family="sans-serif" font-size="8.4" font-weight="bold" lengthAdjust="spacing" textLength="58.8" x="318.75" y="29.2371">Partial - Setup</text><rect fill="#FFFFFF" height="324.2133" style="stroke:#181818;stroke-width:0.6;" width="6" x="47.1" y="91.118"/><rect fill="#FFFFFF" height="310.2387" style="stroke:#181818;stroke-width:0.6;" width="6" x="231.9" y="105.0926"/><rect fill="#FFFFFF" height="164.8184" style="stroke:#181818;stroke-width:0.6;" width="6" x="385.5" y="203.3637"/><rect fill="#FFFFFF" height="18.7746" style="stroke:#181818;stroke-width:0.6;" width="6" x="545.7" y="248.3109"/><rect fill="#FFFFFF" height="18.7746" style="stroke:#181818;stroke-width:0.6;" width="6" x="641.4" y="330.6328"/><rect fill="none" height="258.8895" style="stroke:#000000;stroke-width:0.8999999999999999;" width="684.9" x="6" y="151.6418"/><line style="stroke:#181818;stroke-width:0.3;stroke-dasharray:5.0,5.0;" x1="49.8" x2="49.8" y1="85.118" y2="420.7313"/><line style="stroke:#181818;stroke-width:0.3;stroke-dasharray:5.0,5.0;" x1="234.9" x2="234.9" y1="85.118" y2="420.7313"/><line style="stroke:#181818;stroke-width:0.3;stroke-dasharray:5.0,5.0;" x1="388.5" x2="388.5" y1="182.3027" y2="420.7313"/><line style="stroke:#181818;stroke-width:0.3;stroke-dasharray:5.0,5.0;" x1="548.7" x2="548.7" y1="227.25" y2="420.7313"/><line style="stroke:#181818;stroke-width:0.3;stroke-dasharray:5.0,5.0;" x1="644.1" x2="644.1" y1="300.2719" y2="420.7313"/><text fill="#000000" font-family="sans-serif" font-size="8.4" lengthAdjust="spacing" textLength="72.6" x="12" y="83.0098">Customer Manager</text><ellipse cx="50.1" cy="43.0453" fill="#E2E2F0" rx="4.8" ry="4.8" style="stroke:#181818;stroke-width:0.3;"/><path d="M50.1,47.8453 L50.1,64.0453 M42.3,52.6453 L57.9,52.6453 M50.1,64.0453 L42.3,73.0453 M50.1,64.0453 L57.9,73.0453 " fill="none" style="stroke:#181818;stroke-width:0.3;"/><text fill="#000000" font-family="sans-serif" font-size="8.4" lengthAdjust="spacing" textLength="72.6" x="12" y="429.1957">Customer Manager</text><ellipse cx="50.1" cy="436.4039" fill="#E2E2F0" rx="4.8" ry="4.8" style="stroke:#181818;stroke-width:0.3;"/><path d="M50.1,441.2039 L50.1,457.4039 M42.3,446.0039 L57.9,446.0039 M50.1,457.4039 L42.3,466.4039 M50.1,457.4039 L57.9,466.4039 " fill="none" style="stroke:#181818;stroke-width:0.3;"/><rect fill="#E2E2F0" height="19.5727" rx="1.5" ry="1.5" style="stroke:#181818;stroke-width:0.3;" width="120" x="174.9" y="64.9453"/><text fill="#000000" font-family="sans-serif" font-size="8.4" lengthAdjust="spacing" textLength="111.6" x="179.1" y="78.2098">ListJobOpeningApplicationsUI</text><rect fill="#E2E2F0" height="19.5727" rx="1.5" ry="1.5" style="stroke:#181818;stroke-width:0.3;" width="120" x="174.9" y="420.1312"/><text fill="#000000" font-family="sans-serif" font-size="8.4" lengthAdjust="spacing" textLength="111.6" x="179.1" y="433.3957">ListJobOpeningApplicationsUI</text><rect fill="#E2E2F0" height="19.5727" rx="1.5" ry="1.5" style="stroke:#181818;stroke-width:0.3;" width="150" x="313.5" y="420.1312"/><text fill="#000000" font-family="sans-serif" font-size="8.4" lengthAdjust="spacing" textLength="141.6" x="317.7" y="433.3957">ListJobOpeningApplicationsController</text><rect fill="#E2E2F0" height="19.5727" rx="1.5" ry="1.5" style="stroke:#181818;stroke-width:0.3;" width="98.4" x="499.5" y="420.1312"/><text fill="#000000" font-family="sans-serif" font-size="8.4" lengthAdjust="spacing" textLength="90" x="503.7" y="433.3957">Jobs4uUserAuthService</text><text fill="#000000" font-family="sans-serif" font-size="8.4" lengthAdjust="spacing" textLength="77.4" x="603.9" y="429.1957">CustomerRepository</text><path d="M633.6,437.3039 C633.6,431.3039 644.4,431.3039 644.4,431.3039 C644.4,431.3039 655.2,431.3039 655.2,437.3039 L655.2,452.9039 C655.2,458.9039 644.4,458.9039 644.4,458.9039 C644.4,458.9039 633.6,458.9039 633.6,452.9039 L633.6,437.3039 " fill="#E2E2F0" style="stroke:#181818;stroke-width:0.8999999999999999;"/><path d="M633.6,437.3039 C633.6,443.3039 644.4,443.3039 644.4,443.3039 C644.4,443.3039 655.2,443.3039 655.2,437.3039 " fill="none" style="stroke:#181818;stroke-width:0.8999999999999999;"/><rect fill="#FFFFFF" height="324.2133" style="stroke:#181818;stroke-width:0.6;" width="6" x="47.1" y="91.118"/><rect fill="#FFFFFF" height="310.2387" style="stroke:#181818;stroke-width:0.6;" width="6" x="231.9" y="105.0926"/><rect fill="#FFFFFF" height="164.8184" style="stroke:#181818;stroke-width:0.6;" width="6" x="385.5" y="203.3637"/><rect fill="#FFFFFF" height="18.7746" style="stroke:#181818;stroke-width:0.6;" width="6" x="545.7" y="248.3109"/><rect fill="#FFFFFF" height="18.7746" style="stroke:#181818;stroke-width:0.6;" width="6" x="641.4" y="330.6328"/><polygon fill="#181818" points="224.7,102.6926,230.7,105.0926,224.7,107.4926,227.1,105.0926" style="stroke:#181818;stroke-width:0.6;"/><line style="stroke:#181818;stroke-width:0.6;" x1="53.1" x2="228.3" y1="105.0926" y2="105.0926"/><text fill="#000000" font-family="sans-serif" font-size="7.8" lengthAdjust="spacing" textLength="167.4" x="57.3" y="101.935">requests to list job applications for a job opening</text><polygon fill="#181818" points="59.7,121.4672,53.7,123.8672,59.7,126.2672,57.3,123.8672" style="stroke:#181818;stroke-width:0.6;"/><line style="stroke:#181818;stroke-width:0.6;stroke-dasharray:2.0,2.0;" x1="56.1" x2="231.3" y1="123.8672" y2="123.8672"/><text fill="#000000" font-family="sans-serif" font-size="7.8" lengthAdjust="spacing" textLength="134.4" x="63.3" y="120.7096">asks if user wants to filter by customer</text><polygon fill="#181818" points="224.7,140.2418,230.7,142.6418,224.7,145.0418,227.1,142.6418" style="stroke:#181818;stroke-width:0.6;"/><line style="stroke:#181818;stroke-width:0.6;" x1="53.1" x2="228.3" y1="142.6418" y2="142.6418"/><text fill="#000000" font-family="sans-serif" font-size="7.8" lengthAdjust="spacing" textLength="28.8" x="57.3" y="139.4842">answers</text><path d="M6,151.6418 L42.6,151.6418 L42.6,157.2164 L36.6,163.2164 L6,163.2164 L6,151.6418 " fill="#EEEEEE" style="stroke:#000000;stroke-width:0.8999999999999999;"/><rect fill="none" height="258.8895" style="stroke:#000000;stroke-width:0.8999999999999999;" width="684.9" x="6" y="151.6418"/><text fill="#000000" font-family="sans-serif" font-size="7.8" font-weight="bold" lengthAdjust="spacing" textLength="9.6" x="15" y="160.6588">alt</text><text fill="#000000" font-family="sans-serif" font-size="6.6" font-weight="bold" lengthAdjust="spacing" textLength="65.4" x="51.6" y="159.9639">[if answer was yes]</text><polygon fill="#181818" points="306.3,174.791,312.3,177.191,306.3,179.591,308.7,177.191" style="stroke:#181818;stroke-width:0.6;"/><line style="stroke:#181818;stroke-width:0.6;" x1="237.9" x2="309.9" y1="177.191" y2="177.191"/><text fill="#000000" font-family="sans-serif" font-size="7.8" lengthAdjust="spacing" textLength="21.6" x="242.1" y="174.0334">create</text><rect fill="#E2E2F0" height="19.5727" rx="1.5" ry="1.5" style="stroke:#181818;stroke-width:0.3;" width="150" x="313.5" y="163.2164"/><text fill="#000000" font-family="sans-serif" font-size="8.4" lengthAdjust="spacing" textLength="141.6" x="317.7" y="176.4809">ListJobOpeningApplicationsController</text><polygon fill="#181818" points="378.3,200.9637,384.3,203.3637,378.3,205.7637,380.7,203.3637" style="stroke:#181818;stroke-width:0.6;"/><line style="stroke:#181818;stroke-width:0.6;" x1="237.9" x2="381.9" y1="203.3637" y2="203.3637"/><text fill="#000000" font-family="sans-serif" font-size="7.8" lengthAdjust="spacing" textLength="136.2" x="242.1" y="200.2061">findCustomersFromCustomerManager()</text><polygon fill="#181818" points="492.3,219.7383,498.3,222.1383,492.3,224.5383,494.7,222.1383" style="stroke:#181818;stroke-width:0.6;"/><line style="stroke:#181818;stroke-width:0.6;" x1="391.5" x2="495.9" y1="222.1383" y2="222.1383"/><text fill="#000000" font-family="sans-serif" font-size="7.8" lengthAdjust="spacing" textLength="53.4" x="395.7" y="218.9807">create instance</text><rect fill="#E2E2F0" height="19.5727" rx="1.5" ry="1.5" style="stroke:#181818;stroke-width:0.3;" width="98.4" x="499.5" y="208.1637"/><text fill="#000000" font-family="sans-serif" font-size="8.4" lengthAdjust="spacing" textLength="90" x="503.7" y="221.4281">Jobs4uUserAuthService</text><polygon fill="#181818" points="538.5,245.9109,544.5,248.3109,538.5,250.7109,540.9,248.3109" style="stroke:#181818;stroke-width:0.6;"/><line style="stroke:#181818;stroke-width:0.6;" x1="391.5" x2="542.1" y1="248.3109" y2="248.3109"/><text fill="#000000" font-family="sans-serif" font-size="7.8" lengthAdjust="spacing" textLength="139.8" x="395.7" y="245.1533">authenticatedUser().getEmail().toString()</text><polygon fill="#181818" points="398.1,264.6855,392.1,267.0855,398.1,269.4855,395.7,267.0855" style="stroke:#181818;stroke-width:0.6;"/><line style="stroke:#181818;stroke-width:0.6;stroke-dasharray:2.0,2.0;" x1="394.5" x2="548.1" y1="267.0855" y2="267.0855"/><text fill="#000000" font-family="sans-serif" font-size="7.8" lengthAdjust="spacing" textLength="139.8" x="401.7" y="263.9279">current customer manager email (String)</text><polygon fill="#181818" points="596.7,283.4602,602.7,285.8602,596.7,288.2602,599.1,285.8602" style="stroke:#181818;stroke-width:0.6;"/><line style="stroke:#181818;stroke-width:0.6;" x1="391.5" x2="600.3" y1="285.8602" y2="285.8602"/><text fill="#000000" font-family="sans-serif" font-size="7.8" lengthAdjust="spacing" textLength="53.4" x="395.7" y="282.7025">create instance</text><text fill="#000000" font-family="sans-serif" font-size="8.4" lengthAdjust="spacing" textLength="77.4" x="603.9" y="308.55">CustomerRepository</text><path d="M633.6,277.8855 C633.6,271.8855 644.4,271.8855 644.4,271.8855 C644.4,271.8855 655.2,271.8855 655.2,277.8855 L655.2,293.4855 C655.2,299.4855 644.4,299.4855 644.4,299.4855 C644.4,299.4855 633.6,299.4855 633.6,293.4855 L633.6,277.8855 " fill="#E2E2F0" style="stroke:#181818;stroke-width:0.8999999999999999;"/><path d="M633.6,277.8855 C633.6,283.8855 644.4,283.8855 644.4,283.8855 C644.4,283.8855 655.2,283.8855 655.2,277.8855 " fill="none" style="stroke:#181818;stroke-width:0.8999999999999999;"/><polygon fill="#181818" points="634.2,328.2328,640.2,330.6328,634.2,333.0328,636.6,330.6328" style="stroke:#181818;stroke-width:0.6;"/><line style="stroke:#181818;stroke-width:0.6;" x1="391.5" x2="637.8" y1="330.6328" y2="330.6328"/><text fill="#000000" font-family="sans-serif" font-size="7.8" lengthAdjust="spacing" textLength="166.2" x="395.7" y="327.4752">findCustomersByCustomerManagerEmail(email)</text><polygon fill="#181818" points="398.1,347.0074,392.1,349.4074,398.1,351.8074,395.7,349.4074" style="stroke:#181818;stroke-width:0.6;"/><line style="stroke:#181818;stroke-width:0.6;stroke-dasharray:2.0,2.0;" x1="394.5" x2="643.8" y1="349.4074" y2="349.4074"/><text fill="#000000" font-family="sans-serif" font-size="7.8" lengthAdjust="spacing" textLength="55.8" x="401.7" y="346.2498">List&lt;Customer&gt;</text><polygon fill="#181818" points="244.5,365.782,238.5,368.182,244.5,370.582,242.1,368.182" style="stroke:#181818;stroke-width:0.6;"/><line style="stroke:#181818;stroke-width:0.6;stroke-dasharray:2.0,2.0;" x1="240.9" x2="387.9" y1="368.182" y2="368.182"/><text fill="#000000" font-family="sans-serif" font-size="7.8" lengthAdjust="spacing" textLength="55.8" x="248.1" y="365.0244">List&lt;Customer&gt;</text><polygon fill="#181818" points="59.7,384.5566,53.7,386.9566,59.7,389.3566,57.3,386.9566" style="stroke:#181818;stroke-width:0.6;"/><line style="stroke:#181818;stroke-width:0.6;stroke-dasharray:2.0,2.0;" x1="56.1" x2="231.3" y1="386.9566" y2="386.9566"/><text fill="#000000" font-family="sans-serif" font-size="7.8" lengthAdjust="spacing" textLength="53.4" x="63.3" y="383.799">lists customers</text><polygon fill="#181818" points="224.7,403.3313,230.7,405.7313,224.7,408.1312,227.1,405.7313" style="stroke:#181818;stroke-width:0.6;"/><line style="stroke:#181818;stroke-width:0.6;" x1="53.1" x2="228.3" y1="405.7313" y2="405.7313"/><text fill="#000000" font-family="sans-serif" font-size="7.8" lengthAdjust="spacing" textLength="60" x="57.3" y="402.5736">picks a customer</text><!--SRC=[ZLB1QXin4BthAuQSR8DB0kd554DgKd18QOdhMo_ZtR6hL9Oscja4_tr7sbrxiqv2Bq8IC- -zUVEma13XOb6pX3r5-8uUTnGl01dMJD5K6CKMja8lS6zPxiBcHqNU-jrDLJbReDZWURtC3Sl_B5y4Bp4ufuJQjlZrSF-gKPlukaxqDxNyML5yjWMbolPgIXJS81DqkX-e2cnrb4C6FFirHgmuWlKAhYulFyCqYrDLW3rPi5Kl41x31a8Z-hV_cNIXquuLILqPWuNOPnHgx37fXEbSPuSPH7ggYOL10ZWbo50VC_G1bmgtX6b2IwWpdUKlWzr2dPulQar6tbed-juSe6W77SX0poyKMQ6TfFRchG0C1-A6P9vjdqncK4HIzjxdJ1bysPd8tsBOTuys7gFnINNUdabdwcytD9b01mpMiw3NhGsBabBTBtb9zb2PPXYDF-r8RlTedLubh2IgINs-BWCToBHLdGZh61NjQ0li6xb02Gz63TZOb7I6TjHsdfsJHwTHtgyUcFVrCB2k6IqBwfjudjWtejqRDSNtIrSoxq_q5bHMswNZWzQyojSHJ37cewCyI5fb2qqeze98lZJc7m00]--></g></svg>