<?xml version="1.0" encoding="us-ascii" standalone="no"?><svg xmlns="http://www.w3.org/2000/svg" xmlns:xlink="http://www.w3.org/1999/xlink" contentStyleType="text/css" height="491px" preserveAspectRatio="none" style="width:1208px;height:491px;background:#FFFFFF;" version="1.1" viewBox="0 0 1208 491" width="1208px" zoomAndPan="magnify"><defs/><g><text fill="#000000" font-family="sans-serif" font-size="14" font-weight="bold" lengthAdjust="spacing" textLength="285" x="463" y="30.1074">US 1007 - Setting up Recruitment Phases</text><text fill="#000000" font-family="sans-serif" font-size="14" font-weight="bold" lengthAdjust="spacing" textLength="100" x="555.5" y="48.7285">Partial - Finale</text><rect fill="#FFFFFF" height="247.7168" style="stroke:#181818;stroke-width:1.0;" width="10" x="78.5" y="151.8633"/><rect fill="#FFFFFF" height="246.7168" style="stroke:#181818;stroke-width:1.0;" width="10" x="307.5" y="151.8633"/><rect fill="#FFFFFF" height="136.582" style="stroke:#181818;stroke-width:1.0;" width="10" x="599.5" y="215.707"/><rect fill="#FFFFFF" height="30" style="stroke:#181818;stroke-width:1.0;" width="10" x="1012" y="308.2891"/><rect fill="#FFFFFF" height="30" style="stroke:#181818;stroke-width:1.0;" width="10" x="1142" y="246.998"/><rect fill="none" height="232.7168" style="stroke:#000000;stroke-width:1.5;" width="1192" x="10" y="158.8633"/><line style="stroke:#181818;stroke-width:0.5;stroke-dasharray:5.0,5.0;" x1="83" x2="83" y1="141.8633" y2="408.5801"/><line style="stroke:#181818;stroke-width:0.5;stroke-dasharray:5.0,5.0;" x1="312" x2="312" y1="141.8633" y2="408.5801"/><line style="stroke:#181818;stroke-width:0.5;stroke-dasharray:5.0,5.0;" x1="604" x2="604" y1="141.8633" y2="408.5801"/><line style="stroke:#181818;stroke-width:0.5;stroke-dasharray:5.0,5.0;" x1="850" x2="850" y1="141.8633" y2="408.5801"/><line style="stroke:#181818;stroke-width:0.5;stroke-dasharray:5.0,5.0;" x1="1017" x2="1017" y1="141.8633" y2="408.5801"/><line style="stroke:#181818;stroke-width:0.5;stroke-dasharray:5.0,5.0;" x1="1147" x2="1147" y1="141.8633" y2="408.5801"/><text fill="#000000" font-family="sans-serif" font-size="14" lengthAdjust="spacing" textLength="121" x="20" y="138.3496">Customer Manager</text><ellipse cx="83.5" cy="71.7422" fill="#E2E2F0" rx="8" ry="8" style="stroke:#181818;stroke-width:0.5;"/><path d="M83.5,79.7422 L83.5,106.7422 M70.5,87.7422 L96.5,87.7422 M83.5,106.7422 L70.5,121.7422 M83.5,106.7422 L96.5,121.7422 " fill="none" style="stroke:#181818;stroke-width:0.5;"/><text fill="#000000" font-family="sans-serif" font-size="14" lengthAdjust="spacing" textLength="121" x="20" y="422.6875">Customer Manager</text><ellipse cx="83.5" cy="434.7012" fill="#E2E2F0" rx="8" ry="8" style="stroke:#181818;stroke-width:0.5;"/><path d="M83.5,442.7012 L83.5,469.7012 M70.5,450.7012 L96.5,450.7012 M83.5,469.7012 L70.5,484.7012 M83.5,469.7012 L96.5,484.7012 " fill="none" style="stroke:#181818;stroke-width:0.5;"/><rect fill="#E2E2F0" height="32.6211" rx="2.5" ry="2.5" style="stroke:#181818;stroke-width:0.5;" width="257" x="184" y="108.2422"/><text fill="#000000" font-family="sans-serif" font-size="14" lengthAdjust="spacing" textLength="243" x="191" y="130.3496">SetupJobOpeningRecuitmentPhasesUI</text><rect fill="#E2E2F0" height="32.6211" rx="2.5" ry="2.5" style="stroke:#181818;stroke-width:0.5;" width="257" x="184" y="407.5801"/><text fill="#000000" font-family="sans-serif" font-size="14" lengthAdjust="spacing" textLength="243" x="191" y="429.6875">SetupJobOpeningRecuitmentPhasesUI</text><rect fill="#E2E2F0" height="32.6211" rx="2.5" ry="2.5" style="stroke:#181818;stroke-width:0.5;" width="307" x="451" y="108.2422"/><text fill="#000000" font-family="sans-serif" font-size="14" lengthAdjust="spacing" textLength="293" x="458" y="130.3496">SetupJobOpeningRecuitmentPhasesController</text><rect fill="#E2E2F0" height="32.6211" rx="2.5" ry="2.5" style="stroke:#181818;stroke-width:0.5;" width="307" x="451" y="407.5801"/><text fill="#000000" font-family="sans-serif" font-size="14" lengthAdjust="spacing" textLength="293" x="458" y="429.6875">SetupJobOpeningRecuitmentPhasesController</text><rect fill="#E2E2F0" height="32.6211" rx="2.5" ry="2.5" style="stroke:#181818;stroke-width:0.5;" width="164" x="768" y="108.2422"/><text fill="#000000" font-family="sans-serif" font-size="14" lengthAdjust="spacing" textLength="150" x="775" y="130.3496">Jobs4uUserAuthService</text><rect fill="#E2E2F0" height="32.6211" rx="2.5" ry="2.5" style="stroke:#181818;stroke-width:0.5;" width="164" x="768" y="407.5801"/><text fill="#000000" font-family="sans-serif" font-size="14" lengthAdjust="spacing" textLength="150" x="775" y="429.6875">Jobs4uUserAuthService</text><text fill="#000000" font-family="sans-serif" font-size="14" lengthAdjust="spacing" textLength="144" x="942" y="138.3496">JobOpeningRepository</text><path d="M999,87.2422 C999,77.2422 1017,77.2422 1017,77.2422 C1017,77.2422 1035,77.2422 1035,87.2422 L1035,113.2422 C1035,123.2422 1017,123.2422 1017,123.2422 C1017,123.2422 999,123.2422 999,113.2422 L999,87.2422 " fill="#E2E2F0" style="stroke:#181818;stroke-width:1.5;"/><path d="M999,87.2422 C999,97.2422 1017,97.2422 1017,97.2422 C1017,97.2422 1035,97.2422 1035,87.2422 " fill="none" style="stroke:#181818;stroke-width:1.5;"/><text fill="#000000" font-family="sans-serif" font-size="14" lengthAdjust="spacing" textLength="144" x="942" y="422.6875">JobOpeningRepository</text><path d="M999,436.2012 C999,426.2012 1017,426.2012 1017,426.2012 C1017,426.2012 1035,426.2012 1035,436.2012 L1035,462.2012 C1035,472.2012 1017,472.2012 1017,472.2012 C1017,472.2012 999,472.2012 999,462.2012 L999,436.2012 " fill="#E2E2F0" style="stroke:#181818;stroke-width:1.5;"/><path d="M999,436.2012 C999,446.2012 1017,446.2012 1017,446.2012 C1017,446.2012 1035,446.2012 1035,436.2012 " fill="none" style="stroke:#181818;stroke-width:1.5;"/><rect fill="#E2E2F0" height="32.6211" rx="2.5" ry="2.5" style="stroke:#181818;stroke-width:0.5;" width="90" x="1102" y="108.2422"/><text fill="#000000" font-family="sans-serif" font-size="14" lengthAdjust="spacing" textLength="76" x="1109" y="130.3496">JobOpening</text><rect fill="#E2E2F0" height="32.6211" rx="2.5" ry="2.5" style="stroke:#181818;stroke-width:0.5;" width="90" x="1102" y="407.5801"/><text fill="#000000" font-family="sans-serif" font-size="14" lengthAdjust="spacing" textLength="76" x="1109" y="429.6875">JobOpening</text><rect fill="#FFFFFF" height="247.7168" style="stroke:#181818;stroke-width:1.0;" width="10" x="78.5" y="151.8633"/><rect fill="#FFFFFF" height="246.7168" style="stroke:#181818;stroke-width:1.0;" width="10" x="307.5" y="151.8633"/><rect fill="#FFFFFF" height="136.582" style="stroke:#181818;stroke-width:1.0;" width="10" x="599.5" y="215.707"/><rect fill="#FFFFFF" height="30" style="stroke:#181818;stroke-width:1.0;" width="10" x="1012" y="308.2891"/><rect fill="#FFFFFF" height="30" style="stroke:#181818;stroke-width:1.0;" width="10" x="1142" y="246.998"/><path d="M10,158.8633 L71,158.8633 L71,168.1543 L61,178.1543 L10,178.1543 L10,158.8633 " fill="#EEEEEE" style="stroke:#000000;stroke-width:1.5;"/><rect fill="none" height="232.7168" style="stroke:#000000;stroke-width:1.5;" width="1192" x="10" y="158.8633"/><text fill="#000000" font-family="sans-serif" font-size="13" font-weight="bold" lengthAdjust="spacing" textLength="16" x="25" y="173.8916">alt</text><text fill="#000000" font-family="sans-serif" font-size="11" font-weight="bold" lengthAdjust="spacing" textLength="140" x="86" y="172.7334">[if there are job openings</text><text fill="#000000" font-family="sans-serif" font-size="11" font-weight="bold" lengthAdjust="spacing" textLength="154" x="86" y="187.3643">that meet that requirement]</text><polygon fill="#181818" points="587.5,211.707,597.5,215.707,587.5,219.707,591.5,215.707" style="stroke:#181818;stroke-width:1.0;"/><line style="stroke:#181818;stroke-width:1.0;" x1="317.5" x2="593.5" y1="215.707" y2="215.707"/><text fill="#000000" font-family="sans-serif" font-size="13" lengthAdjust="spacing" textLength="180" x="324.5" y="210.4443">updateJobOpening(jobOpening)</text><polygon fill="#181818" points="1130,242.998,1140,246.998,1130,250.998,1134,246.998" style="stroke:#181818;stroke-width:1.0;"/><line style="stroke:#181818;stroke-width:1.0;" x1="609.5" x2="1136" y1="246.998" y2="246.998"/><text fill="#000000" font-family="sans-serif" font-size="13" lengthAdjust="spacing" textLength="202" x="616.5" y="241.7354">defineRecruitmentProcess(phases)</text><polygon fill="#181818" points="1000,304.2891,1010,308.2891,1000,312.2891,1004,308.2891" style="stroke:#181818;stroke-width:1.0;"/><line style="stroke:#181818;stroke-width:1.0;" x1="609.5" x2="1006" y1="308.2891" y2="308.2891"/><text fill="#000000" font-family="sans-serif" font-size="13" lengthAdjust="spacing" textLength="99" x="616.5" y="303.0264">save(jobOpening)</text><polygon fill="#181818" points="328.5,348.2891,318.5,352.2891,328.5,356.2891,324.5,352.2891" style="stroke:#181818;stroke-width:1.0;"/><line style="stroke:#181818;stroke-width:1.0;stroke-dasharray:2.0,2.0;" x1="322.5" x2="603.5" y1="352.2891" y2="352.2891"/><polygon fill="#181818" points="99.5,379.5801,89.5,383.5801,99.5,387.5801,95.5,383.5801" style="stroke:#181818;stroke-width:1.0;"/><line style="stroke:#181818;stroke-width:1.0;stroke-dasharray:2.0,2.0;" x1="93.5" x2="306.5" y1="383.5801" y2="383.5801"/><text fill="#000000" font-family="sans-serif" font-size="13" lengthAdjust="spacing" textLength="195" x="105.5" y="378.3174">informs user of operation success</text><!--SRC=[bL51QiCm4Bph5KjEwI6GGg6GGw442Yaj2KbpwsKjhsC5MtAbLQ2_xyesiHfwwS6macPcPyQesNcOhMDWrvA7TxHu8Zy3370Cv5M7deqs7Lg60t7iNbsnxSWQUzgJZePRihohCL0uRdhMvZ-SjRFiNTF8Qk6kF_PllzX230yn6NcEN1_8NuocX1n7LI9Z8KAGh-XSC1BhEm6dqwtm24-WRN4cpKgnuORWU83xvV8H5iay9qZiH4VxqJaCrZ_jBWbY8y0NOx4XfL2pkI3JqDrqsiXJms0gu9gy993lx0fmWmVHuXePMYA6VlBq5Osdj4ufANRnr9S3A_4YcMdoFpzVnxjfOz-awYb27V89kQJAMCgoxBpJ5CAywoDb0cCb9TtUN4MpdbSGy49_Eyb-G2QMtGvw8YWjPOWXGOgUdgHEsM9ivNmR8AQZgr9z7jau2o7gb4CfiYL8rIgN4k4V]--></g></svg>