<?xml version="1.0" encoding="us-ascii" standalone="no"?><svg xmlns="http://www.w3.org/2000/svg" xmlns:xlink="http://www.w3.org/1999/xlink" contentStyleType="text/css" height="463.6px" preserveAspectRatio="none" style="width:368px;height:463px;background:#FFFFFF;" version="1.1" viewBox="0 0 368 463" width="368.4px" zoomAndPan="magnify"><defs/><g><text fill="#000000" font-family="sans-serif" font-size="5.6" font-weight="bold" lengthAdjust="spacing" textLength="114" x="127.8" y="12.043">US 1007 - Setting up Recruitment Phases</text><text fill="#000000" font-family="sans-serif" font-size="5.6" font-weight="bold" lengthAdjust="spacing" textLength="43.2" x="163.2" y="19.4914">Partial - Phases</text><rect fill="#FFFFFF" height="366.3938" style="stroke:#181818;stroke-width:0.4000000000000001;" width="4" x="39.4" y="60.7453"/><rect fill="#FFFFFF" height="366.3938" style="stroke:#181818;stroke-width:0.4000000000000001;" width="4" x="177.8" y="60.7453"/><rect fill="#FFFFFF" height="12" style="stroke:#181818;stroke-width:0.4000000000000001;" width="4" x="294.6" y="118.9273"/><rect fill="#FFFFFF" height="12" style="stroke:#181818;stroke-width:0.4000000000000001;" width="4" x="294.6" y="181.793"/><rect fill="#FFFFFF" height="12" style="stroke:#181818;stroke-width:0.4000000000000001;" width="4" x="294.6" y="280.2078"/><rect fill="#FFFFFF" height="12" style="stroke:#181818;stroke-width:0.4000000000000001;" width="4" x="294.6" y="345.8734"/><rect fill="#FFFFFF" height="12" style="stroke:#181818;stroke-width:0.4000000000000001;" width="4" x="294.6" y="408.7391"/><rect fill="none" height="360.3938" style="stroke:#000000;stroke-width:0.6000000000000001;" width="362" x="4" y="63.5453"/><rect fill="none" height="32.7492" style="stroke:#000000;stroke-width:0.6000000000000001;" width="223.2" x="12" y="74.0617"/><rect fill="none" height="32.7492" style="stroke:#000000;stroke-width:0.6000000000000001;" width="223.2" x="12" y="136.9273"/><rect fill="none" height="70.582" style="stroke:#000000;stroke-width:0.6000000000000001;" width="354" x="8" y="224.8258"/><rect fill="none" height="32.7492" style="stroke:#000000;stroke-width:0.6000000000000001;" width="223.2" x="12" y="235.3422"/><rect fill="none" height="32.7492" style="stroke:#000000;stroke-width:0.6000000000000001;" width="223.2" x="12" y="301.0078"/><rect fill="none" height="32.7492" style="stroke:#000000;stroke-width:0.6000000000000001;" width="223.2" x="12" y="363.8734"/><line style="stroke:#181818;stroke-width:0.20000000000000004;stroke-dasharray:5.0,5.0;" x1="41.2" x2="41.2" y1="56.7453" y2="430.7391"/><line style="stroke:#181818;stroke-width:0.20000000000000004;stroke-dasharray:5.0,5.0;" x1="179.6" x2="179.6" y1="56.7453" y2="430.7391"/><line style="stroke:#181818;stroke-width:0.20000000000000004;stroke-dasharray:5.0,5.0;" x1="296.4" x2="296.4" y1="56.7453" y2="430.7391"/><text fill="#000000" font-family="sans-serif" font-size="5.6" lengthAdjust="spacing" textLength="48.4" x="16" y="55.3398">Customer Manager</text><ellipse cx="41.4" cy="28.6969" fill="#E2E2F0" rx="3.2" ry="3.2" style="stroke:#181818;stroke-width:0.20000000000000004;"/><path d="M41.4,31.8969 L41.4,42.6969 M36.2,35.0969 L46.6,35.0969 M41.4,42.6969 L36.2,48.6969 M41.4,42.6969 L46.6,48.6969 " fill="none" style="stroke:#181818;stroke-width:0.20000000000000004;"/><text fill="#000000" font-family="sans-serif" font-size="5.6" lengthAdjust="spacing" textLength="48.4" x="16" y="436.382">Customer Manager</text><ellipse cx="41.4" cy="441.1875" fill="#E2E2F0" rx="3.2" ry="3.2" style="stroke:#181818;stroke-width:0.20000000000000004;"/><path d="M41.4,444.3875 L41.4,455.1875 M36.2,447.5875 L46.6,447.5875 M41.4,455.1875 L36.2,461.1875 M41.4,455.1875 L46.6,461.1875 " fill="none" style="stroke:#181818;stroke-width:0.20000000000000004;"/><rect fill="#E2E2F0" height="13.0484" rx="1" ry="1" style="stroke:#181818;stroke-width:0.20000000000000004;" width="102.8" x="128.4" y="43.2969"/><text fill="#000000" font-family="sans-serif" font-size="5.6" lengthAdjust="spacing" textLength="97.2" x="131.2" y="52.1398">SetupJobOpeningRecuitmentPhasesUI</text><rect fill="#E2E2F0" height="13.0484" rx="1" ry="1" style="stroke:#181818;stroke-width:0.20000000000000004;" width="102.8" x="128.4" y="430.3391"/><text fill="#000000" font-family="sans-serif" font-size="5.6" lengthAdjust="spacing" textLength="97.2" x="131.2" y="439.182">SetupJobOpeningRecuitmentPhasesUI</text><rect fill="#E2E2F0" height="13.0484" rx="1" ry="1" style="stroke:#181818;stroke-width:0.20000000000000004;" width="122.8" x="235.2" y="43.2969"/><text fill="#000000" font-family="sans-serif" font-size="5.6" lengthAdjust="spacing" textLength="117.2" x="238" y="52.1398">SetupJobOpeningRecuitmentPhasesController</text><rect fill="#E2E2F0" height="13.0484" rx="1" ry="1" style="stroke:#181818;stroke-width:0.20000000000000004;" width="122.8" x="235.2" y="430.3391"/><text fill="#000000" font-family="sans-serif" font-size="5.6" lengthAdjust="spacing" textLength="117.2" x="238" y="439.182">SetupJobOpeningRecuitmentPhasesController</text><rect fill="#FFFFFF" height="366.3938" style="stroke:#181818;stroke-width:0.4000000000000001;" width="4" x="39.4" y="60.7453"/><rect fill="#FFFFFF" height="366.3938" style="stroke:#181818;stroke-width:0.4000000000000001;" width="4" x="177.8" y="60.7453"/><rect fill="#FFFFFF" height="12" style="stroke:#181818;stroke-width:0.4000000000000001;" width="4" x="294.6" y="118.9273"/><rect fill="#FFFFFF" height="12" style="stroke:#181818;stroke-width:0.4000000000000001;" width="4" x="294.6" y="181.793"/><rect fill="#FFFFFF" height="12" style="stroke:#181818;stroke-width:0.4000000000000001;" width="4" x="294.6" y="280.2078"/><rect fill="#FFFFFF" height="12" style="stroke:#181818;stroke-width:0.4000000000000001;" width="4" x="294.6" y="345.8734"/><rect fill="#FFFFFF" height="12" style="stroke:#181818;stroke-width:0.4000000000000001;" width="4" x="294.6" y="408.7391"/><path d="M4,63.5453 L28.4,63.5453 L28.4,67.2617 L24.4,71.2617 L4,71.2617 L4,63.5453 " fill="#EEEEEE" style="stroke:#000000;stroke-width:0.6000000000000001;"/><rect fill="none" height="360.3938" style="stroke:#000000;stroke-width:0.6000000000000001;" width="362" x="4" y="63.5453"/><text fill="#000000" font-family="sans-serif" font-size="5.2" font-weight="bold" lengthAdjust="spacing" textLength="6.4" x="10" y="69.5566">alt</text><text fill="#000000" font-family="sans-serif" font-size="4.4" font-weight="bold" lengthAdjust="spacing" textLength="118.8" x="34.4" y="69.0934">[if there are job openings that meet that requirement]</text><path d="M12,74.0617 L41.2,74.0617 L41.2,77.7781 L37.2,81.7781 L12,81.7781 L12,74.0617 " fill="#EEEEEE" style="stroke:#000000;stroke-width:0.6000000000000001;"/><rect fill="none" height="32.7492" style="stroke:#000000;stroke-width:0.6000000000000001;" width="223.2" x="12" y="74.0617"/><text fill="#000000" font-family="sans-serif" font-size="5.2" font-weight="bold" lengthAdjust="spacing" textLength="11.2" x="18" y="80.073">loop</text><text fill="#000000" font-family="sans-serif" font-size="4.4" font-weight="bold" lengthAdjust="spacing" textLength="93.6" x="47.2" y="79.6098">[if inserted close date is before start date]</text><polygon fill="#181818" points="47.8,89.4945,43.8,91.0945,47.8,92.6945,46.2,91.0945" style="stroke:#181818;stroke-width:0.4000000000000001;"/><line style="stroke:#181818;stroke-width:0.4000000000000001;stroke-dasharray:2.0,2.0;" x1="45.4" x2="177.4" y1="91.0945" y2="91.0945"/><text fill="#000000" font-family="sans-serif" font-size="5.2" lengthAdjust="spacing" textLength="124.8" x="50.2" y="88.9895">asks for start and close date for the Application phase</text><polygon fill="#181818" points="173,102.0109,177,103.6109,173,105.2109,174.6,103.6109" style="stroke:#181818;stroke-width:0.4000000000000001;"/><line style="stroke:#181818;stroke-width:0.4000000000000001;" x1="43.4" x2="175.4" y1="103.6109" y2="103.6109"/><text fill="#000000" font-family="sans-serif" font-size="5.2" lengthAdjust="spacing" textLength="62.4" x="46.2" y="101.5059">provides start and end date</text><polygon fill="#181818" points="289.8,117.3273,293.8,118.9273,289.8,120.5273,291.4,118.9273" style="stroke:#181818;stroke-width:0.4000000000000001;"/><line style="stroke:#181818;stroke-width:0.4000000000000001;" x1="181.8" x2="292.2" y1="118.9273" y2="118.9273"/><text fill="#000000" font-family="sans-serif" font-size="5.2" lengthAdjust="spacing" textLength="70.4" x="184.6" y="116.8223">insertApplicationPhase(phase)</text><path d="M12,136.9273 L41.2,136.9273 L41.2,140.6438 L37.2,144.6438 L12,144.6438 L12,136.9273 " fill="#EEEEEE" style="stroke:#000000;stroke-width:0.6000000000000001;"/><rect fill="none" height="32.7492" style="stroke:#000000;stroke-width:0.6000000000000001;" width="223.2" x="12" y="136.9273"/><text fill="#000000" font-family="sans-serif" font-size="5.2" font-weight="bold" lengthAdjust="spacing" textLength="11.2" x="18" y="142.9387">loop</text><text fill="#000000" font-family="sans-serif" font-size="4.4" font-weight="bold" lengthAdjust="spacing" textLength="93.6" x="47.2" y="142.4754">[if inserted close date is before start date]</text><polygon fill="#181818" points="47.8,152.3602,43.8,153.9602,47.8,155.5602,46.2,153.9602" style="stroke:#181818;stroke-width:0.4000000000000001;"/><line style="stroke:#181818;stroke-width:0.4000000000000001;stroke-dasharray:2.0,2.0;" x1="45.4" x2="177.4" y1="153.9602" y2="153.9602"/><text fill="#000000" font-family="sans-serif" font-size="5.2" lengthAdjust="spacing" textLength="122.4" x="50.2" y="151.8551">asks for start and close date for the Screening phase</text><polygon fill="#181818" points="173,164.8766,177,166.4766,173,168.0766,174.6,166.4766" style="stroke:#181818;stroke-width:0.4000000000000001;"/><line style="stroke:#181818;stroke-width:0.4000000000000001;" x1="43.4" x2="175.4" y1="166.4766" y2="166.4766"/><text fill="#000000" font-family="sans-serif" font-size="5.2" lengthAdjust="spacing" textLength="62.4" x="46.2" y="164.3715">provides start and end date</text><polygon fill="#181818" points="289.8,180.193,293.8,181.793,289.8,183.393,291.4,181.793" style="stroke:#181818;stroke-width:0.4000000000000001;"/><line style="stroke:#181818;stroke-width:0.4000000000000001;" x1="181.8" x2="292.2" y1="181.793" y2="181.793"/><text fill="#000000" font-family="sans-serif" font-size="5.2" lengthAdjust="spacing" textLength="68" x="184.6" y="179.6879">insertScreeningPhase(phase)</text><polygon fill="#181818" points="47.8,204.7094,43.8,206.3094,47.8,207.9094,46.2,206.3094" style="stroke:#181818;stroke-width:0.4000000000000001;"/><line style="stroke:#181818;stroke-width:0.4000000000000001;stroke-dasharray:2.0,2.0;" x1="45.4" x2="177.4" y1="206.3094" y2="206.3094"/><text fill="#000000" font-family="sans-serif" font-size="5.2" lengthAdjust="spacing" textLength="103.6" x="50.2" y="204.2043">asks if job opening will have Interviews phase</text><polygon fill="#181818" points="173,217.2258,177,218.8258,173,220.4258,174.6,218.8258" style="stroke:#181818;stroke-width:0.4000000000000001;"/><line style="stroke:#181818;stroke-width:0.4000000000000001;" x1="43.4" x2="175.4" y1="218.8258" y2="218.8258"/><text fill="#000000" font-family="sans-serif" font-size="5.2" lengthAdjust="spacing" textLength="28" x="46.2" y="216.7207">answers y/n</text><path d="M8,224.8258 L32.4,224.8258 L32.4,228.5422 L28.4,232.5422 L8,232.5422 L8,224.8258 " fill="#EEEEEE" style="stroke:#000000;stroke-width:0.6000000000000001;"/><rect fill="none" height="70.582" style="stroke:#000000;stroke-width:0.6000000000000001;" width="354" x="8" y="224.8258"/><text fill="#000000" font-family="sans-serif" font-size="5.2" font-weight="bold" lengthAdjust="spacing" textLength="6.4" x="14" y="230.8371">alt</text><text fill="#000000" font-family="sans-serif" font-size="4.4" font-weight="bold" lengthAdjust="spacing" textLength="82" x="38.4" y="230.3738">[if job opening has Interviews phase]</text><path d="M12,235.3422 L41.2,235.3422 L41.2,239.0586 L37.2,243.0586 L12,243.0586 L12,235.3422 " fill="#EEEEEE" style="stroke:#000000;stroke-width:0.6000000000000001;"/><rect fill="none" height="32.7492" style="stroke:#000000;stroke-width:0.6000000000000001;" width="223.2" x="12" y="235.3422"/><text fill="#000000" font-family="sans-serif" font-size="5.2" font-weight="bold" lengthAdjust="spacing" textLength="11.2" x="18" y="241.3535">loop</text><text fill="#000000" font-family="sans-serif" font-size="4.4" font-weight="bold" lengthAdjust="spacing" textLength="93.6" x="47.2" y="240.8902">[if inserted close date is before start date]</text><polygon fill="#181818" points="47.8,250.775,43.8,252.375,47.8,253.975,46.2,252.375" style="stroke:#181818;stroke-width:0.4000000000000001;"/><line style="stroke:#181818;stroke-width:0.4000000000000001;stroke-dasharray:2.0,2.0;" x1="45.4" x2="177.4" y1="252.375" y2="252.375"/><text fill="#000000" font-family="sans-serif" font-size="5.2" lengthAdjust="spacing" textLength="121.6" x="50.2" y="250.2699">asks for start and close date for the Interviews phase</text><polygon fill="#181818" points="173,263.2914,177,264.8914,173,266.4914,174.6,264.8914" style="stroke:#181818;stroke-width:0.4000000000000001;"/><line style="stroke:#181818;stroke-width:0.4000000000000001;" x1="43.4" x2="175.4" y1="264.8914" y2="264.8914"/><text fill="#000000" font-family="sans-serif" font-size="5.2" lengthAdjust="spacing" textLength="62.4" x="46.2" y="262.7863">provides start and end date</text><polygon fill="#181818" points="289.8,278.6078,293.8,280.2078,289.8,281.8078,291.4,280.2078" style="stroke:#181818;stroke-width:0.4000000000000001;"/><line style="stroke:#181818;stroke-width:0.4000000000000001;" x1="181.8" x2="292.2" y1="280.2078" y2="280.2078"/><text fill="#000000" font-family="sans-serif" font-size="5.2" lengthAdjust="spacing" textLength="67.2" x="184.6" y="278.1027">insertInterviewsPhase(phase)</text><path d="M12,301.0078 L41.2,301.0078 L41.2,304.7242 L37.2,308.7242 L12,308.7242 L12,301.0078 " fill="#EEEEEE" style="stroke:#000000;stroke-width:0.6000000000000001;"/><rect fill="none" height="32.7492" style="stroke:#000000;stroke-width:0.6000000000000001;" width="223.2" x="12" y="301.0078"/><text fill="#000000" font-family="sans-serif" font-size="5.2" font-weight="bold" lengthAdjust="spacing" textLength="11.2" x="18" y="307.0191">loop</text><text fill="#000000" font-family="sans-serif" font-size="4.4" font-weight="bold" lengthAdjust="spacing" textLength="93.6" x="47.2" y="306.5559">[if inserted close date is before start date]</text><polygon fill="#181818" points="47.8,316.4406,43.8,318.0406,47.8,319.6406,46.2,318.0406" style="stroke:#181818;stroke-width:0.4000000000000001;"/><line style="stroke:#181818;stroke-width:0.4000000000000001;stroke-dasharray:2.0,2.0;" x1="45.4" x2="177.4" y1="318.0406" y2="318.0406"/><text fill="#000000" font-family="sans-serif" font-size="5.2" lengthAdjust="spacing" textLength="119.2" x="50.2" y="315.9355">asks for start and close date for the Analysis phase</text><polygon fill="#181818" points="173,328.957,177,330.557,173,332.157,174.6,330.557" style="stroke:#181818;stroke-width:0.4000000000000001;"/><line style="stroke:#181818;stroke-width:0.4000000000000001;" x1="43.4" x2="175.4" y1="330.557" y2="330.557"/><text fill="#000000" font-family="sans-serif" font-size="5.2" lengthAdjust="spacing" textLength="62.4" x="46.2" y="328.452">provides start and end date</text><polygon fill="#181818" points="289.8,344.2734,293.8,345.8734,289.8,347.4734,291.4,345.8734" style="stroke:#181818;stroke-width:0.4000000000000001;"/><line style="stroke:#181818;stroke-width:0.4000000000000001;" x1="43.4" x2="292.2" y1="345.8734" y2="345.8734"/><text fill="#000000" font-family="sans-serif" font-size="5.2" lengthAdjust="spacing" textLength="64.8" x="46.2" y="343.7684">insertAnalysisPhase(phase)</text><path d="M12,363.8734 L41.2,363.8734 L41.2,367.5898 L37.2,371.5898 L12,371.5898 L12,363.8734 " fill="#EEEEEE" style="stroke:#000000;stroke-width:0.6000000000000001;"/><rect fill="none" height="32.7492" style="stroke:#000000;stroke-width:0.6000000000000001;" width="223.2" x="12" y="363.8734"/><text fill="#000000" font-family="sans-serif" font-size="5.2" font-weight="bold" lengthAdjust="spacing" textLength="11.2" x="18" y="369.8848">loop</text><text fill="#000000" font-family="sans-serif" font-size="4.4" font-weight="bold" lengthAdjust="spacing" textLength="93.6" x="47.2" y="369.4215">[if inserted close date is before start date]</text><polygon fill="#181818" points="47.8,379.3063,43.8,380.9063,47.8,382.5063,46.2,380.9063" style="stroke:#181818;stroke-width:0.4000000000000001;"/><line style="stroke:#181818;stroke-width:0.4000000000000001;stroke-dasharray:2.0,2.0;" x1="45.4" x2="177.4" y1="380.9063" y2="380.9063"/><text fill="#000000" font-family="sans-serif" font-size="5.2" lengthAdjust="spacing" textLength="114" x="50.2" y="378.8012">asks for start and close date for the Result phase</text><polygon fill="#181818" points="173,391.8227,177,393.4227,173,395.0227,174.6,393.4227" style="stroke:#181818;stroke-width:0.4000000000000001;"/><line style="stroke:#181818;stroke-width:0.4000000000000001;" x1="43.4" x2="175.4" y1="393.4227" y2="393.4227"/><text fill="#000000" font-family="sans-serif" font-size="5.2" lengthAdjust="spacing" textLength="62.4" x="46.2" y="391.3176">provides start and end date</text><polygon fill="#181818" points="289.8,407.1391,293.8,408.7391,289.8,410.3391,291.4,408.7391" style="stroke:#181818;stroke-width:0.4000000000000001;"/><line style="stroke:#181818;stroke-width:0.4000000000000001;" x1="181.8" x2="292.2" y1="408.7391" y2="408.7391"/><text fill="#000000" font-family="sans-serif" font-size="5.2" lengthAdjust="spacing" textLength="59.6" x="184.6" y="406.634">insertResultPhase(phase)</text><!--SRC=[pPDFQm8n4CNl-HI3f_OWjQT23qBnjAMbelNMoxYEcZOcQJAxuhVlPBFu1uIY5UaXiCdc_URDIu8bkm2TGHNPhIZ0ArfSKEW0HfX42ifZO5rgZvPXJ5pvPpTzysIrNOoeh3IloF9mYP7Yf6XKnIcQWRCSd35IMhI3zz6BKgpP44p6SD_hFK0t8LYaK7aGUMZra04VTfYgeP6DUKKfB5dNo9GxsCqA-MKOz1nuIO40PNowARZiBSeoCgo8E7y5-gvqe5HDAUESJr9j1SeqWzAuI31BP1rXIdCdkCZYfbbKIlBeTlkD2NYKzhuYo9vs2ze3GleXfk39UwDBPEqi-DIEO98-SGgX-E1gFQEuHo4PkM3wIZPpwNuJfsYouproazDDWx_TnTE4FwF3-PNQ7fU1cZEuSDDRxYaj7sb00jYxAB3Mni0IQuB2CeLQqpeUTOushYb4sDpPxTtR1uda2E8wcVzY_VpGT-1JKaz8IUXg3ysYsKJzjzvRpU4xQy7_xv6DA5Po1Izxs1bwpa7_0000]--></g></svg>