<?xml version="1.0" encoding="us-ascii" standalone="no"?><svg xmlns="http://www.w3.org/2000/svg" xmlns:xlink="http://www.w3.org/1999/xlink" contentStyleType="text/css" height="1888px" preserveAspectRatio="none" style="width:1535px;height:1888px;background:#FFFFFF;" version="1.1" viewBox="0 0 1535 1888" width="1535px" zoomAndPan="magnify"><defs/><g><text fill="#000000" font-family="sans-serif" font-size="14" font-weight="bold" lengthAdjust="spacing" textLength="285" x="626.75" y="30.1074">US 1007 - Setting up Recruitment Phases</text><rect fill="#FFFFFF" height="1663.543" style="stroke:#181818;stroke-width:1.0;" width="10" x="98.5" y="133.2422"/><rect fill="#FFFFFF" height="1639.252" style="stroke:#181818;stroke-width:1.0;" width="10" x="533.5" y="156.5332"/><rect fill="#FFFFFF" height="379.6094" style="stroke:#181818;stroke-width:1.0;" width="10" x="905.5" y="231.4453"/><rect fill="#FFFFFF" height="30" style="stroke:#181818;stroke-width:1.0;" width="10" x="905.5" y="827.0918"/><rect fill="#FFFFFF" height="30" style="stroke:#181818;stroke-width:1.0;" width="10" x="905.5" y="984.2559"/><rect fill="#FFFFFF" height="30" style="stroke:#181818;stroke-width:1.0;" width="10" x="905.5" y="1230.293"/><rect fill="#FFFFFF" height="30" style="stroke:#181818;stroke-width:1.0;" width="10" x="905.5" y="1394.457"/><rect fill="#FFFFFF" height="30" style="stroke:#181818;stroke-width:1.0;" width="10" x="905.5" y="1551.6211"/><rect fill="#FFFFFF" height="136.582" style="stroke:#181818;stroke-width:1.0;" width="10" x="905.5" y="1612.9121"/><rect fill="#FFFFFF" height="31.291" style="stroke:#181818;stroke-width:1.0;" width="10" x="1172.5" y="306.3574"/><rect fill="#FFFFFF" height="136.2031" style="stroke:#181818;stroke-width:1.0;" width="10" x="1339.5" y="443.5605"/><rect fill="#FFFFFF" height="30" style="stroke:#181818;stroke-width:1.0;" width="10" x="1339.5" y="1705.4941"/><rect fill="#FFFFFF" height="30" style="stroke:#181818;stroke-width:1.0;" width="10" x="1469.5" y="518.4727"/><rect fill="#FFFFFF" height="30" style="stroke:#181818;stroke-width:1.0;" width="10" x="1469.5" y="1644.2031"/><rect fill="none" height="1162.7305" style="stroke:#000000;stroke-width:1.5;" width="1519.5" x="10" y="626.0547"/><rect fill="none" height="81.873" style="stroke:#000000;stroke-width:1.5;" width="647" x="30" y="714.9277"/><rect fill="none" height="81.873" style="stroke:#000000;stroke-width:1.5;" width="647" x="30" y="872.0918"/><rect fill="none" height="176.4551" style="stroke:#000000;stroke-width:1.5;" width="1054" x="20" y="1091.8379"/><rect fill="none" height="81.873" style="stroke:#000000;stroke-width:1.5;" width="647" x="30" y="1118.1289"/><rect fill="none" height="81.873" style="stroke:#000000;stroke-width:1.5;" width="647" x="30" y="1282.293"/><rect fill="none" height="81.873" style="stroke:#000000;stroke-width:1.5;" width="647" x="30" y="1439.457"/><line style="stroke:#181818;stroke-width:0.5;stroke-dasharray:5.0,5.0;" x1="103" x2="103" y1="123.2422" y2="1805.7852"/><line style="stroke:#181818;stroke-width:0.5;stroke-dasharray:5.0,5.0;" x1="538" x2="538" y1="123.2422" y2="1805.7852"/><line style="stroke:#181818;stroke-width:0.5;stroke-dasharray:5.0,5.0;" x1="910" x2="910" y1="196.3438" y2="1805.7852"/><line style="stroke:#181818;stroke-width:0.5;stroke-dasharray:5.0,5.0;" x1="1177.5" x2="1177.5" y1="271.2559" y2="1805.7852"/><line style="stroke:#181818;stroke-width:0.5;stroke-dasharray:5.0,5.0;" x1="1344.5" x2="1344.5" y1="392.959" y2="1805.7852"/><line style="stroke:#181818;stroke-width:0.5;stroke-dasharray:5.0,5.0;" x1="1474.5" x2="1474.5" y1="483.3711" y2="1805.7852"/><text fill="#000000" font-family="sans-serif" font-size="14" lengthAdjust="spacing" textLength="121" x="40" y="119.7285">Customer Manager</text><ellipse cx="103.5" cy="53.1211" fill="#E2E2F0" rx="8" ry="8" style="stroke:#181818;stroke-width:0.5;"/><path d="M103.5,61.1211 L103.5,88.1211 M90.5,69.1211 L116.5,69.1211 M103.5,88.1211 L90.5,103.1211 M103.5,88.1211 L116.5,103.1211 " fill="none" style="stroke:#181818;stroke-width:0.5;"/><text fill="#000000" font-family="sans-serif" font-size="14" lengthAdjust="spacing" textLength="121" x="40" y="1819.8926">Customer Manager</text><ellipse cx="103.5" cy="1831.9063" fill="#E2E2F0" rx="8" ry="8" style="stroke:#181818;stroke-width:0.5;"/><path d="M103.5,1839.9063 L103.5,1866.9063 M90.5,1847.9063 L116.5,1847.9063 M103.5,1866.9063 L90.5,1881.9063 M103.5,1866.9063 L116.5,1881.9063 " fill="none" style="stroke:#181818;stroke-width:0.5;"/><rect fill="#E2E2F0" height="32.6211" rx="2.5" ry="2.5" style="stroke:#181818;stroke-width:0.5;" width="257" x="410" y="89.6211"/><text fill="#000000" font-family="sans-serif" font-size="14" lengthAdjust="spacing" textLength="243" x="417" y="111.7285">SetupJobOpeningRecuitmentPhasesUI</text><rect fill="#E2E2F0" height="32.6211" rx="2.5" ry="2.5" style="stroke:#181818;stroke-width:0.5;" width="257" x="410" y="1804.7852"/><text fill="#000000" font-family="sans-serif" font-size="14" lengthAdjust="spacing" textLength="243" x="417" y="1826.8926">SetupJobOpeningRecuitmentPhasesUI</text><rect fill="#E2E2F0" height="32.6211" rx="2.5" ry="2.5" style="stroke:#181818;stroke-width:0.5;" width="307" x="757" y="1804.7852"/><text fill="#000000" font-family="sans-serif" font-size="14" lengthAdjust="spacing" textLength="293" x="764" y="1826.8926">SetupJobOpeningRecuitmentPhasesController</text><rect fill="#E2E2F0" height="32.6211" rx="2.5" ry="2.5" style="stroke:#181818;stroke-width:0.5;" width="164" x="1095.5" y="1804.7852"/><text fill="#000000" font-family="sans-serif" font-size="14" lengthAdjust="spacing" textLength="150" x="1102.5" y="1826.8926">Jobs4uUserAuthService</text><text fill="#000000" font-family="sans-serif" font-size="14" lengthAdjust="spacing" textLength="144" x="1269.5" y="1819.8926">JobOpeningRepository</text><path d="M1326.5,1833.4063 C1326.5,1823.4063 1344.5,1823.4063 1344.5,1823.4063 C1344.5,1823.4063 1362.5,1823.4063 1362.5,1833.4063 L1362.5,1859.4063 C1362.5,1869.4063 1344.5,1869.4063 1344.5,1869.4063 C1344.5,1869.4063 1326.5,1869.4063 1326.5,1859.4063 L1326.5,1833.4063 " fill="#E2E2F0" style="stroke:#181818;stroke-width:1.5;"/><path d="M1326.5,1833.4063 C1326.5,1843.4063 1344.5,1843.4063 1344.5,1843.4063 C1344.5,1843.4063 1362.5,1843.4063 1362.5,1833.4063 " fill="none" style="stroke:#181818;stroke-width:1.5;"/><rect fill="#E2E2F0" height="32.6211" rx="2.5" ry="2.5" style="stroke:#181818;stroke-width:0.5;" width="90" x="1429.5" y="1804.7852"/><text fill="#000000" font-family="sans-serif" font-size="14" lengthAdjust="spacing" textLength="76" x="1436.5" y="1826.8926">JobOpening</text><rect fill="#FFFFFF" height="1663.543" style="stroke:#181818;stroke-width:1.0;" width="10" x="98.5" y="133.2422"/><rect fill="#FFFFFF" height="1639.252" style="stroke:#181818;stroke-width:1.0;" width="10" x="533.5" y="156.5332"/><rect fill="#FFFFFF" height="379.6094" style="stroke:#181818;stroke-width:1.0;" width="10" x="905.5" y="231.4453"/><rect fill="#FFFFFF" height="30" style="stroke:#181818;stroke-width:1.0;" width="10" x="905.5" y="827.0918"/><rect fill="#FFFFFF" height="30" style="stroke:#181818;stroke-width:1.0;" width="10" x="905.5" y="984.2559"/><rect fill="#FFFFFF" height="30" style="stroke:#181818;stroke-width:1.0;" width="10" x="905.5" y="1230.293"/><rect fill="#FFFFFF" height="30" style="stroke:#181818;stroke-width:1.0;" width="10" x="905.5" y="1394.457"/><rect fill="#FFFFFF" height="30" style="stroke:#181818;stroke-width:1.0;" width="10" x="905.5" y="1551.6211"/><rect fill="#FFFFFF" height="136.582" style="stroke:#181818;stroke-width:1.0;" width="10" x="905.5" y="1612.9121"/><rect fill="#FFFFFF" height="31.291" style="stroke:#181818;stroke-width:1.0;" width="10" x="1172.5" y="306.3574"/><rect fill="#FFFFFF" height="136.2031" style="stroke:#181818;stroke-width:1.0;" width="10" x="1339.5" y="443.5605"/><rect fill="#FFFFFF" height="30" style="stroke:#181818;stroke-width:1.0;" width="10" x="1339.5" y="1705.4941"/><rect fill="#FFFFFF" height="30" style="stroke:#181818;stroke-width:1.0;" width="10" x="1469.5" y="518.4727"/><rect fill="#FFFFFF" height="30" style="stroke:#181818;stroke-width:1.0;" width="10" x="1469.5" y="1644.2031"/><polygon fill="#181818" points="521.5,152.5332,531.5,156.5332,521.5,160.5332,525.5,156.5332" style="stroke:#181818;stroke-width:1.0;"/><line style="stroke:#181818;stroke-width:1.0;" x1="108.5" x2="527.5" y1="156.5332" y2="156.5332"/><text fill="#000000" font-family="sans-serif" font-size="13" lengthAdjust="spacing" textLength="337" x="115.5" y="151.2705">requests to setup the recruitment phases for a job opening</text><polygon fill="#181818" points="745,183.8242,755,187.8242,745,191.8242,749,187.8242" style="stroke:#181818;stroke-width:1.0;"/><line style="stroke:#181818;stroke-width:1.0;" x1="543.5" x2="751" y1="187.8242" y2="187.8242"/><text fill="#000000" font-family="sans-serif" font-size="13" lengthAdjust="spacing" textLength="36" x="550.5" y="182.5615">create</text><rect fill="#E2E2F0" height="32.6211" rx="2.5" ry="2.5" style="stroke:#181818;stroke-width:0.5;" width="307" x="757" y="164.5332"/><text fill="#000000" font-family="sans-serif" font-size="14" lengthAdjust="spacing" textLength="293" x="764" y="186.6406">SetupJobOpeningRecuitmentPhasesController</text><polygon fill="#181818" points="893.5,227.4453,903.5,231.4453,893.5,235.4453,897.5,231.4453" style="stroke:#181818;stroke-width:1.0;"/><line style="stroke:#181818;stroke-width:1.0;" x1="543.5" x2="899.5" y1="231.4453" y2="231.4453"/><text fill="#000000" font-family="sans-serif" font-size="13" lengthAdjust="spacing" textLength="343" x="550.5" y="226.1826">findCustomerManagerJobOpeningsNoRecruitmentProcess()</text><polygon fill="#181818" points="1083.5,258.7363,1093.5,262.7363,1083.5,266.7363,1087.5,262.7363" style="stroke:#181818;stroke-width:1.0;"/><line style="stroke:#181818;stroke-width:1.0;" x1="915.5" x2="1089.5" y1="262.7363" y2="262.7363"/><text fill="#000000" font-family="sans-serif" font-size="13" lengthAdjust="spacing" textLength="89" x="922.5" y="257.4736">create instance</text><rect fill="#E2E2F0" height="32.6211" rx="2.5" ry="2.5" style="stroke:#181818;stroke-width:0.5;" width="164" x="1095.5" y="239.4453"/><text fill="#000000" font-family="sans-serif" font-size="14" lengthAdjust="spacing" textLength="150" x="1102.5" y="261.5527">Jobs4uUserAuthService</text><polygon fill="#181818" points="1160.5,302.3574,1170.5,306.3574,1160.5,310.3574,1164.5,306.3574" style="stroke:#181818;stroke-width:1.0;"/><line style="stroke:#181818;stroke-width:1.0;" x1="915.5" x2="1166.5" y1="306.3574" y2="306.3574"/><text fill="#000000" font-family="sans-serif" font-size="13" lengthAdjust="spacing" textLength="233" x="922.5" y="301.0947">authenticatedUser().getEmail().toString()</text><polygon fill="#181818" points="926.5,333.6484,916.5,337.6484,926.5,341.6484,922.5,337.6484" style="stroke:#181818;stroke-width:1.0;"/><line style="stroke:#181818;stroke-width:1.0;stroke-dasharray:2.0,2.0;" x1="920.5" x2="1176.5" y1="337.6484" y2="337.6484"/><text fill="#000000" font-family="sans-serif" font-size="13" lengthAdjust="spacing" textLength="233" x="932.5" y="332.3857">current customer manager email (String)</text><polygon fill="#181818" points="1257.5,364.9395,1267.5,368.9395,1257.5,372.9395,1261.5,368.9395" style="stroke:#181818;stroke-width:1.0;"/><line style="stroke:#181818;stroke-width:1.0;" x1="915.5" x2="1263.5" y1="368.9395" y2="368.9395"/><text fill="#000000" font-family="sans-serif" font-size="13" lengthAdjust="spacing" textLength="89" x="922.5" y="363.6768">create instance</text><text fill="#000000" font-family="sans-serif" font-size="14" lengthAdjust="spacing" textLength="144" x="1269.5" y="406.7559">JobOpeningRepository</text><path d="M1326.5,355.6484 C1326.5,345.6484 1344.5,345.6484 1344.5,345.6484 C1344.5,345.6484 1362.5,345.6484 1362.5,355.6484 L1362.5,381.6484 C1362.5,391.6484 1344.5,391.6484 1344.5,391.6484 C1344.5,391.6484 1326.5,391.6484 1326.5,381.6484 L1326.5,355.6484 " fill="#E2E2F0" style="stroke:#181818;stroke-width:1.5;"/><path d="M1326.5,355.6484 C1326.5,365.6484 1344.5,365.6484 1344.5,365.6484 C1344.5,365.6484 1362.5,365.6484 1362.5,355.6484 " fill="none" style="stroke:#181818;stroke-width:1.5;"/><polygon fill="#181818" points="1327.5,439.5605,1337.5,443.5605,1327.5,447.5605,1331.5,443.5605" style="stroke:#181818;stroke-width:1.0;"/><line style="stroke:#181818;stroke-width:1.0;" x1="915.5" x2="1333.5" y1="443.5605" y2="443.5605"/><text fill="#000000" font-family="sans-serif" font-size="13" lengthAdjust="spacing" textLength="387" x="922.5" y="438.2979">findJobOpeningsOfCustomerManagerNoRecruitmentProcess(email)</text><polygon fill="#181818" points="1417.5,453.5605,1427.5,457.5605,1417.5,461.5605,1421.5,457.5605" style="stroke:#181818;stroke-width:1.0;"/><line style="stroke:#181818;stroke-width:1.0;" x1="1349.5" x2="1423.5" y1="457.5605" y2="457.5605"/><rect fill="#E2E2F0" height="32.6211" rx="2.5" ry="2.5" style="stroke:#181818;stroke-width:0.5;" width="90" x="1429.5" y="451.5605"/><text fill="#000000" font-family="sans-serif" font-size="14" lengthAdjust="spacing" textLength="76" x="1436.5" y="473.668">JobOpening</text><polygon fill="#181818" points="1457.5,514.4727,1467.5,518.4727,1457.5,522.4727,1461.5,518.4727" style="stroke:#181818;stroke-width:1.0;"/><line style="stroke:#181818;stroke-width:1.0;" x1="1349.5" x2="1463.5" y1="518.4727" y2="518.4727"/><text fill="#000000" font-family="sans-serif" font-size="13" lengthAdjust="spacing" textLength="53" x="1356.5" y="513.21">get list of</text><polygon fill="#181818" points="926.5,575.7637,916.5,579.7637,926.5,583.7637,922.5,579.7637" style="stroke:#181818;stroke-width:1.0;"/><line style="stroke:#181818;stroke-width:1.0;stroke-dasharray:2.0,2.0;" x1="920.5" x2="1343.5" y1="579.7637" y2="579.7637"/><text fill="#000000" font-family="sans-serif" font-size="13" lengthAdjust="spacing" textLength="105" x="932.5" y="574.501">List&lt;JobOpening&gt;</text><polygon fill="#181818" points="554.5,607.0547,544.5,611.0547,554.5,615.0547,550.5,611.0547" style="stroke:#181818;stroke-width:1.0;"/><line style="stroke:#181818;stroke-width:1.0;stroke-dasharray:2.0,2.0;" x1="548.5" x2="909.5" y1="611.0547" y2="611.0547"/><text fill="#000000" font-family="sans-serif" font-size="13" lengthAdjust="spacing" textLength="105" x="560.5" y="605.792">List&lt;JobOpening&gt;</text><path d="M10,626.0547 L71,626.0547 L71,635.3457 L61,645.3457 L10,645.3457 L10,626.0547 " fill="#EEEEEE" style="stroke:#000000;stroke-width:1.5;"/><rect fill="none" height="1162.7305" style="stroke:#000000;stroke-width:1.5;" width="1519.5" x="10" y="626.0547"/><text fill="#000000" font-family="sans-serif" font-size="13" font-weight="bold" lengthAdjust="spacing" textLength="16" x="25" y="641.083">alt</text><text fill="#000000" font-family="sans-serif" font-size="11" font-weight="bold" lengthAdjust="spacing" textLength="297" x="86" y="639.9248">[if there are job openings that meet that requirement]</text><polygon fill="#181818" points="119.5,664.6367,109.5,668.6367,119.5,672.6367,115.5,668.6367" style="stroke:#181818;stroke-width:1.0;"/><line style="stroke:#181818;stroke-width:1.0;stroke-dasharray:2.0,2.0;" x1="113.5" x2="532.5" y1="668.6367" y2="668.6367"/><text fill="#000000" font-family="sans-serif" font-size="13" lengthAdjust="spacing" textLength="401" x="125.5" y="663.374">lists their job openings that don't have their recruitment phases set up</text><polygon fill="#181818" points="521.5,695.9277,531.5,699.9277,521.5,703.9277,525.5,699.9277" style="stroke:#181818;stroke-width:1.0;"/><line style="stroke:#181818;stroke-width:1.0;" x1="108.5" x2="527.5" y1="699.9277" y2="699.9277"/><text fill="#000000" font-family="sans-serif" font-size="13" lengthAdjust="spacing" textLength="134" x="115.5" y="694.665">selects the job opening</text><path d="M30,714.9277 L103,714.9277 L103,724.2188 L93,734.2188 L30,734.2188 L30,714.9277 " fill="#EEEEEE" style="stroke:#000000;stroke-width:1.5;"/><rect fill="none" height="81.873" style="stroke:#000000;stroke-width:1.5;" width="647" x="30" y="714.9277"/><text fill="#000000" font-family="sans-serif" font-size="13" font-weight="bold" lengthAdjust="spacing" textLength="28" x="45" y="729.9561">loop</text><text fill="#000000" font-family="sans-serif" font-size="11" font-weight="bold" lengthAdjust="spacing" textLength="234" x="118" y="728.7979">[if inserted close date is before start date]</text><polygon fill="#181818" points="119.5,753.5098,109.5,757.5098,119.5,761.5098,115.5,757.5098" style="stroke:#181818;stroke-width:1.0;"/><line style="stroke:#181818;stroke-width:1.0;stroke-dasharray:2.0,2.0;" x1="113.5" x2="532.5" y1="757.5098" y2="757.5098"/><text fill="#000000" font-family="sans-serif" font-size="13" lengthAdjust="spacing" textLength="312" x="125.5" y="752.2471">asks for start and close date for the Application phase</text><polygon fill="#181818" points="521.5,784.8008,531.5,788.8008,521.5,792.8008,525.5,788.8008" style="stroke:#181818;stroke-width:1.0;"/><line style="stroke:#181818;stroke-width:1.0;" x1="108.5" x2="527.5" y1="788.8008" y2="788.8008"/><text fill="#000000" font-family="sans-serif" font-size="13" lengthAdjust="spacing" textLength="156" x="115.5" y="783.5381">provides start and end date</text><polygon fill="#181818" points="893.5,823.0918,903.5,827.0918,893.5,831.0918,897.5,827.0918" style="stroke:#181818;stroke-width:1.0;"/><line style="stroke:#181818;stroke-width:1.0;" x1="543.5" x2="899.5" y1="827.0918" y2="827.0918"/><text fill="#000000" font-family="sans-serif" font-size="13" lengthAdjust="spacing" textLength="176" x="550.5" y="821.8291">insertApplicationPhase(phase)</text><path d="M30,872.0918 L103,872.0918 L103,881.3828 L93,891.3828 L30,891.3828 L30,872.0918 " fill="#EEEEEE" style="stroke:#000000;stroke-width:1.5;"/><rect fill="none" height="81.873" style="stroke:#000000;stroke-width:1.5;" width="647" x="30" y="872.0918"/><text fill="#000000" font-family="sans-serif" font-size="13" font-weight="bold" lengthAdjust="spacing" textLength="28" x="45" y="887.1201">loop</text><text fill="#000000" font-family="sans-serif" font-size="11" font-weight="bold" lengthAdjust="spacing" textLength="234" x="118" y="885.9619">[if inserted close date is before start date]</text><polygon fill="#181818" points="119.5,910.6738,109.5,914.6738,119.5,918.6738,115.5,914.6738" style="stroke:#181818;stroke-width:1.0;"/><line style="stroke:#181818;stroke-width:1.0;stroke-dasharray:2.0,2.0;" x1="113.5" x2="532.5" y1="914.6738" y2="914.6738"/><text fill="#000000" font-family="sans-serif" font-size="13" lengthAdjust="spacing" textLength="306" x="125.5" y="909.4111">asks for start and close date for the Screening phase</text><polygon fill="#181818" points="521.5,941.9648,531.5,945.9648,521.5,949.9648,525.5,945.9648" style="stroke:#181818;stroke-width:1.0;"/><line style="stroke:#181818;stroke-width:1.0;" x1="108.5" x2="527.5" y1="945.9648" y2="945.9648"/><text fill="#000000" font-family="sans-serif" font-size="13" lengthAdjust="spacing" textLength="156" x="115.5" y="940.7021">provides start and end date</text><polygon fill="#181818" points="893.5,980.2559,903.5,984.2559,893.5,988.2559,897.5,984.2559" style="stroke:#181818;stroke-width:1.0;"/><line style="stroke:#181818;stroke-width:1.0;" x1="543.5" x2="899.5" y1="984.2559" y2="984.2559"/><text fill="#000000" font-family="sans-serif" font-size="13" lengthAdjust="spacing" textLength="170" x="550.5" y="978.9932">insertScreeningPhase(phase)</text><polygon fill="#181818" points="119.5,1041.5469,109.5,1045.5469,119.5,1049.5469,115.5,1045.5469" style="stroke:#181818;stroke-width:1.0;"/><line style="stroke:#181818;stroke-width:1.0;stroke-dasharray:2.0,2.0;" x1="113.5" x2="532.5" y1="1045.5469" y2="1045.5469"/><text fill="#000000" font-family="sans-serif" font-size="13" lengthAdjust="spacing" textLength="259" x="125.5" y="1040.2842">asks if job opening will have Interviews phase</text><polygon fill="#181818" points="521.5,1072.8379,531.5,1076.8379,521.5,1080.8379,525.5,1076.8379" style="stroke:#181818;stroke-width:1.0;"/><line style="stroke:#181818;stroke-width:1.0;" x1="108.5" x2="527.5" y1="1076.8379" y2="1076.8379"/><text fill="#000000" font-family="sans-serif" font-size="13" lengthAdjust="spacing" textLength="70" x="115.5" y="1071.5752">answers y/n</text><path d="M20,1091.8379 L81,1091.8379 L81,1101.1289 L71,1111.1289 L20,1111.1289 L20,1091.8379 " fill="#EEEEEE" style="stroke:#000000;stroke-width:1.5;"/><rect fill="none" height="176.4551" style="stroke:#000000;stroke-width:1.5;" width="1054" x="20" y="1091.8379"/><text fill="#000000" font-family="sans-serif" font-size="13" font-weight="bold" lengthAdjust="spacing" textLength="16" x="35" y="1106.8662">alt</text><text fill="#000000" font-family="sans-serif" font-size="11" font-weight="bold" lengthAdjust="spacing" textLength="205" x="96" y="1105.708">[if job opening has Interviews phase]</text><path d="M30,1118.1289 L103,1118.1289 L103,1127.4199 L93,1137.4199 L30,1137.4199 L30,1118.1289 " fill="#EEEEEE" style="stroke:#000000;stroke-width:1.5;"/><rect fill="none" height="81.873" style="stroke:#000000;stroke-width:1.5;" width="647" x="30" y="1118.1289"/><text fill="#000000" font-family="sans-serif" font-size="13" font-weight="bold" lengthAdjust="spacing" textLength="28" x="45" y="1133.1572">loop</text><text fill="#000000" font-family="sans-serif" font-size="11" font-weight="bold" lengthAdjust="spacing" textLength="234" x="118" y="1131.999">[if inserted close date is before start date]</text><polygon fill="#181818" points="119.5,1156.7109,109.5,1160.7109,119.5,1164.7109,115.5,1160.7109" style="stroke:#181818;stroke-width:1.0;"/><line style="stroke:#181818;stroke-width:1.0;stroke-dasharray:2.0,2.0;" x1="113.5" x2="532.5" y1="1160.7109" y2="1160.7109"/><text fill="#000000" font-family="sans-serif" font-size="13" lengthAdjust="spacing" textLength="304" x="125.5" y="1155.4482">asks for start and close date for the Interviews phase</text><polygon fill="#181818" points="521.5,1188.002,531.5,1192.002,521.5,1196.002,525.5,1192.002" style="stroke:#181818;stroke-width:1.0;"/><line style="stroke:#181818;stroke-width:1.0;" x1="108.5" x2="527.5" y1="1192.002" y2="1192.002"/><text fill="#000000" font-family="sans-serif" font-size="13" lengthAdjust="spacing" textLength="156" x="115.5" y="1186.7393">provides start and end date</text><polygon fill="#181818" points="893.5,1226.293,903.5,1230.293,893.5,1234.293,897.5,1230.293" style="stroke:#181818;stroke-width:1.0;"/><line style="stroke:#181818;stroke-width:1.0;" x1="543.5" x2="899.5" y1="1230.293" y2="1230.293"/><text fill="#000000" font-family="sans-serif" font-size="13" lengthAdjust="spacing" textLength="168" x="550.5" y="1225.0303">insertInterviewsPhase(phase)</text><path d="M30,1282.293 L103,1282.293 L103,1291.584 L93,1301.584 L30,1301.584 L30,1282.293 " fill="#EEEEEE" style="stroke:#000000;stroke-width:1.5;"/><rect fill="none" height="81.873" style="stroke:#000000;stroke-width:1.5;" width="647" x="30" y="1282.293"/><text fill="#000000" font-family="sans-serif" font-size="13" font-weight="bold" lengthAdjust="spacing" textLength="28" x="45" y="1297.3213">loop</text><text fill="#000000" font-family="sans-serif" font-size="11" font-weight="bold" lengthAdjust="spacing" textLength="234" x="118" y="1296.1631">[if inserted close date is before start date]</text><polygon fill="#181818" points="119.5,1320.875,109.5,1324.875,119.5,1328.875,115.5,1324.875" style="stroke:#181818;stroke-width:1.0;"/><line style="stroke:#181818;stroke-width:1.0;stroke-dasharray:2.0,2.0;" x1="113.5" x2="532.5" y1="1324.875" y2="1324.875"/><text fill="#000000" font-family="sans-serif" font-size="13" lengthAdjust="spacing" textLength="298" x="125.5" y="1319.6123">asks for start and close date for the Analysis phase</text><polygon fill="#181818" points="521.5,1352.166,531.5,1356.166,521.5,1360.166,525.5,1356.166" style="stroke:#181818;stroke-width:1.0;"/><line style="stroke:#181818;stroke-width:1.0;" x1="108.5" x2="527.5" y1="1356.166" y2="1356.166"/><text fill="#000000" font-family="sans-serif" font-size="13" lengthAdjust="spacing" textLength="156" x="115.5" y="1350.9033">provides start and end date</text><polygon fill="#181818" points="893.5,1390.457,903.5,1394.457,893.5,1398.457,897.5,1394.457" style="stroke:#181818;stroke-width:1.0;"/><line style="stroke:#181818;stroke-width:1.0;" x1="108.5" x2="899.5" y1="1394.457" y2="1394.457"/><text fill="#000000" font-family="sans-serif" font-size="13" lengthAdjust="spacing" textLength="162" x="115.5" y="1389.1943">insertAnalysisPhase(phase)</text><path d="M30,1439.457 L103,1439.457 L103,1448.748 L93,1458.748 L30,1458.748 L30,1439.457 " fill="#EEEEEE" style="stroke:#000000;stroke-width:1.5;"/><rect fill="none" height="81.873" style="stroke:#000000;stroke-width:1.5;" width="647" x="30" y="1439.457"/><text fill="#000000" font-family="sans-serif" font-size="13" font-weight="bold" lengthAdjust="spacing" textLength="28" x="45" y="1454.4854">loop</text><text fill="#000000" font-family="sans-serif" font-size="11" font-weight="bold" lengthAdjust="spacing" textLength="234" x="118" y="1453.3271">[if inserted close date is before start date]</text><polygon fill="#181818" points="119.5,1478.0391,109.5,1482.0391,119.5,1486.0391,115.5,1482.0391" style="stroke:#181818;stroke-width:1.0;"/><line style="stroke:#181818;stroke-width:1.0;stroke-dasharray:2.0,2.0;" x1="113.5" x2="532.5" y1="1482.0391" y2="1482.0391"/><text fill="#000000" font-family="sans-serif" font-size="13" lengthAdjust="spacing" textLength="285" x="125.5" y="1476.7764">asks for start and close date for the Result phase</text><polygon fill="#181818" points="521.5,1509.3301,531.5,1513.3301,521.5,1517.3301,525.5,1513.3301" style="stroke:#181818;stroke-width:1.0;"/><line style="stroke:#181818;stroke-width:1.0;" x1="108.5" x2="527.5" y1="1513.3301" y2="1513.3301"/><text fill="#000000" font-family="sans-serif" font-size="13" lengthAdjust="spacing" textLength="156" x="115.5" y="1508.0674">provides start and end date</text><polygon fill="#181818" points="893.5,1547.6211,903.5,1551.6211,893.5,1555.6211,897.5,1551.6211" style="stroke:#181818;stroke-width:1.0;"/><line style="stroke:#181818;stroke-width:1.0;" x1="543.5" x2="899.5" y1="1551.6211" y2="1551.6211"/><text fill="#000000" font-family="sans-serif" font-size="13" lengthAdjust="spacing" textLength="149" x="550.5" y="1546.3584">insertResultPhase(phase)</text><polygon fill="#181818" points="893.5,1608.9121,903.5,1612.9121,893.5,1616.9121,897.5,1612.9121" style="stroke:#181818;stroke-width:1.0;"/><line style="stroke:#181818;stroke-width:1.0;" x1="543.5" x2="899.5" y1="1612.9121" y2="1612.9121"/><text fill="#000000" font-family="sans-serif" font-size="13" lengthAdjust="spacing" textLength="180" x="550.5" y="1607.6494">updateJobOpening(jobOpening)</text><polygon fill="#181818" points="1457.5,1640.2031,1467.5,1644.2031,1457.5,1648.2031,1461.5,1644.2031" style="stroke:#181818;stroke-width:1.0;"/><line style="stroke:#181818;stroke-width:1.0;" x1="915.5" x2="1463.5" y1="1644.2031" y2="1644.2031"/><text fill="#000000" font-family="sans-serif" font-size="13" lengthAdjust="spacing" textLength="202" x="922.5" y="1638.9404">defineRecruitmentProcess(phases)</text><polygon fill="#181818" points="1327.5,1701.4941,1337.5,1705.4941,1327.5,1709.4941,1331.5,1705.4941" style="stroke:#181818;stroke-width:1.0;"/><line style="stroke:#181818;stroke-width:1.0;" x1="915.5" x2="1333.5" y1="1705.4941" y2="1705.4941"/><text fill="#000000" font-family="sans-serif" font-size="13" lengthAdjust="spacing" textLength="99" x="922.5" y="1700.2314">save(jobOpening)</text><polygon fill="#181818" points="554.5,1745.4941,544.5,1749.4941,554.5,1753.4941,550.5,1749.4941" style="stroke:#181818;stroke-width:1.0;"/><line style="stroke:#181818;stroke-width:1.0;stroke-dasharray:2.0,2.0;" x1="548.5" x2="909.5" y1="1749.4941" y2="1749.4941"/><polygon fill="#181818" points="119.5,1776.7852,109.5,1780.7852,119.5,1784.7852,115.5,1780.7852" style="stroke:#181818;stroke-width:1.0;"/><line style="stroke:#181818;stroke-width:1.0;stroke-dasharray:2.0,2.0;" x1="113.5" x2="532.5" y1="1780.7852" y2="1780.7852"/><text fill="#000000" font-family="sans-serif" font-size="13" lengthAdjust="spacing" textLength="195" x="125.5" y="1775.5225">informs user of operation success</text><!--SRC=[pLR1JXin4BtlLuouD8cKbagLAg4A2Q4UKj62IFa0npiXfewzjMU3-FlEh3TPPzb2qoBKGv3ZpBnvy_p6Hcdo0OxEwqX-ZG6-AgTkCHo1Yd0JCHIL2cIqgPGZc2FLrHU_kApG6NTxZResj4P7LoiLCTxCcgpP8Jddtb7mrd9fpZt_Vdsnbys9yKCjHCvgMiqnR8n6YMoNHQb8BHW8yXALZuRRUf30xbiVk0sNeCl57Meg2Z9a4MxcyFxu-2DCXJn9I5qnZWujSqZKYq9fCXj5c9Ggv2zCJra1E860FskC584yHD40Q8Mysw5K3GeiMNy5Ttu1FX7ASMUCEXDCKMOoOLmTa7_9jtbpQLovFSBs1Bi6upUVaRyANcECet5NfL6zQA0OibKsAmR6HLAErUu7SOZYSs5Oepcm50L6uxUtI9_NobXUafzJO19vlUtPRK6cNIEw3a6qqLi_hbCtW887emGsBafyXBRZrftuqpraFaaAPf9TBdjo3chOaCeQoxnMPEXSAnbiCXdSvlAi65WJ2VooWsjTcVMwzMcEqebtmG2VkYPEyyoSMX9WQzIdif8pb2KmI_5luDdZJsPMzlTA4QoH6sXMudiJK6HA9fKwCXWdJOCIZoOCG9JUlI5OgGss8GEpmeF4izYRj8YMHMc0zyV8Uby9SJvw3EnEqDRpJL4sTeYmG1uz1BP5e6QpprV57sayKuXoUmZoWvGygoehxZVU9PezUbNm6rCA-HqAyYSLb9NGxCrpOfmXDpVEg87l3-wZutgTjkSyL-d-VDccTxY7j3pG00kGcG7kZRN9N3D7ScFWVHnahboynn3XuPtREJy7ufG1YDVH_1dgVozw1to8wWB92htQe3bb7wBvjzxRdFqvQu7_lo6xnbXRUk73Jg27ZjSEfAwaHlTWZEvsoz_-Jx5xvqhaXnO7dj9qmO__vF4RVByZZ_Oma-pb6tuFi-VmkPl5E3wPTOHQllgbN0eXtVonrj97DXGP50F_0W00]--></g></svg>