<?xml version="1.0" encoding="us-ascii" standalone="no"?><svg xmlns="http://www.w3.org/2000/svg" xmlns:xlink="http://www.w3.org/1999/xlink" contentStyleType="text/css" height="826px" preserveAspectRatio="none" style="width:1505px;height:826px;background:#FFFFFF;" version="1.1" viewBox="0 0 1505 826" width="1505px" zoomAndPan="magnify"><defs/><g><text fill="#000000" font-family="sans-serif" font-size="14" font-weight="bold" lengthAdjust="spacing" textLength="285" x="609.25" y="30.1074">US 1007 - Setting up Recruitment Phases</text><text fill="#000000" font-family="sans-serif" font-size="14" font-weight="bold" lengthAdjust="spacing" textLength="98" x="702.75" y="48.7285">Partial - Setup</text><rect fill="#FFFFFF" height="582.6855" style="stroke:#181818;stroke-width:1.0;" width="10" x="78.5" y="151.8633"/><rect fill="#FFFFFF" height="559.3945" style="stroke:#181818;stroke-width:1.0;" width="10" x="513.5" y="175.1543"/><rect fill="#FFFFFF" height="379.6094" style="stroke:#181818;stroke-width:1.0;" width="10" x="885.5" y="250.0664"/><rect fill="#FFFFFF" height="31.291" style="stroke:#181818;stroke-width:1.0;" width="10" x="1152.5" y="324.9785"/><rect fill="#FFFFFF" height="136.2031" style="stroke:#181818;stroke-width:1.0;" width="10" x="1319.5" y="462.1816"/><rect fill="#FFFFFF" height="30" style="stroke:#181818;stroke-width:1.0;" width="10" x="1449.5" y="537.0938"/><rect fill="none" height="81.873" style="stroke:#000000;stroke-width:1.5;" width="647" x="10" y="644.6758"/><line style="stroke:#181818;stroke-width:0.5;stroke-dasharray:5.0,5.0;" x1="83" x2="83" y1="141.8633" y2="743.5488"/><line style="stroke:#181818;stroke-width:0.5;stroke-dasharray:5.0,5.0;" x1="518" x2="518" y1="141.8633" y2="743.5488"/><line style="stroke:#181818;stroke-width:0.5;stroke-dasharray:5.0,5.0;" x1="890" x2="890" y1="214.9648" y2="743.5488"/><line style="stroke:#181818;stroke-width:0.5;stroke-dasharray:5.0,5.0;" x1="1157.5" x2="1157.5" y1="289.877" y2="743.5488"/><line style="stroke:#181818;stroke-width:0.5;stroke-dasharray:5.0,5.0;" x1="1324.5" x2="1324.5" y1="411.5801" y2="743.5488"/><line style="stroke:#181818;stroke-width:0.5;stroke-dasharray:5.0,5.0;" x1="1454.5" x2="1454.5" y1="501.9922" y2="743.5488"/><text fill="#000000" font-family="sans-serif" font-size="14" lengthAdjust="spacing" textLength="121" x="20" y="138.3496">Customer Manager</text><ellipse cx="83.5" cy="71.7422" fill="#E2E2F0" rx="8" ry="8" style="stroke:#181818;stroke-width:0.5;"/><path d="M83.5,79.7422 L83.5,106.7422 M70.5,87.7422 L96.5,87.7422 M83.5,106.7422 L70.5,121.7422 M83.5,106.7422 L96.5,121.7422 " fill="none" style="stroke:#181818;stroke-width:0.5;"/><text fill="#000000" font-family="sans-serif" font-size="14" lengthAdjust="spacing" textLength="121" x="20" y="757.6563">Customer Manager</text><ellipse cx="83.5" cy="769.6699" fill="#E2E2F0" rx="8" ry="8" style="stroke:#181818;stroke-width:0.5;"/><path d="M83.5,777.6699 L83.5,804.6699 M70.5,785.6699 L96.5,785.6699 M83.5,804.6699 L70.5,819.6699 M83.5,804.6699 L96.5,819.6699 " fill="none" style="stroke:#181818;stroke-width:0.5;"/><rect fill="#E2E2F0" height="32.6211" rx="2.5" ry="2.5" style="stroke:#181818;stroke-width:0.5;" width="257" x="390" y="108.2422"/><text fill="#000000" font-family="sans-serif" font-size="14" lengthAdjust="spacing" textLength="243" x="397" y="130.3496">SetupJobOpeningRecuitmentPhasesUI</text><rect fill="#E2E2F0" height="32.6211" rx="2.5" ry="2.5" style="stroke:#181818;stroke-width:0.5;" width="257" x="390" y="742.5488"/><text fill="#000000" font-family="sans-serif" font-size="14" lengthAdjust="spacing" textLength="243" x="397" y="764.6563">SetupJobOpeningRecuitmentPhasesUI</text><rect fill="#E2E2F0" height="32.6211" rx="2.5" ry="2.5" style="stroke:#181818;stroke-width:0.5;" width="307" x="737" y="742.5488"/><text fill="#000000" font-family="sans-serif" font-size="14" lengthAdjust="spacing" textLength="293" x="744" y="764.6563">SetupJobOpeningRecuitmentPhasesController</text><rect fill="#E2E2F0" height="32.6211" rx="2.5" ry="2.5" style="stroke:#181818;stroke-width:0.5;" width="164" x="1075.5" y="742.5488"/><text fill="#000000" font-family="sans-serif" font-size="14" lengthAdjust="spacing" textLength="150" x="1082.5" y="764.6563">Jobs4uUserAuthService</text><text fill="#000000" font-family="sans-serif" font-size="14" lengthAdjust="spacing" textLength="144" x="1249.5" y="757.6563">JobOpeningRepository</text><path d="M1306.5,771.1699 C1306.5,761.1699 1324.5,761.1699 1324.5,761.1699 C1324.5,761.1699 1342.5,761.1699 1342.5,771.1699 L1342.5,797.1699 C1342.5,807.1699 1324.5,807.1699 1324.5,807.1699 C1324.5,807.1699 1306.5,807.1699 1306.5,797.1699 L1306.5,771.1699 " fill="#E2E2F0" style="stroke:#181818;stroke-width:1.5;"/><path d="M1306.5,771.1699 C1306.5,781.1699 1324.5,781.1699 1324.5,781.1699 C1324.5,781.1699 1342.5,781.1699 1342.5,771.1699 " fill="none" style="stroke:#181818;stroke-width:1.5;"/><rect fill="#E2E2F0" height="32.6211" rx="2.5" ry="2.5" style="stroke:#181818;stroke-width:0.5;" width="90" x="1409.5" y="742.5488"/><text fill="#000000" font-family="sans-serif" font-size="14" lengthAdjust="spacing" textLength="76" x="1416.5" y="764.6563">JobOpening</text><rect fill="#FFFFFF" height="582.6855" style="stroke:#181818;stroke-width:1.0;" width="10" x="78.5" y="151.8633"/><rect fill="#FFFFFF" height="559.3945" style="stroke:#181818;stroke-width:1.0;" width="10" x="513.5" y="175.1543"/><rect fill="#FFFFFF" height="379.6094" style="stroke:#181818;stroke-width:1.0;" width="10" x="885.5" y="250.0664"/><rect fill="#FFFFFF" height="31.291" style="stroke:#181818;stroke-width:1.0;" width="10" x="1152.5" y="324.9785"/><rect fill="#FFFFFF" height="136.2031" style="stroke:#181818;stroke-width:1.0;" width="10" x="1319.5" y="462.1816"/><rect fill="#FFFFFF" height="30" style="stroke:#181818;stroke-width:1.0;" width="10" x="1449.5" y="537.0938"/><polygon fill="#181818" points="501.5,171.1543,511.5,175.1543,501.5,179.1543,505.5,175.1543" style="stroke:#181818;stroke-width:1.0;"/><line style="stroke:#181818;stroke-width:1.0;" x1="88.5" x2="507.5" y1="175.1543" y2="175.1543"/><text fill="#000000" font-family="sans-serif" font-size="13" lengthAdjust="spacing" textLength="337" x="95.5" y="169.8916">requests to setup the recruitment phases for a job opening</text><polygon fill="#181818" points="725,202.4453,735,206.4453,725,210.4453,729,206.4453" style="stroke:#181818;stroke-width:1.0;"/><line style="stroke:#181818;stroke-width:1.0;" x1="523.5" x2="731" y1="206.4453" y2="206.4453"/><text fill="#000000" font-family="sans-serif" font-size="13" lengthAdjust="spacing" textLength="36" x="530.5" y="201.1826">create</text><rect fill="#E2E2F0" height="32.6211" rx="2.5" ry="2.5" style="stroke:#181818;stroke-width:0.5;" width="307" x="737" y="183.1543"/><text fill="#000000" font-family="sans-serif" font-size="14" lengthAdjust="spacing" textLength="293" x="744" y="205.2617">SetupJobOpeningRecuitmentPhasesController</text><polygon fill="#181818" points="873.5,246.0664,883.5,250.0664,873.5,254.0664,877.5,250.0664" style="stroke:#181818;stroke-width:1.0;"/><line style="stroke:#181818;stroke-width:1.0;" x1="523.5" x2="879.5" y1="250.0664" y2="250.0664"/><text fill="#000000" font-family="sans-serif" font-size="13" lengthAdjust="spacing" textLength="343" x="530.5" y="244.8037">findCustomerManagerJobOpeningsNoRecruitmentProcess()</text><polygon fill="#181818" points="1063.5,277.3574,1073.5,281.3574,1063.5,285.3574,1067.5,281.3574" style="stroke:#181818;stroke-width:1.0;"/><line style="stroke:#181818;stroke-width:1.0;" x1="895.5" x2="1069.5" y1="281.3574" y2="281.3574"/><text fill="#000000" font-family="sans-serif" font-size="13" lengthAdjust="spacing" textLength="89" x="902.5" y="276.0947">create instance</text><rect fill="#E2E2F0" height="32.6211" rx="2.5" ry="2.5" style="stroke:#181818;stroke-width:0.5;" width="164" x="1075.5" y="258.0664"/><text fill="#000000" font-family="sans-serif" font-size="14" lengthAdjust="spacing" textLength="150" x="1082.5" y="280.1738">Jobs4uUserAuthService</text><polygon fill="#181818" points="1140.5,320.9785,1150.5,324.9785,1140.5,328.9785,1144.5,324.9785" style="stroke:#181818;stroke-width:1.0;"/><line style="stroke:#181818;stroke-width:1.0;" x1="895.5" x2="1146.5" y1="324.9785" y2="324.9785"/><text fill="#000000" font-family="sans-serif" font-size="13" lengthAdjust="spacing" textLength="233" x="902.5" y="319.7158">authenticatedUser().getEmail().toString()</text><polygon fill="#181818" points="906.5,352.2695,896.5,356.2695,906.5,360.2695,902.5,356.2695" style="stroke:#181818;stroke-width:1.0;"/><line style="stroke:#181818;stroke-width:1.0;stroke-dasharray:2.0,2.0;" x1="900.5" x2="1156.5" y1="356.2695" y2="356.2695"/><text fill="#000000" font-family="sans-serif" font-size="13" lengthAdjust="spacing" textLength="233" x="912.5" y="351.0068">current customer manager email (String)</text><polygon fill="#181818" points="1237.5,383.5605,1247.5,387.5605,1237.5,391.5605,1241.5,387.5605" style="stroke:#181818;stroke-width:1.0;"/><line style="stroke:#181818;stroke-width:1.0;" x1="895.5" x2="1243.5" y1="387.5605" y2="387.5605"/><text fill="#000000" font-family="sans-serif" font-size="13" lengthAdjust="spacing" textLength="89" x="902.5" y="382.2979">create instance</text><text fill="#000000" font-family="sans-serif" font-size="14" lengthAdjust="spacing" textLength="144" x="1249.5" y="425.377">JobOpeningRepository</text><path d="M1306.5,374.2695 C1306.5,364.2695 1324.5,364.2695 1324.5,364.2695 C1324.5,364.2695 1342.5,364.2695 1342.5,374.2695 L1342.5,400.2695 C1342.5,410.2695 1324.5,410.2695 1324.5,410.2695 C1324.5,410.2695 1306.5,410.2695 1306.5,400.2695 L1306.5,374.2695 " fill="#E2E2F0" style="stroke:#181818;stroke-width:1.5;"/><path d="M1306.5,374.2695 C1306.5,384.2695 1324.5,384.2695 1324.5,384.2695 C1324.5,384.2695 1342.5,384.2695 1342.5,374.2695 " fill="none" style="stroke:#181818;stroke-width:1.5;"/><polygon fill="#181818" points="1307.5,458.1816,1317.5,462.1816,1307.5,466.1816,1311.5,462.1816" style="stroke:#181818;stroke-width:1.0;"/><line style="stroke:#181818;stroke-width:1.0;" x1="895.5" x2="1313.5" y1="462.1816" y2="462.1816"/><text fill="#000000" font-family="sans-serif" font-size="13" lengthAdjust="spacing" textLength="387" x="902.5" y="456.9189">findJobOpeningsOfCustomerManagerNoRecruitmentProcess(email)</text><polygon fill="#181818" points="1397.5,472.1816,1407.5,476.1816,1397.5,480.1816,1401.5,476.1816" style="stroke:#181818;stroke-width:1.0;"/><line style="stroke:#181818;stroke-width:1.0;" x1="1329.5" x2="1403.5" y1="476.1816" y2="476.1816"/><rect fill="#E2E2F0" height="32.6211" rx="2.5" ry="2.5" style="stroke:#181818;stroke-width:0.5;" width="90" x="1409.5" y="470.1816"/><text fill="#000000" font-family="sans-serif" font-size="14" lengthAdjust="spacing" textLength="76" x="1416.5" y="492.2891">JobOpening</text><polygon fill="#181818" points="1437.5,533.0938,1447.5,537.0938,1437.5,541.0938,1441.5,537.0938" style="stroke:#181818;stroke-width:1.0;"/><line style="stroke:#181818;stroke-width:1.0;" x1="1329.5" x2="1443.5" y1="537.0938" y2="537.0938"/><text fill="#000000" font-family="sans-serif" font-size="13" lengthAdjust="spacing" textLength="53" x="1336.5" y="531.8311">get list of</text><polygon fill="#181818" points="906.5,594.3848,896.5,598.3848,906.5,602.3848,902.5,598.3848" style="stroke:#181818;stroke-width:1.0;"/><line style="stroke:#181818;stroke-width:1.0;stroke-dasharray:2.0,2.0;" x1="900.5" x2="1323.5" y1="598.3848" y2="598.3848"/><text fill="#000000" font-family="sans-serif" font-size="13" lengthAdjust="spacing" textLength="105" x="912.5" y="593.1221">List&lt;JobOpening&gt;</text><polygon fill="#181818" points="534.5,625.6758,524.5,629.6758,534.5,633.6758,530.5,629.6758" style="stroke:#181818;stroke-width:1.0;"/><line style="stroke:#181818;stroke-width:1.0;stroke-dasharray:2.0,2.0;" x1="528.5" x2="889.5" y1="629.6758" y2="629.6758"/><text fill="#000000" font-family="sans-serif" font-size="13" lengthAdjust="spacing" textLength="105" x="540.5" y="624.4131">List&lt;JobOpening&gt;</text><path d="M10,644.6758 L71,644.6758 L71,653.9668 L61,663.9668 L10,663.9668 L10,644.6758 " fill="#EEEEEE" style="stroke:#000000;stroke-width:1.5;"/><rect fill="none" height="81.873" style="stroke:#000000;stroke-width:1.5;" width="647" x="10" y="644.6758"/><text fill="#000000" font-family="sans-serif" font-size="13" font-weight="bold" lengthAdjust="spacing" textLength="16" x="25" y="659.7041">alt</text><text fill="#000000" font-family="sans-serif" font-size="11" font-weight="bold" lengthAdjust="spacing" textLength="297" x="86" y="658.5459">[if there are job openings that meet that requirement]</text><polygon fill="#181818" points="99.5,683.2578,89.5,687.2578,99.5,691.2578,95.5,687.2578" style="stroke:#181818;stroke-width:1.0;"/><line style="stroke:#181818;stroke-width:1.0;stroke-dasharray:2.0,2.0;" x1="93.5" x2="512.5" y1="687.2578" y2="687.2578"/><text fill="#000000" font-family="sans-serif" font-size="13" lengthAdjust="spacing" textLength="401" x="105.5" y="681.9951">lists their job openings that don't have their recruitment phases set up</text><polygon fill="#181818" points="501.5,714.5488,511.5,718.5488,501.5,722.5488,505.5,718.5488" style="stroke:#181818;stroke-width:1.0;"/><line style="stroke:#181818;stroke-width:1.0;" x1="88.5" x2="507.5" y1="718.5488" y2="718.5488"/><text fill="#000000" font-family="sans-serif" font-size="13" lengthAdjust="spacing" textLength="134" x="95.5" y="713.2861">selects the job opening</text><!--SRC=[bLF1QXin4BthAuPSQXjS4YW4GWaKquDB6fkullKYQsUz2hlILferzEypizhjoeu9z60Zos_Up7jwemtv03UhBf9lCC1FxVGHmmte2Fk8GRKwa3MsrOvWXzIrF_nXqwApxlY2fhFKeADjfIF6_RglMlzFpSex2hwkkJNNhdwzF9rLSs7yqiaWtpggTXXErg0WXwCgDEa34q7UelNHigo_0fn-NH8FS05j3gzeI2coL2FiTt1tUtiFIncU1DArp6F2C3caqN-xhH3gEW6xLYbjo9uqOR9EoJSi7zaIU820VpgC584yH843LSYt4stRqqB93wBXrH_0fmbptZMpheLJh5eicDS4v7_oQxuihIl6DnsUT58SdtscPXkymHXdywbB_mogfsBAmUgi6LWNIJks_nB44CqFnRJMCB0G1sRppqUaxussDH_9xoZm47c_yJ57akKan7GXY3Tc36YJr00A7ymIsLmL-8xjtsnJ13xMa0KdEPXPjYalxBpgOJzK9YmBdyhOkLTAt69nzPhRisDGsqZWoubkY6ccTGnkpZAPzyG4NoSHZtbbFbeoO0pgHrKf6ReciANaD_0oyYSBA-UxqWGDie3-9Bct0SMc55Bf8ulnq0iKFDfmXQBmxXD1fKyuGAxi2YyIoEATRLh4catfYS_N25q1FBjw0m00]--></g></svg>