<?xml version="1.0" encoding="us-ascii" standalone="no"?><svg xmlns="http://www.w3.org/2000/svg" xmlns:xlink="http://www.w3.org/1999/xlink" contentStyleType="text/css" height="590px" preserveAspectRatio="none" style="width:457px;height:590px;background:#FFFFFF;" version="1.1" viewBox="0 0 457 590" width="457px" zoomAndPan="magnify"><defs/><g><text fill="#000000" font-family="sans-serif" font-size="14" font-weight="bold" lengthAdjust="spacing" textLength="328" x="66.25" y="30.1074">US 1005 - Listing applications for a job opening</text><rect fill="#FFFFFF" height="365.4629" style="stroke:#181818;stroke-width:1.0;" width="10" x="88.5" y="133.2422"/><rect fill="#FFFFFF" height="341.1719" style="stroke:#181818;stroke-width:1.0;" width="10" x="396.5" y="156.5332"/><rect fill="none" height="81.873" style="stroke:#000000;stroke-width:1.5;" width="421.5" x="20" y="234.1152"/><rect fill="none" height="160.7168" style="stroke:#000000;stroke-width:1.5;" width="441.5" x="10" y="329.9883"/><rect fill="none" height="50.582" style="stroke:#000000;stroke-width:1.5;" width="421.5" x="20" y="433.123"/><line style="stroke:#181818;stroke-width:0.5;stroke-dasharray:5.0,5.0;" x1="93" x2="93" y1="123.2422" y2="507.7051"/><line style="stroke:#181818;stroke-width:0.5;stroke-dasharray:5.0,5.0;" x1="401.5" x2="401.5" y1="123.2422" y2="507.7051"/><text fill="#000000" font-family="sans-serif" font-size="14" lengthAdjust="spacing" textLength="121" x="30" y="119.7285">Customer Manager</text><ellipse cx="93.5" cy="53.1211" fill="#E2E2F0" rx="8" ry="8" style="stroke:#181818;stroke-width:0.5;"/><path d="M93.5,61.1211 L93.5,88.1211 M80.5,69.1211 L106.5,69.1211 M93.5,88.1211 L80.5,103.1211 M93.5,88.1211 L106.5,103.1211 " fill="none" style="stroke:#181818;stroke-width:0.5;"/><text fill="#000000" font-family="sans-serif" font-size="14" lengthAdjust="spacing" textLength="121" x="30" y="521.8125">Customer Manager</text><ellipse cx="93.5" cy="533.8262" fill="#E2E2F0" rx="8" ry="8" style="stroke:#181818;stroke-width:0.5;"/><path d="M93.5,541.8262 L93.5,568.8262 M80.5,549.8262 L106.5,549.8262 M93.5,568.8262 L80.5,583.8262 M93.5,568.8262 L106.5,583.8262 " fill="none" style="stroke:#181818;stroke-width:0.5;"/><rect fill="#E2E2F0" height="32.6211" rx="2.5" ry="2.5" style="stroke:#181818;stroke-width:0.5;" width="60" x="371.5" y="89.6211"/><text fill="#000000" font-family="sans-serif" font-size="14" lengthAdjust="spacing" textLength="46" x="378.5" y="111.7285">System</text><rect fill="#E2E2F0" height="32.6211" rx="2.5" ry="2.5" style="stroke:#181818;stroke-width:0.5;" width="60" x="371.5" y="506.7051"/><text fill="#000000" font-family="sans-serif" font-size="14" lengthAdjust="spacing" textLength="46" x="378.5" y="528.8125">System</text><rect fill="#FFFFFF" height="365.4629" style="stroke:#181818;stroke-width:1.0;" width="10" x="88.5" y="133.2422"/><rect fill="#FFFFFF" height="341.1719" style="stroke:#181818;stroke-width:1.0;" width="10" x="396.5" y="156.5332"/><polygon fill="#181818" points="384.5,152.5332,394.5,156.5332,384.5,160.5332,388.5,156.5332" style="stroke:#181818;stroke-width:1.0;"/><line style="stroke:#181818;stroke-width:1.0;" x1="98.5" x2="390.5" y1="156.5332" y2="156.5332"/><text fill="#000000" font-family="sans-serif" font-size="13" lengthAdjust="spacing" textLength="279" x="105.5" y="151.2705">requests to list job applications for a job opening</text><polygon fill="#181818" points="109.5,183.8242,99.5,187.8242,109.5,191.8242,105.5,187.8242" style="stroke:#181818;stroke-width:1.0;"/><line style="stroke:#181818;stroke-width:1.0;stroke-dasharray:2.0,2.0;" x1="103.5" x2="395.5" y1="187.8242" y2="187.8242"/><text fill="#000000" font-family="sans-serif" font-size="13" lengthAdjust="spacing" textLength="224" x="115.5" y="182.5615">asks if user wants to filter by customer</text><polygon fill="#181818" points="384.5,215.1152,394.5,219.1152,384.5,223.1152,388.5,219.1152" style="stroke:#181818;stroke-width:1.0;"/><line style="stroke:#181818;stroke-width:1.0;" x1="98.5" x2="390.5" y1="219.1152" y2="219.1152"/><text fill="#000000" font-family="sans-serif" font-size="13" lengthAdjust="spacing" textLength="48" x="105.5" y="213.8525">answers</text><path d="M20,234.1152 L81,234.1152 L81,243.4063 L71,253.4063 L20,253.4063 L20,234.1152 " fill="#EEEEEE" style="stroke:#000000;stroke-width:1.5;"/><rect fill="none" height="81.873" style="stroke:#000000;stroke-width:1.5;" width="421.5" x="20" y="234.1152"/><text fill="#000000" font-family="sans-serif" font-size="13" font-weight="bold" lengthAdjust="spacing" textLength="16" x="35" y="249.1436">alt</text><text fill="#000000" font-family="sans-serif" font-size="11" font-weight="bold" lengthAdjust="spacing" textLength="109" x="96" y="247.9854">[if answer was yes]</text><polygon fill="#181818" points="109.5,272.6973,99.5,276.6973,109.5,280.6973,105.5,276.6973" style="stroke:#181818;stroke-width:1.0;"/><line style="stroke:#181818;stroke-width:1.0;stroke-dasharray:2.0,2.0;" x1="103.5" x2="395.5" y1="276.6973" y2="276.6973"/><text fill="#000000" font-family="sans-serif" font-size="13" lengthAdjust="spacing" textLength="89" x="115.5" y="271.4346">lists customers</text><polygon fill="#181818" points="384.5,303.9883,394.5,307.9883,384.5,311.9883,388.5,307.9883" style="stroke:#181818;stroke-width:1.0;"/><line style="stroke:#181818;stroke-width:1.0;" x1="98.5" x2="390.5" y1="307.9883" y2="307.9883"/><text fill="#000000" font-family="sans-serif" font-size="13" lengthAdjust="spacing" textLength="100" x="105.5" y="302.7256">picks a customer</text><path d="M10,329.9883 L71,329.9883 L71,339.2793 L61,349.2793 L10,349.2793 L10,329.9883 " fill="#EEEEEE" style="stroke:#000000;stroke-width:1.5;"/><rect fill="none" height="160.7168" style="stroke:#000000;stroke-width:1.5;" width="441.5" x="10" y="329.9883"/><text fill="#000000" font-family="sans-serif" font-size="13" font-weight="bold" lengthAdjust="spacing" textLength="16" x="25" y="345.0166">alt</text><text fill="#000000" font-family="sans-serif" font-size="11" font-weight="bold" lengthAdjust="spacing" textLength="205" x="86" y="343.8584">[if there are job openings that belong</text><text fill="#000000" font-family="sans-serif" font-size="11" font-weight="bold" lengthAdjust="spacing" textLength="190" x="86" y="358.4893">to the current Customer Manager]</text><polygon fill="#181818" points="109.5,382.832,99.5,386.832,109.5,390.832,105.5,386.832" style="stroke:#181818;stroke-width:1.0;"/><line style="stroke:#181818;stroke-width:1.0;stroke-dasharray:2.0,2.0;" x1="103.5" x2="395.5" y1="386.832" y2="386.832"/><text fill="#000000" font-family="sans-serif" font-size="13" lengthAdjust="spacing" textLength="130" x="115.5" y="381.5693">lists their job openings</text><polygon fill="#181818" points="384.5,414.123,394.5,418.123,384.5,422.123,388.5,418.123" style="stroke:#181818;stroke-width:1.0;"/><line style="stroke:#181818;stroke-width:1.0;" x1="98.5" x2="390.5" y1="418.123" y2="418.123"/><text fill="#000000" font-family="sans-serif" font-size="13" lengthAdjust="spacing" textLength="134" x="105.5" y="412.8604">selects the job opening</text><path d="M20,433.123 L81,433.123 L81,442.4141 L71,452.4141 L20,452.4141 L20,433.123 " fill="#EEEEEE" style="stroke:#000000;stroke-width:1.5;"/><rect fill="none" height="50.582" style="stroke:#000000;stroke-width:1.5;" width="421.5" x="20" y="433.123"/><text fill="#000000" font-family="sans-serif" font-size="13" font-weight="bold" lengthAdjust="spacing" textLength="16" x="35" y="448.1514">alt</text><text fill="#000000" font-family="sans-serif" font-size="11" font-weight="bold" lengthAdjust="spacing" textLength="269" x="96" y="446.9932">[if there are job applications for that job opening]</text><polygon fill="#181818" points="109.5,471.7051,99.5,475.7051,109.5,479.7051,105.5,475.7051" style="stroke:#181818;stroke-width:1.0;"/><line style="stroke:#181818;stroke-width:1.0;stroke-dasharray:2.0,2.0;" x1="103.5" x2="395.5" y1="475.7051" y2="475.7051"/><text fill="#000000" font-family="sans-serif" font-size="13" lengthAdjust="spacing" textLength="140" x="115.5" y="470.4424">lists the job applications</text><!--SRC=[XP71JiCm38RlVOfVkqyQ1ouxSE4Afse792vUvcw1B2cnozItnsbHjRLCH6fKA_7dpp4vJHchvquqdJdZbI8TEQz0WfrmhbhAwfrlAIhgNfJFvQX-gwjAlGR6hiR3PlE8DLwyg8z7KDi6xqXzYeB6y8IFj4TgETfnPOkS-czI7ajKPSVwgL2nHUQlZaK5cX0CEIJ_nvo8Wra1hGquWBSc_2dm3ReINgoJWTtue1RlUxZVxkSc5EN2MOmUjEIFiH44FSkYJ96L2IPpMkkTQT1LDOw7YQqdpWooxwelypoHOiyXnUDxD6cxPe2SsSOn7zeT8Kln-OOwDnCExCQRirVzosqnYi7n9k-Uno9_U0DOcQkV0zyCymS0]--></g></svg>