<?xml version="1.0" encoding="us-ascii" standalone="no"?><svg xmlns="http://www.w3.org/2000/svg" xmlns:xlink="http://www.w3.org/1999/xlink" contentStyleType="text/css" height="904px" preserveAspectRatio="none" style="width:913px;height:904px;background:#FFFFFF;" version="1.1" viewBox="0 0 913 904" width="913px" zoomAndPan="magnify"><defs/><g><text fill="#000000" font-family="sans-serif" font-size="14" font-weight="bold" lengthAdjust="spacing" textLength="258" x="326.75" y="30.1074">US 2000b - Toggling candidate status</text><rect fill="#FFFFFF" height="678.8984" style="stroke:#181818;stroke-width:1.0;" width="10" x="46.5" y="133.2422"/><rect fill="#FFFFFF" height="646.6074" style="stroke:#181818;stroke-width:1.0;" width="10" x="299.5" y="156.5332"/><rect fill="#FFFFFF" height="34.291" style="stroke:#181818;stroke-width:1.0;" width="10" x="544.5" y="371.9004"/><rect fill="#FFFFFF" height="14" style="stroke:#181818;stroke-width:1.0;" width="10" x="544.5" y="437.4824"/><rect fill="#FFFFFF" height="282.0762" style="stroke:#181818;stroke-width:1.0;" width="10" x="544.5" y="489.7734"/><rect fill="#FFFFFF" height="115.582" style="stroke:#181818;stroke-width:1.0;" width="10" x="549.5" y="635.2676"/><rect fill="#FFFFFF" height="31.291" style="stroke:#181818;stroke-width:1.0;" width="10" x="726.5" y="564.6855"/><rect fill="#FFFFFF" height="14" style="stroke:#181818;stroke-width:1.0;" width="10" x="726.5" y="716.8496"/><rect fill="#FFFFFF" height="14" style="stroke:#181818;stroke-width:1.0;" width="10" x="858.5" y="671.5586"/><rect fill="none" height="181.7461" style="stroke:#000000;stroke-width:1.5;" width="643.5" x="10" y="277.7363"/><line style="stroke:#181818;stroke-width:0.5;stroke-dasharray:5.0,5.0;" x1="51" x2="51" y1="123.2422" y2="821.1406"/><line style="stroke:#181818;stroke-width:0.5;stroke-dasharray:5.0,5.0;" x1="304.5" x2="304.5" y1="123.2422" y2="821.1406"/><line style="stroke:#181818;stroke-width:0.5;stroke-dasharray:5.0,5.0;" x1="549.5" x2="549.5" y1="196.3438" y2="821.1406"/><line style="stroke:#181818;stroke-width:0.5;stroke-dasharray:5.0,5.0;" x1="731.5" x2="731.5" y1="529.584" y2="821.1406"/><line style="stroke:#181818;stroke-width:0.5;stroke-dasharray:5.0,5.0;" x1="863.5" x2="863.5" y1="123.2422" y2="821.1406"/><text fill="#000000" font-family="sans-serif" font-size="14" lengthAdjust="spacing" textLength="57" x="20" y="119.7285">Operator</text><ellipse cx="51.5" cy="53.1211" fill="#E2E2F0" rx="8" ry="8" style="stroke:#181818;stroke-width:0.5;"/><path d="M51.5,61.1211 L51.5,88.1211 M38.5,69.1211 L64.5,69.1211 M51.5,88.1211 L38.5,103.1211 M51.5,88.1211 L64.5,103.1211 " fill="none" style="stroke:#181818;stroke-width:0.5;"/><text fill="#000000" font-family="sans-serif" font-size="14" lengthAdjust="spacing" textLength="57" x="20" y="835.248">Operator</text><ellipse cx="51.5" cy="847.2617" fill="#E2E2F0" rx="8" ry="8" style="stroke:#181818;stroke-width:0.5;"/><path d="M51.5,855.2617 L51.5,882.2617 M38.5,863.2617 L64.5,863.2617 M51.5,882.2617 L38.5,897.2617 M51.5,882.2617 L64.5,897.2617 " fill="none" style="stroke:#181818;stroke-width:0.5;"/><rect fill="#E2E2F0" height="32.6211" rx="2.5" ry="2.5" style="stroke:#181818;stroke-width:0.5;" width="138" x="235.5" y="89.6211"/><text fill="#000000" font-family="sans-serif" font-size="14" lengthAdjust="spacing" textLength="124" x="242.5" y="111.7285">DisableCandidateUI</text><rect fill="#E2E2F0" height="32.6211" rx="2.5" ry="2.5" style="stroke:#181818;stroke-width:0.5;" width="138" x="235.5" y="820.1406"/><text fill="#000000" font-family="sans-serif" font-size="14" lengthAdjust="spacing" textLength="124" x="242.5" y="842.248">DisableCandidateUI</text><rect fill="#E2E2F0" height="32.6211" rx="2.5" ry="2.5" style="stroke:#181818;stroke-width:0.5;" width="188" x="455.5" y="820.1406"/><text fill="#000000" font-family="sans-serif" font-size="14" lengthAdjust="spacing" textLength="174" x="462.5" y="842.248">DisableCandidateController</text><rect fill="#E2E2F0" height="32.6211" rx="2.5" ry="2.5" style="stroke:#181818;stroke-width:0.5;" width="156" x="653.5" y="820.1406"/><text fill="#000000" font-family="sans-serif" font-size="14" lengthAdjust="spacing" textLength="142" x="660.5" y="842.248">Jobs4uUserRepository</text><rect fill="#E2E2F0" height="32.6211" rx="2.5" ry="2.5" style="stroke:#181818;stroke-width:0.5;" width="88" x="819.5" y="89.6211"/><text fill="#000000" font-family="sans-serif" font-size="14" lengthAdjust="spacing" textLength="74" x="826.5" y="111.7285">Jobs4uUser</text><rect fill="#E2E2F0" height="32.6211" rx="2.5" ry="2.5" style="stroke:#181818;stroke-width:0.5;" width="88" x="819.5" y="820.1406"/><text fill="#000000" font-family="sans-serif" font-size="14" lengthAdjust="spacing" textLength="74" x="826.5" y="842.248">Jobs4uUser</text><rect fill="#FFFFFF" height="678.8984" style="stroke:#181818;stroke-width:1.0;" width="10" x="46.5" y="133.2422"/><rect fill="#FFFFFF" height="646.6074" style="stroke:#181818;stroke-width:1.0;" width="10" x="299.5" y="156.5332"/><rect fill="#FFFFFF" height="34.291" style="stroke:#181818;stroke-width:1.0;" width="10" x="544.5" y="371.9004"/><rect fill="#FFFFFF" height="14" style="stroke:#181818;stroke-width:1.0;" width="10" x="544.5" y="437.4824"/><rect fill="#FFFFFF" height="282.0762" style="stroke:#181818;stroke-width:1.0;" width="10" x="544.5" y="489.7734"/><rect fill="#FFFFFF" height="115.582" style="stroke:#181818;stroke-width:1.0;" width="10" x="549.5" y="635.2676"/><rect fill="#FFFFFF" height="31.291" style="stroke:#181818;stroke-width:1.0;" width="10" x="726.5" y="564.6855"/><rect fill="#FFFFFF" height="14" style="stroke:#181818;stroke-width:1.0;" width="10" x="726.5" y="716.8496"/><rect fill="#FFFFFF" height="14" style="stroke:#181818;stroke-width:1.0;" width="10" x="858.5" y="671.5586"/><polygon fill="#181818" points="287.5,152.5332,297.5,156.5332,287.5,160.5332,291.5,156.5332" style="stroke:#181818;stroke-width:1.0;"/><line style="stroke:#181818;stroke-width:1.0;" x1="56.5" x2="293.5" y1="156.5332" y2="156.5332"/><text fill="#000000" font-family="sans-serif" font-size="13" lengthAdjust="spacing" textLength="224" x="63.5" y="151.2705">requests to toggle a candidate's status</text><polygon fill="#181818" points="443.5,183.8242,453.5,187.8242,443.5,191.8242,447.5,187.8242" style="stroke:#181818;stroke-width:1.0;"/><line style="stroke:#181818;stroke-width:1.0;" x1="309.5" x2="449.5" y1="187.8242" y2="187.8242"/><text fill="#000000" font-family="sans-serif" font-size="13" lengthAdjust="spacing" textLength="36" x="316.5" y="182.5615">create</text><rect fill="#E2E2F0" height="32.6211" rx="2.5" ry="2.5" style="stroke:#181818;stroke-width:0.5;" width="188" x="455.5" y="164.5332"/><text fill="#000000" font-family="sans-serif" font-size="14" lengthAdjust="spacing" textLength="174" x="462.5" y="186.6406">DisableCandidateController</text><polygon fill="#181818" points="67.5,227.4453,57.5,231.4453,67.5,235.4453,63.5,231.4453" style="stroke:#181818;stroke-width:1.0;"/><line style="stroke:#181818;stroke-width:1.0;stroke-dasharray:2.0,2.0;" x1="61.5" x2="298.5" y1="231.4453" y2="231.4453"/><text fill="#000000" font-family="sans-serif" font-size="13" lengthAdjust="spacing" textLength="104" x="73.5" y="226.1826">shows candidates</text><polygon fill="#181818" points="67.5,258.7363,57.5,262.7363,67.5,266.7363,63.5,262.7363" style="stroke:#181818;stroke-width:1.0;"/><line style="stroke:#181818;stroke-width:1.0;stroke-dasharray:2.0,2.0;" x1="61.5" x2="298.5" y1="262.7363" y2="262.7363"/><text fill="#000000" font-family="sans-serif" font-size="13" lengthAdjust="spacing" textLength="172" x="73.5" y="257.4736">asks for the candidate's email</text><path d="M10,277.7363 L278,277.7363 L278,287.0273 L268,297.0273 L10,297.0273 L10,277.7363 " fill="#EEEEEE" style="stroke:#000000;stroke-width:1.5;"/><rect fill="none" height="181.7461" style="stroke:#000000;stroke-width:1.5;" width="643.5" x="10" y="277.7363"/><text fill="#000000" font-family="sans-serif" font-size="13" font-weight="bold" lengthAdjust="spacing" textLength="223" x="25" y="292.7646">do while (!verificationUnsuccessful)</text><polygon fill="#181818" points="287.5,316.3184,297.5,320.3184,287.5,324.3184,291.5,320.3184" style="stroke:#181818;stroke-width:1.0;"/><line style="stroke:#181818;stroke-width:1.0;" x1="56.5" x2="293.5" y1="320.3184" y2="320.3184"/><text fill="#000000" font-family="sans-serif" font-size="13" lengthAdjust="spacing" textLength="104" x="63.5" y="315.0557">provides the email</text><polygon fill="#181818" points="532.5,367.9004,542.5,371.9004,532.5,375.9004,536.5,371.9004" style="stroke:#181818;stroke-width:1.0;"/><line style="stroke:#181818;stroke-width:1.0;" x1="309.5" x2="538.5" y1="371.9004" y2="371.9004"/><text fill="#000000" font-family="sans-serif" font-size="13" lengthAdjust="spacing" textLength="146" x="316.5" y="366.6377">emailIsSatisfiedBy(email)</text><path d="M166,333.3184 L166,394.3184 L294,394.3184 L294,343.3184 L284,333.3184 L166,333.3184 " fill="#FEFFDD" style="stroke:#181818;stroke-width:0.5;"/><path d="M284,333.3184 L284,343.3184 L294,343.3184 L284,333.3184 " fill="#FEFFDD" style="stroke:#181818;stroke-width:0.5;"/><text fill="#000000" font-family="sans-serif" font-size="13" lengthAdjust="spacing" textLength="4" x="172" y="352.3467">&#160;</text><text fill="#000000" font-family="sans-serif" font-size="13" lengthAdjust="spacing" textLength="107" x="172" y="369.6377">validates the email</text><text fill="#000000" font-family="sans-serif" font-size="13" lengthAdjust="spacing" textLength="4" x="172" y="386.9287">&#160;</text><polygon fill="#181818" points="320.5,402.1914,310.5,406.1914,320.5,410.1914,316.5,406.1914" style="stroke:#181818;stroke-width:1.0;"/><line style="stroke:#181818;stroke-width:1.0;stroke-dasharray:2.0,2.0;" x1="314.5" x2="548.5" y1="406.1914" y2="406.1914"/><polygon fill="#181818" points="532.5,433.4824,542.5,437.4824,532.5,441.4824,536.5,437.4824" style="stroke:#181818;stroke-width:1.0;"/><line style="stroke:#181818;stroke-width:1.0;" x1="309.5" x2="538.5" y1="437.4824" y2="437.4824"/><text fill="#000000" font-family="sans-serif" font-size="13" lengthAdjust="spacing" textLength="160" x="316.5" y="432.2197">emailIsOfACandidate(email)</text><polygon fill="#181818" points="320.5,447.4824,310.5,451.4824,320.5,455.4824,316.5,451.4824" style="stroke:#181818;stroke-width:1.0;"/><line style="stroke:#181818;stroke-width:1.0;stroke-dasharray:2.0,2.0;" x1="314.5" x2="548.5" y1="451.4824" y2="451.4824"/><polygon fill="#181818" points="532.5,485.7734,542.5,489.7734,532.5,493.7734,536.5,489.7734" style="stroke:#181818;stroke-width:1.0;"/><line style="stroke:#181818;stroke-width:1.0;" x1="309.5" x2="538.5" y1="489.7734" y2="489.7734"/><text fill="#000000" font-family="sans-serif" font-size="13" lengthAdjust="spacing" textLength="216" x="316.5" y="484.5107">findCandidateAndToggleStatus(email)</text><polygon fill="#181818" points="641.5,517.0645,651.5,521.0645,641.5,525.0645,645.5,521.0645" style="stroke:#181818;stroke-width:1.0;"/><line style="stroke:#181818;stroke-width:1.0;" x1="554.5" x2="647.5" y1="521.0645" y2="521.0645"/><text fill="#000000" font-family="sans-serif" font-size="13" lengthAdjust="spacing" textLength="36" x="561.5" y="515.8018">create</text><rect fill="#E2E2F0" height="32.6211" rx="2.5" ry="2.5" style="stroke:#181818;stroke-width:0.5;" width="156" x="653.5" y="497.7734"/><text fill="#000000" font-family="sans-serif" font-size="14" lengthAdjust="spacing" textLength="142" x="660.5" y="519.8809">Jobs4uUserRepository</text><polygon fill="#181818" points="714.5,560.6855,724.5,564.6855,714.5,568.6855,718.5,564.6855" style="stroke:#181818;stroke-width:1.0;"/><line style="stroke:#181818;stroke-width:1.0;" x1="554.5" x2="720.5" y1="564.6855" y2="564.6855"/><text fill="#000000" font-family="sans-serif" font-size="13" lengthAdjust="spacing" textLength="135" x="561.5" y="559.4229">findUserByEmail(email)</text><polygon fill="#181818" points="565.5,591.9766,555.5,595.9766,565.5,599.9766,561.5,595.9766" style="stroke:#181818;stroke-width:1.0;"/><line style="stroke:#181818;stroke-width:1.0;stroke-dasharray:2.0,2.0;" x1="559.5" x2="730.5" y1="595.9766" y2="595.9766"/><text fill="#000000" font-family="sans-serif" font-size="13" lengthAdjust="spacing" textLength="25" x="571.5" y="590.7139">user</text><line style="stroke:#181818;stroke-width:1.0;" x1="554.5" x2="601.5" y1="622.2676" y2="622.2676"/><line style="stroke:#181818;stroke-width:1.0;" x1="601.5" x2="601.5" y1="622.2676" y2="635.2676"/><line style="stroke:#181818;stroke-width:1.0;" x1="560.5" x2="601.5" y1="635.2676" y2="635.2676"/><polygon fill="#181818" points="570.5,631.2676,560.5,635.2676,570.5,639.2676,566.5,635.2676" style="stroke:#181818;stroke-width:1.0;"/><text fill="#000000" font-family="sans-serif" font-size="13" lengthAdjust="spacing" textLength="133" x="566.5" y="617.0049">toggleUserStatus(user)</text><polygon fill="#181818" points="846.5,667.5586,856.5,671.5586,846.5,675.5586,850.5,671.5586" style="stroke:#181818;stroke-width:1.0;"/><line style="stroke:#181818;stroke-width:1.0;" x1="559.5" x2="852.5" y1="671.5586" y2="671.5586"/><text fill="#000000" font-family="sans-serif" font-size="13" lengthAdjust="spacing" textLength="81" x="566.5" y="666.2959">toggleStatus()</text><polygon fill="#181818" points="570.5,681.5586,560.5,685.5586,570.5,689.5586,566.5,685.5586" style="stroke:#181818;stroke-width:1.0;"/><line style="stroke:#181818;stroke-width:1.0;stroke-dasharray:2.0,2.0;" x1="564.5" x2="862.5" y1="685.5586" y2="685.5586"/><polygon fill="#181818" points="714.5,712.8496,724.5,716.8496,714.5,720.8496,718.5,716.8496" style="stroke:#181818;stroke-width:1.0;"/><line style="stroke:#181818;stroke-width:1.0;" x1="559.5" x2="720.5" y1="716.8496" y2="716.8496"/><text fill="#000000" font-family="sans-serif" font-size="13" lengthAdjust="spacing" textLength="59" x="566.5" y="711.5869">save(user)</text><polygon fill="#181818" points="570.5,726.8496,560.5,730.8496,570.5,734.8496,566.5,730.8496" style="stroke:#181818;stroke-width:1.0;"/><line style="stroke:#181818;stroke-width:1.0;stroke-dasharray:2.0,2.0;" x1="564.5" x2="730.5" y1="730.8496" y2="730.8496"/><line style="stroke:#181818;stroke-width:1.0;stroke-dasharray:2.0,2.0;" x1="559.5" x2="601.5" y1="749.8496" y2="749.8496"/><line style="stroke:#181818;stroke-width:1.0;stroke-dasharray:2.0,2.0;" x1="601.5" x2="601.5" y1="749.8496" y2="762.8496"/><line style="stroke:#181818;stroke-width:1.0;stroke-dasharray:2.0,2.0;" x1="554.5" x2="601.5" y1="762.8496" y2="762.8496"/><polygon fill="#181818" points="564.5,758.8496,554.5,762.8496,564.5,766.8496,560.5,762.8496" style="stroke:#181818;stroke-width:1.0;"/><polygon fill="#181818" points="320.5,767.8496,310.5,771.8496,320.5,775.8496,316.5,771.8496" style="stroke:#181818;stroke-width:1.0;"/><line style="stroke:#181818;stroke-width:1.0;stroke-dasharray:2.0,2.0;" x1="314.5" x2="548.5" y1="771.8496" y2="771.8496"/><polygon fill="#181818" points="67.5,799.1406,57.5,803.1406,67.5,807.1406,63.5,803.1406" style="stroke:#181818;stroke-width:1.0;"/><line style="stroke:#181818;stroke-width:1.0;stroke-dasharray:2.0,2.0;" x1="61.5" x2="303.5" y1="803.1406" y2="803.1406"/><text fill="#000000" font-family="sans-serif" font-size="13" lengthAdjust="spacing" textLength="173" x="73.5" y="797.8779">toggles the candidate's status</text><!--SRC=[bPJFRi8m3CRlUGhljEs0XAQTE4nYR0UcIPE0Fa1eN8YM9LsSTkBjbpyjb7QTG48YE5z-_kmuyDmP2nybMXuMd60U8gparibSbbmxU974jmeNN0ifkCDi6NJPyb_HmcXdZL8OeOlDwdrrfdypMtgiCaAxmjAGz4aF4NiM6JdI2XbpqYc4R0qFq-bq2nFOcDrEIRs3l7K2vBYhY36UErc7G2gHnI-OFFbIO0OMloiaH-2C_tW80Zz1Rcc8yHrWkSMmJFKn3_Au-CCJqrwA-d1ADmFQcnywaMaWuFH9KFYbs-EP0_pYKZ6siwOgGHZusKllykwcHYiBcNCdZSuqLNcEH4MbxlirbjRKKY15SaCxzno3Irfx5XKInVFXBeOyIXjVgCB2CLPpbRntGQW514sdGqrR4dmINJ0ciB__fuMFOduSfgE7QydUKnzVI2sEuBaMSM1m7IztD4zppRtXRDC_zJOwTp-k23v2yFdm6f8EK_UJzGYJJarLV0kTyaUDjYVIX0TPKtb0Z3Su-J-UQyxqtIQF9sS3I__rWtYD0nUNzk2Iul_KNZ6XdHUQka231zh-HNJDU1xx1G00]--></g></svg>