<?xml version="1.0" encoding="us-ascii" standalone="no"?><svg xmlns="http://www.w3.org/2000/svg" xmlns:xlink="http://www.w3.org/1999/xlink" contentStyleType="text/css" height="655px" preserveAspectRatio="none" style="width:417px;height:655px;background:#FFFFFF;" version="1.1" viewBox="0 0 417 655" width="417px" zoomAndPan="magnify"><defs/><g><rect fill="#FFFFFF" height="473.9688" style="stroke:#181818;stroke-width:1.0;" width="10" x="98.5" y="91.4883"/><rect fill="#FFFFFF" height="473.9688" style="stroke:#181818;stroke-width:1.0;" width="10" x="98.5" y="91.4883"/><rect fill="#FFFFFF" height="451.6582" style="stroke:#181818;stroke-width:1.0;" width="10" x="354.5" y="112.7988"/><rect fill="none" height="371.0371" style="stroke:#000000;stroke-width:1.5;" width="401" x="10" y="186.4199"/><rect fill="none" height="46.6211" style="stroke:#000000;stroke-width:1.5;" width="381" x="20" y="503.8359"/><line style="stroke:#181818;stroke-width:0.5;stroke-dasharray:5.0,5.0;" x1="98" x2="98" y1="81.4883" y2="574.457"/><line style="stroke:#181818;stroke-width:0.5;stroke-dasharray:5.0,5.0;" x1="359.5" x2="359.5" y1="81.4883" y2="574.457"/><text fill="#000000" font-family="sans-serif" font-size="14" lengthAdjust="spacing" textLength="131" x="30" y="78.5352">Customer Manager</text><ellipse cx="98.5" cy="13.5" fill="#E2E2F0" rx="8" ry="8" style="stroke:#181818;stroke-width:0.5;"/><path d="M98.5,21.5 L98.5,48.5 M85.5,29.5 L111.5,29.5 M98.5,48.5 L85.5,63.5 M98.5,48.5 L111.5,63.5 " fill="none" style="stroke:#181818;stroke-width:0.5;"/><text fill="#000000" font-family="sans-serif" font-size="14" lengthAdjust="spacing" textLength="131" x="30" y="586.9922">Customer Manager</text><ellipse cx="98.5" cy="598.4453" fill="#E2E2F0" rx="8" ry="8" style="stroke:#181818;stroke-width:0.5;"/><path d="M98.5,606.4453 L98.5,633.4453 M85.5,614.4453 L111.5,614.4453 M98.5,633.4453 L85.5,648.4453 M98.5,633.4453 L111.5,648.4453 " fill="none" style="stroke:#181818;stroke-width:0.5;"/><rect fill="#E2E2F0" height="30.4883" rx="2.5" ry="2.5" style="stroke:#181818;stroke-width:0.5;" width="62" x="328.5" y="50"/><text fill="#000000" font-family="sans-serif" font-size="14" lengthAdjust="spacing" textLength="48" x="335.5" y="70.5352">System</text><rect fill="#E2E2F0" height="30.4883" rx="2.5" ry="2.5" style="stroke:#181818;stroke-width:0.5;" width="62" x="328.5" y="573.457"/><text fill="#000000" font-family="sans-serif" font-size="14" lengthAdjust="spacing" textLength="48" x="335.5" y="593.9922">System</text><rect fill="#FFFFFF" height="473.9688" style="stroke:#181818;stroke-width:1.0;" width="10" x="98.5" y="91.4883"/><rect fill="#FFFFFF" height="473.9688" style="stroke:#181818;stroke-width:1.0;" width="10" x="98.5" y="91.4883"/><rect fill="#FFFFFF" height="451.6582" style="stroke:#181818;stroke-width:1.0;" width="10" x="354.5" y="112.7988"/><polygon fill="#181818" points="342.5,108.7988,352.5,112.7988,342.5,116.7988,346.5,112.7988" style="stroke:#181818;stroke-width:1.0;"/><line style="stroke:#181818;stroke-width:1.0;" x1="108.5" x2="348.5" y1="112.7988" y2="112.7988"/><text fill="#000000" font-family="sans-serif" font-size="13" lengthAdjust="spacing" textLength="213" x="115.5" y="108.0566">requests to register a job opening</text><polygon fill="#181818" points="119.5,138.1094,109.5,142.1094,119.5,146.1094,115.5,142.1094" style="stroke:#181818;stroke-width:1.0;"/><line style="stroke:#181818;stroke-width:1.0;stroke-dasharray:2.0,2.0;" x1="113.5" x2="353.5" y1="142.1094" y2="142.1094"/><text fill="#000000" font-family="sans-serif" font-size="13" lengthAdjust="spacing" textLength="198" x="125.5" y="137.3672">Request to select and customer</text><polygon fill="#181818" points="342.5,167.4199,352.5,171.4199,342.5,175.4199,346.5,171.4199" style="stroke:#181818;stroke-width:1.0;"/><line style="stroke:#181818;stroke-width:1.0;" x1="108.5" x2="348.5" y1="171.4199" y2="171.4199"/><text fill="#000000" font-family="sans-serif" font-size="13" lengthAdjust="spacing" textLength="107" x="115.5" y="166.6777">Selects customer</text><path d="M10,186.4199 L84,186.4199 L84,193.7305 L74,203.7305 L10,203.7305 L10,186.4199 " fill="#EEEEEE" style="stroke:#000000;stroke-width:1.5;"/><rect fill="none" height="371.0371" style="stroke:#000000;stroke-width:1.5;" width="401" x="10" y="186.4199"/><text fill="#000000" font-family="sans-serif" font-size="13" font-weight="bold" lengthAdjust="spacing" textLength="29" x="25" y="199.9883">loop</text><text fill="#000000" font-family="sans-serif" font-size="11" font-weight="bold" lengthAdjust="spacing" textLength="280" x="99" y="199.0547">[all parameters follow bussines and system rules]</text><polygon fill="#181818" points="119.5,221.041,109.5,225.041,119.5,229.041,115.5,225.041" style="stroke:#181818;stroke-width:1.0;"/><line style="stroke:#181818;stroke-width:1.0;stroke-dasharray:2.0,2.0;" x1="113.5" x2="353.5" y1="225.041" y2="225.041"/><text fill="#000000" font-family="sans-serif" font-size="13" lengthAdjust="spacing" textLength="152" x="125.5" y="220.2988">Request job designation</text><polygon fill="#181818" points="342.5,250.3516,352.5,254.3516,342.5,258.3516,346.5,254.3516" style="stroke:#181818;stroke-width:1.0;"/><line style="stroke:#181818;stroke-width:1.0;" x1="108.5" x2="348.5" y1="254.3516" y2="254.3516"/><text fill="#000000" font-family="sans-serif" font-size="13" lengthAdjust="spacing" textLength="142" x="115.5" y="249.6094">Provides a designation</text><polygon fill="#181818" points="119.5,279.6621,109.5,283.6621,119.5,287.6621,115.5,283.6621" style="stroke:#181818;stroke-width:1.0;"/><line style="stroke:#181818;stroke-width:1.0;stroke-dasharray:2.0,2.0;" x1="113.5" x2="353.5" y1="283.6621" y2="283.6621"/><text fill="#000000" font-family="sans-serif" font-size="13" lengthAdjust="spacing" textLength="185" x="125.5" y="278.9199">asks to select a contract type</text><polygon fill="#181818" points="342.5,308.9727,352.5,312.9727,342.5,316.9727,346.5,312.9727" style="stroke:#181818;stroke-width:1.0;"/><line style="stroke:#181818;stroke-width:1.0;" x1="108.5" x2="348.5" y1="312.9727" y2="312.9727"/><text fill="#000000" font-family="sans-serif" font-size="13" lengthAdjust="spacing" textLength="141" x="115.5" y="308.2305">selects a contractType</text><polygon fill="#181818" points="119.5,338.2832,109.5,342.2832,119.5,346.2832,115.5,342.2832" style="stroke:#181818;stroke-width:1.0;"/><line style="stroke:#181818;stroke-width:1.0;stroke-dasharray:2.0,2.0;" x1="113.5" x2="353.5" y1="342.2832" y2="342.2832"/><text fill="#000000" font-family="sans-serif" font-size="13" lengthAdjust="spacing" textLength="212" x="125.5" y="337.541">asks to select a contract jobMode</text><polygon fill="#181818" points="342.5,367.5938,352.5,371.5938,342.5,375.5938,346.5,371.5938" style="stroke:#181818;stroke-width:1.0;"/><line style="stroke:#181818;stroke-width:1.0;" x1="108.5" x2="348.5" y1="371.5938" y2="371.5938"/><text fill="#000000" font-family="sans-serif" font-size="13" lengthAdjust="spacing" textLength="113" x="115.5" y="366.8516">selects a jobMode</text><polygon fill="#181818" points="119.5,396.9043,109.5,400.9043,119.5,404.9043,115.5,400.9043" style="stroke:#181818;stroke-width:1.0;"/><line style="stroke:#181818;stroke-width:1.0;stroke-dasharray:2.0,2.0;" x1="113.5" x2="353.5" y1="400.9043" y2="400.9043"/><text fill="#000000" font-family="sans-serif" font-size="13" lengthAdjust="spacing" textLength="159" x="125.5" y="396.1621">asks to select an address</text><polygon fill="#181818" points="342.5,426.2148,352.5,430.2148,342.5,434.2148,346.5,430.2148" style="stroke:#181818;stroke-width:1.0;"/><line style="stroke:#181818;stroke-width:1.0;" x1="108.5" x2="348.5" y1="430.2148" y2="430.2148"/><text fill="#000000" font-family="sans-serif" font-size="13" lengthAdjust="spacing" textLength="116" x="115.5" y="425.4727">selects an address</text><polygon fill="#181818" points="119.5,455.5254,109.5,459.5254,119.5,463.5254,115.5,459.5254" style="stroke:#181818;stroke-width:1.0;"/><line style="stroke:#181818;stroke-width:1.0;stroke-dasharray:2.0,2.0;" x1="113.5" x2="353.5" y1="459.5254" y2="459.5254"/><text fill="#000000" font-family="sans-serif" font-size="13" lengthAdjust="spacing" textLength="222" x="125.5" y="454.7832">asks to enter a numberOfVacancies</text><polygon fill="#181818" points="342.5,484.8359,352.5,488.8359,342.5,492.8359,346.5,488.8359" style="stroke:#181818;stroke-width:1.0;"/><line style="stroke:#181818;stroke-width:1.0;" x1="108.5" x2="348.5" y1="488.8359" y2="488.8359"/><text fill="#000000" font-family="sans-serif" font-size="13" lengthAdjust="spacing" textLength="176" x="115.5" y="484.0938">enters number Of Vacancies</text><path d="M20,503.8359 L82,503.8359 L82,511.1465 L72,521.1465 L20,521.1465 L20,503.8359 " fill="#EEEEEE" style="stroke:#000000;stroke-width:1.5;"/><rect fill="none" height="46.6211" style="stroke:#000000;stroke-width:1.5;" width="381" x="20" y="503.8359"/><text fill="#000000" font-family="sans-serif" font-size="13" font-weight="bold" lengthAdjust="spacing" textLength="17" x="35" y="517.4043">alt</text><text fill="#000000" font-family="sans-serif" font-size="11" font-weight="bold" lengthAdjust="spacing" textLength="299" x="97" y="516.4707">[if all paremeters follow bussiness and system rules]</text><polygon fill="#181818" points="119.5,538.457,109.5,542.457,119.5,546.457,115.5,542.457" style="stroke:#181818;stroke-width:1.0;"/><line style="stroke:#181818;stroke-width:1.0;stroke-dasharray:2.0,2.0;" x1="113.5" x2="353.5" y1="542.457" y2="542.457"/><text fill="#000000" font-family="sans-serif" font-size="13" lengthAdjust="spacing" textLength="160" x="125.5" y="537.7148">Display success message</text><!--SRC=[dLFDJiCm3BxxAQpTzm8xS84Zqn13tBt4hG9fqiNkqDwUz6SKnXGLBf7b-Fl99uUCneIh-quqDfnmIu5gJYiaGJCrcx47BILrnhKK55VxioWtmznO0f1HToBbNy32pLK3rtSJ7MumyR5ZKK6DkQvTRYSaV8i7Z2q75-gPUF8mOTUPvffvWyyZNqydxDaeKh1VSqKh-s5-ZWJWCSOMoNlCgL33sPfW5RsF7tZeH5nW6UXbf4YTPu5b_le7MXPN1r8NGz7OKuedPtkj7v2Y3icxV0y1JGoQSfIevvQBSZBbC6DUUiW_vV93jz4kLRnC_qai85cRM6IPo3o-I8N3k9AXQmwSTjKh6Gh6SLbjGCa4mbs5CuoyegikUyMtz-h6OXNTFZXfFPrHEcDwT9EFV0N0cSRdFGOOQW3BrnyAu1C0]--></g></svg>