<?xml version="1.0" encoding="us-ascii" standalone="no"?><svg xmlns="http://www.w3.org/2000/svg" xmlns:xlink="http://www.w3.org/1999/xlink" contentStyleType="text/css" height="626px" preserveAspectRatio="none" style="width:925px;height:626px;background:#FFFFFF;" version="1.1" viewBox="0 0 925 626" width="925px" zoomAndPan="magnify"><defs/><g><text fill="#000000" font-family="sans-serif" font-size="14" font-weight="bold" lengthAdjust="spacing" textLength="381" x="271.25" y="30.1074">US 2003 - Generating a template file for data collection</text><rect fill="#FFFFFF" height="401.1523" style="stroke:#181818;stroke-width:1.0;" width="10" x="31.5" y="133.2422"/><rect fill="#FFFFFF" height="368.8613" style="stroke:#181818;stroke-width:1.0;" width="10" x="366.5" y="156.5332"/><rect fill="#FFFFFF" height="31.291" style="stroke:#181818;stroke-width:1.0;" width="10" x="637.5" y="231.4453"/><rect fill="#FFFFFF" height="102.873" style="stroke:#181818;stroke-width:1.0;" width="10" x="637.5" y="431.5215"/><rect fill="#FFFFFF" height="31.291" style="stroke:#181818;stroke-width:1.0;" width="10" x="852.5" y="462.8125"/><line style="stroke:#181818;stroke-width:0.5;stroke-dasharray:5.0,5.0;" x1="36" x2="36" y1="123.2422" y2="543.3945"/><line style="stroke:#181818;stroke-width:0.5;stroke-dasharray:5.0,5.0;" x1="371.5" x2="371.5" y1="123.2422" y2="543.3945"/><line style="stroke:#181818;stroke-width:0.5;stroke-dasharray:5.0,5.0;" x1="642.5" x2="642.5" y1="196.3438" y2="543.3945"/><line style="stroke:#181818;stroke-width:0.5;stroke-dasharray:5.0,5.0;" x1="857.5" x2="857.5" y1="396.4199" y2="543.3945"/><text fill="#000000" font-family="sans-serif" font-size="14" lengthAdjust="spacing" textLength="57" x="5" y="119.7285">Operator</text><ellipse cx="36.5" cy="53.1211" fill="#E2E2F0" rx="8" ry="8" style="stroke:#181818;stroke-width:0.5;"/><path d="M36.5,61.1211 L36.5,88.1211 M23.5,69.1211 L49.5,69.1211 M36.5,88.1211 L23.5,103.1211 M36.5,88.1211 L49.5,103.1211 " fill="none" style="stroke:#181818;stroke-width:0.5;"/><text fill="#000000" font-family="sans-serif" font-size="14" lengthAdjust="spacing" textLength="57" x="5" y="557.502">Operator</text><ellipse cx="36.5" cy="569.5156" fill="#E2E2F0" rx="8" ry="8" style="stroke:#181818;stroke-width:0.5;"/><path d="M36.5,577.5156 L36.5,604.5156 M23.5,585.5156 L49.5,585.5156 M36.5,604.5156 L23.5,619.5156 M36.5,604.5156 L49.5,619.5156 " fill="none" style="stroke:#181818;stroke-width:0.5;"/><rect fill="#E2E2F0" height="32.6211" rx="2.5" ry="2.5" style="stroke:#181818;stroke-width:0.5;" width="236" x="253.5" y="89.6211"/><text fill="#000000" font-family="sans-serif" font-size="14" lengthAdjust="spacing" textLength="222" x="260.5" y="111.7285">ExportRequirementsTemplateFileUI</text><rect fill="#E2E2F0" height="32.6211" rx="2.5" ry="2.5" style="stroke:#181818;stroke-width:0.5;" width="236" x="253.5" y="542.3945"/><text fill="#000000" font-family="sans-serif" font-size="14" lengthAdjust="spacing" textLength="222" x="260.5" y="564.502">ExportRequirementsTemplateFileUI</text><rect fill="#E2E2F0" height="32.6211" rx="2.5" ry="2.5" style="stroke:#181818;stroke-width:0.5;" width="286" x="499.5" y="542.3945"/><text fill="#000000" font-family="sans-serif" font-size="14" lengthAdjust="spacing" textLength="272" x="506.5" y="564.502">ExportRequirementsTemplateFileController</text><rect fill="#E2E2F0" height="32.6211" rx="2.5" ry="2.5" style="stroke:#181818;stroke-width:0.5;" width="124" x="795.5" y="542.3945"/><text fill="#000000" font-family="sans-serif" font-size="14" lengthAdjust="spacing" textLength="110" x="802.5" y="564.502">JobRequirements</text><rect fill="#FFFFFF" height="401.1523" style="stroke:#181818;stroke-width:1.0;" width="10" x="31.5" y="133.2422"/><rect fill="#FFFFFF" height="368.8613" style="stroke:#181818;stroke-width:1.0;" width="10" x="366.5" y="156.5332"/><rect fill="#FFFFFF" height="31.291" style="stroke:#181818;stroke-width:1.0;" width="10" x="637.5" y="231.4453"/><rect fill="#FFFFFF" height="102.873" style="stroke:#181818;stroke-width:1.0;" width="10" x="637.5" y="431.5215"/><rect fill="#FFFFFF" height="31.291" style="stroke:#181818;stroke-width:1.0;" width="10" x="852.5" y="462.8125"/><polygon fill="#181818" points="354.5,152.5332,364.5,156.5332,354.5,160.5332,358.5,156.5332" style="stroke:#181818;stroke-width:1.0;"/><line style="stroke:#181818;stroke-width:1.0;" x1="41.5" x2="360.5" y1="156.5332" y2="156.5332"/><text fill="#000000" font-family="sans-serif" font-size="13" lengthAdjust="spacing" textLength="306" x="48.5" y="151.2705">requests to generate and export the template text file</text><polygon fill="#181818" points="487.5,183.8242,497.5,187.8242,487.5,191.8242,491.5,187.8242" style="stroke:#181818;stroke-width:1.0;"/><line style="stroke:#181818;stroke-width:1.0;" x1="376.5" x2="493.5" y1="187.8242" y2="187.8242"/><text fill="#000000" font-family="sans-serif" font-size="13" lengthAdjust="spacing" textLength="36" x="383.5" y="182.5615">create</text><rect fill="#E2E2F0" height="32.6211" rx="2.5" ry="2.5" style="stroke:#181818;stroke-width:0.5;" width="286" x="499.5" y="164.5332"/><text fill="#000000" font-family="sans-serif" font-size="14" lengthAdjust="spacing" textLength="272" x="506.5" y="186.6406">ExportRequirementsTemplateFileController</text><polygon fill="#181818" points="625.5,227.4453,635.5,231.4453,625.5,235.4453,629.5,231.4453" style="stroke:#181818;stroke-width:1.0;"/><line style="stroke:#181818;stroke-width:1.0;" x1="376.5" x2="631.5" y1="231.4453" y2="231.4453"/><text fill="#000000" font-family="sans-serif" font-size="13" lengthAdjust="spacing" textLength="126" x="383.5" y="226.1826">getJobRequirements()</text><polygon fill="#181818" points="387.5,258.7363,377.5,262.7363,387.5,266.7363,383.5,262.7363" style="stroke:#181818;stroke-width:1.0;"/><line style="stroke:#181818;stroke-width:1.0;stroke-dasharray:2.0,2.0;" x1="381.5" x2="641.5" y1="262.7363" y2="262.7363"/><text fill="#000000" font-family="sans-serif" font-size="13" lengthAdjust="spacing" textLength="118" x="393.5" y="257.4736">jobRequirementsList</text><polygon fill="#181818" points="52.5,290.0273,42.5,294.0273,52.5,298.0273,48.5,294.0273" style="stroke:#181818;stroke-width:1.0;"/><line style="stroke:#181818;stroke-width:1.0;stroke-dasharray:2.0,2.0;" x1="46.5" x2="365.5" y1="294.0273" y2="294.0273"/><text fill="#000000" font-family="sans-serif" font-size="13" lengthAdjust="spacing" textLength="124" x="58.5" y="288.7646">shows list of pluggins</text><polygon fill="#181818" points="52.5,321.3184,42.5,325.3184,52.5,329.3184,48.5,325.3184" style="stroke:#181818;stroke-width:1.0;"/><line style="stroke:#181818;stroke-width:1.0;stroke-dasharray:2.0,2.0;" x1="46.5" x2="365.5" y1="325.3184" y2="325.3184"/><text fill="#000000" font-family="sans-serif" font-size="13" lengthAdjust="spacing" textLength="238" x="58.5" y="320.0557">asks to select a job requirements pluggin</text><polygon fill="#181818" points="354.5,352.6094,364.5,356.6094,354.5,360.6094,358.5,356.6094" style="stroke:#181818;stroke-width:1.0;"/><line style="stroke:#181818;stroke-width:1.0;" x1="41.5" x2="360.5" y1="356.6094" y2="356.6094"/><text fill="#000000" font-family="sans-serif" font-size="13" lengthAdjust="spacing" textLength="109" x="48.5" y="351.3467">selects the pluggin</text><polygon fill="#181818" points="783.5,383.9004,793.5,387.9004,783.5,391.9004,787.5,387.9004" style="stroke:#181818;stroke-width:1.0;"/><line style="stroke:#181818;stroke-width:1.0;" x1="376.5" x2="789.5" y1="387.9004" y2="387.9004"/><text fill="#000000" font-family="sans-serif" font-size="13" lengthAdjust="spacing" textLength="36" x="383.5" y="382.6377">create</text><rect fill="#E2E2F0" height="32.6211" rx="2.5" ry="2.5" style="stroke:#181818;stroke-width:0.5;" width="124" x="795.5" y="364.6094"/><text fill="#000000" font-family="sans-serif" font-size="14" lengthAdjust="spacing" textLength="110" x="802.5" y="386.7168">JobRequirements</text><polygon fill="#181818" points="625.5,427.5215,635.5,431.5215,625.5,435.5215,629.5,431.5215" style="stroke:#181818;stroke-width:1.0;"/><line style="stroke:#181818;stroke-width:1.0;" x1="376.5" x2="631.5" y1="431.5215" y2="431.5215"/><text fill="#000000" font-family="sans-serif" font-size="13" lengthAdjust="spacing" textLength="169" x="383.5" y="426.2588">usePluggin(jobRequirements)</text><polygon fill="#181818" points="840.5,458.8125,850.5,462.8125,840.5,466.8125,844.5,462.8125" style="stroke:#181818;stroke-width:1.0;"/><line style="stroke:#181818;stroke-width:1.0;" x1="647.5" x2="846.5" y1="462.8125" y2="462.8125"/><text fill="#000000" font-family="sans-serif" font-size="13" lengthAdjust="spacing" textLength="93" x="654.5" y="457.5498">getClassName()</text><polygon fill="#181818" points="658.5,490.1035,648.5,494.1035,658.5,498.1035,654.5,494.1035" style="stroke:#181818;stroke-width:1.0;"/><line style="stroke:#181818;stroke-width:1.0;stroke-dasharray:2.0,2.0;" x1="652.5" x2="856.5" y1="494.1035" y2="494.1035"/><text fill="#000000" font-family="sans-serif" font-size="13" lengthAdjust="spacing" textLength="85" x="664.5" y="488.8408">getClassName</text><polygon fill="#181818" points="52.5,521.3945,42.5,525.3945,52.5,529.3945,48.5,525.3945" style="stroke:#181818;stroke-width:1.0;"/><line style="stroke:#181818;stroke-width:1.0;stroke-dasharray:2.0,2.0;" x1="46.5" x2="370.5" y1="525.3945" y2="525.3945"/><text fill="#000000" font-family="sans-serif" font-size="13" lengthAdjust="spacing" textLength="85" x="58.5" y="520.1318">exports the file</text><!--SRC=[bPBFKi8m4CRlUOezug4pZDuuU67KmM7KGNY0M9OI3KdDBihZkqduqmOus4CdJVVxljrVecls0LvR33ekDC62CAXM1pQrQRLZUDYrFl0ClxScu0OTqnmthTMCZyRYOf94atz8njvnyDPYoXlFPzDPJ_tiFxfIfTYmHLYym-rmU0SLFA6B_HhNW0RUEyDAh64bGomrQwXZGCt6EoMFbjLFB4hJgVY6wbxQXX44oK9Y0lRGP6S4xPQ0QGhWDPv267USahgU4wNgW76PXr7YA-xfGmBoltAtGIu67TnqJFTEkRewzFhPLqmDiL9BB5KnAKhYc2EWjVybi58BVWMjtJQDSLHMQVfA20WZDm4hMOdD8UoWBF3bUagOZXLx76SdcH4KsrSHRGdVikEW6FmwgKlkWdfiDT6Btc0Fybb_fRRg7zZHfGVzufGdiFaQPK3vvdIqSdV-0000]--></g></svg>