<?xml version="1.0" encoding="us-ascii" standalone="no"?><svg xmlns="http://www.w3.org/2000/svg" xmlns:xlink="http://www.w3.org/1999/xlink" contentStyleType="text/css" height="478.8px" preserveAspectRatio="none" style="width:703px;height:478px;background:#FFFFFF;" version="1.1" viewBox="0 0 703 478" width="703.2px" zoomAndPan="magnify"><defs/><g><text fill="#000000" font-family="sans-serif" font-size="5.6" font-weight="bold" lengthAdjust="spacing" textLength="179.6" x="262.5" y="12.043">US1009 - Selecting a Job Requirement Specifications to be used</text><rect fill="#FFFFFF" height="389.0383" style="stroke:#181818;stroke-width:0.4000000000000001;" width="4" x="35.4" y="53.2969"/><rect fill="#FFFFFF" height="379.3219" style="stroke:#181818;stroke-width:0.4000000000000001;" width="4" x="209.4" y="62.6133"/><rect fill="#FFFFFF" height="109.8789" style="stroke:#181818;stroke-width:0.4000000000000001;" width="4" x="369.8" y="92.5781"/><rect fill="#FFFFFF" height="67.3977" style="stroke:#181818;stroke-width:0.4000000000000001;" width="4" x="369.8" y="250.5227"/><rect fill="#FFFFFF" height="54.6328" style="stroke:#181818;stroke-width:0.4000000000000001;" width="4" x="369.8" y="365.9859"/><rect fill="#FFFFFF" height="12.5164" style="stroke:#181818;stroke-width:0.4000000000000001;" width="4" x="476.6" y="122.543"/><rect fill="#FFFFFF" height="12.5164" style="stroke:#181818;stroke-width:0.4000000000000001;" width="4" x="543.4" y="177.4242"/><rect fill="#FFFFFF" height="12" style="stroke:#181818;stroke-width:0.4000000000000001;" width="4" x="543.4" y="403.0188"/><rect fill="#FFFFFF" height="12.5164" style="stroke:#181818;stroke-width:0.4000000000000001;" width="4" x="614.2" y="292.8875"/><rect fill="#FFFFFF" height="12" style="stroke:#181818;stroke-width:0.4000000000000001;" width="4" x="673" y="378.5023"/><rect fill="none" height="230.6781" style="stroke:#000000;stroke-width:0.6000000000000001;" width="697" x="4" y="208.457"/><rect fill="none" height="112.4148" style="stroke:#000000;stroke-width:0.6000000000000001;" width="689" x="8" y="323.9203"/><line style="stroke:#181818;stroke-width:0.20000000000000004;stroke-dasharray:5.0,5.0;" x1="37.2" x2="37.2" y1="49.2969" y2="445.9352"/><line style="stroke:#181818;stroke-width:0.20000000000000004;stroke-dasharray:5.0,5.0;" x1="211.2" x2="211.2" y1="49.2969" y2="445.9352"/><line style="stroke:#181818;stroke-width:0.20000000000000004;stroke-dasharray:5.0,5.0;" x1="371.6" x2="371.6" y1="78.5375" y2="445.9352"/><line style="stroke:#181818;stroke-width:0.20000000000000004;stroke-dasharray:5.0,5.0;" x1="478.6" x2="478.6" y1="108.5023" y2="445.9352"/><line style="stroke:#181818;stroke-width:0.20000000000000004;stroke-dasharray:5.0,5.0;" x1="545.4" x2="545.4" y1="157.1836" y2="445.9352"/><line style="stroke:#181818;stroke-width:0.20000000000000004;stroke-dasharray:5.0,5.0;" x1="616.2" x2="616.2" y1="272.6469" y2="445.9352"/><line style="stroke:#181818;stroke-width:0.20000000000000004;stroke-dasharray:5.0,5.0;" x1="675" x2="675" y1="49.2969" y2="445.9352"/><text fill="#000000" font-family="sans-serif" font-size="5.6" lengthAdjust="spacing" textLength="48.4" x="12" y="47.8914">Customer Manager</text><ellipse cx="37.4" cy="21.2484" fill="#E2E2F0" rx="3.2" ry="3.2" style="stroke:#181818;stroke-width:0.20000000000000004;"/><path d="M37.4,24.4484 L37.4,35.2484 M32.2,27.6484 L42.6,27.6484 M37.4,35.2484 L32.2,41.2484 M37.4,35.2484 L42.6,41.2484 " fill="none" style="stroke:#181818;stroke-width:0.20000000000000004;"/><text fill="#000000" font-family="sans-serif" font-size="5.6" lengthAdjust="spacing" textLength="48.4" x="12" y="451.5781">Customer Manager</text><ellipse cx="37.4" cy="456.3836" fill="#E2E2F0" rx="3.2" ry="3.2" style="stroke:#181818;stroke-width:0.20000000000000004;"/><path d="M37.4,459.5836 L37.4,470.3836 M32.2,462.7836 L42.6,462.7836 M37.4,470.3836 L32.2,476.3836 M37.4,470.3836 L42.6,476.3836 " fill="none" style="stroke:#181818;stroke-width:0.20000000000000004;"/><rect fill="#E2E2F0" height="13.0484" rx="1" ry="1" style="stroke:#181818;stroke-width:0.20000000000000004;" width="91.6" x="165.6" y="35.8484"/><text fill="#000000" font-family="sans-serif" font-size="5.6" lengthAdjust="spacing" textLength="86" x="168.4" y="44.6914">SelectJobOpeningRequirementsUI</text><rect fill="#E2E2F0" height="13.0484" rx="1" ry="1" style="stroke:#181818;stroke-width:0.20000000000000004;" width="91.6" x="165.6" y="445.5352"/><text fill="#000000" font-family="sans-serif" font-size="5.6" lengthAdjust="spacing" textLength="86" x="168.4" y="454.3781">SelectJobOpeningRequirementsUI</text><rect fill="#E2E2F0" height="13.0484" rx="1" ry="1" style="stroke:#181818;stroke-width:0.20000000000000004;" width="111.6" x="316" y="445.5352"/><text fill="#000000" font-family="sans-serif" font-size="5.6" lengthAdjust="spacing" textLength="106" x="318.8" y="454.3781">SelectJobOpeningRequirementsController</text><rect fill="#E2E2F0" height="13.0484" rx="1" ry="1" style="stroke:#181818;stroke-width:0.20000000000000004;" width="65.6" x="445.8" y="445.5352"/><text fill="#000000" font-family="sans-serif" font-size="5.6" lengthAdjust="spacing" textLength="60" x="448.6" y="454.3781">Jobs4uUserAuthService</text><text fill="#000000" font-family="sans-serif" font-size="5.6" lengthAdjust="spacing" textLength="57.6" x="515.4" y="451.5781">JobOpeningRepository</text><path d="M538.2,456.9836 C538.2,452.9836 545.4,452.9836 545.4,452.9836 C545.4,452.9836 552.6,452.9836 552.6,456.9836 L552.6,467.3836 C552.6,471.3836 545.4,471.3836 545.4,471.3836 C545.4,471.3836 538.2,471.3836 538.2,467.3836 L538.2,456.9836 " fill="#E2E2F0" style="stroke:#181818;stroke-width:0.6000000000000001;"/><path d="M538.2,456.9836 C538.2,460.9836 545.4,460.9836 545.4,460.9836 C545.4,460.9836 552.6,460.9836 552.6,456.9836 " fill="none" style="stroke:#181818;stroke-width:0.6000000000000001;"/><text fill="#000000" font-family="sans-serif" font-size="5.6" lengthAdjust="spacing" textLength="71.2" x="579.4" y="451.5781">JobRequirementsRepository</text><path d="M609,456.9836 C609,452.9836 616.2,452.9836 616.2,452.9836 C616.2,452.9836 623.4,452.9836 623.4,456.9836 L623.4,467.3836 C623.4,471.3836 616.2,471.3836 616.2,471.3836 C616.2,471.3836 609,471.3836 609,467.3836 L609,456.9836 " fill="#E2E2F0" style="stroke:#181818;stroke-width:0.6000000000000001;"/><path d="M609,456.9836 C609,460.9836 616.2,460.9836 616.2,460.9836 C616.2,460.9836 623.4,460.9836 623.4,456.9836 " fill="none" style="stroke:#181818;stroke-width:0.6000000000000001;"/><rect fill="#E2E2F0" height="13.0484" rx="1" ry="1" style="stroke:#181818;stroke-width:0.20000000000000004;" width="36" x="657" y="35.8484"/><text fill="#000000" font-family="sans-serif" font-size="5.6" lengthAdjust="spacing" textLength="30.4" x="659.8" y="44.6914">JobOpening</text><rect fill="#E2E2F0" height="13.0484" rx="1" ry="1" style="stroke:#181818;stroke-width:0.20000000000000004;" width="36" x="657" y="445.5352"/><text fill="#000000" font-family="sans-serif" font-size="5.6" lengthAdjust="spacing" textLength="30.4" x="659.8" y="454.3781">JobOpening</text><rect fill="#FFFFFF" height="389.0383" style="stroke:#181818;stroke-width:0.4000000000000001;" width="4" x="35.4" y="53.2969"/><rect fill="#FFFFFF" height="379.3219" style="stroke:#181818;stroke-width:0.4000000000000001;" width="4" x="209.4" y="62.6133"/><rect fill="#FFFFFF" height="109.8789" style="stroke:#181818;stroke-width:0.4000000000000001;" width="4" x="369.8" y="92.5781"/><rect fill="#FFFFFF" height="67.3977" style="stroke:#181818;stroke-width:0.4000000000000001;" width="4" x="369.8" y="250.5227"/><rect fill="#FFFFFF" height="54.6328" style="stroke:#181818;stroke-width:0.4000000000000001;" width="4" x="369.8" y="365.9859"/><rect fill="#FFFFFF" height="12.5164" style="stroke:#181818;stroke-width:0.4000000000000001;" width="4" x="476.6" y="122.543"/><rect fill="#FFFFFF" height="12.5164" style="stroke:#181818;stroke-width:0.4000000000000001;" width="4" x="543.4" y="177.4242"/><rect fill="#FFFFFF" height="12" style="stroke:#181818;stroke-width:0.4000000000000001;" width="4" x="543.4" y="403.0188"/><rect fill="#FFFFFF" height="12.5164" style="stroke:#181818;stroke-width:0.4000000000000001;" width="4" x="614.2" y="292.8875"/><rect fill="#FFFFFF" height="12" style="stroke:#181818;stroke-width:0.4000000000000001;" width="4" x="673" y="378.5023"/><polygon fill="#181818" points="204.6,61.0133,208.6,62.6133,204.6,64.2133,206.2,62.6133" style="stroke:#181818;stroke-width:0.4000000000000001;"/><line style="stroke:#181818;stroke-width:0.4000000000000001;" x1="39.4" x2="207" y1="62.6133" y2="62.6133"/><text fill="#000000" font-family="sans-serif" font-size="5.2" lengthAdjust="spacing" textLength="162.4" x="42.2" y="60.5082">requests to select a Job Requirement Specifications for a Job Opening</text><polygon fill="#181818" points="311.2,73.5297,315.2,75.1297,311.2,76.7297,312.8,75.1297" style="stroke:#181818;stroke-width:0.4000000000000001;"/><line style="stroke:#181818;stroke-width:0.4000000000000001;" x1="213.4" x2="313.6" y1="75.1297" y2="75.1297"/><text fill="#000000" font-family="sans-serif" font-size="5.2" lengthAdjust="spacing" textLength="14.4" x="216.2" y="73.0246">create</text><rect fill="#E2E2F0" height="13.0484" rx="1" ry="1" style="stroke:#181818;stroke-width:0.20000000000000004;" width="111.6" x="316" y="65.8133"/><text fill="#000000" font-family="sans-serif" font-size="5.6" lengthAdjust="spacing" textLength="106" x="318.8" y="74.6563">SelectJobOpeningRequirementsController</text><polygon fill="#181818" points="365,90.9781,369,92.5781,365,94.1781,366.6,92.5781" style="stroke:#181818;stroke-width:0.4000000000000001;"/><line style="stroke:#181818;stroke-width:0.4000000000000001;" x1="213.4" x2="367.4" y1="92.5781" y2="92.5781"/><text fill="#000000" font-family="sans-serif" font-size="5.2" lengthAdjust="spacing" textLength="145.2" x="216.2" y="90.473">findJobOpeningsByCustomerManagerWithoutJobRequirement()</text><polygon fill="#181818" points="441,103.4945,445,105.0945,441,106.6945,442.6,105.0945" style="stroke:#181818;stroke-width:0.4000000000000001;"/><line style="stroke:#181818;stroke-width:0.4000000000000001;" x1="373.8" x2="443.4" y1="105.0945" y2="105.0945"/><text fill="#000000" font-family="sans-serif" font-size="5.2" lengthAdjust="spacing" textLength="35.6" x="376.6" y="102.9895">create instance</text><rect fill="#E2E2F0" height="13.0484" rx="1" ry="1" style="stroke:#181818;stroke-width:0.20000000000000004;" width="65.6" x="445.8" y="95.7781"/><text fill="#000000" font-family="sans-serif" font-size="5.6" lengthAdjust="spacing" textLength="60" x="448.6" y="104.6211">Jobs4uUserAuthService</text><polygon fill="#181818" points="471.8,120.943,475.8,122.543,471.8,124.143,473.4,122.543" style="stroke:#181818;stroke-width:0.4000000000000001;"/><line style="stroke:#181818;stroke-width:0.4000000000000001;" x1="373.8" x2="474.2" y1="122.543" y2="122.543"/><text fill="#000000" font-family="sans-serif" font-size="5.2" lengthAdjust="spacing" textLength="93.2" x="376.6" y="120.4379">authenticatedUser().getEmail().toString()</text><polygon fill="#181818" points="378.2,133.4594,374.2,135.0594,378.2,136.6594,376.6,135.0594" style="stroke:#181818;stroke-width:0.4000000000000001;"/><line style="stroke:#181818;stroke-width:0.4000000000000001;stroke-dasharray:2.0,2.0;" x1="375.8" x2="478.2" y1="135.0594" y2="135.0594"/><text fill="#000000" font-family="sans-serif" font-size="5.2" lengthAdjust="spacing" textLength="93.2" x="380.6" y="132.9543">current customer manager email (String)</text><polygon fill="#181818" points="510.6,145.9758,514.6,147.5758,510.6,149.1758,512.2,147.5758" style="stroke:#181818;stroke-width:0.4000000000000001;"/><line style="stroke:#181818;stroke-width:0.4000000000000001;" x1="373.8" x2="513" y1="147.5758" y2="147.5758"/><text fill="#000000" font-family="sans-serif" font-size="5.2" lengthAdjust="spacing" textLength="35.6" x="376.6" y="145.4707">create instance</text><text fill="#000000" font-family="sans-serif" font-size="5.6" lengthAdjust="spacing" textLength="57.6" x="515.4" y="162.7023">JobOpeningRepository</text><path d="M538.2,142.2594 C538.2,138.2594 545.4,138.2594 545.4,138.2594 C545.4,138.2594 552.6,138.2594 552.6,142.2594 L552.6,152.6594 C552.6,156.6594 545.4,156.6594 545.4,156.6594 C545.4,156.6594 538.2,156.6594 538.2,152.6594 L538.2,142.2594 " fill="#E2E2F0" style="stroke:#181818;stroke-width:0.6000000000000001;"/><path d="M538.2,142.2594 C538.2,146.2594 545.4,146.2594 545.4,146.2594 C545.4,146.2594 552.6,146.2594 552.6,142.2594 " fill="none" style="stroke:#181818;stroke-width:0.6000000000000001;"/><polygon fill="#181818" points="538.6,175.8242,542.6,177.4242,538.6,179.0242,540.2,177.4242" style="stroke:#181818;stroke-width:0.4000000000000001;"/><line style="stroke:#181818;stroke-width:0.4000000000000001;" x1="373.8" x2="541" y1="177.4242" y2="177.4242"/><text fill="#000000" font-family="sans-serif" font-size="5.2" lengthAdjust="spacing" textLength="150.4" x="376.6" y="175.3191">findJobOpeningsOfCustomerManagerWOJobRequirements(email)</text><polygon fill="#181818" points="378.2,188.3406,374.2,189.9406,378.2,191.5406,376.6,189.9406" style="stroke:#181818;stroke-width:0.4000000000000001;"/><line style="stroke:#181818;stroke-width:0.4000000000000001;stroke-dasharray:2.0,2.0;" x1="375.8" x2="545" y1="189.9406" y2="189.9406"/><text fill="#000000" font-family="sans-serif" font-size="5.2" lengthAdjust="spacing" textLength="42" x="380.6" y="187.8355">List&lt;JobOpening&gt;</text><polygon fill="#181818" points="217.8,200.857,213.8,202.457,217.8,204.057,216.2,202.457" style="stroke:#181818;stroke-width:0.4000000000000001;"/><line style="stroke:#181818;stroke-width:0.4000000000000001;stroke-dasharray:2.0,2.0;" x1="215.4" x2="371.4" y1="202.457" y2="202.457"/><text fill="#000000" font-family="sans-serif" font-size="5.2" lengthAdjust="spacing" textLength="42" x="220.2" y="200.352">List&lt;JobOpening&gt;</text><path d="M4,208.457 L28.4,208.457 L28.4,212.1734 L24.4,216.1734 L4,216.1734 L4,208.457 " fill="#EEEEEE" style="stroke:#000000;stroke-width:0.6000000000000001;"/><rect fill="none" height="230.6781" style="stroke:#000000;stroke-width:0.6000000000000001;" width="697" x="4" y="208.457"/><text fill="#000000" font-family="sans-serif" font-size="5.2" font-weight="bold" lengthAdjust="spacing" textLength="6.4" x="10" y="214.4684">alt</text><text fill="#000000" font-family="sans-serif" font-size="4.4" font-weight="bold" lengthAdjust="spacing" textLength="125.2" x="34.4" y="214.0051">[if they have any job openings without job requirements]</text><polygon fill="#181818" points="43.8,223.8898,39.8,225.4898,43.8,227.0898,42.2,225.4898" style="stroke:#181818;stroke-width:0.4000000000000001;"/><line style="stroke:#181818;stroke-width:0.4000000000000001;stroke-dasharray:2.0,2.0;" x1="41.4" x2="209" y1="225.4898" y2="225.4898"/><text fill="#000000" font-family="sans-serif" font-size="5.2" lengthAdjust="spacing" textLength="98.4" x="46.2" y="223.3848">lists job openings without job requirements</text><polygon fill="#181818" points="204.6,236.4063,208.6,238.0063,204.6,239.6063,206.2,238.0063" style="stroke:#181818;stroke-width:0.4000000000000001;"/><line style="stroke:#181818;stroke-width:0.4000000000000001;" x1="39.4" x2="207" y1="238.0063" y2="238.0063"/><text fill="#000000" font-family="sans-serif" font-size="5.2" lengthAdjust="spacing" textLength="22.4" x="42.2" y="235.9012">picks one</text><polygon fill="#181818" points="365,248.9227,369,250.5227,365,252.1227,366.6,250.5227" style="stroke:#181818;stroke-width:0.4000000000000001;"/><line style="stroke:#181818;stroke-width:0.4000000000000001;" x1="213.4" x2="367.4" y1="250.5227" y2="250.5227"/><text fill="#000000" font-family="sans-serif" font-size="5.2" lengthAdjust="spacing" textLength="51.2" x="216.2" y="248.4176">findJobRequirements()</text><polygon fill="#181818" points="574.6,261.4391,578.6,263.0391,574.6,264.6391,576.2,263.0391" style="stroke:#181818;stroke-width:0.4000000000000001;"/><line style="stroke:#181818;stroke-width:0.4000000000000001;" x1="373.8" x2="577" y1="263.0391" y2="263.0391"/><text fill="#000000" font-family="sans-serif" font-size="5.2" lengthAdjust="spacing" textLength="35.6" x="376.6" y="260.934">create instance</text><text fill="#000000" font-family="sans-serif" font-size="5.6" lengthAdjust="spacing" textLength="71.2" x="579.4" y="278.1656">JobRequirementsRepository</text><path d="M609,257.7227 C609,253.7227 616.2,253.7227 616.2,253.7227 C616.2,253.7227 623.4,253.7227 623.4,257.7227 L623.4,268.1227 C623.4,272.1227 616.2,272.1227 616.2,272.1227 C616.2,272.1227 609,272.1227 609,268.1227 L609,257.7227 " fill="#E2E2F0" style="stroke:#181818;stroke-width:0.6000000000000001;"/><path d="M609,257.7227 C609,261.7227 616.2,261.7227 616.2,261.7227 C616.2,261.7227 623.4,261.7227 623.4,257.7227 " fill="none" style="stroke:#181818;stroke-width:0.6000000000000001;"/><polygon fill="#181818" points="609.4,291.2875,613.4,292.8875,609.4,294.4875,611,292.8875" style="stroke:#181818;stroke-width:0.4000000000000001;"/><line style="stroke:#181818;stroke-width:0.4000000000000001;" x1="373.8" x2="611.8" y1="292.8875" y2="292.8875"/><text fill="#000000" font-family="sans-serif" font-size="5.2" lengthAdjust="spacing" textLength="17.2" x="376.6" y="290.7824">findAll()</text><polygon fill="#181818" points="378.2,303.8039,374.2,305.4039,378.2,307.0039,376.6,305.4039" style="stroke:#181818;stroke-width:0.4000000000000001;"/><line style="stroke:#181818;stroke-width:0.4000000000000001;stroke-dasharray:2.0,2.0;" x1="375.8" x2="615.8" y1="305.4039" y2="305.4039"/><text fill="#000000" font-family="sans-serif" font-size="5.2" lengthAdjust="spacing" textLength="54.8" x="380.6" y="303.2988">List&lt;JobRequirements&gt;</text><polygon fill="#181818" points="217.8,316.3203,213.8,317.9203,217.8,319.5203,216.2,317.9203" style="stroke:#181818;stroke-width:0.4000000000000001;"/><line style="stroke:#181818;stroke-width:0.4000000000000001;stroke-dasharray:2.0,2.0;" x1="215.4" x2="371.4" y1="317.9203" y2="317.9203"/><text fill="#000000" font-family="sans-serif" font-size="5.2" lengthAdjust="spacing" textLength="54.8" x="220.2" y="315.8152">List&lt;JobRequirements&gt;</text><path d="M8,323.9203 L32.4,323.9203 L32.4,327.6367 L28.4,331.6367 L8,331.6367 L8,323.9203 " fill="#EEEEEE" style="stroke:#000000;stroke-width:0.6000000000000001;"/><rect fill="none" height="112.4148" style="stroke:#000000;stroke-width:0.6000000000000001;" width="689" x="8" y="323.9203"/><text fill="#000000" font-family="sans-serif" font-size="5.2" font-weight="bold" lengthAdjust="spacing" textLength="6.4" x="14" y="329.9316">alt</text><text fill="#000000" font-family="sans-serif" font-size="4.4" font-weight="bold" lengthAdjust="spacing" textLength="132.8" x="38.4" y="329.4684">[if there are any job requirements registered in the system]</text><polygon fill="#181818" points="43.8,339.3531,39.8,340.9531,43.8,342.5531,42.2,340.9531" style="stroke:#181818;stroke-width:0.4000000000000001;"/><line style="stroke:#181818;stroke-width:0.4000000000000001;stroke-dasharray:2.0,2.0;" x1="41.4" x2="209" y1="340.9531" y2="340.9531"/><text fill="#000000" font-family="sans-serif" font-size="5.2" lengthAdjust="spacing" textLength="82.8" x="46.2" y="338.848">lists job requirements specifications</text><polygon fill="#181818" points="204.6,351.8695,208.6,353.4695,204.6,355.0695,206.2,353.4695" style="stroke:#181818;stroke-width:0.4000000000000001;"/><line style="stroke:#181818;stroke-width:0.4000000000000001;" x1="39.4" x2="207" y1="353.4695" y2="353.4695"/><text fill="#000000" font-family="sans-serif" font-size="5.2" lengthAdjust="spacing" textLength="22.4" x="42.2" y="351.3645">picks one</text><polygon fill="#181818" points="365,364.3859,369,365.9859,365,367.5859,366.6,365.9859" style="stroke:#181818;stroke-width:0.4000000000000001;"/><line style="stroke:#181818;stroke-width:0.4000000000000001;" x1="213.4" x2="367.4" y1="365.9859" y2="365.9859"/><text fill="#000000" font-family="sans-serif" font-size="5.2" lengthAdjust="spacing" textLength="148.8" x="216.2" y="363.8809">saveJobOpeningWithRequirement(jobOpening, jobRequirements)</text><polygon fill="#181818" points="668.2,376.9023,672.2,378.5023,668.2,380.1023,669.8,378.5023" style="stroke:#181818;stroke-width:0.4000000000000001;"/><line style="stroke:#181818;stroke-width:0.4000000000000001;" x1="373.8" x2="670.6" y1="378.5023" y2="378.5023"/><text fill="#000000" font-family="sans-serif" font-size="5.2" lengthAdjust="spacing" textLength="89.2" x="376.6" y="376.3973">setJobRequirements(jobRequirements)</text><polygon fill="#181818" points="538.6,401.4188,542.6,403.0188,538.6,404.6188,540.2,403.0188" style="stroke:#181818;stroke-width:0.4000000000000001;"/><line style="stroke:#181818;stroke-width:0.4000000000000001;" x1="373.8" x2="541" y1="403.0188" y2="403.0188"/><text fill="#000000" font-family="sans-serif" font-size="5.2" lengthAdjust="spacing" textLength="39.6" x="376.6" y="400.9137">save(jobOpening)</text><polygon fill="#181818" points="217.8,419.0188,213.8,420.6188,217.8,422.2188,216.2,420.6188" style="stroke:#181818;stroke-width:0.4000000000000001;"/><line style="stroke:#181818;stroke-width:0.4000000000000001;stroke-dasharray:2.0,2.0;" x1="215.4" x2="371.4" y1="420.6188" y2="420.6188"/><polygon fill="#181818" points="43.8,431.5352,39.8,433.1352,43.8,434.7352,42.2,433.1352" style="stroke:#181818;stroke-width:0.4000000000000001;"/><line style="stroke:#181818;stroke-width:0.4000000000000001;stroke-dasharray:2.0,2.0;" x1="41.4" x2="209" y1="433.1352" y2="433.1352"/><text fill="#000000" font-family="sans-serif" font-size="5.2" lengthAdjust="spacing" textLength="78" x="46.2" y="431.0301">informs user of operation success</text><!--SRC=[bLLDZzem4BtxLumu0IhLLkgbg5ffYthOQYkafQXdaqp0syHExGaL_xxZV10d9C1U875ctlFCUnxBY8o5oQfmP3Aqy5DgkKSx0UaWgXUpQataqfAAL2urmMI3AKRqm-pMEMgbzw_ujr0MCzJajizb_lRv_fILqMHDcjRKgr-lBvrapdAVYwr3-rJGOOFsg2BqaVMZY2N9dNG88NvkdEBwJZvmQBsJ5MwdcphyfR-_6htB9GGfIX6scqyF3rzW0LKJoZWV5cB39iT89IgIf8nsG0Ps28N3M0Z9EKT9U26Aw2t0uf4R3qkm38oEIXXNajvcJDWBLL2p_JClYoaObz6zDlFv4YAB_25ON4AYTDpMxhwT6b_Ljlgjw60AwZPxEcjPIjs5__MWjRRpEJHieBGZgLdlVX27I7O6u_bgCFPMcSu-xf6-PrAb_4XcGvQt5V8rxcb05dKfdh2mrhUewIyq3KQF1zCAR2PYl40xxst8SsthscAknLzqTPtqkxhkkNTQRZ4eSz3xWmSbQC2BSlIr3NeCAnq4hAfe_7SjlP9Po9H09S2gdU0WZtoUzGdUs7scBXN-LOOf5srGOUL5fkgxVmcfygQ_3sNixEGg-kF0Q1H3zkwqUjIymqFZclh36HNjKvg6L2CJQMI43OWQHdQa6K4UrdOKfMf5gwzbRMshRoW2l-mPZaDYReaF1dVYz-mkZJj8hZFDnFlaXQLZ2xQ6zRCgd59lvoyVF7DO-gW7WbjXoKEO-kOPnmbkaC5ZTtt6U3Ok9jZphM5mwso71hWKUbGefVbAoPo_n2oOn1z9Mwe3heWYT2mIQjOzEVy7sFxA4Vy1]--></g></svg>