<?xml version="1.0" encoding="us-ascii" standalone="no"?><svg xmlns="http://www.w3.org/2000/svg" xmlns:xlink="http://www.w3.org/1999/xlink" contentStyleType="text/css" height="687px" preserveAspectRatio="none" style="width:745px;height:687px;background:#FFFFFF;" version="1.1" viewBox="0 0 745 687" width="745px" zoomAndPan="magnify"><defs/><g><text fill="#000000" font-family="sans-serif" font-size="14" font-weight="bold" lengthAdjust="spacing" textLength="323" x="212.75" y="30.1074">US 1000a - Registering users in the backoffice</text><rect fill="#FFFFFF" height="461.6563" style="stroke:#181818;stroke-width:1.0;" width="10" x="37.5" y="133.2422"/><rect fill="#FFFFFF" height="422.3652" style="stroke:#181818;stroke-width:1.0;" width="10" x="218.5" y="156.5332"/><rect fill="none" height="122.4551" style="stroke:#000000;stroke-width:1.5;" width="438.5" x="10" y="171.5332"/><rect fill="none" height="216.3281" style="stroke:#000000;stroke-width:1.5;" width="729.5" x="10" y="370.5703"/><line style="stroke:#181818;stroke-width:0.5;stroke-dasharray:5.0,5.0;" x1="42" x2="42" y1="123.2422" y2="603.8984"/><line style="stroke:#181818;stroke-width:0.5;stroke-dasharray:5.0,5.0;" x1="223.5" x2="223.5" y1="123.2422" y2="603.8984"/><text fill="#000000" font-family="sans-serif" font-size="14" lengthAdjust="spacing" textLength="39" x="20" y="119.7285">Admin</text><ellipse cx="42.5" cy="53.1211" fill="#E2E2F0" rx="8" ry="8" style="stroke:#181818;stroke-width:0.5;"/><path d="M42.5,61.1211 L42.5,88.1211 M29.5,69.1211 L55.5,69.1211 M42.5,88.1211 L29.5,103.1211 M42.5,88.1211 L55.5,103.1211 " fill="none" style="stroke:#181818;stroke-width:0.5;"/><text fill="#000000" font-family="sans-serif" font-size="14" lengthAdjust="spacing" textLength="39" x="20" y="618.0059">Admin</text><ellipse cx="42.5" cy="630.0195" fill="#E2E2F0" rx="8" ry="8" style="stroke:#181818;stroke-width:0.5;"/><path d="M42.5,638.0195 L42.5,665.0195 M29.5,646.0195 L55.5,646.0195 M42.5,665.0195 L29.5,680.0195 M42.5,665.0195 L55.5,680.0195 " fill="none" style="stroke:#181818;stroke-width:0.5;"/><rect fill="#E2E2F0" height="32.6211" rx="2.5" ry="2.5" style="stroke:#181818;stroke-width:0.5;" width="60" x="193.5" y="89.6211"/><text fill="#000000" font-family="sans-serif" font-size="14" lengthAdjust="spacing" textLength="46" x="200.5" y="111.7285">System</text><rect fill="#E2E2F0" height="32.6211" rx="2.5" ry="2.5" style="stroke:#181818;stroke-width:0.5;" width="60" x="193.5" y="602.8984"/><text fill="#000000" font-family="sans-serif" font-size="14" lengthAdjust="spacing" textLength="46" x="200.5" y="625.0059">System</text><rect fill="#FFFFFF" height="461.6563" style="stroke:#181818;stroke-width:1.0;" width="10" x="37.5" y="133.2422"/><rect fill="#FFFFFF" height="422.3652" style="stroke:#181818;stroke-width:1.0;" width="10" x="218.5" y="156.5332"/><polygon fill="#181818" points="206.5,152.5332,216.5,156.5332,206.5,160.5332,210.5,156.5332" style="stroke:#181818;stroke-width:1.0;"/><line style="stroke:#181818;stroke-width:1.0;" x1="47.5" x2="212.5" y1="156.5332" y2="156.5332"/><text fill="#000000" font-family="sans-serif" font-size="13" lengthAdjust="spacing" textLength="152" x="54.5" y="151.2705">requests to register a user</text><path d="M10,171.5332 L186,171.5332 L186,180.8242 L176,190.8242 L10,190.8242 L10,171.5332 " fill="#EEEEEE" style="stroke:#000000;stroke-width:1.5;"/><rect fill="none" height="122.4551" style="stroke:#000000;stroke-width:1.5;" width="438.5" x="10" y="171.5332"/><text fill="#000000" font-family="sans-serif" font-size="13" font-weight="bold" lengthAdjust="spacing" textLength="131" x="25" y="186.5615">do while (!validRole)</text><polygon fill="#181818" points="58.5,210.1152,48.5,214.1152,58.5,218.1152,54.5,214.1152" style="stroke:#181818;stroke-width:1.0;"/><line style="stroke:#181818;stroke-width:1.0;stroke-dasharray:2.0,2.0;" x1="52.5" x2="217.5" y1="214.1152" y2="214.1152"/><text fill="#000000" font-family="sans-serif" font-size="13" lengthAdjust="spacing" textLength="107" x="64.5" y="208.8525">asks to select role</text><polygon fill="#181818" points="206.5,261.6973,216.5,265.6973,206.5,269.6973,210.5,265.6973" style="stroke:#181818;stroke-width:1.0;"/><line style="stroke:#181818;stroke-width:1.0;" x1="47.5" x2="212.5" y1="265.6973" y2="265.6973"/><text fill="#000000" font-family="sans-serif" font-size="13" lengthAdjust="spacing" textLength="67" x="54.5" y="260.4346">selects role</text><path d="M233,227.1152 L233,288.1152 L438,288.1152 L438,237.1152 L428,227.1152 L233,227.1152 " fill="#FEFFDD" style="stroke:#181818;stroke-width:0.5;"/><path d="M428,227.1152 L428,237.1152 L438,237.1152 L428,227.1152 " fill="#FEFFDD" style="stroke:#181818;stroke-width:0.5;"/><text fill="#000000" font-family="sans-serif" font-size="13" lengthAdjust="spacing" textLength="4" x="239" y="246.1436">&#160;</text><text fill="#000000" font-family="sans-serif" font-size="13" lengthAdjust="spacing" textLength="184" x="239" y="263.4346">loops until a valid role is chosen</text><text fill="#000000" font-family="sans-serif" font-size="13" lengthAdjust="spacing" textLength="4" x="239" y="280.7256">&#160;</text><polygon fill="#181818" points="58.5,320.2793,48.5,324.2793,58.5,328.2793,54.5,324.2793" style="stroke:#181818;stroke-width:1.0;"/><line style="stroke:#181818;stroke-width:1.0;stroke-dasharray:2.0,2.0;" x1="52.5" x2="217.5" y1="324.2793" y2="324.2793"/><text fill="#000000" font-family="sans-serif" font-size="13" lengthAdjust="spacing" textLength="107" x="64.5" y="319.0166">asks for username</text><polygon fill="#181818" points="206.5,351.5703,216.5,355.5703,206.5,359.5703,210.5,355.5703" style="stroke:#181818;stroke-width:1.0;"/><line style="stroke:#181818;stroke-width:1.0;" x1="47.5" x2="212.5" y1="355.5703" y2="355.5703"/><text fill="#000000" font-family="sans-serif" font-size="13" lengthAdjust="spacing" textLength="108" x="54.5" y="350.3076">provides username</text><path d="M10,370.5703 L265,370.5703 L265,379.8613 L255,389.8613 L10,389.8613 L10,370.5703 " fill="#EEEEEE" style="stroke:#000000;stroke-width:1.5;"/><rect fill="none" height="216.3281" style="stroke:#000000;stroke-width:1.5;" width="729.5" x="10" y="370.5703"/><text fill="#000000" font-family="sans-serif" font-size="13" font-weight="bold" lengthAdjust="spacing" textLength="210" x="25" y="385.5986">do while (!registrationSuccessful)</text><polygon fill="#181818" points="58.5,429.4434,48.5,433.4434,58.5,437.4434,54.5,433.4434" style="stroke:#181818;stroke-width:1.0;"/><line style="stroke:#181818;stroke-width:1.0;stroke-dasharray:2.0,2.0;" x1="52.5" x2="217.5" y1="433.4434" y2="433.4434"/><text fill="#000000" font-family="sans-serif" font-size="13" lengthAdjust="spacing" textLength="105" x="64.5" y="428.1807">asks for password</text><path d="M233,394.8613 L233,455.8613 L729,455.8613 L729,404.8613 L719,394.8613 L233,394.8613 " fill="#FEFFDD" style="stroke:#181818;stroke-width:0.5;"/><path d="M719,394.8613 L719,404.8613 L729,404.8613 L719,394.8613 " fill="#FEFFDD" style="stroke:#181818;stroke-width:0.5;"/><text fill="#000000" font-family="sans-serif" font-size="13" lengthAdjust="spacing" textLength="4" x="239" y="413.8896">&#160;</text><text fill="#000000" font-family="sans-serif" font-size="13" lengthAdjust="spacing" textLength="475" x="239" y="431.1807">Loops until the registration is successful. Errors and mistakes will restart the loop.</text><text fill="#000000" font-family="sans-serif" font-size="13" lengthAdjust="spacing" textLength="4" x="239" y="448.4717">&#160;</text><polygon fill="#181818" points="206.5,481.0254,216.5,485.0254,206.5,489.0254,210.5,485.0254" style="stroke:#181818;stroke-width:1.0;"/><line style="stroke:#181818;stroke-width:1.0;" x1="47.5" x2="212.5" y1="485.0254" y2="485.0254"/><text fill="#000000" font-family="sans-serif" font-size="13" lengthAdjust="spacing" textLength="106" x="54.5" y="479.7627">provides password</text><polygon fill="#181818" points="58.5,512.3164,48.5,516.3164,58.5,520.3164,54.5,516.3164" style="stroke:#181818;stroke-width:1.0;"/><line style="stroke:#181818;stroke-width:1.0;stroke-dasharray:2.0,2.0;" x1="52.5" x2="217.5" y1="516.3164" y2="516.3164"/><text fill="#000000" font-family="sans-serif" font-size="13" lengthAdjust="spacing" textLength="81" x="64.5" y="511.0537">asks for email</text><polygon fill="#181818" points="206.5,543.6074,216.5,547.6074,206.5,551.6074,210.5,547.6074" style="stroke:#181818;stroke-width:1.0;"/><line style="stroke:#181818;stroke-width:1.0;" x1="47.5" x2="212.5" y1="547.6074" y2="547.6074"/><text fill="#000000" font-family="sans-serif" font-size="13" lengthAdjust="spacing" textLength="82" x="54.5" y="542.3447">provides email</text><polygon fill="#181818" points="58.5,574.8984,48.5,578.8984,58.5,582.8984,54.5,578.8984" style="stroke:#181818;stroke-width:1.0;"/><line style="stroke:#181818;stroke-width:1.0;stroke-dasharray:2.0,2.0;" x1="52.5" x2="222.5" y1="578.8984" y2="578.8984"/><text fill="#000000" font-family="sans-serif" font-size="13" lengthAdjust="spacing" textLength="101" x="64.5" y="573.6357">registers the user</text><!--SRC=[VPAnJWCn38RtF8NPwD2gh1sGEh0nSM9WD3bVQpMN7B6l5M-FaojmfIfJ4jd-_F-nqMlAi6rxZe02s_9q0sPbpmD6XUPJbFeIQzuQvvGr4BmsyB1Uhn6My48xjepCSGUZK1Omaku9tj4VKjUn9-VGAnzHwSntzO3bOs721Z9zZ2GgeCdk4m-mucQrjVykft60Di5fpoRa_kw8WTkN56ZXNA4jZJhXDoRwK9b2WRn2jgohtbDCpi6Oh57ctLwT2oaD0cDK3YQczgbPm09-duIYSnHRA3NrTaD0PzTY9M9_tNx8wSWjoIpZokBq9HcLKsn6xqca6yFYdtO3YfnIRYyDFSyCbGdDkSMK_B1Ny9HpibcY-Uij2GycySGXM96zibP0-Q7L_1DkkliLT5CpzSZXDk4S_bl-lIvI1KqRqzBbpfJHV040]--></g></svg>