<?xml version="1.0" encoding="us-ascii" standalone="no"?><svg xmlns="http://www.w3.org/2000/svg" xmlns:xlink="http://www.w3.org/1999/xlink" contentStyleType="text/css" height="1096px" preserveAspectRatio="none" style="width:1444px;height:1096px;background:#FFFFFF;" version="1.1" viewBox="0 0 1444 1096" width="1444px" zoomAndPan="magnify"><defs/><g><rect fill="#FFFFFF" height="914.918" style="stroke:#181818;stroke-width:1.0;" width="10" x="81.5" y="91.4883"/><rect fill="#FFFFFF" height="877.6074" style="stroke:#181818;stroke-width:1.0;" width="10" x="341.5" y="112.7988"/><rect fill="#FFFFFF" height="103.9766" style="stroke:#181818;stroke-width:1.0;" width="10" x="918.5" y="152.1094"/><rect fill="#FFFFFF" height="59.3105" style="stroke:#181818;stroke-width:1.0;" width="10" x="918.5" y="411.5059"/><rect fill="#FFFFFF" height="149.5527" style="stroke:#181818;stroke-width:1.0;" width="10" x="918.5" y="811.543"/><rect fill="#FFFFFF" height="30" style="stroke:#181818;stroke-width:1.0;" width="10" x="1179.5" y="440.8164"/><rect fill="#FFFFFF" height="29.3105" style="stroke:#181818;stroke-width:1.0;" width="10" x="1179.5" y="859.1641"/><rect fill="#FFFFFF" height="29.3105" style="stroke:#181818;stroke-width:1.0;" width="10" x="1342.5" y="917.7852"/><rect fill="none" height="625.5215" style="stroke:#000000;stroke-width:1.5;" width="1428.5" x="10" y="372.8848"/><line style="stroke:#181818;stroke-width:0.5;stroke-dasharray:5.0,5.0;" x1="86" x2="86" y1="81.4883" y2="1015.4063"/><line style="stroke:#181818;stroke-width:0.5;stroke-dasharray:5.0,5.0;" x1="346" x2="346" y1="81.4883" y2="1015.4063"/><line style="stroke:#181818;stroke-width:0.5;stroke-dasharray:5.0,5.0;" x1="923" x2="923" y1="151.543" y2="1015.4063"/><line style="stroke:#181818;stroke-width:0.5;stroke-dasharray:5.0,5.0;" x1="1184.5" x2="1184.5" y1="208.5313" y2="1015.4063"/><line style="stroke:#181818;stroke-width:0.5;stroke-dasharray:5.0,5.0;" x1="1347.5" x2="1347.5" y1="281.0195" y2="1015.4063"/><text fill="#000000" font-family="sans-serif" font-size="14" lengthAdjust="spacing" textLength="127" x="20" y="78.5352">CustomerManager</text><ellipse cx="86.5" cy="13.5" fill="#E2E2F0" rx="8" ry="8" style="stroke:#181818;stroke-width:0.5;"/><path d="M86.5,21.5 L86.5,48.5 M73.5,29.5 L99.5,29.5 M86.5,48.5 L73.5,63.5 M86.5,48.5 L99.5,63.5 " fill="none" style="stroke:#181818;stroke-width:0.5;"/><text fill="#000000" font-family="sans-serif" font-size="14" lengthAdjust="spacing" textLength="127" x="20" y="1027.9414">CustomerManager</text><ellipse cx="86.5" cy="1039.3945" fill="#E2E2F0" rx="8" ry="8" style="stroke:#181818;stroke-width:0.5;"/><path d="M86.5,1047.3945 L86.5,1074.3945 M73.5,1055.3945 L99.5,1055.3945 M86.5,1074.3945 L73.5,1089.3945 M86.5,1074.3945 L99.5,1089.3945 " fill="none" style="stroke:#181818;stroke-width:0.5;"/><rect fill="#E2E2F0" height="30.4883" rx="2.5" ry="2.5" style="stroke:#181818;stroke-width:0.5;" width="165" x="264" y="50"/><text fill="#000000" font-family="sans-serif" font-size="14" lengthAdjust="spacing" textLength="151" x="271" y="70.5352">RegisterJobOpeningUI</text><rect fill="#E2E2F0" height="30.4883" rx="2.5" ry="2.5" style="stroke:#181818;stroke-width:0.5;" width="165" x="264" y="1014.4063"/><text fill="#000000" font-family="sans-serif" font-size="14" lengthAdjust="spacing" textLength="151" x="271" y="1034.9414">RegisterJobOpeningUI</text><rect fill="#E2E2F0" height="30.4883" rx="2.5" ry="2.5" style="stroke:#181818;stroke-width:0.5;" width="221" x="813" y="1014.4063"/><text fill="#000000" font-family="sans-serif" font-size="14" lengthAdjust="spacing" textLength="207" x="820" y="1034.9414">RegisterJobOpeningController</text><text fill="#000000" font-family="sans-serif" font-size="14" lengthAdjust="spacing" textLength="140" x="1111.5" y="1027.9414">CustomerRepository</text><path d="M1166.5,1040.8945 C1166.5,1030.8945 1184.5,1030.8945 1184.5,1030.8945 C1184.5,1030.8945 1202.5,1030.8945 1202.5,1040.8945 L1202.5,1066.8945 C1202.5,1076.8945 1184.5,1076.8945 1184.5,1076.8945 C1184.5,1076.8945 1166.5,1076.8945 1166.5,1066.8945 L1166.5,1040.8945 " fill="#E2E2F0" style="stroke:#181818;stroke-width:1.5;"/><path d="M1166.5,1040.8945 C1166.5,1050.8945 1184.5,1050.8945 1184.5,1050.8945 C1184.5,1050.8945 1202.5,1050.8945 1202.5,1040.8945 " fill="none" style="stroke:#181818;stroke-width:1.5;"/><text fill="#000000" font-family="sans-serif" font-size="14" lengthAdjust="spacing" textLength="154" x="1267.5" y="1027.9414">JobOpeningRepository</text><path d="M1329.5,1040.8945 C1329.5,1030.8945 1347.5,1030.8945 1347.5,1030.8945 C1347.5,1030.8945 1365.5,1030.8945 1365.5,1040.8945 L1365.5,1066.8945 C1365.5,1076.8945 1347.5,1076.8945 1347.5,1076.8945 C1347.5,1076.8945 1329.5,1076.8945 1329.5,1066.8945 L1329.5,1040.8945 " fill="#E2E2F0" style="stroke:#181818;stroke-width:1.5;"/><path d="M1329.5,1040.8945 C1329.5,1050.8945 1347.5,1050.8945 1347.5,1050.8945 C1347.5,1050.8945 1365.5,1050.8945 1365.5,1040.8945 " fill="none" style="stroke:#181818;stroke-width:1.5;"/><rect fill="#FFFFFF" height="914.918" style="stroke:#181818;stroke-width:1.0;" width="10" x="81.5" y="91.4883"/><rect fill="#FFFFFF" height="877.6074" style="stroke:#181818;stroke-width:1.0;" width="10" x="341.5" y="112.7988"/><rect fill="#FFFFFF" height="103.9766" style="stroke:#181818;stroke-width:1.0;" width="10" x="918.5" y="152.1094"/><rect fill="#FFFFFF" height="59.3105" style="stroke:#181818;stroke-width:1.0;" width="10" x="918.5" y="411.5059"/><rect fill="#FFFFFF" height="149.5527" style="stroke:#181818;stroke-width:1.0;" width="10" x="918.5" y="811.543"/><rect fill="#FFFFFF" height="30" style="stroke:#181818;stroke-width:1.0;" width="10" x="1179.5" y="440.8164"/><rect fill="#FFFFFF" height="29.3105" style="stroke:#181818;stroke-width:1.0;" width="10" x="1179.5" y="859.1641"/><rect fill="#FFFFFF" height="29.3105" style="stroke:#181818;stroke-width:1.0;" width="10" x="1342.5" y="917.7852"/><polygon fill="#181818" points="329.5,108.7988,339.5,112.7988,329.5,116.7988,333.5,112.7988" style="stroke:#181818;stroke-width:1.0;"/><line style="stroke:#181818;stroke-width:1.0;" x1="91.5" x2="335.5" y1="112.7988" y2="112.7988"/><text fill="#000000" font-family="sans-serif" font-size="13" lengthAdjust="spacing" textLength="213" x="98.5" y="108.0566">requests to register a job opening</text><polygon fill="#181818" points="801,138.1094,811,142.1094,801,146.1094,805,142.1094" style="stroke:#181818;stroke-width:1.0;"/><line style="stroke:#181818;stroke-width:1.0;" x1="351.5" x2="807" y1="142.1094" y2="142.1094"/><text fill="#000000" font-family="sans-serif" font-size="13" lengthAdjust="spacing" textLength="38" x="358.5" y="137.3672">create</text><rect fill="#E2E2F0" height="30.4883" rx="2.5" ry="2.5" style="stroke:#181818;stroke-width:0.5;" width="221" x="813" y="120.7988"/><text fill="#000000" font-family="sans-serif" font-size="14" lengthAdjust="spacing" textLength="207" x="820" y="141.334">RegisterJobOpeningController</text><polygon fill="#181818" points="1099.5,179.5977,1109.5,183.5977,1099.5,187.5977,1103.5,183.5977" style="stroke:#181818;stroke-width:1.0;"/><line style="stroke:#181818;stroke-width:1.0;" x1="928.5" x2="1105.5" y1="183.5977" y2="183.5977"/><text fill="#000000" font-family="sans-serif" font-size="13" lengthAdjust="spacing" textLength="38" x="935.5" y="178.8555">create</text><text fill="#000000" font-family="sans-serif" font-size="14" lengthAdjust="spacing" textLength="140" x="1111.5" y="221.8223">CustomerRepository</text><path d="M1166.5,172.2871 C1166.5,162.2871 1184.5,162.2871 1184.5,162.2871 C1184.5,162.2871 1202.5,162.2871 1202.5,172.2871 L1202.5,198.2871 C1202.5,208.2871 1184.5,208.2871 1184.5,208.2871 C1184.5,208.2871 1166.5,208.2871 1166.5,198.2871 L1166.5,172.2871 " fill="#E2E2F0" style="stroke:#181818;stroke-width:1.5;"/><path d="M1166.5,172.2871 C1166.5,182.2871 1184.5,182.2871 1184.5,182.2871 C1184.5,182.2871 1202.5,182.2871 1202.5,172.2871 " fill="none" style="stroke:#181818;stroke-width:1.5;"/><polygon fill="#181818" points="1255.5,252.0859,1265.5,256.0859,1255.5,260.0859,1259.5,256.0859" style="stroke:#181818;stroke-width:1.0;"/><line style="stroke:#181818;stroke-width:1.0;" x1="923.5" x2="1261.5" y1="256.0859" y2="256.0859"/><text fill="#000000" font-family="sans-serif" font-size="13" lengthAdjust="spacing" textLength="38" x="930.5" y="251.3438">create</text><text fill="#000000" font-family="sans-serif" font-size="14" lengthAdjust="spacing" textLength="154" x="1267.5" y="294.3105">JobOpeningRepository</text><path d="M1329.5,244.7754 C1329.5,234.7754 1347.5,234.7754 1347.5,234.7754 C1347.5,234.7754 1365.5,234.7754 1365.5,244.7754 L1365.5,270.7754 C1365.5,280.7754 1347.5,280.7754 1347.5,280.7754 C1347.5,280.7754 1329.5,280.7754 1329.5,270.7754 L1329.5,244.7754 " fill="#E2E2F0" style="stroke:#181818;stroke-width:1.5;"/><path d="M1329.5,244.7754 C1329.5,254.7754 1347.5,254.7754 1347.5,254.7754 C1347.5,254.7754 1365.5,254.7754 1365.5,244.7754 " fill="none" style="stroke:#181818;stroke-width:1.5;"/><polygon fill="#181818" points="102.5,324.5742,92.5,328.5742,102.5,332.5742,98.5,328.5742" style="stroke:#181818;stroke-width:1.0;"/><line style="stroke:#181818;stroke-width:1.0;stroke-dasharray:2.0,2.0;" x1="96.5" x2="340.5" y1="328.5742" y2="328.5742"/><text fill="#000000" font-family="sans-serif" font-size="13" lengthAdjust="spacing" textLength="226" x="108.5" y="323.832">Asks to select an existent customer</text><polygon fill="#181818" points="329.5,353.8848,339.5,357.8848,329.5,361.8848,333.5,357.8848" style="stroke:#181818;stroke-width:1.0;"/><line style="stroke:#181818;stroke-width:1.0;" x1="91.5" x2="335.5" y1="357.8848" y2="357.8848"/><text fill="#000000" font-family="sans-serif" font-size="13" lengthAdjust="spacing" textLength="189" x="98.5" y="353.1426">Selects and existing customer</text><path d="M10,372.8848 L84,372.8848 L84,380.1953 L74,390.1953 L10,390.1953 L10,372.8848 " fill="#EEEEEE" style="stroke:#000000;stroke-width:1.5;"/><rect fill="none" height="625.5215" style="stroke:#000000;stroke-width:1.5;" width="1428.5" x="10" y="372.8848"/><text fill="#000000" font-family="sans-serif" font-size="13" font-weight="bold" lengthAdjust="spacing" textLength="29" x="25" y="386.4531">loop</text><text fill="#000000" font-family="sans-serif" font-size="11" font-weight="bold" lengthAdjust="spacing" textLength="280" x="99" y="385.5195">[all parameters follow bussines and system rules]</text><polygon fill="#181818" points="906.5,407.5059,916.5,411.5059,906.5,415.5059,910.5,411.5059" style="stroke:#181818;stroke-width:1.0;"/><line style="stroke:#181818;stroke-width:1.0;" x1="351.5" x2="912.5" y1="411.5059" y2="411.5059"/><text fill="#000000" font-family="sans-serif" font-size="13" lengthAdjust="spacing" textLength="232" x="358.5" y="406.7637">findCustomerFromCustomerManager</text><polygon fill="#181818" points="1167.5,436.8164,1177.5,440.8164,1167.5,444.8164,1171.5,440.8164" style="stroke:#181818;stroke-width:1.0;"/><line style="stroke:#181818;stroke-width:1.0;" x1="928.5" x2="1173.5" y1="440.8164" y2="440.8164"/><text fill="#000000" font-family="sans-serif" font-size="13" lengthAdjust="spacing" textLength="232" x="935.5" y="436.0742">findCustomerFromCustomerManager</text><polygon fill="#181818" points="102.5,496.127,92.5,500.127,102.5,504.127,98.5,500.127" style="stroke:#181818;stroke-width:1.0;"/><line style="stroke:#181818;stroke-width:1.0;stroke-dasharray:2.0,2.0;" x1="96.5" x2="340.5" y1="500.127" y2="500.127"/><text fill="#000000" font-family="sans-serif" font-size="13" lengthAdjust="spacing" textLength="152" x="108.5" y="495.3848">Request job designation</text><polygon fill="#181818" points="329.5,525.4375,339.5,529.4375,329.5,533.4375,333.5,529.4375" style="stroke:#181818;stroke-width:1.0;"/><line style="stroke:#181818;stroke-width:1.0;" x1="91.5" x2="335.5" y1="529.4375" y2="529.4375"/><text fill="#000000" font-family="sans-serif" font-size="13" lengthAdjust="spacing" textLength="142" x="98.5" y="524.6953">Provides a designation</text><polygon fill="#181818" points="102.5,554.748,92.5,558.748,102.5,562.748,98.5,558.748" style="stroke:#181818;stroke-width:1.0;"/><line style="stroke:#181818;stroke-width:1.0;stroke-dasharray:2.0,2.0;" x1="96.5" x2="340.5" y1="558.748" y2="558.748"/><text fill="#000000" font-family="sans-serif" font-size="13" lengthAdjust="spacing" textLength="185" x="108.5" y="554.0059">asks to select a contract type</text><polygon fill="#181818" points="329.5,584.0586,339.5,588.0586,329.5,592.0586,333.5,588.0586" style="stroke:#181818;stroke-width:1.0;"/><line style="stroke:#181818;stroke-width:1.0;" x1="91.5" x2="335.5" y1="588.0586" y2="588.0586"/><text fill="#000000" font-family="sans-serif" font-size="13" lengthAdjust="spacing" textLength="141" x="98.5" y="583.3164">selects a contractType</text><polygon fill="#181818" points="102.5,613.3691,92.5,617.3691,102.5,621.3691,98.5,617.3691" style="stroke:#181818;stroke-width:1.0;"/><line style="stroke:#181818;stroke-width:1.0;stroke-dasharray:2.0,2.0;" x1="96.5" x2="340.5" y1="617.3691" y2="617.3691"/><text fill="#000000" font-family="sans-serif" font-size="13" lengthAdjust="spacing" textLength="212" x="108.5" y="612.627">asks to select a contract jobMode</text><polygon fill="#181818" points="329.5,642.6797,339.5,646.6797,329.5,650.6797,333.5,646.6797" style="stroke:#181818;stroke-width:1.0;"/><line style="stroke:#181818;stroke-width:1.0;" x1="91.5" x2="335.5" y1="646.6797" y2="646.6797"/><text fill="#000000" font-family="sans-serif" font-size="13" lengthAdjust="spacing" textLength="113" x="98.5" y="641.9375">selects a jobMode</text><polygon fill="#181818" points="102.5,671.9902,92.5,675.9902,102.5,679.9902,98.5,675.9902" style="stroke:#181818;stroke-width:1.0;"/><line style="stroke:#181818;stroke-width:1.0;stroke-dasharray:2.0,2.0;" x1="96.5" x2="340.5" y1="675.9902" y2="675.9902"/><text fill="#000000" font-family="sans-serif" font-size="13" lengthAdjust="spacing" textLength="151" x="108.5" y="671.248">asks to select a address</text><polygon fill="#181818" points="329.5,701.3008,339.5,705.3008,329.5,709.3008,333.5,705.3008" style="stroke:#181818;stroke-width:1.0;"/><line style="stroke:#181818;stroke-width:1.0;" x1="91.5" x2="335.5" y1="705.3008" y2="705.3008"/><text fill="#000000" font-family="sans-serif" font-size="13" lengthAdjust="spacing" textLength="108" x="98.5" y="700.5586">selects a address</text><polygon fill="#181818" points="102.5,730.6113,92.5,734.6113,102.5,738.6113,98.5,734.6113" style="stroke:#181818;stroke-width:1.0;"/><line style="stroke:#181818;stroke-width:1.0;stroke-dasharray:2.0,2.0;" x1="96.5" x2="340.5" y1="734.6113" y2="734.6113"/><text fill="#000000" font-family="sans-serif" font-size="13" lengthAdjust="spacing" textLength="222" x="108.5" y="729.8691">asks to enter a numberOfVacancies</text><polygon fill="#181818" points="329.5,759.9219,339.5,763.9219,329.5,767.9219,333.5,763.9219" style="stroke:#181818;stroke-width:1.0;"/><line style="stroke:#181818;stroke-width:1.0;" x1="91.5" x2="335.5" y1="763.9219" y2="763.9219"/><text fill="#000000" font-family="sans-serif" font-size="13" lengthAdjust="spacing" textLength="176" x="98.5" y="759.1797">enters number Of Vacancies</text><polygon fill="#181818" points="906.5,807.543,916.5,811.543,906.5,815.543,910.5,811.543" style="stroke:#181818;stroke-width:1.0;"/><line style="stroke:#181818;stroke-width:1.0;" x1="351.5" x2="912.5" y1="811.543" y2="811.543"/><text fill="#000000" font-family="sans-serif" font-size="13" lengthAdjust="spacing" textLength="548" x="358.5" y="806.8008">registerJobOpening(designation, contractType, jobMode, address, vacancies, customer)</text><path d="M933,776.9219 L933,831.9219 L1428,831.9219 L1428,786.9219 L1418,776.9219 L933,776.9219 " fill="#FEFFDD" style="stroke:#181818;stroke-width:0.5;"/><path d="M1418,776.9219 L1418,786.9219 L1428,786.9219 L1418,776.9219 " fill="#FEFFDD" style="stroke:#181818;stroke-width:0.5;"/><text fill="#000000" font-family="sans-serif" font-size="13" lengthAdjust="spacing" textLength="176" x="939" y="794.4902">Job Opening is created first.</text><text fill="#000000" font-family="sans-serif" font-size="13" lengthAdjust="spacing" textLength="474" x="939" y="809.8008">Then customer is updated because its number of Job Openings increments.</text><text fill="#000000" font-family="sans-serif" font-size="13" lengthAdjust="spacing" textLength="4" x="939" y="825.1113">&#160;</text><polygon fill="#181818" points="1167.5,855.1641,1177.5,859.1641,1167.5,863.1641,1171.5,859.1641" style="stroke:#181818;stroke-width:1.0;"/><line style="stroke:#181818;stroke-width:1.0;" x1="928.5" x2="1173.5" y1="859.1641" y2="859.1641"/><text fill="#000000" font-family="sans-serif" font-size="13" lengthAdjust="spacing" textLength="97" x="935.5" y="854.4219">save(Customer)</text><polygon fill="#181818" points="939.5,884.4746,929.5,888.4746,939.5,892.4746,935.5,888.4746" style="stroke:#181818;stroke-width:1.0;"/><line style="stroke:#181818;stroke-width:1.0;stroke-dasharray:2.0,2.0;" x1="933.5" x2="1183.5" y1="888.4746" y2="888.4746"/><text fill="#000000" font-family="sans-serif" font-size="13" lengthAdjust="spacing" textLength="101" x="945.5" y="883.7324">Customer saved</text><polygon fill="#181818" points="1330.5,913.7852,1340.5,917.7852,1330.5,921.7852,1334.5,917.7852" style="stroke:#181818;stroke-width:1.0;"/><line style="stroke:#181818;stroke-width:1.0;" x1="928.5" x2="1336.5" y1="917.7852" y2="917.7852"/><text fill="#000000" font-family="sans-serif" font-size="13" lengthAdjust="spacing" textLength="109" x="935.5" y="913.043">save(JobOpening)</text><polygon fill="#181818" points="939.5,943.0957,929.5,947.0957,939.5,951.0957,935.5,947.0957" style="stroke:#181818;stroke-width:1.0;"/><line style="stroke:#181818;stroke-width:1.0;stroke-dasharray:2.0,2.0;" x1="933.5" x2="1346.5" y1="947.0957" y2="947.0957"/><text fill="#000000" font-family="sans-serif" font-size="13" lengthAdjust="spacing" textLength="117" x="945.5" y="942.3535">Job Opening saved</text><polygon fill="#181818" points="362.5,957.0957,352.5,961.0957,362.5,965.0957,358.5,961.0957" style="stroke:#181818;stroke-width:1.0;"/><line style="stroke:#181818;stroke-width:1.0;" x1="356.5" x2="922.5" y1="961.0957" y2="961.0957"/><polygon fill="#181818" points="102.5,986.4063,92.5,990.4063,102.5,994.4063,98.5,990.4063" style="stroke:#181818;stroke-width:1.0;"/><line style="stroke:#181818;stroke-width:1.0;stroke-dasharray:2.0,2.0;" x1="96.5" x2="345.5" y1="990.4063" y2="990.4063"/><text fill="#000000" font-family="sans-serif" font-size="13" lengthAdjust="spacing" textLength="160" x="108.5" y="985.6641">Display success message</text><!--SRC=[bLLDZvim4BtxLunosahP_G4vLAfILKhLLQfqqxl10-iMREenQVFlEnWCn05jUq7WUNupy-O3cNlhOD-IjpMwPsbaYGuaWUmCef7EwrmtqdZOdB3KvD5zjjcnGQDDUJviEkpvy1PmRurtjghGXGlJfr3IoqmImYO6SSB6acRlrnxBnztH33dn9bWs1AWG7Bw-I8z37k49Z-yvLDY1mryjaYVmbj_xM4723vk1xNdd39nTxh1xcuNDFCms7J1h3vfTdC4ZGSnbTh6Z6Ov7ZW4-fdCB7uvdBXKkEHKXIhxGPx-33_Gpv4nOOUv16i0_NV9SitmGNoHIVGjGRWUZUZ2BCu6_MDk0h2hWyiiQMKQ2WftRtv2rHDfWVvEkxAK6rrP8GrY9U8KsAZR09sVhf2CNHLqMyR_8OZt4hORJyRAoYQwdlfz20oaaNHhfjJM9b5-TlMZLAN83kgkIJAe4UUUOhU2l3IQa5EipebuwqBzpSipFLgtJHlkRZ58fXqIhHD6-HiHT6ARGj7M6xbXybxaqkSQKiGVIW8DZ0HDoiRNStJPwcEc_lH5k6_FTndYtS8dqsx7ntotsex7yxNJvwWNxWi4PQ1hcL75ZEl9FukKLpSZLsTj61Nk6kMnvmsa_vcSBc94HQCDaDMj0Jq8WprRdLQpF0iaBFkp7k1TwVmG_fih5Qu54BKx8scOARYV5PuB5fHQnTrxdsjqvdZPyulfysAqCw-9W9qtuKLDJoIjGc-TSTAZvmQiYsGly9mYIw-8l]--></g></svg>