<?xml version="1.0" encoding="us-ascii" standalone="no"?><svg xmlns="http://www.w3.org/2000/svg" xmlns:xlink="http://www.w3.org/1999/xlink" contentStyleType="text/css" height="1036px" preserveAspectRatio="none" style="width:1189px;height:1036px;background:#FFFFFF;" version="1.1" viewBox="0 0 1189 1036" width="1189px" zoomAndPan="magnify"><defs/><g><text fill="#000000" font-family="sans-serif" font-size="14" font-weight="bold" lengthAdjust="spacing" textLength="273" x="457.25" y="30.1074">US 1017 - Uploading Interview Answers</text><rect fill="#FFFFFF" height="811.6055" style="stroke:#181818;stroke-width:1.0;" width="10" x="78.5" y="133.2422"/><rect fill="#FFFFFF" height="762.0234" style="stroke:#181818;stroke-width:1.0;" width="10" x="320.5" y="173.8242"/><rect fill="#FFFFFF" height="320.3281" style="stroke:#181818;stroke-width:1.0;" width="10" x="555.5" y="584.2285"/><rect fill="#FFFFFF" height="31.291" style="stroke:#181818;stroke-width:1.0;" width="10" x="732" y="615.5195"/><rect fill="#FFFFFF" height="14" style="stroke:#181818;stroke-width:1.0;" width="10" x="732" y="831.2656"/><rect fill="#FFFFFF" height="31.291" style="stroke:#181818;stroke-width:1.0;" width="10" x="829" y="678.1016"/><rect fill="#FFFFFF" height="14" style="stroke:#181818;stroke-width:1.0;" width="10" x="829" y="785.9746"/><rect fill="#FFFFFF" height="14" style="stroke:#181818;stroke-width:1.0;" width="10" x="934.5" y="740.6836"/><rect fill="#FFFFFF" height="14" style="stroke:#181818;stroke-width:1.0;" width="10" x="1092" y="876.5566"/><rect fill="none" height="122.4551" style="stroke:#000000;stroke-width:1.5;" width="585.5" x="10" y="232.4453"/><rect fill="none" height="122.4551" style="stroke:#000000;stroke-width:1.5;" width="602.5" x="10" y="368.9004"/><line style="stroke:#181818;stroke-width:0.5;stroke-dasharray:5.0,5.0;" x1="83" x2="83" y1="123.2422" y2="953.8477"/><line style="stroke:#181818;stroke-width:0.5;stroke-dasharray:5.0,5.0;" x1="325.5" x2="325.5" y1="123.2422" y2="953.8477"/><line style="stroke:#181818;stroke-width:0.5;stroke-dasharray:5.0,5.0;" x1="560.5" x2="560.5" y1="213.6348" y2="953.8477"/><line style="stroke:#181818;stroke-width:0.5;stroke-dasharray:5.0,5.0;" x1="736.5" x2="736.5" y1="123.2422" y2="953.8477"/><line style="stroke:#181818;stroke-width:0.5;stroke-dasharray:5.0,5.0;" x1="833.5" x2="833.5" y1="123.2422" y2="953.8477"/><line style="stroke:#181818;stroke-width:0.5;stroke-dasharray:5.0,5.0;" x1="939.5" x2="939.5" y1="123.2422" y2="953.8477"/><line style="stroke:#181818;stroke-width:0.5;stroke-dasharray:5.0,5.0;" x1="1096.5" x2="1096.5" y1="123.2422" y2="953.8477"/><text fill="#000000" font-family="sans-serif" font-size="14" lengthAdjust="spacing" textLength="121" x="20" y="119.7285">Customer Manager</text><ellipse cx="83.5" cy="53.1211" fill="#E2E2F0" rx="8" ry="8" style="stroke:#181818;stroke-width:0.5;"/><path d="M83.5,61.1211 L83.5,88.1211 M70.5,69.1211 L96.5,69.1211 M83.5,88.1211 L70.5,103.1211 M83.5,88.1211 L96.5,103.1211 " fill="none" style="stroke:#181818;stroke-width:0.5;"/><text fill="#000000" font-family="sans-serif" font-size="14" lengthAdjust="spacing" textLength="121" x="20" y="967.9551">Customer Manager</text><ellipse cx="83.5" cy="979.9688" fill="#E2E2F0" rx="8" ry="8" style="stroke:#181818;stroke-width:0.5;"/><path d="M83.5,987.9688 L83.5,1014.9688 M70.5,995.9688 L96.5,995.9688 M83.5,1014.9688 L70.5,1029.9688 M83.5,1014.9688 L96.5,1029.9688 " fill="none" style="stroke:#181818;stroke-width:0.5;"/><rect fill="#E2E2F0" height="32.6211" rx="2.5" ry="2.5" style="stroke:#181818;stroke-width:0.5;" width="178" x="236.5" y="89.6211"/><text fill="#000000" font-family="sans-serif" font-size="14" lengthAdjust="spacing" textLength="164" x="243.5" y="111.7285">UploadInterviewAnswersUI</text><rect fill="#E2E2F0" height="32.6211" rx="2.5" ry="2.5" style="stroke:#181818;stroke-width:0.5;" width="178" x="236.5" y="952.8477"/><text fill="#000000" font-family="sans-serif" font-size="14" lengthAdjust="spacing" textLength="164" x="243.5" y="974.9551">UploadInterviewAnswersUI</text><rect fill="#E2E2F0" height="32.6211" rx="2.5" ry="2.5" style="stroke:#181818;stroke-width:0.5;" width="228" x="446.5" y="952.8477"/><text fill="#000000" font-family="sans-serif" font-size="14" lengthAdjust="spacing" textLength="214" x="453.5" y="974.9551">UploadInterviewAnswersController</text><rect fill="#E2E2F0" height="32.6211" rx="2.5" ry="2.5" style="stroke:#181818;stroke-width:0.5;" width="105" x="684.5" y="89.6211"/><text fill="#000000" font-family="sans-serif" font-size="14" lengthAdjust="spacing" textLength="91" x="691.5" y="111.7285">JobApplication</text><rect fill="#E2E2F0" height="32.6211" rx="2.5" ry="2.5" style="stroke:#181818;stroke-width:0.5;" width="105" x="684.5" y="952.8477"/><text fill="#000000" font-family="sans-serif" font-size="14" lengthAdjust="spacing" textLength="91" x="691.5" y="974.9551">JobApplication</text><rect fill="#E2E2F0" height="32.6211" rx="2.5" ry="2.5" style="stroke:#181818;stroke-width:0.5;" width="69" x="799.5" y="89.6211"/><text fill="#000000" font-family="sans-serif" font-size="14" lengthAdjust="spacing" textLength="55" x="806.5" y="111.7285">Interview</text><rect fill="#E2E2F0" height="32.6211" rx="2.5" ry="2.5" style="stroke:#181818;stroke-width:0.5;" width="69" x="799.5" y="952.8477"/><text fill="#000000" font-family="sans-serif" font-size="14" lengthAdjust="spacing" textLength="55" x="806.5" y="974.9551">Interview</text><rect fill="#E2E2F0" height="32.6211" rx="2.5" ry="2.5" style="stroke:#181818;stroke-width:0.5;" width="122" x="878.5" y="89.6211"/><text fill="#000000" font-family="sans-serif" font-size="14" lengthAdjust="spacing" textLength="108" x="885.5" y="111.7285">InterviewAnswers</text><rect fill="#E2E2F0" height="32.6211" rx="2.5" ry="2.5" style="stroke:#181818;stroke-width:0.5;" width="122" x="878.5" y="952.8477"/><text fill="#000000" font-family="sans-serif" font-size="14" lengthAdjust="spacing" textLength="108" x="885.5" y="974.9551">InterviewAnswers</text><rect fill="#E2E2F0" height="32.6211" rx="2.5" ry="2.5" style="stroke:#181818;stroke-width:0.5;" width="173" x="1010.5" y="89.6211"/><text fill="#000000" font-family="sans-serif" font-size="14" lengthAdjust="spacing" textLength="159" x="1017.5" y="111.7285">JobApplicationRepository</text><rect fill="#E2E2F0" height="32.6211" rx="2.5" ry="2.5" style="stroke:#181818;stroke-width:0.5;" width="173" x="1010.5" y="952.8477"/><text fill="#000000" font-family="sans-serif" font-size="14" lengthAdjust="spacing" textLength="159" x="1017.5" y="974.9551">JobApplicationRepository</text><rect fill="#FFFFFF" height="811.6055" style="stroke:#181818;stroke-width:1.0;" width="10" x="78.5" y="133.2422"/><rect fill="#FFFFFF" height="762.0234" style="stroke:#181818;stroke-width:1.0;" width="10" x="320.5" y="173.8242"/><rect fill="#FFFFFF" height="320.3281" style="stroke:#181818;stroke-width:1.0;" width="10" x="555.5" y="584.2285"/><rect fill="#FFFFFF" height="31.291" style="stroke:#181818;stroke-width:1.0;" width="10" x="732" y="615.5195"/><rect fill="#FFFFFF" height="14" style="stroke:#181818;stroke-width:1.0;" width="10" x="732" y="831.2656"/><rect fill="#FFFFFF" height="31.291" style="stroke:#181818;stroke-width:1.0;" width="10" x="829" y="678.1016"/><rect fill="#FFFFFF" height="14" style="stroke:#181818;stroke-width:1.0;" width="10" x="829" y="785.9746"/><rect fill="#FFFFFF" height="14" style="stroke:#181818;stroke-width:1.0;" width="10" x="934.5" y="740.6836"/><rect fill="#FFFFFF" height="14" style="stroke:#181818;stroke-width:1.0;" width="10" x="1092" y="876.5566"/><polygon fill="#181818" points="308.5,169.8242,318.5,173.8242,308.5,177.8242,312.5,173.8242" style="stroke:#181818;stroke-width:1.0;"/><line style="stroke:#181818;stroke-width:1.0;" x1="88.5" x2="314.5" y1="173.8242" y2="173.8242"/><text fill="#000000" font-family="sans-serif" font-size="13" lengthAdjust="spacing" textLength="213" x="95.5" y="151.2705">requests to upload a text file with the</text><text fill="#000000" font-family="sans-serif" font-size="13" lengthAdjust="spacing" textLength="209" x="99.5" y="168.5615">candidate responses for an interview</text><polygon fill="#181818" points="434.5,201.1152,444.5,205.1152,434.5,209.1152,438.5,205.1152" style="stroke:#181818;stroke-width:1.0;"/><line style="stroke:#181818;stroke-width:1.0;" x1="330.5" x2="440.5" y1="205.1152" y2="205.1152"/><text fill="#000000" font-family="sans-serif" font-size="13" lengthAdjust="spacing" textLength="36" x="337.5" y="199.8525">create</text><rect fill="#E2E2F0" height="32.6211" rx="2.5" ry="2.5" style="stroke:#181818;stroke-width:0.5;" width="228" x="446.5" y="181.8242"/><text fill="#000000" font-family="sans-serif" font-size="14" lengthAdjust="spacing" textLength="214" x="453.5" y="203.9316">UploadInterviewAnswersController</text><path d="M10,232.4453 L260,232.4453 L260,241.7363 L250,251.7363 L10,251.7363 L10,232.4453 " fill="#EEEEEE" style="stroke:#000000;stroke-width:1.5;"/><rect fill="none" height="122.4551" style="stroke:#000000;stroke-width:1.5;" width="585.5" x="10" y="232.4453"/><text fill="#000000" font-family="sans-serif" font-size="13" font-weight="bold" lengthAdjust="spacing" textLength="205" x="25" y="247.4736">do while(!verificationSuccessful)</text><polygon fill="#181818" points="99.5,271.0273,89.5,275.0273,99.5,279.0273,95.5,275.0273" style="stroke:#181818;stroke-width:1.0;"/><line style="stroke:#181818;stroke-width:1.0;stroke-dasharray:2.0,2.0;" x1="93.5" x2="319.5" y1="275.0273" y2="275.0273"/><text fill="#000000" font-family="sans-serif" font-size="13" lengthAdjust="spacing" textLength="163" x="105.5" y="269.7646">asks to select a job opening</text><polygon fill="#181818" points="308.5,322.6094,318.5,326.6094,308.5,330.6094,312.5,326.6094" style="stroke:#181818;stroke-width:1.0;"/><line style="stroke:#181818;stroke-width:1.0;" x1="88.5" x2="314.5" y1="326.6094" y2="326.6094"/><text fill="#000000" font-family="sans-serif" font-size="13" lengthAdjust="spacing" textLength="123" x="95.5" y="321.3467">selects a job opening</text><path d="M335,288.0273 L335,349.0273 L585,349.0273 L585,298.0273 L575,288.0273 L335,288.0273 " fill="#FEFFDD" style="stroke:#181818;stroke-width:0.5;"/><path d="M575,288.0273 L575,298.0273 L585,298.0273 L575,288.0273 " fill="#FEFFDD" style="stroke:#181818;stroke-width:0.5;"/><text fill="#000000" font-family="sans-serif" font-size="13" lengthAdjust="spacing" textLength="4" x="341" y="307.0557">&#160;</text><text fill="#000000" font-family="sans-serif" font-size="13" lengthAdjust="spacing" textLength="229" x="341" y="324.3467">loops until a valid job opening is chosen</text><text fill="#000000" font-family="sans-serif" font-size="13" lengthAdjust="spacing" textLength="4" x="341" y="341.6377">&#160;</text><path d="M10,368.9004 L260,368.9004 L260,378.1914 L250,388.1914 L10,388.1914 L10,368.9004 " fill="#EEEEEE" style="stroke:#000000;stroke-width:1.5;"/><rect fill="none" height="122.4551" style="stroke:#000000;stroke-width:1.5;" width="602.5" x="10" y="368.9004"/><text fill="#000000" font-family="sans-serif" font-size="13" font-weight="bold" lengthAdjust="spacing" textLength="205" x="25" y="383.9287">do while(!verificationSuccessful)</text><polygon fill="#181818" points="99.5,407.4824,89.5,411.4824,99.5,415.4824,95.5,411.4824" style="stroke:#181818;stroke-width:1.0;"/><line style="stroke:#181818;stroke-width:1.0;stroke-dasharray:2.0,2.0;" x1="93.5" x2="319.5" y1="411.4824" y2="411.4824"/><text fill="#000000" font-family="sans-serif" font-size="13" lengthAdjust="spacing" textLength="180" x="105.5" y="406.2197">asks to select a job application</text><polygon fill="#181818" points="308.5,459.0645,318.5,463.0645,308.5,467.0645,312.5,463.0645" style="stroke:#181818;stroke-width:1.0;"/><line style="stroke:#181818;stroke-width:1.0;" x1="88.5" x2="314.5" y1="463.0645" y2="463.0645"/><text fill="#000000" font-family="sans-serif" font-size="13" lengthAdjust="spacing" textLength="108" x="95.5" y="457.8018">selects application</text><path d="M335,424.4824 L335,485.4824 L602,485.4824 L602,434.4824 L592,424.4824 L335,424.4824 " fill="#FEFFDD" style="stroke:#181818;stroke-width:0.5;"/><path d="M592,424.4824 L592,434.4824 L602,434.4824 L592,424.4824 " fill="#FEFFDD" style="stroke:#181818;stroke-width:0.5;"/><text fill="#000000" font-family="sans-serif" font-size="13" lengthAdjust="spacing" textLength="4" x="341" y="443.5107">&#160;</text><text fill="#000000" font-family="sans-serif" font-size="13" lengthAdjust="spacing" textLength="246" x="341" y="460.8018">loops until a valid job application is chosen</text><text fill="#000000" font-family="sans-serif" font-size="13" lengthAdjust="spacing" textLength="4" x="341" y="478.0928">&#160;</text><polygon fill="#181818" points="99.5,517.6465,89.5,521.6465,99.5,525.6465,95.5,521.6465" style="stroke:#181818;stroke-width:1.0;"/><line style="stroke:#181818;stroke-width:1.0;stroke-dasharray:2.0,2.0;" x1="93.5" x2="319.5" y1="521.6465" y2="521.6465"/><text fill="#000000" font-family="sans-serif" font-size="13" lengthAdjust="spacing" textLength="190" x="105.5" y="516.3838">asks to select a file for uploading</text><polygon fill="#181818" points="308.5,548.9375,318.5,552.9375,308.5,556.9375,312.5,552.9375" style="stroke:#181818;stroke-width:1.0;"/><line style="stroke:#181818;stroke-width:1.0;" x1="88.5" x2="314.5" y1="552.9375" y2="552.9375"/><text fill="#000000" font-family="sans-serif" font-size="13" lengthAdjust="spacing" textLength="73" x="95.5" y="547.6748">selects a file</text><polygon fill="#181818" points="543.5,580.2285,553.5,584.2285,543.5,588.2285,547.5,584.2285" style="stroke:#181818;stroke-width:1.0;"/><line style="stroke:#181818;stroke-width:1.0;" x1="330.5" x2="549.5" y1="584.2285" y2="584.2285"/><text fill="#000000" font-family="sans-serif" font-size="13" lengthAdjust="spacing" textLength="206" x="337.5" y="578.9658">uploadFile(fileName, jobApplication)</text><polygon fill="#181818" points="720,611.5195,730,615.5195,720,619.5195,724,615.5195" style="stroke:#181818;stroke-width:1.0;"/><line style="stroke:#181818;stroke-width:1.0;" x1="565.5" x2="726" y1="615.5195" y2="615.5195"/><text fill="#000000" font-family="sans-serif" font-size="13" lengthAdjust="spacing" textLength="75" x="572.5" y="610.2568">getInterview()</text><polygon fill="#181818" points="576.5,642.8105,566.5,646.8105,576.5,650.8105,572.5,646.8105" style="stroke:#181818;stroke-width:1.0;"/><line style="stroke:#181818;stroke-width:1.0;stroke-dasharray:2.0,2.0;" x1="570.5" x2="736" y1="646.8105" y2="646.8105"/><text fill="#000000" font-family="sans-serif" font-size="13" lengthAdjust="spacing" textLength="49" x="582.5" y="641.5479">interview</text><polygon fill="#181818" points="817,674.1016,827,678.1016,817,682.1016,821,678.1016" style="stroke:#181818;stroke-width:1.0;"/><line style="stroke:#181818;stroke-width:1.0;" x1="565.5" x2="823" y1="678.1016" y2="678.1016"/><text fill="#000000" font-family="sans-serif" font-size="13" lengthAdjust="spacing" textLength="125" x="572.5" y="672.8389">getInterviewAnswers()</text><polygon fill="#181818" points="576.5,705.3926,566.5,709.3926,576.5,713.3926,572.5,709.3926" style="stroke:#181818;stroke-width:1.0;"/><line style="stroke:#181818;stroke-width:1.0;stroke-dasharray:2.0,2.0;" x1="570.5" x2="833" y1="709.3926" y2="709.3926"/><text fill="#000000" font-family="sans-serif" font-size="13" lengthAdjust="spacing" textLength="99" x="582.5" y="704.1299">interviewAnswers</text><polygon fill="#181818" points="922.5,736.6836,932.5,740.6836,922.5,744.6836,926.5,740.6836" style="stroke:#181818;stroke-width:1.0;"/><line style="stroke:#181818;stroke-width:1.0;" x1="565.5" x2="928.5" y1="740.6836" y2="740.6836"/><text fill="#000000" font-family="sans-serif" font-size="13" lengthAdjust="spacing" textLength="168" x="572.5" y="735.4209">setInterviewAnswers(content)</text><polygon fill="#181818" points="576.5,750.6836,566.5,754.6836,576.5,758.6836,572.5,754.6836" style="stroke:#181818;stroke-width:1.0;"/><line style="stroke:#181818;stroke-width:1.0;stroke-dasharray:2.0,2.0;" x1="570.5" x2="938.5" y1="754.6836" y2="754.6836"/><polygon fill="#181818" points="817,781.9746,827,785.9746,817,789.9746,821,785.9746" style="stroke:#181818;stroke-width:1.0;"/><line style="stroke:#181818;stroke-width:1.0;" x1="565.5" x2="823" y1="785.9746" y2="785.9746"/><text fill="#000000" font-family="sans-serif" font-size="13" lengthAdjust="spacing" textLength="224" x="572.5" y="780.7119">setInterviewAnswers(interviewAnswers)</text><polygon fill="#181818" points="576.5,795.9746,566.5,799.9746,576.5,803.9746,572.5,799.9746" style="stroke:#181818;stroke-width:1.0;"/><line style="stroke:#181818;stroke-width:1.0;stroke-dasharray:2.0,2.0;" x1="570.5" x2="833" y1="799.9746" y2="799.9746"/><polygon fill="#181818" points="720,827.2656,730,831.2656,720,835.2656,724,831.2656" style="stroke:#181818;stroke-width:1.0;"/><line style="stroke:#181818;stroke-width:1.0;" x1="565.5" x2="726" y1="831.2656" y2="831.2656"/><text fill="#000000" font-family="sans-serif" font-size="13" lengthAdjust="spacing" textLength="124" x="572.5" y="826.0029">setInterview(interview)</text><polygon fill="#181818" points="576.5,841.2656,566.5,845.2656,576.5,849.2656,572.5,845.2656" style="stroke:#181818;stroke-width:1.0;"/><line style="stroke:#181818;stroke-width:1.0;stroke-dasharray:2.0,2.0;" x1="570.5" x2="736" y1="845.2656" y2="845.2656"/><polygon fill="#181818" points="1080,872.5566,1090,876.5566,1080,880.5566,1084,876.5566" style="stroke:#181818;stroke-width:1.0;"/><line style="stroke:#181818;stroke-width:1.0;" x1="565.5" x2="1086" y1="876.5566" y2="876.5566"/><text fill="#000000" font-family="sans-serif" font-size="13" lengthAdjust="spacing" textLength="115" x="572.5" y="871.2939">save(jobApplication)</text><polygon fill="#181818" points="576.5,886.5566,566.5,890.5566,576.5,894.5566,572.5,890.5566" style="stroke:#181818;stroke-width:1.0;"/><line style="stroke:#181818;stroke-width:1.0;stroke-dasharray:2.0,2.0;" x1="570.5" x2="1096" y1="890.5566" y2="890.5566"/><polygon fill="#181818" points="341.5,900.5566,331.5,904.5566,341.5,908.5566,337.5,904.5566" style="stroke:#181818;stroke-width:1.0;"/><line style="stroke:#181818;stroke-width:1.0;stroke-dasharray:2.0,2.0;" x1="335.5" x2="559.5" y1="904.5566" y2="904.5566"/><polygon fill="#181818" points="99.5,931.8477,89.5,935.8477,99.5,939.8477,95.5,935.8477" style="stroke:#181818;stroke-width:1.0;"/><line style="stroke:#181818;stroke-width:1.0;stroke-dasharray:2.0,2.0;" x1="93.5" x2="324.5" y1="935.8477" y2="935.8477"/><text fill="#000000" font-family="sans-serif" font-size="13" lengthAdjust="spacing" textLength="113" x="105.5" y="930.585">uploads the text file</text><!--SRC=[hPN1Rjim38RlUWgkfnHOWFKqe8S1HO02AReTqkMsYoOpjZPNqYJQsTv-bEtOSkoanh2R3FFd_v4cPQd8UhZPL87iAthuB8tCqT-03AUpSDAJLjf9Gx1tfPNPrX3wMkFnmOGZ-h3VnlZzTa7enXhojYpPYoMRhxlddH2agKJOly3TXxkFiEwaskJGow7J2o4LwLeIzdoYEy3w4pF0FNZyLM6W06IXQbA11CBV10VDFaTD1L21tmmeQJATnMGUWxCcO803DqGQq2Vdn94h5CfZF7RaxCUkpGCRj- -4oBsj76GMZWKRhjxLwFL1AqdQcfTAAGpXK9MthPprfmBkkIS_6-o09IfYx1_sErY7XfinBRID2kTXniQ2T5wG4AMrBa1bI9SSLijIPsamw02gi06D46WoYDBczD-BaCwLdVfA8MdGaZ8ImPLItYPi1YD- -UeqUjUw7QFFltqhV8ojYg-_o5Ty7n4V1iBRP9Iw-MdLdEPf5CdvSgH- -5UfSXmfn9bodJ0bCvpXnGGzmx1iO_jkzKOKso7r89lrxXStGKZKK_TEq7Hy2g7u0a53ioozrIHNJpQFqGjdUp67SLxUyjwysOZ9AAJ-W_6_pCIoEHY_sA6pGVDluaz4aJMkBa_r9UKvKP9p2LkQgADibd8aIMxaqQwtYndYZJ_y14PAJlGN]--></g></svg>