<?xml version="1.0" encoding="us-ascii" standalone="no"?><svg xmlns="http://www.w3.org/2000/svg" xmlns:xlink="http://www.w3.org/1999/xlink" contentStyleType="text/css" height="1025.6px" preserveAspectRatio="none" style="width:1425px;height:1025px;background:#FFFFFF;" version="1.1" viewBox="0 0 1425 1025" width="1425.6px" zoomAndPan="magnify"><defs/><g><text fill="#000000" font-family="sans-serif" font-size="11.2" font-weight="bold" lengthAdjust="spacing" textLength="318.4" x="552.8" y="24.0859">US 1006b - Displaying a candidate's data and applications</text><rect fill="#FFFFFF" height="845.8656" style="stroke:#181818;stroke-width:0.8000000000000002;" width="8" x="50.8" y="106.5938"/><rect fill="#FFFFFF" height="820.0328" style="stroke:#181818;stroke-width:0.8000000000000002;" width="8" x="259.6" y="125.2266"/><rect fill="#FFFFFF" height="515.0797" style="stroke:#181818;stroke-width:0.8000000000000002;" width="8" x="442" y="220.0531"/><rect fill="#FFFFFF" height="25.0328" style="stroke:#181818;stroke-width:0.8000000000000002;" width="8" x="442" y="760.1656"/><rect fill="#FFFFFF" height="109.9953" style="stroke:#181818;stroke-width:0.8000000000000002;" width="8" x="663.6" y="279.9828"/><rect fill="#FFFFFF" height="109.9953" style="stroke:#181818;stroke-width:0.8000000000000002;" width="8" x="663.6" y="575.0719"/><rect fill="#FFFFFF" height="25.0328" style="stroke:#181818;stroke-width:0.8000000000000002;" width="8" x="839.6" y="339.9125"/><rect fill="#FFFFFF" height="25.0328" style="stroke:#181818;stroke-width:0.8000000000000002;" width="8" x="839.6" y="635.0016"/><rect fill="#FFFFFF" height="109.9953" style="stroke:#181818;stroke-width:0.8000000000000002;" width="8" x="1130.8" y="810.2313"/><rect fill="#FFFFFF" height="25.0328" style="stroke:#181818;stroke-width:0.8000000000000002;" width="8" x="1347.6" y="870.1609"/><line style="stroke:#181818;stroke-width:0.4000000000000001;stroke-dasharray:5.0,5.0;" x1="54.4" x2="54.4" y1="98.5938" y2="959.6594"/><line style="stroke:#181818;stroke-width:0.4000000000000001;stroke-dasharray:5.0,5.0;" x1="263.2" x2="263.2" y1="98.5938" y2="959.6594"/><line style="stroke:#181818;stroke-width:0.4000000000000001;stroke-dasharray:5.0,5.0;" x1="445.6" x2="445.6" y1="157.075" y2="959.6594"/><line style="stroke:#181818;stroke-width:0.4000000000000001;stroke-dasharray:5.0,5.0;" x1="667.2" x2="667.2" y1="251.9016" y2="959.6594"/><line style="stroke:#181818;stroke-width:0.4000000000000001;stroke-dasharray:5.0,5.0;" x1="843.2" x2="843.2" y1="311.8313" y2="959.6594"/><line style="stroke:#181818;stroke-width:0.4000000000000001;stroke-dasharray:5.0,5.0;" x1="941.6" x2="941.6" y1="546.9906" y2="959.6594"/><line style="stroke:#181818;stroke-width:0.4000000000000001;stroke-dasharray:5.0,5.0;" x1="1001.6" x2="1001.6" y1="606.9203" y2="959.6594"/><line style="stroke:#181818;stroke-width:0.4000000000000001;stroke-dasharray:5.0,5.0;" x1="1134.4" x2="1134.4" y1="191.9719" y2="959.6594"/><line style="stroke:#181818;stroke-width:0.4000000000000001;stroke-dasharray:5.0,5.0;" x1="1351.2" x2="1351.2" y1="842.0797" y2="959.6594"/><text fill="#000000" font-family="sans-serif" font-size="11.2" lengthAdjust="spacing" textLength="96.8" x="4" y="95.7828">Customer Manager</text><ellipse cx="54.8" cy="42.4969" fill="#E2E2F0" rx="6.4" ry="6.4" style="stroke:#181818;stroke-width:0.4000000000000001;"/><path d="M54.8,48.8969 L54.8,70.4969 M44.4,55.2969 L65.2,55.2969 M54.8,70.4969 L44.4,82.4969 M54.8,70.4969 L65.2,82.4969 " fill="none" style="stroke:#181818;stroke-width:0.4000000000000001;"/><text fill="#000000" font-family="sans-serif" font-size="11.2" lengthAdjust="spacing" textLength="96.8" x="4" y="970.9453">Customer Manager</text><ellipse cx="54.8" cy="980.5563" fill="#E2E2F0" rx="6.4" ry="6.4" style="stroke:#181818;stroke-width:0.4000000000000001;"/><path d="M54.8,986.9563 L54.8,1008.5563 M44.4,993.3563 L65.2,993.3563 M54.8,1008.5563 L44.4,1020.5563 M54.8,1008.5563 L65.2,1020.5563 " fill="none" style="stroke:#181818;stroke-width:0.4000000000000001;"/><rect fill="#E2E2F0" height="26.0969" rx="2" ry="2" style="stroke:#181818;stroke-width:0.4000000000000001;" width="170.4" x="178.4" y="71.6969"/><text fill="#000000" font-family="sans-serif" font-size="11.2" lengthAdjust="spacing" textLength="159.2" x="184" y="89.3828">DisplayCandidateApplicationsUI</text><rect fill="#E2E2F0" height="26.0969" rx="2" ry="2" style="stroke:#181818;stroke-width:0.4000000000000001;" width="170.4" x="178.4" y="958.8594"/><text fill="#000000" font-family="sans-serif" font-size="11.2" lengthAdjust="spacing" textLength="159.2" x="184" y="976.5453">DisplayCandidateApplicationsUI</text><rect fill="#E2E2F0" height="26.0969" rx="2" ry="2" style="stroke:#181818;stroke-width:0.4000000000000001;" width="178.4" x="356.8" y="958.8594"/><text fill="#000000" font-family="sans-serif" font-size="11.2" lengthAdjust="spacing" textLength="167.2" x="362.4" y="976.5453">DisplayCandidatePersonalDataUI</text><rect fill="#E2E2F0" height="26.0969" rx="2" ry="2" style="stroke:#181818;stroke-width:0.4000000000000001;" width="218.4" x="558.4" y="958.8594"/><text fill="#000000" font-family="sans-serif" font-size="11.2" lengthAdjust="spacing" textLength="207.2" x="564" y="976.5453">DisplayCandidatePersonalDataController</text><rect fill="#E2E2F0" height="26.0969" rx="2" ry="2" style="stroke:#181818;stroke-width:0.4000000000000001;" width="117.6" x="784.8" y="958.8594"/><text fill="#000000" font-family="sans-serif" font-size="11.2" lengthAdjust="spacing" textLength="106.4" x="790.4" y="976.5453">CandidateRepository</text><rect fill="#E2E2F0" height="26.0969" rx="2" ry="2" style="stroke:#181818;stroke-width:0.4000000000000001;" width="63.2" x="910.4" y="958.8594"/><text fill="#000000" font-family="sans-serif" font-size="11.2" lengthAdjust="spacing" textLength="52" x="916" y="976.5453">Candidate</text><rect fill="#E2E2F0" height="26.0969" rx="2" ry="2" style="stroke:#181818;stroke-width:0.4000000000000001;" width="40" x="981.6" y="958.8594"/><text fill="#000000" font-family="sans-serif" font-size="11.2" lengthAdjust="spacing" textLength="28.8" x="987.2" y="976.5453">Name</text><rect fill="#E2E2F0" height="26.0969" rx="2" ry="2" style="stroke:#181818;stroke-width:0.4000000000000001;" width="210.4" x="1029.6" y="958.8594"/><text fill="#000000" font-family="sans-serif" font-size="11.2" lengthAdjust="spacing" textLength="199.2" x="1035.2" y="976.5453">DisplayCandidateApplicationsController</text><rect fill="#E2E2F0" height="26.0969" rx="2" ry="2" style="stroke:#181818;stroke-width:0.4000000000000001;" width="138.4" x="1282.4" y="958.8594"/><text fill="#000000" font-family="sans-serif" font-size="11.2" lengthAdjust="spacing" textLength="127.2" x="1288" y="976.5453">JobApplicationRepository</text><rect fill="#FFFFFF" height="845.8656" style="stroke:#181818;stroke-width:0.8000000000000002;" width="8" x="50.8" y="106.5938"/><rect fill="#FFFFFF" height="820.0328" style="stroke:#181818;stroke-width:0.8000000000000002;" width="8" x="259.6" y="125.2266"/><rect fill="#FFFFFF" height="515.0797" style="stroke:#181818;stroke-width:0.8000000000000002;" width="8" x="442" y="220.0531"/><rect fill="#FFFFFF" height="25.0328" style="stroke:#181818;stroke-width:0.8000000000000002;" width="8" x="442" y="760.1656"/><rect fill="#FFFFFF" height="109.9953" style="stroke:#181818;stroke-width:0.8000000000000002;" width="8" x="663.6" y="279.9828"/><rect fill="#FFFFFF" height="109.9953" style="stroke:#181818;stroke-width:0.8000000000000002;" width="8" x="663.6" y="575.0719"/><rect fill="#FFFFFF" height="25.0328" style="stroke:#181818;stroke-width:0.8000000000000002;" width="8" x="839.6" y="339.9125"/><rect fill="#FFFFFF" height="25.0328" style="stroke:#181818;stroke-width:0.8000000000000002;" width="8" x="839.6" y="635.0016"/><rect fill="#FFFFFF" height="109.9953" style="stroke:#181818;stroke-width:0.8000000000000002;" width="8" x="1130.8" y="810.2313"/><rect fill="#FFFFFF" height="25.0328" style="stroke:#181818;stroke-width:0.8000000000000002;" width="8" x="1347.6" y="870.1609"/><polygon fill="#181818" points="250,122.0266,258,125.2266,250,128.4266,253.2,125.2266" style="stroke:#181818;stroke-width:0.8000000000000002;"/><line style="stroke:#181818;stroke-width:0.8000000000000002;" x1="58.8" x2="254.8" y1="125.2266" y2="125.2266"/><text fill="#000000" font-family="sans-serif" font-size="10.4" lengthAdjust="spacing" textLength="185.6" x="64.4" y="121.0164">requests to display a candidate's details</text><polygon fill="#181818" points="347.2,147.0594,355.2,150.2594,347.2,153.4594,350.4,150.2594" style="stroke:#181818;stroke-width:0.8000000000000002;"/><line style="stroke:#181818;stroke-width:0.8000000000000002;" x1="267.6" x2="352" y1="150.2594" y2="150.2594"/><text fill="#000000" font-family="sans-serif" font-size="10.4" lengthAdjust="spacing" textLength="28.8" x="273.2" y="146.0492">create</text><rect fill="#E2E2F0" height="26.0969" rx="2" ry="2" style="stroke:#181818;stroke-width:0.4000000000000001;" width="178.4" x="356.8" y="131.6266"/><text fill="#000000" font-family="sans-serif" font-size="11.2" lengthAdjust="spacing" textLength="167.2" x="362.4" y="149.3125">DisplayCandidatePersonalDataUI</text><polygon fill="#181818" points="1020,181.9563,1028,185.1563,1020,188.3563,1023.2,185.1563" style="stroke:#181818;stroke-width:0.8000000000000002;"/><line style="stroke:#181818;stroke-width:0.8000000000000002;" x1="267.6" x2="1024.8" y1="185.1563" y2="185.1563"/><text fill="#000000" font-family="sans-serif" font-size="10.4" lengthAdjust="spacing" textLength="28.8" x="273.2" y="180.9461">create</text><rect fill="#E2E2F0" height="26.0969" rx="2" ry="2" style="stroke:#181818;stroke-width:0.4000000000000001;" width="210.4" x="1029.6" y="166.5234"/><text fill="#000000" font-family="sans-serif" font-size="11.2" lengthAdjust="spacing" textLength="199.2" x="1035.2" y="184.2094">DisplayCandidateApplicationsController</text><polygon fill="#181818" points="432.4,216.8531,440.4,220.0531,432.4,223.2531,435.6,220.0531" style="stroke:#181818;stroke-width:0.8000000000000002;"/><line style="stroke:#181818;stroke-width:0.8000000000000002;" x1="267.6" x2="437.2" y1="220.0531" y2="220.0531"/><text fill="#000000" font-family="sans-serif" font-size="10.4" lengthAdjust="spacing" textLength="43.2" x="273.2" y="215.843">doShow()</text><polygon fill="#181818" points="548.8,241.8859,556.8,245.0859,548.8,248.2859,552,245.0859" style="stroke:#181818;stroke-width:0.8000000000000002;"/><line style="stroke:#181818;stroke-width:0.8000000000000002;" x1="450" x2="553.6" y1="245.0859" y2="245.0859"/><text fill="#000000" font-family="sans-serif" font-size="10.4" lengthAdjust="spacing" textLength="28.8" x="455.6" y="240.8758">create</text><rect fill="#E2E2F0" height="26.0969" rx="2" ry="2" style="stroke:#181818;stroke-width:0.4000000000000001;" width="218.4" x="558.4" y="226.4531"/><text fill="#000000" font-family="sans-serif" font-size="11.2" lengthAdjust="spacing" textLength="207.2" x="564" y="244.1391">DisplayCandidatePersonalDataController</text><polygon fill="#181818" points="654,276.7828,662,279.9828,654,283.1828,657.2,279.9828" style="stroke:#181818;stroke-width:0.8000000000000002;"/><line style="stroke:#181818;stroke-width:0.8000000000000002;" x1="450" x2="658.8" y1="279.9828" y2="279.9828"/><text fill="#000000" font-family="sans-serif" font-size="10.4" lengthAdjust="spacing" textLength="72.8" x="455.6" y="275.7727">getCandidates()</text><polygon fill="#181818" points="775.2,301.8156,783.2,305.0156,775.2,308.2156,778.4,305.0156" style="stroke:#181818;stroke-width:0.8000000000000002;"/><line style="stroke:#181818;stroke-width:0.8000000000000002;" x1="671.6" x2="780" y1="305.0156" y2="305.0156"/><text fill="#000000" font-family="sans-serif" font-size="10.4" lengthAdjust="spacing" textLength="28.8" x="677.2" y="300.8055">create</text><rect fill="#E2E2F0" height="26.0969" rx="2" ry="2" style="stroke:#181818;stroke-width:0.4000000000000001;" width="117.6" x="784.8" y="286.3828"/><text fill="#000000" font-family="sans-serif" font-size="11.2" lengthAdjust="spacing" textLength="106.4" x="790.4" y="304.0688">CandidateRepository</text><polygon fill="#181818" points="830,336.7125,838,339.9125,830,343.1125,833.2,339.9125" style="stroke:#181818;stroke-width:0.8000000000000002;"/><line style="stroke:#181818;stroke-width:0.8000000000000002;" x1="671.6" x2="834.8" y1="339.9125" y2="339.9125"/><text fill="#000000" font-family="sans-serif" font-size="10.4" lengthAdjust="spacing" textLength="34.4" x="677.2" y="335.7023">findAll()</text><polygon fill="#181818" points="680.4,361.7453,672.4,364.9453,680.4,368.1453,677.2,364.9453" style="stroke:#181818;stroke-width:0.8000000000000002;"/><line style="stroke:#181818;stroke-width:0.8000000000000002;stroke-dasharray:2.0,2.0;" x1="675.6" x2="842.8" y1="364.9453" y2="364.9453"/><text fill="#000000" font-family="sans-serif" font-size="10.4" lengthAdjust="spacing" textLength="50.4" x="685.2" y="360.7352">candidates</text><polygon fill="#181818" points="458.8,386.7781,450.8,389.9781,458.8,393.1781,455.6,389.9781" style="stroke:#181818;stroke-width:0.8000000000000002;"/><line style="stroke:#181818;stroke-width:0.8000000000000002;stroke-dasharray:2.0,2.0;" x1="454" x2="666.8" y1="389.9781" y2="389.9781"/><text fill="#000000" font-family="sans-serif" font-size="10.4" lengthAdjust="spacing" textLength="50.4" x="463.6" y="385.768">candidates</text><polygon fill="#181818" points="67.6,411.8109,59.6,415.0109,67.6,418.2109,64.4,415.0109" style="stroke:#181818;stroke-width:0.8000000000000002;"/><line style="stroke:#181818;stroke-width:0.8000000000000002;stroke-dasharray:2.0,2.0;" x1="62.8" x2="441.2" y1="415.0109" y2="415.0109"/><text fill="#000000" font-family="sans-serif" font-size="10.4" lengthAdjust="spacing" textLength="94.4" x="72.4" y="410.8008">shows candidate list</text><polygon fill="#181818" points="67.6,436.8438,59.6,440.0438,67.6,443.2438,64.4,440.0438" style="stroke:#181818;stroke-width:0.8000000000000002;"/><line style="stroke:#181818;stroke-width:0.8000000000000002;stroke-dasharray:2.0,2.0;" x1="62.8" x2="441.2" y1="440.0438" y2="440.0438"/><text fill="#000000" font-family="sans-serif" font-size="10.4" lengthAdjust="spacing" textLength="179.2" x="72.4" y="435.8336">asks to type the candidate's first name</text><polygon fill="#181818" points="432.4,461.8766,440.4,465.0766,432.4,468.2766,435.6,465.0766" style="stroke:#181818;stroke-width:0.8000000000000002;"/><line style="stroke:#181818;stroke-width:0.8000000000000002;" x1="58.8" x2="437.2" y1="465.0766" y2="465.0766"/><text fill="#000000" font-family="sans-serif" font-size="10.4" lengthAdjust="spacing" textLength="86.4" x="64.4" y="460.8664">provides first name</text><polygon fill="#181818" points="67.6,486.9094,59.6,490.1094,67.6,493.3094,64.4,490.1094" style="stroke:#181818;stroke-width:0.8000000000000002;"/><line style="stroke:#181818;stroke-width:0.8000000000000002;stroke-dasharray:2.0,2.0;" x1="62.8" x2="441.2" y1="490.1094" y2="490.1094"/><text fill="#000000" font-family="sans-serif" font-size="10.4" lengthAdjust="spacing" textLength="179.2" x="72.4" y="485.8992">asks to type the candidate's last name</text><polygon fill="#181818" points="432.4,511.9422,440.4,515.1422,432.4,518.3422,435.6,515.1422" style="stroke:#181818;stroke-width:0.8000000000000002;"/><line style="stroke:#181818;stroke-width:0.8000000000000002;" x1="58.8" x2="437.2" y1="515.1422" y2="515.1422"/><text fill="#000000" font-family="sans-serif" font-size="10.4" lengthAdjust="spacing" textLength="86.4" x="64.4" y="510.932">provides last name</text><polygon fill="#181818" points="900.8,536.975,908.8,540.175,900.8,543.375,904,540.175" style="stroke:#181818;stroke-width:0.8000000000000002;"/><line style="stroke:#181818;stroke-width:0.8000000000000002;" x1="450" x2="905.6" y1="540.175" y2="540.175"/><text fill="#000000" font-family="sans-serif" font-size="10.4" lengthAdjust="spacing" textLength="28.8" x="455.6" y="535.9648">create</text><rect fill="#E2E2F0" height="26.0969" rx="2" ry="2" style="stroke:#181818;stroke-width:0.4000000000000001;" width="63.2" x="910.4" y="521.5422"/><text fill="#000000" font-family="sans-serif" font-size="11.2" lengthAdjust="spacing" textLength="52" x="916" y="539.2281">Candidate</text><polygon fill="#181818" points="654,571.8719,662,575.0719,654,578.2719,657.2,575.0719" style="stroke:#181818;stroke-width:0.8000000000000002;"/><line style="stroke:#181818;stroke-width:0.8000000000000002;" x1="450" x2="658.8" y1="575.0719" y2="575.0719"/><text fill="#000000" font-family="sans-serif" font-size="10.4" lengthAdjust="spacing" textLength="198.4" x="455.6" y="570.8617">getCandidateByName(firstName,lastName)</text><polygon fill="#181818" points="972,596.9047,980,600.1047,972,603.3047,975.2,600.1047" style="stroke:#181818;stroke-width:0.8000000000000002;"/><line style="stroke:#181818;stroke-width:0.8000000000000002;" x1="671.6" x2="976.8" y1="600.1047" y2="600.1047"/><text fill="#000000" font-family="sans-serif" font-size="10.4" lengthAdjust="spacing" textLength="28.8" x="677.2" y="595.8945">create</text><rect fill="#E2E2F0" height="26.0969" rx="2" ry="2" style="stroke:#181818;stroke-width:0.4000000000000001;" width="40" x="981.6" y="581.4719"/><text fill="#000000" font-family="sans-serif" font-size="11.2" lengthAdjust="spacing" textLength="28.8" x="987.2" y="599.1578">Name</text><polygon fill="#181818" points="830,631.8016,838,635.0016,830,638.2016,833.2,635.0016" style="stroke:#181818;stroke-width:0.8000000000000002;"/><line style="stroke:#181818;stroke-width:0.8000000000000002;" x1="671.6" x2="834.8" y1="635.0016" y2="635.0016"/><text fill="#000000" font-family="sans-serif" font-size="10.4" lengthAdjust="spacing" textLength="134.4" x="677.2" y="630.7914">findCandidateByName(name)</text><polygon fill="#181818" points="680.4,656.8344,672.4,660.0344,680.4,663.2344,677.2,660.0344" style="stroke:#181818;stroke-width:0.8000000000000002;"/><line style="stroke:#181818;stroke-width:0.8000000000000002;stroke-dasharray:2.0,2.0;" x1="675.6" x2="842.8" y1="660.0344" y2="660.0344"/><text fill="#000000" font-family="sans-serif" font-size="10.4" lengthAdjust="spacing" textLength="44.8" x="685.2" y="655.8242">candidate</text><polygon fill="#181818" points="458.8,681.8672,450.8,685.0672,458.8,688.2672,455.6,685.0672" style="stroke:#181818;stroke-width:0.8000000000000002;"/><line style="stroke:#181818;stroke-width:0.8000000000000002;stroke-dasharray:2.0,2.0;" x1="454" x2="666.8" y1="685.0672" y2="685.0672"/><text fill="#000000" font-family="sans-serif" font-size="10.4" lengthAdjust="spacing" textLength="44.8" x="463.6" y="680.857">candidate</text><polygon fill="#181818" points="67.6,706.9,59.6,710.1,67.6,713.3,64.4,710.1" style="stroke:#181818;stroke-width:0.8000000000000002;"/><line style="stroke:#181818;stroke-width:0.8000000000000002;stroke-dasharray:2.0,2.0;" x1="62.8" x2="441.2" y1="710.1" y2="710.1"/><text fill="#000000" font-family="sans-serif" font-size="10.4" lengthAdjust="spacing" textLength="134.4" x="72.4" y="705.8898">displays the candidate's data</text><polygon fill="#181818" points="276.4,731.9328,268.4,735.1328,276.4,738.3328,273.2,735.1328" style="stroke:#181818;stroke-width:0.8000000000000002;"/><line style="stroke:#181818;stroke-width:0.8000000000000002;stroke-dasharray:2.0,2.0;" x1="271.6" x2="445.2" y1="735.1328" y2="735.1328"/><text fill="#000000" font-family="sans-serif" font-size="10.4" lengthAdjust="spacing" textLength="21.6" x="281.2" y="730.9227">false</text><polygon fill="#181818" points="432.4,756.9656,440.4,760.1656,432.4,763.3656,435.6,760.1656" style="stroke:#181818;stroke-width:0.8000000000000002;"/><line style="stroke:#181818;stroke-width:0.8000000000000002;" x1="267.6" x2="437.2" y1="760.1656" y2="760.1656"/><text fill="#000000" font-family="sans-serif" font-size="10.4" lengthAdjust="spacing" textLength="67.2" x="273.2" y="755.9555">getCandidate()</text><polygon fill="#181818" points="276.4,781.9984,268.4,785.1984,276.4,788.3984,273.2,785.1984" style="stroke:#181818;stroke-width:0.8000000000000002;"/><line style="stroke:#181818;stroke-width:0.8000000000000002;stroke-dasharray:2.0,2.0;" x1="271.6" x2="445.2" y1="785.1984" y2="785.1984"/><text fill="#000000" font-family="sans-serif" font-size="10.4" lengthAdjust="spacing" textLength="44.8" x="281.2" y="780.9883">candidate</text><polygon fill="#181818" points="1121.2,807.0313,1129.2,810.2313,1121.2,813.4313,1124.4,810.2313" style="stroke:#181818;stroke-width:0.8000000000000002;"/><line style="stroke:#181818;stroke-width:0.8000000000000002;" x1="267.6" x2="1126" y1="810.2313" y2="810.2313"/><text fill="#000000" font-family="sans-serif" font-size="10.4" lengthAdjust="spacing" textLength="183.2" x="273.2" y="806.0211">findApplicationsByCandidate(candidate)</text><polygon fill="#181818" points="1272.8,832.0641,1280.8,835.2641,1272.8,838.4641,1276,835.2641" style="stroke:#181818;stroke-width:0.8000000000000002;"/><line style="stroke:#181818;stroke-width:0.8000000000000002;" x1="1138.8" x2="1277.6" y1="835.2641" y2="835.2641"/><text fill="#000000" font-family="sans-serif" font-size="10.4" lengthAdjust="spacing" textLength="28.8" x="1144.4" y="831.0539">create</text><rect fill="#E2E2F0" height="26.0969" rx="2" ry="2" style="stroke:#181818;stroke-width:0.4000000000000001;" width="138.4" x="1282.4" y="816.6313"/><text fill="#000000" font-family="sans-serif" font-size="11.2" lengthAdjust="spacing" textLength="127.2" x="1288" y="834.3172">JobApplicationRepository</text><polygon fill="#181818" points="1338,866.9609,1346,870.1609,1338,873.3609,1341.2,870.1609" style="stroke:#181818;stroke-width:0.8000000000000002;"/><line style="stroke:#181818;stroke-width:0.8000000000000002;" x1="1138.8" x2="1342.8" y1="870.1609" y2="870.1609"/><text fill="#000000" font-family="sans-serif" font-size="10.4" lengthAdjust="spacing" textLength="193.6" x="1144.4" y="865.9508">findJobApplicationByCandidate(candidate)</text><polygon fill="#181818" points="1147.6,891.9938,1139.6,895.1938,1147.6,898.3938,1144.4,895.1938" style="stroke:#181818;stroke-width:0.8000000000000002;"/><line style="stroke:#181818;stroke-width:0.8000000000000002;stroke-dasharray:2.0,2.0;" x1="1142.8" x2="1350.8" y1="895.1938" y2="895.1938"/><text fill="#000000" font-family="sans-serif" font-size="10.4" lengthAdjust="spacing" textLength="70.4" x="1152.4" y="890.9836">jobApplications</text><polygon fill="#181818" points="276.4,917.0266,268.4,920.2266,276.4,923.4266,273.2,920.2266" style="stroke:#181818;stroke-width:0.8000000000000002;"/><line style="stroke:#181818;stroke-width:0.8000000000000002;stroke-dasharray:2.0,2.0;" x1="271.6" x2="1134" y1="920.2266" y2="920.2266"/><text fill="#000000" font-family="sans-serif" font-size="10.4" lengthAdjust="spacing" textLength="70.4" x="281.2" y="916.0164">jobApplications</text><polygon fill="#181818" points="67.6,942.0594,59.6,945.2594,67.6,948.4594,64.4,945.2594" style="stroke:#181818;stroke-width:0.8000000000000002;"/><line style="stroke:#181818;stroke-width:0.8000000000000002;stroke-dasharray:2.0,2.0;" x1="62.8" x2="262.8" y1="945.2594" y2="945.2594"/><text fill="#000000" font-family="sans-serif" font-size="10.4" lengthAdjust="spacing" textLength="169.6" x="72.4" y="941.0492">displays the candidate's applications</text><!--SRC=[hLN1Rjim3BthAuXUbW4Bq5vso650cruoRCMGBX_0saggJPLSKMsHlwzanuuaouwNzPB85ldUe_XCOM6rWOlb2rdzn0tyH8KxRYu02JR43QlGM5682fM5Mq6LnFqILIbAjFowggGeq0gjQBEgKrQZ2R-u8QrGtgB59Y5-CpbvgPKrMagdE05P_bx_M4Su7S2QLvg4gtUVtu_Utk4JPvEhZ_NqDNpN3q7uKOYF3cGnPeML73RtS7Lv-VK1vYshK3j0A5hkJmJk3y4z0mOw708MLhowaAPzpF_2_9lh32p0yESNJfR0QYWRu1ILMnIIGfWLOuNXVfaqYpbCXvmqTG5DT9VLdCOXk7u8OWOWIdt_gDzcdmCTANb6qu4fGKlmKmNJedVSTesdGLq70MtX6UEnFhW_bNxaWC8JALkXocif8u5P6Rdq-T19TOKpLl9nt8pMh4Noa1EQwQtiBRq0SWwX8n98GNOi7kblRNoxhpZOHnxvVYiCML3rHzz-CZtLbT6lekHnz9c44l-1BmXElPKpSBVvNpQ_sViPEAjhzQilNeLVJ7F_NUzqEk_whVFzdGfKYQIFy_l7s_ryjn_6DVMCvE-1VA9dtgAaOTQH8HuwONGE3p6Vhld8tfvyFRw2w-pcUDlEEhoerv7beeQtHigErFokfuzlwfC2Gih4McrHVoB4UE1b5BVdDvOMNAaJ7893CAu1xm00]--></g></svg>