<?xml version="1.0" encoding="us-ascii" standalone="no"?><svg xmlns="http://www.w3.org/2000/svg" xmlns:xlink="http://www.w3.org/1999/xlink" contentStyleType="text/css" height="648px" preserveAspectRatio="none" style="width:284px;height:648px;background:#FFFFFF;" version="1.1" viewBox="0 0 284 648" width="284px" zoomAndPan="magnify"><defs/><g><text fill="#000000" font-family="sans-serif" font-size="14" font-weight="bold" lengthAdjust="spacing" textLength="239" x="21.75" y="29.5332">US 2000a - Registering candidates</text><rect fill="#FFFFFF" height="425.9219" style="stroke:#181818;stroke-width:1.0;" width="10" x="31.5" y="131.2188"/><rect fill="#FFFFFF" height="394.5703" style="stroke:#181818;stroke-width:1.0;" width="10" x="243.5" y="153.5703"/><line style="stroke:#181818;stroke-width:0.5;stroke-dasharray:5.0,5.0;" x1="36" x2="36" y1="121.2188" y2="566.1406"/><line style="stroke:#181818;stroke-width:0.5;stroke-dasharray:5.0,5.0;" x1="248.5" x2="248.5" y1="121.2188" y2="566.1406"/><text fill="#000000" font-family="sans-serif" font-size="14" lengthAdjust="spacing" textLength="57" x="5" y="118.1426">Operator</text><ellipse cx="36.5" cy="52.1094" fill="#E2E2F0" rx="8" ry="8" style="stroke:#181818;stroke-width:0.5;"/><path d="M36.5,60.1094 L36.5,87.1094 M23.5,68.1094 L49.5,68.1094 M36.5,87.1094 L23.5,102.1094 M36.5,87.1094 L49.5,102.1094 " fill="none" style="stroke:#181818;stroke-width:0.5;"/><text fill="#000000" font-family="sans-serif" font-size="14" lengthAdjust="spacing" textLength="57" x="5" y="579.6738">Operator</text><ellipse cx="36.5" cy="591.25" fill="#E2E2F0" rx="8" ry="8" style="stroke:#181818;stroke-width:0.5;"/><path d="M36.5,599.25 L36.5,626.25 M23.5,607.25 L49.5,607.25 M36.5,626.25 L23.5,641.25 M36.5,626.25 L49.5,641.25 " fill="none" style="stroke:#181818;stroke-width:0.5;"/><rect fill="#E2E2F0" height="31.6094" rx="2.5" ry="2.5" style="stroke:#181818;stroke-width:0.5;" width="60" x="218.5" y="88.6094"/><text fill="#000000" font-family="sans-serif" font-size="14" lengthAdjust="spacing" textLength="46" x="225.5" y="110.1426">System</text><rect fill="#E2E2F0" height="31.6094" rx="2.5" ry="2.5" style="stroke:#181818;stroke-width:0.5;" width="60" x="218.5" y="565.1406"/><text fill="#000000" font-family="sans-serif" font-size="14" lengthAdjust="spacing" textLength="46" x="225.5" y="586.6738">System</text><rect fill="#FFFFFF" height="425.9219" style="stroke:#181818;stroke-width:1.0;" width="10" x="31.5" y="131.2188"/><rect fill="#FFFFFF" height="394.5703" style="stroke:#181818;stroke-width:1.0;" width="10" x="243.5" y="153.5703"/><polygon fill="#181818" points="231.5,149.5703,241.5,153.5703,231.5,157.5703,235.5,153.5703" style="stroke:#181818;stroke-width:1.0;"/><line style="stroke:#181818;stroke-width:1.0;" x1="41.5" x2="237.5" y1="153.5703" y2="153.5703"/><text fill="#000000" font-family="sans-serif" font-size="13" lengthAdjust="spacing" textLength="183" x="48.5" y="148.7139">requests to register a candidate</text><polygon fill="#181818" points="52.5,179.9219,42.5,183.9219,52.5,187.9219,48.5,183.9219" style="stroke:#181818;stroke-width:1.0;"/><line style="stroke:#181818;stroke-width:1.0;stroke-dasharray:2.0,2.0;" x1="46.5" x2="242.5" y1="183.9219" y2="183.9219"/><text fill="#000000" font-family="sans-serif" font-size="13" lengthAdjust="spacing" textLength="107" x="58.5" y="179.0654">asks for username</text><polygon fill="#181818" points="231.5,210.2734,241.5,214.2734,231.5,218.2734,235.5,214.2734" style="stroke:#181818;stroke-width:1.0;"/><line style="stroke:#181818;stroke-width:1.0;" x1="41.5" x2="237.5" y1="214.2734" y2="214.2734"/><text fill="#000000" font-family="sans-serif" font-size="13" lengthAdjust="spacing" textLength="108" x="48.5" y="209.417">provides username</text><polygon fill="#181818" points="52.5,240.625,42.5,244.625,52.5,248.625,48.5,244.625" style="stroke:#181818;stroke-width:1.0;"/><line style="stroke:#181818;stroke-width:1.0;stroke-dasharray:2.0,2.0;" x1="46.5" x2="242.5" y1="244.625" y2="244.625"/><text fill="#000000" font-family="sans-serif" font-size="13" lengthAdjust="spacing" textLength="105" x="58.5" y="239.7686">asks for password</text><polygon fill="#181818" points="231.5,270.9766,241.5,274.9766,231.5,278.9766,235.5,274.9766" style="stroke:#181818;stroke-width:1.0;"/><line style="stroke:#181818;stroke-width:1.0;" x1="41.5" x2="237.5" y1="274.9766" y2="274.9766"/><text fill="#000000" font-family="sans-serif" font-size="13" lengthAdjust="spacing" textLength="106" x="48.5" y="270.1201">provides password</text><polygon fill="#181818" points="52.5,301.3281,42.5,305.3281,52.5,309.3281,48.5,305.3281" style="stroke:#181818;stroke-width:1.0;"/><line style="stroke:#181818;stroke-width:1.0;stroke-dasharray:2.0,2.0;" x1="46.5" x2="242.5" y1="305.3281" y2="305.3281"/><text fill="#000000" font-family="sans-serif" font-size="13" lengthAdjust="spacing" textLength="81" x="58.5" y="300.4717">asks for email</text><polygon fill="#181818" points="231.5,331.6797,241.5,335.6797,231.5,339.6797,235.5,335.6797" style="stroke:#181818;stroke-width:1.0;"/><line style="stroke:#181818;stroke-width:1.0;" x1="41.5" x2="237.5" y1="335.6797" y2="335.6797"/><text fill="#000000" font-family="sans-serif" font-size="13" lengthAdjust="spacing" textLength="82" x="48.5" y="330.8232">provides email</text><polygon fill="#181818" points="52.5,362.0313,42.5,366.0313,52.5,370.0313,48.5,366.0313" style="stroke:#181818;stroke-width:1.0;"/><line style="stroke:#181818;stroke-width:1.0;stroke-dasharray:2.0,2.0;" x1="46.5" x2="242.5" y1="366.0313" y2="366.0313"/><text fill="#000000" font-family="sans-serif" font-size="13" lengthAdjust="spacing" textLength="107" x="58.5" y="361.1748">asks for first name</text><polygon fill="#181818" points="231.5,392.3828,241.5,396.3828,231.5,400.3828,235.5,396.3828" style="stroke:#181818;stroke-width:1.0;"/><line style="stroke:#181818;stroke-width:1.0;" x1="41.5" x2="237.5" y1="396.3828" y2="396.3828"/><text fill="#000000" font-family="sans-serif" font-size="13" lengthAdjust="spacing" textLength="108" x="48.5" y="391.5264">provides first name</text><polygon fill="#181818" points="52.5,422.7344,42.5,426.7344,52.5,430.7344,48.5,426.7344" style="stroke:#181818;stroke-width:1.0;"/><line style="stroke:#181818;stroke-width:1.0;stroke-dasharray:2.0,2.0;" x1="46.5" x2="242.5" y1="426.7344" y2="426.7344"/><text fill="#000000" font-family="sans-serif" font-size="13" lengthAdjust="spacing" textLength="107" x="58.5" y="421.8779">asks for last name</text><polygon fill="#181818" points="231.5,453.0859,241.5,457.0859,231.5,461.0859,235.5,457.0859" style="stroke:#181818;stroke-width:1.0;"/><line style="stroke:#181818;stroke-width:1.0;" x1="41.5" x2="237.5" y1="457.0859" y2="457.0859"/><text fill="#000000" font-family="sans-serif" font-size="13" lengthAdjust="spacing" textLength="108" x="48.5" y="452.2295">provides last name</text><polygon fill="#181818" points="52.5,483.4375,42.5,487.4375,52.5,491.4375,48.5,487.4375" style="stroke:#181818;stroke-width:1.0;"/><line style="stroke:#181818;stroke-width:1.0;stroke-dasharray:2.0,2.0;" x1="46.5" x2="242.5" y1="487.4375" y2="487.4375"/><text fill="#000000" font-family="sans-serif" font-size="13" lengthAdjust="spacing" textLength="132" x="58.5" y="482.5811">asks for phone number</text><polygon fill="#181818" points="231.5,513.7891,241.5,517.7891,231.5,521.7891,235.5,517.7891" style="stroke:#181818;stroke-width:1.0;"/><line style="stroke:#181818;stroke-width:1.0;" x1="41.5" x2="237.5" y1="517.7891" y2="517.7891"/><text fill="#000000" font-family="sans-serif" font-size="13" lengthAdjust="spacing" textLength="133" x="48.5" y="512.9326">provides phone number</text><polygon fill="#181818" points="52.5,544.1406,42.5,548.1406,52.5,552.1406,48.5,548.1406" style="stroke:#181818;stroke-width:1.0;"/><line style="stroke:#181818;stroke-width:1.0;stroke-dasharray:2.0,2.0;" x1="46.5" x2="247.5" y1="548.1406" y2="548.1406"/><text fill="#000000" font-family="sans-serif" font-size="13" lengthAdjust="spacing" textLength="125" x="58.5" y="543.2842">register the candidate</text><!--SRC=[XP51RW8n34NtEOKlCDAeInQLE46bZhheqfqOi9X9Kji3ulPD09L05RhAL_p_SsBZQ57WBP5W4QYmBZSkeHYFd30O32Srcajj-1oSCxQ9u6E0bxxl4JfufordXt3OmeZ1iqSZTGv7uqEMLwGx7z2z5WoiGEXx8JK5YrbV480tGWKuzosfBgSlc5L-prvXa-MY905d-jCXIJom9wqSJKX2rMCKtuRS74q8pSXJct0jD-CR5ZLu_fNQqmHD-2-dihHdiek182pp5ycJkTov7c6_cxKTrRlrTBVT7m00]--></g></svg>