<?xml version="1.0" encoding="us-ascii" standalone="no"?><svg xmlns="http://www.w3.org/2000/svg" xmlns:xlink="http://www.w3.org/1999/xlink" contentStyleType="text/css" height="672px" preserveAspectRatio="none" style="width:422px;height:671px;background:#FFFFFF;" version="1.1" viewBox="0 0 422 671" width="422.8px" zoomAndPan="magnify"><defs/><g><text fill="#000000" font-family="sans-serif" font-size="9.8" font-weight="bold" lengthAdjust="spacing" textLength="199.5" x="112.875" y="21.0752">US 1007 - Setting up Recruitment Phases</text><rect fill="#FFFFFF" height="514.2854" style="stroke:#181818;stroke-width:0.6999999999999998;" width="7" x="68.95" y="93.2695"/><rect fill="#FFFFFF" height="497.2816" style="stroke:#181818;stroke-width:0.6999999999999998;" width="7" x="373.45" y="109.5732"/><rect fill="none" height="481.8816" style="stroke:#000000;stroke-width:1.0499999999999998;" width="411.95" x="7" y="120.0732"/><rect fill="none" height="57.3111" style="stroke:#000000;stroke-width:1.0499999999999998;" width="383.95" x="21" y="182.2844"/><rect fill="none" height="57.3111" style="stroke:#000000;stroke-width:1.0499999999999998;" width="383.95" x="21" y="249.3955"/><rect fill="none" height="80.6148" style="stroke:#000000;stroke-width:1.0499999999999998;" width="397.95" x="14" y="360.3141"/><rect fill="none" height="57.3111" style="stroke:#000000;stroke-width:1.0499999999999998;" width="383.95" x="21" y="378.7178"/><rect fill="none" height="57.3111" style="stroke:#000000;stroke-width:1.0499999999999998;" width="383.95" x="21" y="450.7289"/><rect fill="none" height="57.3111" style="stroke:#000000;stroke-width:1.0499999999999998;" width="383.95" x="21" y="517.84"/><line style="stroke:#181818;stroke-width:0.3499999999999999;stroke-dasharray:5.0,5.0;" x1="72.1" x2="72.1" y1="86.2695" y2="613.8549"/><line style="stroke:#181818;stroke-width:0.3499999999999999;stroke-dasharray:5.0,5.0;" x1="376.95" x2="376.95" y1="86.2695" y2="613.8549"/><text fill="#000000" font-family="sans-serif" font-size="9.8" lengthAdjust="spacing" textLength="84.7" x="28" y="83.81">Customer Manager</text><ellipse cx="72.45" cy="37.1848" fill="#E2E2F0" rx="5.6" ry="5.6" style="stroke:#181818;stroke-width:0.3499999999999999;"/><path d="M72.45,42.7848 L72.45,61.6848 M63.35,48.3848 L81.55,48.3848 M72.45,61.6848 L63.35,72.1848 M72.45,61.6848 L81.55,72.1848 " fill="none" style="stroke:#181818;stroke-width:0.3499999999999999;"/><text fill="#000000" font-family="sans-serif" font-size="9.8" lengthAdjust="spacing" textLength="84.7" x="28" y="623.7301">Customer Manager</text><ellipse cx="72.45" cy="632.1396" fill="#E2E2F0" rx="5.6" ry="5.6" style="stroke:#181818;stroke-width:0.3499999999999999;"/><path d="M72.45,637.7396 L72.45,656.6396 M63.35,643.3396 L81.55,643.3396 M72.45,656.6396 L63.35,667.1396 M72.45,656.6396 L81.55,667.1396 " fill="none" style="stroke:#181818;stroke-width:0.3499999999999999;"/><rect fill="#E2E2F0" height="22.8348" rx="1.75" ry="1.75" style="stroke:#181818;stroke-width:0.3499999999999999;" width="42" x="355.95" y="62.7348"/><text fill="#000000" font-family="sans-serif" font-size="9.8" lengthAdjust="spacing" textLength="32.2" x="360.85" y="78.21">System</text><rect fill="#E2E2F0" height="22.8348" rx="1.75" ry="1.75" style="stroke:#181818;stroke-width:0.3499999999999999;" width="42" x="355.95" y="613.1549"/><text fill="#000000" font-family="sans-serif" font-size="9.8" lengthAdjust="spacing" textLength="32.2" x="360.85" y="628.6301">System</text><rect fill="#FFFFFF" height="514.2854" style="stroke:#181818;stroke-width:0.6999999999999998;" width="7" x="68.95" y="93.2695"/><rect fill="#FFFFFF" height="497.2816" style="stroke:#181818;stroke-width:0.6999999999999998;" width="7" x="373.45" y="109.5732"/><polygon fill="#181818" points="365.05,106.7732,372.05,109.5732,365.05,112.3732,367.85,109.5732" style="stroke:#181818;stroke-width:0.6999999999999998;"/><line style="stroke:#181818;stroke-width:0.6999999999999998;" x1="75.95" x2="369.25" y1="109.5732" y2="109.5732"/><text fill="#000000" font-family="sans-serif" font-size="9.1" lengthAdjust="spacing" textLength="235.9" x="80.85" y="105.8894">requests to setup the recruitment phases for a job opening</text><path d="M7,120.0732 L49.7,120.0732 L49.7,126.577 L42.7,133.577 L7,133.577 L7,120.0732 " fill="#EEEEEE" style="stroke:#000000;stroke-width:1.0499999999999998;"/><rect fill="none" height="481.8816" style="stroke:#000000;stroke-width:1.0499999999999998;" width="411.95" x="7" y="120.0732"/><text fill="#000000" font-family="sans-serif" font-size="9.1" font-weight="bold" lengthAdjust="spacing" textLength="11.2" x="17.5" y="130.5931">alt</text><text fill="#000000" font-family="sans-serif" font-size="7.7" font-weight="bold" lengthAdjust="spacing" textLength="207.9" x="60.2" y="129.7823">[if there are job openings that meet that requirement]</text><polygon fill="#181818" points="83.65,147.0807,76.65,149.8807,83.65,152.6807,80.85,149.8807" style="stroke:#181818;stroke-width:0.6999999999999998;"/><line style="stroke:#181818;stroke-width:0.6999999999999998;stroke-dasharray:2.0,2.0;" x1="79.45" x2="372.75" y1="149.8807" y2="149.8807"/><text fill="#000000" font-family="sans-serif" font-size="9.1" lengthAdjust="spacing" textLength="280.7" x="87.85" y="146.1968">lists their job openings that don't have their recruitment phases set up</text><polygon fill="#181818" points="365.05,168.9844,372.05,171.7844,365.05,174.5844,367.85,171.7844" style="stroke:#181818;stroke-width:0.6999999999999998;"/><line style="stroke:#181818;stroke-width:0.6999999999999998;" x1="75.95" x2="369.25" y1="171.7844" y2="171.7844"/><text fill="#000000" font-family="sans-serif" font-size="9.1" lengthAdjust="spacing" textLength="93.8" x="80.85" y="168.1005">selects the job opening</text><path d="M21,182.2844 L72.1,182.2844 L72.1,188.7881 L65.1,195.7881 L21,195.7881 L21,182.2844 " fill="#EEEEEE" style="stroke:#000000;stroke-width:1.0499999999999998;"/><rect fill="none" height="57.3111" style="stroke:#000000;stroke-width:1.0499999999999998;" width="383.95" x="21" y="182.2844"/><text fill="#000000" font-family="sans-serif" font-size="9.1" font-weight="bold" lengthAdjust="spacing" textLength="19.6" x="31.5" y="192.8042">loop</text><text fill="#000000" font-family="sans-serif" font-size="7.7" font-weight="bold" lengthAdjust="spacing" textLength="163.8" x="82.6" y="191.9935">[if inserted close date is before start date]</text><polygon fill="#181818" points="83.65,209.2918,76.65,212.0918,83.65,214.8918,80.85,212.0918" style="stroke:#181818;stroke-width:0.6999999999999998;"/><line style="stroke:#181818;stroke-width:0.6999999999999998;stroke-dasharray:2.0,2.0;" x1="79.45" x2="372.75" y1="212.0918" y2="212.0918"/><text fill="#000000" font-family="sans-serif" font-size="9.1" lengthAdjust="spacing" textLength="218.4" x="87.85" y="208.4079">asks for start and close date for the Application phase</text><polygon fill="#181818" points="365.05,231.1955,372.05,233.9955,365.05,236.7955,367.85,233.9955" style="stroke:#181818;stroke-width:0.6999999999999998;"/><line style="stroke:#181818;stroke-width:0.6999999999999998;" x1="75.95" x2="369.25" y1="233.9955" y2="233.9955"/><text fill="#000000" font-family="sans-serif" font-size="9.1" lengthAdjust="spacing" textLength="109.2" x="80.85" y="230.3116">provides start and end date</text><path d="M21,249.3955 L72.1,249.3955 L72.1,255.8992 L65.1,262.8992 L21,262.8992 L21,249.3955 " fill="#EEEEEE" style="stroke:#000000;stroke-width:1.0499999999999998;"/><rect fill="none" height="57.3111" style="stroke:#000000;stroke-width:1.0499999999999998;" width="383.95" x="21" y="249.3955"/><text fill="#000000" font-family="sans-serif" font-size="9.1" font-weight="bold" lengthAdjust="spacing" textLength="19.6" x="31.5" y="259.9153">loop</text><text fill="#000000" font-family="sans-serif" font-size="7.7" font-weight="bold" lengthAdjust="spacing" textLength="163.8" x="82.6" y="259.1046">[if inserted close date is before start date]</text><polygon fill="#181818" points="83.65,276.4029,76.65,279.2029,83.65,282.0029,80.85,279.2029" style="stroke:#181818;stroke-width:0.6999999999999998;"/><line style="stroke:#181818;stroke-width:0.6999999999999998;stroke-dasharray:2.0,2.0;" x1="79.45" x2="372.75" y1="279.2029" y2="279.2029"/><text fill="#000000" font-family="sans-serif" font-size="9.1" lengthAdjust="spacing" textLength="214.2" x="87.85" y="275.519">asks for start and close date for the Screening phase</text><polygon fill="#181818" points="365.05,298.3066,372.05,301.1066,365.05,303.9066,367.85,301.1066" style="stroke:#181818;stroke-width:0.6999999999999998;"/><line style="stroke:#181818;stroke-width:0.6999999999999998;" x1="75.95" x2="369.25" y1="301.1066" y2="301.1066"/><text fill="#000000" font-family="sans-serif" font-size="9.1" lengthAdjust="spacing" textLength="109.2" x="80.85" y="297.4228">provides start and end date</text><polygon fill="#181818" points="83.65,325.1104,76.65,327.9104,83.65,330.7104,80.85,327.9104" style="stroke:#181818;stroke-width:0.6999999999999998;"/><line style="stroke:#181818;stroke-width:0.6999999999999998;stroke-dasharray:2.0,2.0;" x1="79.45" x2="372.75" y1="327.9104" y2="327.9104"/><text fill="#000000" font-family="sans-serif" font-size="9.1" lengthAdjust="spacing" textLength="181.3" x="87.85" y="324.2265">asks if job opening will have Interviews phase</text><polygon fill="#181818" points="365.05,347.0141,372.05,349.8141,365.05,352.6141,367.85,349.8141" style="stroke:#181818;stroke-width:0.6999999999999998;"/><line style="stroke:#181818;stroke-width:0.6999999999999998;" x1="75.95" x2="369.25" y1="349.8141" y2="349.8141"/><text fill="#000000" font-family="sans-serif" font-size="9.1" lengthAdjust="spacing" textLength="49" x="80.85" y="346.1302">answers y/n</text><path d="M14,360.3141 L56.7,360.3141 L56.7,366.8178 L49.7,373.8178 L14,373.8178 L14,360.3141 " fill="#EEEEEE" style="stroke:#000000;stroke-width:1.0499999999999998;"/><rect fill="none" height="80.6148" style="stroke:#000000;stroke-width:1.0499999999999998;" width="397.95" x="14" y="360.3141"/><text fill="#000000" font-family="sans-serif" font-size="9.1" font-weight="bold" lengthAdjust="spacing" textLength="11.2" x="24.5" y="370.8339">alt</text><text fill="#000000" font-family="sans-serif" font-size="7.7" font-weight="bold" lengthAdjust="spacing" textLength="143.5" x="67.2" y="370.0231">[if job opening has Interviews phase]</text><path d="M21,378.7178 L72.1,378.7178 L72.1,385.2215 L65.1,392.2215 L21,392.2215 L21,378.7178 " fill="#EEEEEE" style="stroke:#000000;stroke-width:1.0499999999999998;"/><rect fill="none" height="57.3111" style="stroke:#000000;stroke-width:1.0499999999999998;" width="383.95" x="21" y="378.7178"/><text fill="#000000" font-family="sans-serif" font-size="9.1" font-weight="bold" lengthAdjust="spacing" textLength="19.6" x="31.5" y="389.2376">loop</text><text fill="#000000" font-family="sans-serif" font-size="7.7" font-weight="bold" lengthAdjust="spacing" textLength="163.8" x="82.6" y="388.4269">[if inserted close date is before start date]</text><polygon fill="#181818" points="83.65,405.7252,76.65,408.5252,83.65,411.3252,80.85,408.5252" style="stroke:#181818;stroke-width:0.6999999999999998;"/><line style="stroke:#181818;stroke-width:0.6999999999999998;stroke-dasharray:2.0,2.0;" x1="79.45" x2="372.75" y1="408.5252" y2="408.5252"/><text fill="#000000" font-family="sans-serif" font-size="9.1" lengthAdjust="spacing" textLength="212.8" x="87.85" y="404.8413">asks for start and close date for the Interviews phase</text><polygon fill="#181818" points="365.05,427.6289,372.05,430.4289,365.05,433.2289,367.85,430.4289" style="stroke:#181818;stroke-width:0.6999999999999998;"/><line style="stroke:#181818;stroke-width:0.6999999999999998;" x1="75.95" x2="369.25" y1="430.4289" y2="430.4289"/><text fill="#000000" font-family="sans-serif" font-size="9.1" lengthAdjust="spacing" textLength="109.2" x="80.85" y="426.745">provides start and end date</text><path d="M21,450.7289 L72.1,450.7289 L72.1,457.2326 L65.1,464.2326 L21,464.2326 L21,450.7289 " fill="#EEEEEE" style="stroke:#000000;stroke-width:1.0499999999999998;"/><rect fill="none" height="57.3111" style="stroke:#000000;stroke-width:1.0499999999999998;" width="383.95" x="21" y="450.7289"/><text fill="#000000" font-family="sans-serif" font-size="9.1" font-weight="bold" lengthAdjust="spacing" textLength="19.6" x="31.5" y="461.2487">loop</text><text fill="#000000" font-family="sans-serif" font-size="7.7" font-weight="bold" lengthAdjust="spacing" textLength="163.8" x="82.6" y="460.438">[if inserted close date is before start date]</text><polygon fill="#181818" points="83.65,477.7363,76.65,480.5363,83.65,483.3363,80.85,480.5363" style="stroke:#181818;stroke-width:0.6999999999999998;"/><line style="stroke:#181818;stroke-width:0.6999999999999998;stroke-dasharray:2.0,2.0;" x1="79.45" x2="372.75" y1="480.5363" y2="480.5363"/><text fill="#000000" font-family="sans-serif" font-size="9.1" lengthAdjust="spacing" textLength="208.6" x="87.85" y="476.8524">asks for start and close date for the Analysis phase</text><polygon fill="#181818" points="365.05,499.64,372.05,502.44,365.05,505.24,367.85,502.44" style="stroke:#181818;stroke-width:0.6999999999999998;"/><line style="stroke:#181818;stroke-width:0.6999999999999998;" x1="75.95" x2="369.25" y1="502.44" y2="502.44"/><text fill="#000000" font-family="sans-serif" font-size="9.1" lengthAdjust="spacing" textLength="109.2" x="80.85" y="498.7562">provides start and end date</text><path d="M21,517.84 L72.1,517.84 L72.1,524.3437 L65.1,531.3437 L21,531.3437 L21,517.84 " fill="#EEEEEE" style="stroke:#000000;stroke-width:1.0499999999999998;"/><rect fill="none" height="57.3111" style="stroke:#000000;stroke-width:1.0499999999999998;" width="383.95" x="21" y="517.84"/><text fill="#000000" font-family="sans-serif" font-size="9.1" font-weight="bold" lengthAdjust="spacing" textLength="19.6" x="31.5" y="528.3599">loop</text><text fill="#000000" font-family="sans-serif" font-size="7.7" font-weight="bold" lengthAdjust="spacing" textLength="163.8" x="82.6" y="527.5491">[if inserted close date is before start date]</text><polygon fill="#181818" points="83.65,544.8475,76.65,547.6475,83.65,550.4475,80.85,547.6475" style="stroke:#181818;stroke-width:0.6999999999999998;"/><line style="stroke:#181818;stroke-width:0.6999999999999998;stroke-dasharray:2.0,2.0;" x1="79.45" x2="372.75" y1="547.6475" y2="547.6475"/><text fill="#000000" font-family="sans-serif" font-size="9.1" lengthAdjust="spacing" textLength="199.5" x="87.85" y="543.9636">asks for start and close date for the Result phase</text><polygon fill="#181818" points="365.05,566.7512,372.05,569.5512,365.05,572.3512,367.85,569.5512" style="stroke:#181818;stroke-width:0.6999999999999998;"/><line style="stroke:#181818;stroke-width:0.6999999999999998;" x1="75.95" x2="369.25" y1="569.5512" y2="569.5512"/><text fill="#000000" font-family="sans-serif" font-size="9.1" lengthAdjust="spacing" textLength="109.2" x="80.85" y="565.8673">provides start and end date</text><polygon fill="#181818" points="83.65,593.5549,76.65,596.3549,83.65,599.1549,80.85,596.3549" style="stroke:#181818;stroke-width:0.6999999999999998;"/><line style="stroke:#181818;stroke-width:0.6999999999999998;stroke-dasharray:2.0,2.0;" x1="79.45" x2="372.75" y1="596.3549" y2="596.3549"/><text fill="#000000" font-family="sans-serif" font-size="9.1" lengthAdjust="spacing" textLength="136.5" x="87.85" y="592.671">informs user of operation success</text><!--SRC=[rPJ1Qjn038RlVWgHIqvBqrCWXqBfgOT2YCcXHsMiZTMEPwOZUPTz-qgUadfJGmij2pMC6Oyr__z98nk3vWfN7sRHF565JvZmcUeLeC2ZKEqALkN01PD2VnAboL_rd_kkKzP8yDZ3svkRMzX1JwgSdc4ky42XpgmJsQxx4OMaimk3yW6LcdBdTzYzSp6uWqhVPX8Lq0n2QY8wagt-52gB4EmD6E5BVe9SA9dXIdZXmgZ0UzzU2T36AjRaHrIOYBJDt9OhkK7NESdEY1QoEuYyy8p4TKDZoEbQOSG3_GZPOBL4h1olKnMA59hoUHunv-Bed2nUQO0Gin0CdXeBF97bJY1gPx8i_aACyhKLgCLWEfFm5-xvlfJ80PLpQg2l0KlD1nwS_qM6R3HBdpdenN3xK6afq5_1RbaR-wh-SEGOsu5-J4hrm7IKRKzCSgGgS7gJNlfjhMHxDZGkLA_VmVzXmNncgLskAnF6ax3y3otvG397_PVzoCcq9u7P7_FUEwcsBrJc44XaTI03dVtmlWC0]--></g></svg>