<?xml version="1.0" encoding="us-ascii" standalone="no"?><svg xmlns="http://www.w3.org/2000/svg" xmlns:xlink="http://www.w3.org/1999/xlink" contentStyleType="text/css" height="554px" preserveAspectRatio="none" style="width:937px;height:554px;background:#FFFFFF;" version="1.1" viewBox="0 0 937 554" width="937px" zoomAndPan="magnify"><defs/><g><text fill="#000000" font-family="sans-serif" font-size="14" font-weight="bold" lengthAdjust="spacing" textLength="298" x="321.25" y="30.1074">US 1013 - Ranking candidates' applications</text><rect fill="#FFFFFF" height="329.2012" style="stroke:#181818;stroke-width:1.0;" width="10" x="88.5" y="133.2422"/><rect fill="#FFFFFF" height="304.9102" style="stroke:#181818;stroke-width:1.0;" width="10" x="408.5" y="156.5332"/><rect fill="none" height="81.873" style="stroke:#000000;stroke-width:1.5;" width="433.5" x="20" y="171.5332"/><rect fill="none" height="187.0371" style="stroke:#000000;stroke-width:1.5;" width="921.5" x="10" y="267.4063"/><rect fill="none" height="122.4551" style="stroke:#000000;stroke-width:1.5;" width="901.5" x="20" y="293.6973"/><line style="stroke:#181818;stroke-width:0.5;stroke-dasharray:5.0,5.0;" x1="93" x2="93" y1="123.2422" y2="471.4434"/><line style="stroke:#181818;stroke-width:0.5;stroke-dasharray:5.0,5.0;" x1="413.5" x2="413.5" y1="123.2422" y2="471.4434"/><text fill="#000000" font-family="sans-serif" font-size="14" lengthAdjust="spacing" textLength="121" x="30" y="119.7285">Customer Manager</text><ellipse cx="93.5" cy="53.1211" fill="#E2E2F0" rx="8" ry="8" style="stroke:#181818;stroke-width:0.5;"/><path d="M93.5,61.1211 L93.5,88.1211 M80.5,69.1211 L106.5,69.1211 M93.5,88.1211 L80.5,103.1211 M93.5,88.1211 L106.5,103.1211 " fill="none" style="stroke:#181818;stroke-width:0.5;"/><text fill="#000000" font-family="sans-serif" font-size="14" lengthAdjust="spacing" textLength="121" x="30" y="485.5508">Customer Manager</text><ellipse cx="93.5" cy="497.5645" fill="#E2E2F0" rx="8" ry="8" style="stroke:#181818;stroke-width:0.5;"/><path d="M93.5,505.5645 L93.5,532.5645 M80.5,513.5645 L106.5,513.5645 M93.5,532.5645 L80.5,547.5645 M93.5,532.5645 L106.5,547.5645 " fill="none" style="stroke:#181818;stroke-width:0.5;"/><rect fill="#E2E2F0" height="32.6211" rx="2.5" ry="2.5" style="stroke:#181818;stroke-width:0.5;" width="60" x="383.5" y="89.6211"/><text fill="#000000" font-family="sans-serif" font-size="14" lengthAdjust="spacing" textLength="46" x="390.5" y="111.7285">System</text><rect fill="#E2E2F0" height="32.6211" rx="2.5" ry="2.5" style="stroke:#181818;stroke-width:0.5;" width="60" x="383.5" y="470.4434"/><text fill="#000000" font-family="sans-serif" font-size="14" lengthAdjust="spacing" textLength="46" x="390.5" y="492.5508">System</text><rect fill="#FFFFFF" height="329.2012" style="stroke:#181818;stroke-width:1.0;" width="10" x="88.5" y="133.2422"/><rect fill="#FFFFFF" height="304.9102" style="stroke:#181818;stroke-width:1.0;" width="10" x="408.5" y="156.5332"/><polygon fill="#181818" points="396.5,152.5332,406.5,156.5332,396.5,160.5332,400.5,156.5332" style="stroke:#181818;stroke-width:1.0;"/><line style="stroke:#181818;stroke-width:1.0;" x1="98.5" x2="402.5" y1="156.5332" y2="156.5332"/><text fill="#000000" font-family="sans-serif" font-size="13" lengthAdjust="spacing" textLength="282" x="105.5" y="151.2705">requests to rank the candidates for a job opening</text><path d="M20,171.5332 L270,171.5332 L270,180.8242 L260,190.8242 L20,190.8242 L20,171.5332 " fill="#EEEEEE" style="stroke:#000000;stroke-width:1.5;"/><rect fill="none" height="81.873" style="stroke:#000000;stroke-width:1.5;" width="433.5" x="20" y="171.5332"/><text fill="#000000" font-family="sans-serif" font-size="13" font-weight="bold" lengthAdjust="spacing" textLength="205" x="35" y="186.5615">do while(!verificationSuccessful)</text><polygon fill="#181818" points="109.5,210.1152,99.5,214.1152,109.5,218.1152,105.5,214.1152" style="stroke:#181818;stroke-width:1.0;"/><line style="stroke:#181818;stroke-width:1.0;stroke-dasharray:2.0,2.0;" x1="103.5" x2="407.5" y1="214.1152" y2="214.1152"/><text fill="#000000" font-family="sans-serif" font-size="13" lengthAdjust="spacing" textLength="163" x="115.5" y="208.8525">asks to select a job opening</text><polygon fill="#181818" points="396.5,241.4063,406.5,245.4063,396.5,249.4063,400.5,245.4063" style="stroke:#181818;stroke-width:1.0;"/><line style="stroke:#181818;stroke-width:1.0;" x1="98.5" x2="402.5" y1="245.4063" y2="245.4063"/><text fill="#000000" font-family="sans-serif" font-size="13" lengthAdjust="spacing" textLength="123" x="105.5" y="240.1436">selects a job opening</text><path d="M10,267.4063 L727,267.4063 L727,276.6973 L717,286.6973 L10,286.6973 L10,267.4063 " fill="#EEEEEE" style="stroke:#000000;stroke-width:1.5;"/><rect fill="none" height="187.0371" style="stroke:#000000;stroke-width:1.5;" width="921.5" x="10" y="267.4063"/><text fill="#000000" font-family="sans-serif" font-size="13" font-weight="bold" lengthAdjust="spacing" textLength="672" x="25" y="282.4346">repeats for the number calculated through the number of vacancies or (if lesser) the number of candidates</text><path d="M20,293.6973 L270,293.6973 L270,302.9883 L260,312.9883 L20,312.9883 L20,293.6973 " fill="#EEEEEE" style="stroke:#000000;stroke-width:1.5;"/><rect fill="none" height="122.4551" style="stroke:#000000;stroke-width:1.5;" width="901.5" x="20" y="293.6973"/><text fill="#000000" font-family="sans-serif" font-size="13" font-weight="bold" lengthAdjust="spacing" textLength="205" x="35" y="308.7256">do while(!verificationSuccessful)</text><polygon fill="#181818" points="109.5,332.2793,99.5,336.2793,109.5,340.2793,105.5,336.2793" style="stroke:#181818;stroke-width:1.0;"/><line style="stroke:#181818;stroke-width:1.0;stroke-dasharray:2.0,2.0;" x1="103.5" x2="407.5" y1="336.2793" y2="336.2793"/><text fill="#000000" font-family="sans-serif" font-size="13" lengthAdjust="spacing" textLength="286" x="115.5" y="331.0166">asks to select a candidate for the current position</text><polygon fill="#181818" points="396.5,383.8613,406.5,387.8613,396.5,391.8613,400.5,387.8613" style="stroke:#181818;stroke-width:1.0;"/><line style="stroke:#181818;stroke-width:1.0;" x1="98.5" x2="402.5" y1="387.8613" y2="387.8613"/><text fill="#000000" font-family="sans-serif" font-size="13" lengthAdjust="spacing" textLength="113" x="105.5" y="382.5986">selects a candidate</text><path d="M423,349.2793 L423,410.2793 L911,410.2793 L911,359.2793 L901,349.2793 L423,349.2793 " fill="#FEFFDD" style="stroke:#181818;stroke-width:0.5;"/><path d="M901,349.2793 L901,359.2793 L911,359.2793 L901,349.2793 " fill="#FEFFDD" style="stroke:#181818;stroke-width:0.5;"/><text fill="#000000" font-family="sans-serif" font-size="13" lengthAdjust="spacing" textLength="4" x="429" y="368.3076">&#160;</text><text fill="#000000" font-family="sans-serif" font-size="13" lengthAdjust="spacing" textLength="467" x="429" y="385.5986">loops until a valid candidate is chosen (valid candidates haven't been ranked yet.)</text><text fill="#000000" font-family="sans-serif" font-size="13" lengthAdjust="spacing" textLength="4" x="429" y="402.8896">&#160;</text><polygon fill="#181818" points="109.5,442.4434,99.5,446.4434,109.5,450.4434,105.5,446.4434" style="stroke:#181818;stroke-width:1.0;"/><line style="stroke:#181818;stroke-width:1.0;stroke-dasharray:2.0,2.0;" x1="103.5" x2="407.5" y1="446.4434" y2="446.4434"/><text fill="#000000" font-family="sans-serif" font-size="13" lengthAdjust="spacing" textLength="114" x="115.5" y="441.1807">ranks the candidate</text><!--SRC=[hL8zKoCn3EtzAmGDIP6RO-WeQAXfsA6uKl5gTmMERInvR_Zto4a8oSxGqMonUdfV5dfD1QuVgsZQKO4dZ3XIkGOKU14gBcDHzfmnAdGVehHhe-vVvvnJra3mqi7jtzixsC0pnZUE8tYCFVUe93U0EGVsg9oYs0fwvTac1tBNlh1vQ7nm3uNUAuaAQ89YNA0JdP71O5OHNjCMKgPeIcTyUqTZIJL3d-3_n85MLpCL7exgNVMUH8OQriurlOtfxlNlBT7RNbGeaDUbngN90qQM88hzbtwXJAW7kor1hBkjCNWClWRpsjjV0uxJ-JGDCADbzMn1RN750mJpIsMzW7qNyek1JwGdrxwMGlReEGatkfzxEEqw5vCn51udTIwab0LgL0u6cZ5mVoR30dvAGX5MYv70X3F56uKjsRWTWbNsGVfdlQyPciYny4MiXfNBgpa2Uxgub4y0]--></g></svg>