<?xml version="1.0" encoding="us-ascii" standalone="no"?><svg xmlns="http://www.w3.org/2000/svg" xmlns:xlink="http://www.w3.org/1999/xlink" contentStyleType="text/css" height="503px" preserveAspectRatio="none" style="width:457px;height:503px;background:#FFFFFF;" version="1.1" viewBox="0 0 457 503" width="457px" zoomAndPan="magnify"><defs/><g><rect fill="#FFFFFF" height="317.9102" style="stroke:#181818;stroke-width:1.0;" width="10" x="83.5" y="93.6211"/><rect fill="#FFFFFF" height="317.9102" style="stroke:#181818;stroke-width:1.0;" width="10" x="83.5" y="93.6211"/><rect fill="#FFFFFF" height="293.6191" style="stroke:#181818;stroke-width:1.0;" width="10" x="406.5" y="116.9121"/><rect fill="none" height="144.4551" style="stroke:#000000;stroke-width:1.5;" width="441.5" x="10" y="163.2031"/><rect fill="none" height="81.873" style="stroke:#000000;stroke-width:1.5;" width="441.5" x="10" y="321.6582"/><line style="stroke:#181818;stroke-width:0.5;stroke-dasharray:5.0,5.0;" x1="83" x2="83" y1="83.6211" y2="420.5313"/><line style="stroke:#181818;stroke-width:0.5;stroke-dasharray:5.0,5.0;" x1="411.5" x2="411.5" y1="83.6211" y2="420.5313"/><text fill="#000000" font-family="sans-serif" font-size="14" lengthAdjust="spacing" textLength="121" x="20" y="80.1074">Customer Manager</text><ellipse cx="83.5" cy="13.5" fill="#E2E2F0" rx="8" ry="8" style="stroke:#181818;stroke-width:0.5;"/><path d="M83.5,21.5 L83.5,48.5 M70.5,29.5 L96.5,29.5 M83.5,48.5 L70.5,63.5 M83.5,48.5 L96.5,63.5 " fill="none" style="stroke:#181818;stroke-width:0.5;"/><text fill="#000000" font-family="sans-serif" font-size="14" lengthAdjust="spacing" textLength="121" x="20" y="434.6387">Customer Manager</text><ellipse cx="83.5" cy="446.6523" fill="#E2E2F0" rx="8" ry="8" style="stroke:#181818;stroke-width:0.5;"/><path d="M83.5,454.6523 L83.5,481.6523 M70.5,462.6523 L96.5,462.6523 M83.5,481.6523 L70.5,496.6523 M83.5,481.6523 L96.5,496.6523 " fill="none" style="stroke:#181818;stroke-width:0.5;"/><rect fill="#E2E2F0" height="32.6211" rx="2.5" ry="2.5" style="stroke:#181818;stroke-width:0.5;" width="60" x="381.5" y="50"/><text fill="#000000" font-family="sans-serif" font-size="14" lengthAdjust="spacing" textLength="46" x="388.5" y="72.1074">System</text><rect fill="#E2E2F0" height="32.6211" rx="2.5" ry="2.5" style="stroke:#181818;stroke-width:0.5;" width="60" x="381.5" y="419.5313"/><text fill="#000000" font-family="sans-serif" font-size="14" lengthAdjust="spacing" textLength="46" x="388.5" y="441.6387">System</text><rect fill="#FFFFFF" height="317.9102" style="stroke:#181818;stroke-width:1.0;" width="10" x="83.5" y="93.6211"/><rect fill="#FFFFFF" height="317.9102" style="stroke:#181818;stroke-width:1.0;" width="10" x="83.5" y="93.6211"/><rect fill="#FFFFFF" height="293.6191" style="stroke:#181818;stroke-width:1.0;" width="10" x="406.5" y="116.9121"/><polygon fill="#181818" points="394.5,112.9121,404.5,116.9121,394.5,120.9121,398.5,116.9121" style="stroke:#181818;stroke-width:1.0;"/><line style="stroke:#181818;stroke-width:1.0;" x1="93.5" x2="400.5" y1="116.9121" y2="116.9121"/><text fill="#000000" font-family="sans-serif" font-size="13" lengthAdjust="spacing" textLength="167" x="100.5" y="111.6494">requests to list a job opening</text><polygon fill="#181818" points="104.5,144.2031,94.5,148.2031,104.5,152.2031,100.5,148.2031" style="stroke:#181818;stroke-width:1.0;"/><line style="stroke:#181818;stroke-width:1.0;stroke-dasharray:2.0,2.0;" x1="98.5" x2="405.5" y1="148.2031" y2="148.2031"/><text fill="#000000" font-family="sans-serif" font-size="13" lengthAdjust="spacing" textLength="147" x="110.5" y="142.9404">asks to filter by customer</text><path d="M10,163.2031 L71,163.2031 L71,172.4941 L61,182.4941 L10,182.4941 L10,163.2031 " fill="#EEEEEE" style="stroke:#000000;stroke-width:1.5;"/><rect fill="none" height="144.4551" style="stroke:#000000;stroke-width:1.5;" width="441.5" x="10" y="163.2031"/><text fill="#000000" font-family="sans-serif" font-size="13" font-weight="bold" lengthAdjust="spacing" textLength="16" x="25" y="178.2314">alt</text><text fill="#000000" font-family="sans-serif" font-size="11" font-weight="bold" lengthAdjust="spacing" textLength="28" x="86" y="177.0732">[yes]</text><polygon fill="#181818" points="394.5,201.7852,404.5,205.7852,394.5,209.7852,398.5,205.7852" style="stroke:#181818;stroke-width:1.0;"/><line style="stroke:#181818;stroke-width:1.0;" x1="93.5" x2="400.5" y1="205.7852" y2="205.7852"/><text fill="#000000" font-family="sans-serif" font-size="13" lengthAdjust="spacing" textLength="167" x="100.5" y="200.5225">accepts filtering by customer</text><polygon fill="#181818" points="104.5,233.0762,94.5,237.0762,104.5,241.0762,100.5,237.0762" style="stroke:#181818;stroke-width:1.0;"/><line style="stroke:#181818;stroke-width:1.0;stroke-dasharray:2.0,2.0;" x1="98.5" x2="405.5" y1="237.0762" y2="237.0762"/><text fill="#000000" font-family="sans-serif" font-size="13" lengthAdjust="spacing" textLength="151" x="110.5" y="231.8135">asks to select a customer</text><polygon fill="#181818" points="394.5,264.3672,404.5,268.3672,394.5,272.3672,398.5,268.3672" style="stroke:#181818;stroke-width:1.0;"/><line style="stroke:#181818;stroke-width:1.0;" x1="93.5" x2="400.5" y1="268.3672" y2="268.3672"/><text fill="#000000" font-family="sans-serif" font-size="13" lengthAdjust="spacing" textLength="111" x="100.5" y="263.1045">selects a customer</text><polygon fill="#181818" points="104.5,295.6582,94.5,299.6582,104.5,303.6582,100.5,299.6582" style="stroke:#181818;stroke-width:1.0;"/><line style="stroke:#181818;stroke-width:1.0;stroke-dasharray:2.0,2.0;" x1="98.5" x2="405.5" y1="299.6582" y2="299.6582"/><text fill="#000000" font-family="sans-serif" font-size="13" lengthAdjust="spacing" textLength="289" x="110.5" y="294.3955">displays all job openings of the selected customer</text><path d="M10,321.6582 L71,321.6582 L71,330.9492 L61,340.9492 L10,340.9492 L10,321.6582 " fill="#EEEEEE" style="stroke:#000000;stroke-width:1.5;"/><rect fill="none" height="81.873" style="stroke:#000000;stroke-width:1.5;" width="441.5" x="10" y="321.6582"/><text fill="#000000" font-family="sans-serif" font-size="13" font-weight="bold" lengthAdjust="spacing" textLength="16" x="25" y="336.6865">alt</text><text fill="#000000" font-family="sans-serif" font-size="11" font-weight="bold" lengthAdjust="spacing" textLength="22" x="86" y="335.5283">[no]</text><polygon fill="#181818" points="394.5,360.2402,404.5,364.2402,394.5,368.2402,398.5,364.2402" style="stroke:#181818;stroke-width:1.0;"/><line style="stroke:#181818;stroke-width:1.0;" x1="93.5" x2="400.5" y1="364.2402" y2="364.2402"/><text fill="#000000" font-family="sans-serif" font-size="13" lengthAdjust="spacing" textLength="159" x="100.5" y="358.9775">denies filtering by customer</text><polygon fill="#181818" points="104.5,391.5313,94.5,395.5313,104.5,399.5313,100.5,395.5313" style="stroke:#181818;stroke-width:1.0;"/><line style="stroke:#181818;stroke-width:1.0;stroke-dasharray:2.0,2.0;" x1="98.5" x2="405.5" y1="395.5313" y2="395.5313"/><text fill="#000000" font-family="sans-serif" font-size="13" lengthAdjust="spacing" textLength="142" x="110.5" y="390.2686">displays all job openings</text><!--SRC=[dP71KiGW44JlV4LNxli3U_3YsPDVC0kJ5IM0pAnL-Vl5X8enbfJbZMgcNpS3MKq5m-DDD4rSy4IHhbm6aC0sSLerawcejpvJL0pFioXFoznwD8Qi-WzI_c7it1m4d1uQ3cSKVh-ng40JWXS5uJLTa3977wzVq9RVVAUAE5BFjURRmXbzq2fSvct6K53CBDqgP2tdscIrr_HlXBz52mUsdu_OVBt4TLhsu_qOvoK7cgiZXFsU16c4ld0Ziji1EJhuqImhYAdRnrKO_xQ0_nNRuXqV_zAOEm00]--></g></svg>