<?xml version="1.0" encoding="us-ascii" standalone="no"?><svg xmlns="http://www.w3.org/2000/svg" xmlns:xlink="http://www.w3.org/1999/xlink" contentStyleType="text/css" height="870px" preserveAspectRatio="none" style="width:1055px;height:870px;background:#FFFFFF;" version="1.1" viewBox="0 0 1055 870" width="1055px" zoomAndPan="magnify"><defs/><g><text fill="#000000" font-family="sans-serif" font-size="14" font-weight="bold" lengthAdjust="spacing" textLength="270" x="391.5" y="30.1074">US 1006 - Displaying a candidate's data</text><rect fill="#FFFFFF" height="644.8496" style="stroke:#181818;stroke-width:1.0;" width="10" x="63.5" y="133.2422"/><rect fill="#FFFFFF" height="612.5586" style="stroke:#181818;stroke-width:1.0;" width="10" x="324.5" y="156.5332"/><rect fill="#FFFFFF" height="137.4941" style="stroke:#181818;stroke-width:1.0;" width="10" x="601.5" y="231.4453"/><rect fill="#FFFFFF" height="137.4941" style="stroke:#181818;stroke-width:1.0;" width="10" x="601.5" y="600.3066"/><rect fill="#FFFFFF" height="31.291" style="stroke:#181818;stroke-width:1.0;" width="10" x="821.5" y="306.3574"/><rect fill="#FFFFFF" height="31.291" style="stroke:#181818;stroke-width:1.0;" width="10" x="821.5" y="675.2188"/><line style="stroke:#181818;stroke-width:0.5;stroke-dasharray:5.0,5.0;" x1="68" x2="68" y1="123.2422" y2="787.0918"/><line style="stroke:#181818;stroke-width:0.5;stroke-dasharray:5.0,5.0;" x1="329" x2="329" y1="123.2422" y2="787.0918"/><line style="stroke:#181818;stroke-width:0.5;stroke-dasharray:5.0,5.0;" x1="606" x2="606" y1="196.3438" y2="787.0918"/><line style="stroke:#181818;stroke-width:0.5;stroke-dasharray:5.0,5.0;" x1="826" x2="826" y1="271.2559" y2="787.0918"/><line style="stroke:#181818;stroke-width:0.5;stroke-dasharray:5.0,5.0;" x1="949" x2="949" y1="565.2051" y2="787.0918"/><line style="stroke:#181818;stroke-width:0.5;stroke-dasharray:5.0,5.0;" x1="1024" x2="1024" y1="640.1172" y2="787.0918"/><text fill="#000000" font-family="sans-serif" font-size="14" lengthAdjust="spacing" textLength="121" x="5" y="119.7285">Customer Manager</text><ellipse cx="68.5" cy="53.1211" fill="#E2E2F0" rx="8" ry="8" style="stroke:#181818;stroke-width:0.5;"/><path d="M68.5,61.1211 L68.5,88.1211 M55.5,69.1211 L81.5,69.1211 M68.5,88.1211 L55.5,103.1211 M68.5,88.1211 L81.5,103.1211 " fill="none" style="stroke:#181818;stroke-width:0.5;"/><text fill="#000000" font-family="sans-serif" font-size="14" lengthAdjust="spacing" textLength="121" x="5" y="801.1992">Customer Manager</text><ellipse cx="68.5" cy="813.2129" fill="#E2E2F0" rx="8" ry="8" style="stroke:#181818;stroke-width:0.5;"/><path d="M68.5,821.2129 L68.5,848.2129 M55.5,829.2129 L81.5,829.2129 M68.5,848.2129 L55.5,863.2129 M68.5,848.2129 L81.5,863.2129 " fill="none" style="stroke:#181818;stroke-width:0.5;"/><rect fill="#E2E2F0" height="32.6211" rx="2.5" ry="2.5" style="stroke:#181818;stroke-width:0.5;" width="223" x="218" y="89.6211"/><text fill="#000000" font-family="sans-serif" font-size="14" lengthAdjust="spacing" textLength="209" x="225" y="111.7285">DisplayCandidatePersonalDataUI</text><rect fill="#E2E2F0" height="32.6211" rx="2.5" ry="2.5" style="stroke:#181818;stroke-width:0.5;" width="223" x="218" y="786.0918"/><text fill="#000000" font-family="sans-serif" font-size="14" lengthAdjust="spacing" textLength="209" x="225" y="808.1992">DisplayCandidatePersonalDataUI</text><rect fill="#E2E2F0" height="32.6211" rx="2.5" ry="2.5" style="stroke:#181818;stroke-width:0.5;" width="273" x="470" y="786.0918"/><text fill="#000000" font-family="sans-serif" font-size="14" lengthAdjust="spacing" textLength="259" x="477" y="808.1992">DisplayCandidatePersonalDataController</text><rect fill="#E2E2F0" height="32.6211" rx="2.5" ry="2.5" style="stroke:#181818;stroke-width:0.5;" width="147" x="753" y="786.0918"/><text fill="#000000" font-family="sans-serif" font-size="14" lengthAdjust="spacing" textLength="133" x="760" y="808.1992">CandidateRepository</text><rect fill="#E2E2F0" height="32.6211" rx="2.5" ry="2.5" style="stroke:#181818;stroke-width:0.5;" width="79" x="910" y="786.0918"/><text fill="#000000" font-family="sans-serif" font-size="14" lengthAdjust="spacing" textLength="65" x="917" y="808.1992">Candidate</text><rect fill="#E2E2F0" height="32.6211" rx="2.5" ry="2.5" style="stroke:#181818;stroke-width:0.5;" width="50" x="999" y="786.0918"/><text fill="#000000" font-family="sans-serif" font-size="14" lengthAdjust="spacing" textLength="36" x="1006" y="808.1992">Name</text><rect fill="#FFFFFF" height="644.8496" style="stroke:#181818;stroke-width:1.0;" width="10" x="63.5" y="133.2422"/><rect fill="#FFFFFF" height="612.5586" style="stroke:#181818;stroke-width:1.0;" width="10" x="324.5" y="156.5332"/><rect fill="#FFFFFF" height="137.4941" style="stroke:#181818;stroke-width:1.0;" width="10" x="601.5" y="231.4453"/><rect fill="#FFFFFF" height="137.4941" style="stroke:#181818;stroke-width:1.0;" width="10" x="601.5" y="600.3066"/><rect fill="#FFFFFF" height="31.291" style="stroke:#181818;stroke-width:1.0;" width="10" x="821.5" y="306.3574"/><rect fill="#FFFFFF" height="31.291" style="stroke:#181818;stroke-width:1.0;" width="10" x="821.5" y="675.2188"/><polygon fill="#181818" points="312.5,152.5332,322.5,156.5332,312.5,160.5332,316.5,156.5332" style="stroke:#181818;stroke-width:1.0;"/><line style="stroke:#181818;stroke-width:1.0;" x1="73.5" x2="318.5" y1="156.5332" y2="156.5332"/><text fill="#000000" font-family="sans-serif" font-size="13" lengthAdjust="spacing" textLength="232" x="80.5" y="151.2705">requests to display a candidate's details</text><polygon fill="#181818" points="458,183.8242,468,187.8242,458,191.8242,462,187.8242" style="stroke:#181818;stroke-width:1.0;"/><line style="stroke:#181818;stroke-width:1.0;" x1="334.5" x2="464" y1="187.8242" y2="187.8242"/><text fill="#000000" font-family="sans-serif" font-size="13" lengthAdjust="spacing" textLength="36" x="341.5" y="182.5615">create</text><rect fill="#E2E2F0" height="32.6211" rx="2.5" ry="2.5" style="stroke:#181818;stroke-width:0.5;" width="273" x="470" y="164.5332"/><text fill="#000000" font-family="sans-serif" font-size="14" lengthAdjust="spacing" textLength="259" x="477" y="186.6406">DisplayCandidatePersonalDataController</text><polygon fill="#181818" points="589.5,227.4453,599.5,231.4453,589.5,235.4453,593.5,231.4453" style="stroke:#181818;stroke-width:1.0;"/><line style="stroke:#181818;stroke-width:1.0;" x1="334.5" x2="595.5" y1="231.4453" y2="231.4453"/><text fill="#000000" font-family="sans-serif" font-size="13" lengthAdjust="spacing" textLength="91" x="341.5" y="226.1826">getCandidates()</text><polygon fill="#181818" points="741,258.7363,751,262.7363,741,266.7363,745,262.7363" style="stroke:#181818;stroke-width:1.0;"/><line style="stroke:#181818;stroke-width:1.0;" x1="611.5" x2="747" y1="262.7363" y2="262.7363"/><text fill="#000000" font-family="sans-serif" font-size="13" lengthAdjust="spacing" textLength="36" x="618.5" y="257.4736">create</text><rect fill="#E2E2F0" height="32.6211" rx="2.5" ry="2.5" style="stroke:#181818;stroke-width:0.5;" width="147" x="753" y="239.4453"/><text fill="#000000" font-family="sans-serif" font-size="14" lengthAdjust="spacing" textLength="133" x="760" y="261.5527">CandidateRepository</text><polygon fill="#181818" points="809.5,302.3574,819.5,306.3574,809.5,310.3574,813.5,306.3574" style="stroke:#181818;stroke-width:1.0;"/><line style="stroke:#181818;stroke-width:1.0;" x1="611.5" x2="815.5" y1="306.3574" y2="306.3574"/><text fill="#000000" font-family="sans-serif" font-size="13" lengthAdjust="spacing" textLength="43" x="618.5" y="301.0947">findAll()</text><polygon fill="#181818" points="622.5,333.6484,612.5,337.6484,622.5,341.6484,618.5,337.6484" style="stroke:#181818;stroke-width:1.0;"/><line style="stroke:#181818;stroke-width:1.0;stroke-dasharray:2.0,2.0;" x1="616.5" x2="825.5" y1="337.6484" y2="337.6484"/><text fill="#000000" font-family="sans-serif" font-size="13" lengthAdjust="spacing" textLength="63" x="628.5" y="332.3857">candidates</text><polygon fill="#181818" points="345.5,364.9395,335.5,368.9395,345.5,372.9395,341.5,368.9395" style="stroke:#181818;stroke-width:1.0;"/><line style="stroke:#181818;stroke-width:1.0;stroke-dasharray:2.0,2.0;" x1="339.5" x2="605.5" y1="368.9395" y2="368.9395"/><text fill="#000000" font-family="sans-serif" font-size="13" lengthAdjust="spacing" textLength="63" x="351.5" y="363.6768">candidates</text><polygon fill="#181818" points="84.5,396.2305,74.5,400.2305,84.5,404.2305,80.5,400.2305" style="stroke:#181818;stroke-width:1.0;"/><line style="stroke:#181818;stroke-width:1.0;stroke-dasharray:2.0,2.0;" x1="78.5" x2="323.5" y1="400.2305" y2="400.2305"/><text fill="#000000" font-family="sans-serif" font-size="13" lengthAdjust="spacing" textLength="118" x="90.5" y="394.9678">shows candidate list</text><polygon fill="#181818" points="84.5,427.5215,74.5,431.5215,84.5,435.5215,80.5,431.5215" style="stroke:#181818;stroke-width:1.0;"/><line style="stroke:#181818;stroke-width:1.0;stroke-dasharray:2.0,2.0;" x1="78.5" x2="323.5" y1="431.5215" y2="431.5215"/><text fill="#000000" font-family="sans-serif" font-size="13" lengthAdjust="spacing" textLength="224" x="90.5" y="426.2588">asks to type the candidate's first name</text><polygon fill="#181818" points="312.5,458.8125,322.5,462.8125,312.5,466.8125,316.5,462.8125" style="stroke:#181818;stroke-width:1.0;"/><line style="stroke:#181818;stroke-width:1.0;" x1="73.5" x2="318.5" y1="462.8125" y2="462.8125"/><text fill="#000000" font-family="sans-serif" font-size="13" lengthAdjust="spacing" textLength="108" x="80.5" y="457.5498">provides first name</text><polygon fill="#181818" points="84.5,490.1035,74.5,494.1035,84.5,498.1035,80.5,494.1035" style="stroke:#181818;stroke-width:1.0;"/><line style="stroke:#181818;stroke-width:1.0;stroke-dasharray:2.0,2.0;" x1="78.5" x2="323.5" y1="494.1035" y2="494.1035"/><text fill="#000000" font-family="sans-serif" font-size="13" lengthAdjust="spacing" textLength="224" x="90.5" y="488.8408">asks to type the candidate's last name</text><polygon fill="#181818" points="312.5,521.3945,322.5,525.3945,312.5,529.3945,316.5,525.3945" style="stroke:#181818;stroke-width:1.0;"/><line style="stroke:#181818;stroke-width:1.0;" x1="73.5" x2="318.5" y1="525.3945" y2="525.3945"/><text fill="#000000" font-family="sans-serif" font-size="13" lengthAdjust="spacing" textLength="108" x="80.5" y="520.1318">provides last name</text><polygon fill="#181818" points="898,552.6855,908,556.6855,898,560.6855,902,556.6855" style="stroke:#181818;stroke-width:1.0;"/><line style="stroke:#181818;stroke-width:1.0;" x1="334.5" x2="904" y1="556.6855" y2="556.6855"/><text fill="#000000" font-family="sans-serif" font-size="13" lengthAdjust="spacing" textLength="36" x="341.5" y="551.4229">create</text><rect fill="#E2E2F0" height="32.6211" rx="2.5" ry="2.5" style="stroke:#181818;stroke-width:0.5;" width="79" x="910" y="533.3945"/><text fill="#000000" font-family="sans-serif" font-size="14" lengthAdjust="spacing" textLength="65" x="917" y="555.502">Candidate</text><polygon fill="#181818" points="589.5,596.3066,599.5,600.3066,589.5,604.3066,593.5,600.3066" style="stroke:#181818;stroke-width:1.0;"/><line style="stroke:#181818;stroke-width:1.0;" x1="334.5" x2="595.5" y1="600.3066" y2="600.3066"/><text fill="#000000" font-family="sans-serif" font-size="13" lengthAdjust="spacing" textLength="248" x="341.5" y="595.0439">getCandidateByName(firstName,lastName)</text><polygon fill="#181818" points="987,627.5977,997,631.5977,987,635.5977,991,631.5977" style="stroke:#181818;stroke-width:1.0;"/><line style="stroke:#181818;stroke-width:1.0;" x1="611.5" x2="993" y1="631.5977" y2="631.5977"/><text fill="#000000" font-family="sans-serif" font-size="13" lengthAdjust="spacing" textLength="36" x="618.5" y="626.335">create</text><rect fill="#E2E2F0" height="32.6211" rx="2.5" ry="2.5" style="stroke:#181818;stroke-width:0.5;" width="50" x="999" y="608.3066"/><text fill="#000000" font-family="sans-serif" font-size="14" lengthAdjust="spacing" textLength="36" x="1006" y="630.4141">Name</text><polygon fill="#181818" points="809.5,671.2188,819.5,675.2188,809.5,679.2188,813.5,675.2188" style="stroke:#181818;stroke-width:1.0;"/><line style="stroke:#181818;stroke-width:1.0;" x1="611.5" x2="815.5" y1="675.2188" y2="675.2188"/><text fill="#000000" font-family="sans-serif" font-size="13" lengthAdjust="spacing" textLength="168" x="618.5" y="669.9561">findCandidateByName(name)</text><polygon fill="#181818" points="622.5,702.5098,612.5,706.5098,622.5,710.5098,618.5,706.5098" style="stroke:#181818;stroke-width:1.0;"/><line style="stroke:#181818;stroke-width:1.0;stroke-dasharray:2.0,2.0;" x1="616.5" x2="825.5" y1="706.5098" y2="706.5098"/><text fill="#000000" font-family="sans-serif" font-size="13" lengthAdjust="spacing" textLength="56" x="628.5" y="701.2471">candidate</text><polygon fill="#181818" points="345.5,733.8008,335.5,737.8008,345.5,741.8008,341.5,737.8008" style="stroke:#181818;stroke-width:1.0;"/><line style="stroke:#181818;stroke-width:1.0;stroke-dasharray:2.0,2.0;" x1="339.5" x2="605.5" y1="737.8008" y2="737.8008"/><text fill="#000000" font-family="sans-serif" font-size="13" lengthAdjust="spacing" textLength="56" x="351.5" y="732.5381">candidate</text><polygon fill="#181818" points="84.5,765.0918,74.5,769.0918,84.5,773.0918,80.5,769.0918" style="stroke:#181818;stroke-width:1.0;"/><line style="stroke:#181818;stroke-width:1.0;stroke-dasharray:2.0,2.0;" x1="78.5" x2="328.5" y1="769.0918" y2="769.0918"/><text fill="#000000" font-family="sans-serif" font-size="13" lengthAdjust="spacing" textLength="168" x="90.5" y="763.8291">displays the candidate's data</text><!--SRC=[bLFBRi8m4BpxArPSIgKYqKiF72grS45ggugM3rWbMx1gxDIxKENlQoSaE2a8k2H-xCm-PeoPE0-3wPR5RSZ3ArfSaHy0CYoPl2hGYyvqWLPWfhamM4xHvZf7eNVox2oQ6GekvnLaVZ5WwgnuPqn86e3JpyNBeeDjGGig7EjGPXa33xlZqPtJDzoGKgB542m_u7uyVe1HKvMsAq386k0DG_YXKWepqRjmKWz0nI-C7aDlC05FFrjYOH07UStJ9o51RJYbcIkLUOhBkaqLg09XjGcSzLt_T4NIDiN3suHlJxAdJ0QYQcmWIMPsu3z- -wLj_cHC9qFAcGIFqgBRsfJAwIXodwyPtGb4Cf8O6OSz0LwxNpuWm6YMVWpoToM3b0M1hAcZmfVsB60h_Ji25jxjT4wzYCk93PxXJG8QqLjlDXAtVLqY_dCPRJoiweshkvWXBavxelPzgtVSNkI3VaxRotADBwwsnNbNx1yS_nEbVhW9F3wvFm00]--></g></svg>