<?xml version="1.0" encoding="us-ascii" standalone="no"?><svg xmlns="http://www.w3.org/2000/svg" xmlns:xlink="http://www.w3.org/1999/xlink" contentStyleType="text/css" height="764px" preserveAspectRatio="none" style="width:758px;height:764px;background:#FFFFFF;" version="1.1" viewBox="0 0 758 764" width="758px" zoomAndPan="magnify"><defs/><g><text fill="#000000" font-family="sans-serif" font-size="14" font-weight="bold" lengthAdjust="spacing" textLength="203" x="276.75" y="30.1074">US 1020 - Results publication</text><rect fill="#FFFFFF" height="539.2773" style="stroke:#181818;stroke-width:1.0;" width="10" x="78.5" y="133.2422"/><rect fill="#FFFFFF" height="506.9863" style="stroke:#181818;stroke-width:1.0;" width="10" x="275.5" y="156.5332"/><rect fill="#FFFFFF" height="219.0371" style="stroke:#181818;stroke-width:1.0;" width="10" x="439.5" y="367.9004"/><rect fill="#FFFFFF" height="14" style="stroke:#181818;stroke-width:1.0;" width="10" x="439.5" y="618.2285"/><rect fill="#FFFFFF" height="31.291" style="stroke:#181818;stroke-width:1.0;" width="10" x="613.5" y="399.1914"/><rect fill="#FFFFFF" height="31.291" style="stroke:#181818;stroke-width:1.0;" width="10" x="613.5" y="461.7734"/><rect fill="#FFFFFF" height="31.291" style="stroke:#181818;stroke-width:1.0;" width="10" x="708" y="524.3555"/><rect fill="none" height="122.4551" style="stroke:#000000;stroke-width:1.5;" width="540.5" x="10" y="215.1543"/><line style="stroke:#181818;stroke-width:0.5;stroke-dasharray:5.0,5.0;" x1="83" x2="83" y1="123.2422" y2="681.5195"/><line style="stroke:#181818;stroke-width:0.5;stroke-dasharray:5.0,5.0;" x1="280" x2="280" y1="123.2422" y2="681.5195"/><line style="stroke:#181818;stroke-width:0.5;stroke-dasharray:5.0,5.0;" x1="444" x2="444" y1="196.3438" y2="681.5195"/><line style="stroke:#181818;stroke-width:0.5;stroke-dasharray:5.0,5.0;" x1="618.5" x2="618.5" y1="123.2422" y2="681.5195"/><line style="stroke:#181818;stroke-width:0.5;stroke-dasharray:5.0,5.0;" x1="712.5" x2="712.5" y1="123.2422" y2="681.5195"/><text fill="#000000" font-family="sans-serif" font-size="14" lengthAdjust="spacing" textLength="121" x="20" y="119.7285">Customer Manager</text><ellipse cx="83.5" cy="53.1211" fill="#E2E2F0" rx="8" ry="8" style="stroke:#181818;stroke-width:0.5;"/><path d="M83.5,61.1211 L83.5,88.1211 M70.5,69.1211 L96.5,69.1211 M83.5,88.1211 L70.5,103.1211 M83.5,88.1211 L96.5,103.1211 " fill="none" style="stroke:#181818;stroke-width:0.5;"/><text fill="#000000" font-family="sans-serif" font-size="14" lengthAdjust="spacing" textLength="121" x="20" y="695.627">Customer Manager</text><ellipse cx="83.5" cy="707.6406" fill="#E2E2F0" rx="8" ry="8" style="stroke:#181818;stroke-width:0.5;"/><path d="M83.5,715.6406 L83.5,742.6406 M70.5,723.6406 L96.5,723.6406 M83.5,742.6406 L70.5,757.6406 M83.5,742.6406 L96.5,757.6406 " fill="none" style="stroke:#181818;stroke-width:0.5;"/><rect fill="#E2E2F0" height="32.6211" rx="2.5" ry="2.5" style="stroke:#181818;stroke-width:0.5;" width="119" x="221" y="89.6211"/><text fill="#000000" font-family="sans-serif" font-size="14" lengthAdjust="spacing" textLength="105" x="228" y="111.7285">PublishResultsUI</text><rect fill="#E2E2F0" height="32.6211" rx="2.5" ry="2.5" style="stroke:#181818;stroke-width:0.5;" width="119" x="221" y="680.5195"/><text fill="#000000" font-family="sans-serif" font-size="14" lengthAdjust="spacing" textLength="105" x="228" y="702.627">PublishResultsUI</text><rect fill="#E2E2F0" height="32.6211" rx="2.5" ry="2.5" style="stroke:#181818;stroke-width:0.5;" width="169" x="360" y="680.5195"/><text fill="#000000" font-family="sans-serif" font-size="14" lengthAdjust="spacing" textLength="155" x="367" y="702.627">PublishResultsController</text><rect fill="#E2E2F0" height="32.6211" rx="2.5" ry="2.5" style="stroke:#181818;stroke-width:0.5;" width="90" x="573.5" y="89.6211"/><text fill="#000000" font-family="sans-serif" font-size="14" lengthAdjust="spacing" textLength="76" x="580.5" y="111.7285">JobOpening</text><rect fill="#E2E2F0" height="32.6211" rx="2.5" ry="2.5" style="stroke:#181818;stroke-width:0.5;" width="90" x="573.5" y="680.5195"/><text fill="#000000" font-family="sans-serif" font-size="14" lengthAdjust="spacing" textLength="76" x="580.5" y="702.627">JobOpening</text><rect fill="#E2E2F0" height="32.6211" rx="2.5" ry="2.5" style="stroke:#181818;stroke-width:0.5;" width="79" x="673.5" y="89.6211"/><text fill="#000000" font-family="sans-serif" font-size="14" lengthAdjust="spacing" textLength="65" x="680.5" y="111.7285">Vacancies</text><rect fill="#E2E2F0" height="32.6211" rx="2.5" ry="2.5" style="stroke:#181818;stroke-width:0.5;" width="79" x="673.5" y="680.5195"/><text fill="#000000" font-family="sans-serif" font-size="14" lengthAdjust="spacing" textLength="65" x="680.5" y="702.627">Vacancies</text><rect fill="#FFFFFF" height="539.2773" style="stroke:#181818;stroke-width:1.0;" width="10" x="78.5" y="133.2422"/><rect fill="#FFFFFF" height="506.9863" style="stroke:#181818;stroke-width:1.0;" width="10" x="275.5" y="156.5332"/><rect fill="#FFFFFF" height="219.0371" style="stroke:#181818;stroke-width:1.0;" width="10" x="439.5" y="367.9004"/><rect fill="#FFFFFF" height="14" style="stroke:#181818;stroke-width:1.0;" width="10" x="439.5" y="618.2285"/><rect fill="#FFFFFF" height="31.291" style="stroke:#181818;stroke-width:1.0;" width="10" x="613.5" y="399.1914"/><rect fill="#FFFFFF" height="31.291" style="stroke:#181818;stroke-width:1.0;" width="10" x="613.5" y="461.7734"/><rect fill="#FFFFFF" height="31.291" style="stroke:#181818;stroke-width:1.0;" width="10" x="708" y="524.3555"/><polygon fill="#181818" points="263.5,152.5332,273.5,156.5332,263.5,160.5332,267.5,156.5332" style="stroke:#181818;stroke-width:1.0;"/><line style="stroke:#181818;stroke-width:1.0;" x1="88.5" x2="269.5" y1="156.5332" y2="156.5332"/><text fill="#000000" font-family="sans-serif" font-size="13" lengthAdjust="spacing" textLength="153" x="95.5" y="151.2705">requests to publish results</text><polygon fill="#181818" points="348,183.8242,358,187.8242,348,191.8242,352,187.8242" style="stroke:#181818;stroke-width:1.0;"/><line style="stroke:#181818;stroke-width:1.0;" x1="285.5" x2="354" y1="187.8242" y2="187.8242"/><text fill="#000000" font-family="sans-serif" font-size="13" lengthAdjust="spacing" textLength="36" x="292.5" y="182.5615">create</text><rect fill="#E2E2F0" height="32.6211" rx="2.5" ry="2.5" style="stroke:#181818;stroke-width:0.5;" width="169" x="360" y="164.5332"/><text fill="#000000" font-family="sans-serif" font-size="14" lengthAdjust="spacing" textLength="155" x="367" y="186.6406">PublishResultsController</text><path d="M10,215.1543 L260,215.1543 L260,224.4453 L250,234.4453 L10,234.4453 L10,215.1543 " fill="#EEEEEE" style="stroke:#000000;stroke-width:1.5;"/><rect fill="none" height="122.4551" style="stroke:#000000;stroke-width:1.5;" width="540.5" x="10" y="215.1543"/><text fill="#000000" font-family="sans-serif" font-size="13" font-weight="bold" lengthAdjust="spacing" textLength="205" x="25" y="230.1826">do while(!verificationSuccessful)</text><polygon fill="#181818" points="99.5,253.7363,89.5,257.7363,99.5,261.7363,95.5,257.7363" style="stroke:#181818;stroke-width:1.0;"/><line style="stroke:#181818;stroke-width:1.0;stroke-dasharray:2.0,2.0;" x1="93.5" x2="274.5" y1="257.7363" y2="257.7363"/><text fill="#000000" font-family="sans-serif" font-size="13" lengthAdjust="spacing" textLength="163" x="105.5" y="252.4736">asks to select a job opening</text><polygon fill="#181818" points="263.5,305.3184,273.5,309.3184,263.5,313.3184,267.5,309.3184" style="stroke:#181818;stroke-width:1.0;"/><line style="stroke:#181818;stroke-width:1.0;" x1="88.5" x2="269.5" y1="309.3184" y2="309.3184"/><text fill="#000000" font-family="sans-serif" font-size="13" lengthAdjust="spacing" textLength="123" x="95.5" y="304.0557">selects a job opening</text><path d="M290,270.7363 L290,331.7363 L540,331.7363 L540,280.7363 L530,270.7363 L290,270.7363 " fill="#FEFFDD" style="stroke:#181818;stroke-width:0.5;"/><path d="M530,270.7363 L530,280.7363 L540,280.7363 L530,270.7363 " fill="#FEFFDD" style="stroke:#181818;stroke-width:0.5;"/><text fill="#000000" font-family="sans-serif" font-size="13" lengthAdjust="spacing" textLength="4" x="296" y="289.7646">&#160;</text><text fill="#000000" font-family="sans-serif" font-size="13" lengthAdjust="spacing" textLength="229" x="296" y="307.0557">loops until a valid job opening is chosen</text><text fill="#000000" font-family="sans-serif" font-size="13" lengthAdjust="spacing" textLength="4" x="296" y="324.3467">&#160;</text><polygon fill="#181818" points="427.5,363.9004,437.5,367.9004,427.5,371.9004,431.5,367.9004" style="stroke:#181818;stroke-width:1.0;"/><line style="stroke:#181818;stroke-width:1.0;" x1="285.5" x2="433.5" y1="367.9004" y2="367.9004"/><text fill="#000000" font-family="sans-serif" font-size="13" lengthAdjust="spacing" textLength="135" x="292.5" y="362.6377">getResults(jobOpening)</text><polygon fill="#181818" points="601.5,395.1914,611.5,399.1914,601.5,403.1914,605.5,399.1914" style="stroke:#181818;stroke-width:1.0;"/><line style="stroke:#181818;stroke-width:1.0;" x1="449.5" x2="607.5" y1="399.1914" y2="399.1914"/><text fill="#000000" font-family="sans-serif" font-size="13" lengthAdjust="spacing" textLength="77" x="456.5" y="393.9287">getRankList()</text><polygon fill="#181818" points="460.5,426.4824,450.5,430.4824,460.5,434.4824,456.5,430.4824" style="stroke:#181818;stroke-width:1.0;"/><line style="stroke:#181818;stroke-width:1.0;stroke-dasharray:2.0,2.0;" x1="454.5" x2="617.5" y1="430.4824" y2="430.4824"/><text fill="#000000" font-family="sans-serif" font-size="13" lengthAdjust="spacing" textLength="46" x="466.5" y="425.2197">rankList</text><polygon fill="#181818" points="601.5,457.7734,611.5,461.7734,601.5,465.7734,605.5,461.7734" style="stroke:#181818;stroke-width:1.0;"/><line style="stroke:#181818;stroke-width:1.0;" x1="449.5" x2="607.5" y1="461.7734" y2="461.7734"/><text fill="#000000" font-family="sans-serif" font-size="13" lengthAdjust="spacing" textLength="145" x="456.5" y="456.5107">getNumberOfVacancies()</text><polygon fill="#181818" points="460.5,489.0645,450.5,493.0645,460.5,497.0645,456.5,493.0645" style="stroke:#181818;stroke-width:1.0;"/><line style="stroke:#181818;stroke-width:1.0;stroke-dasharray:2.0,2.0;" x1="454.5" x2="617.5" y1="493.0645" y2="493.0645"/><text fill="#000000" font-family="sans-serif" font-size="13" lengthAdjust="spacing" textLength="117" x="466.5" y="487.8018">numberOfVacancies</text><polygon fill="#181818" points="696,520.3555,706,524.3555,696,528.3555,700,524.3555" style="stroke:#181818;stroke-width:1.0;"/><line style="stroke:#181818;stroke-width:1.0;" x1="449.5" x2="702" y1="524.3555" y2="524.3555"/><text fill="#000000" font-family="sans-serif" font-size="13" lengthAdjust="spacing" textLength="145" x="456.5" y="519.0928">getNumberOfVacancies()</text><polygon fill="#181818" points="460.5,551.6465,450.5,555.6465,460.5,559.6465,456.5,555.6465" style="stroke:#181818;stroke-width:1.0;"/><line style="stroke:#181818;stroke-width:1.0;stroke-dasharray:2.0,2.0;" x1="454.5" x2="712" y1="555.6465" y2="555.6465"/><text fill="#000000" font-family="sans-serif" font-size="13" lengthAdjust="spacing" textLength="117" x="466.5" y="550.3838">numberOfVacancies</text><polygon fill="#181818" points="296.5,582.9375,286.5,586.9375,296.5,590.9375,292.5,586.9375" style="stroke:#181818;stroke-width:1.0;"/><line style="stroke:#181818;stroke-width:1.0;stroke-dasharray:2.0,2.0;" x1="290.5" x2="443.5" y1="586.9375" y2="586.9375"/><text fill="#000000" font-family="sans-serif" font-size="13" lengthAdjust="spacing" textLength="39" x="302.5" y="581.6748">results</text><polygon fill="#181818" points="427.5,614.2285,437.5,618.2285,427.5,622.2285,431.5,618.2285" style="stroke:#181818;stroke-width:1.0;"/><line style="stroke:#181818;stroke-width:1.0;" x1="285.5" x2="433.5" y1="618.2285" y2="618.2285"/><text fill="#000000" font-family="sans-serif" font-size="13" lengthAdjust="spacing" textLength="132" x="292.5" y="612.9658">publishResults(results)</text><polygon fill="#181818" points="296.5,628.2285,286.5,632.2285,296.5,636.2285,292.5,632.2285" style="stroke:#181818;stroke-width:1.0;"/><line style="stroke:#181818;stroke-width:1.0;stroke-dasharray:2.0,2.0;" x1="290.5" x2="443.5" y1="632.2285" y2="632.2285"/><polygon fill="#181818" points="99.5,659.5195,89.5,663.5195,99.5,667.5195,95.5,663.5195" style="stroke:#181818;stroke-width:1.0;"/><line style="stroke:#181818;stroke-width:1.0;stroke-dasharray:2.0,2.0;" x1="93.5" x2="279.5" y1="663.5195" y2="663.5195"/><text fill="#000000" font-family="sans-serif" font-size="13" lengthAdjust="spacing" textLength="98" x="105.5" y="658.2568">publishes results</text><!--SRC=[bPD1Ky8m48Nl-HKh9pWmWnuvUE6aW-A0U0zXQICXgSa6_xvB6sZ0WcDFs_PzRz_k95AHyz2Rn41kXnvUf9K5-Xx8SAn59JrffIjf2TxYokXGpZ54Gs7vTD0jdsv89iwITyQmDqidx_FfN0ZIP12M2xWVFOnW24aBrG5LahIpGaX5UYy9Jpb4Ac3uo3rX31w_8WRco3LeAFbRRPNX74yeZuSojMUOBUeNTcd-2L5u5ojOE_WkjS7-tHwztgGqYwWKXh29Pj3Wp1_JZ7cmRPqXe4558E7JhS1LQBKjVgTkLE5IPXq7zBeeIGZZN1KWMjA6PNjfz3eNWmwWIXUGjuHs3GUqhYv7Av3IQlkCpnfwaEqcBQJHC_XyKYLQskrK1-hdK2iI8WE6MMEVE27MsCbTxVWQTolqiys7LD8gZU6_hUsbmTyPJjBh4Q3hQNErpRg5ROVRKRlfB7ysLOhVNePqy3DrvtclpkvdFt43k7eiwWxNVCykGhBcCRlIiCaF]--></g></svg>