<?xml version="1.0" encoding="us-ascii" standalone="no"?><svg xmlns="http://www.w3.org/2000/svg" xmlns:xlink="http://www.w3.org/1999/xlink" contentStyleType="text/css" height="651.6px" preserveAspectRatio="none" style="width:835px;height:651px;background:#FFFFFF;" version="1.1" viewBox="0 0 835 651" width="835.2px" zoomAndPan="magnify"><defs/><g><text fill="#000000" font-family="sans-serif" font-size="8.4" font-weight="bold" lengthAdjust="spacing" textLength="117.6" x="359.7" y="18.0645">US4000 - Sequence Diagram</text><rect fill="#FFFFFF" height="516.9328" style="stroke:#181818;stroke-width:0.6;" width="6" x="47.1" y="79.9453"/><rect fill="#FFFFFF" height="516.3328" style="stroke:#181818;stroke-width:0.6;" width="6" x="177.9" y="79.9453"/><rect fill="#FFFFFF" height="400.7232" style="stroke:#181818;stroke-width:0.6;" width="6" x="326.7" y="116.6818"/><rect fill="#FFFFFF" height="356.1867" style="stroke:#181818;stroke-width:0.6;" width="6" x="443.1" y="142.4438"/><rect fill="#FFFFFF" height="36.1365" style="stroke:#181818;stroke-width:0.6;" width="6" x="605.7" y="436.732"/><rect fill="#FFFFFF" height="115.1842" style="stroke:#181818;stroke-width:0.6;" width="6" x="668.7" y="229.3383"/><rect fill="#FFFFFF" height="18.7746" style="stroke:#181818;stroke-width:0.6;" width="6" x="789.3" y="248.1129"/><rect fill="none" height="438.0598" style="stroke:#000000;stroke-width:0.8999999999999999;" width="772.2" x="59.4" y="84.1453"/><rect fill="none" height="240.941" style="stroke:#000000;stroke-width:0.8999999999999999;" width="417" x="408.6" y="177.6164"/><rect fill="none" height="61.473" style="stroke:#000000;stroke-width:0.8999999999999999;" width="244.8" x="6" y="530.6051"/><line style="stroke:#181818;stroke-width:0.3;stroke-dasharray:5.0,5.0;" x1="49.8" x2="49.8" y1="73.9453" y2="602.2781"/><line style="stroke:#181818;stroke-width:0.3;stroke-dasharray:5.0,5.0;" x1="180.6" x2="180.6" y1="73.9453" y2="602.2781"/><line style="stroke:#181818;stroke-width:0.3;stroke-dasharray:5.0,5.0;" x1="329.4" x2="329.4" y1="73.9453" y2="602.2781"/><line style="stroke:#181818;stroke-width:0.3;stroke-dasharray:5.0,5.0;" x1="445.8" x2="445.8" y1="73.9453" y2="602.2781"/><line style="stroke:#181818;stroke-width:0.3;stroke-dasharray:5.0,5.0;" x1="608.4" x2="608.4" y1="166.3301" y2="602.2781"/><line style="stroke:#181818;stroke-width:0.3;stroke-dasharray:5.0,5.0;" x1="671.4" x2="671.4" y1="208.2773" y2="602.2781"/><line style="stroke:#181818;stroke-width:0.3;stroke-dasharray:5.0,5.0;" x1="792" x2="792" y1="73.9453" y2="602.2781"/><text fill="#000000" font-family="sans-serif" font-size="8.4" lengthAdjust="spacing" textLength="72.6" x="12" y="71.8371">Customer Manager</text><ellipse cx="50.1" cy="31.8727" fill="#E2E2F0" rx="4.8" ry="4.8" style="stroke:#181818;stroke-width:0.3;"/><path d="M50.1,36.6727 L50.1,52.8727 M42.3,41.4727 L57.9,41.4727 M50.1,52.8727 L42.3,61.8727 M50.1,52.8727 L57.9,61.8727 " fill="none" style="stroke:#181818;stroke-width:0.3;"/><text fill="#000000" font-family="sans-serif" font-size="8.4" lengthAdjust="spacing" textLength="72.6" x="12" y="610.7426">Customer Manager</text><ellipse cx="50.1" cy="617.9508" fill="#E2E2F0" rx="4.8" ry="4.8" style="stroke:#181818;stroke-width:0.3;"/><path d="M50.1,622.7508 L50.1,638.9508 M42.3,627.5508 L57.9,627.5508 M50.1,638.9508 L42.3,647.9508 M50.1,638.9508 L57.9,647.9508 " fill="none" style="stroke:#181818;stroke-width:0.3;"/><rect fill="#E2E2F0" height="19.5727" rx="1.5" ry="1.5" style="stroke:#181818;stroke-width:0.3;" width="127.8" x="117" y="53.7727"/><text fill="#000000" font-family="sans-serif" font-size="8.4" lengthAdjust="spacing" textLength="119.4" x="121.2" y="67.0371">DisplayCandidateApplicationsUI</text><rect fill="#E2E2F0" height="19.5727" rx="1.5" ry="1.5" style="stroke:#181818;stroke-width:0.3;" width="127.8" x="117" y="601.6781"/><text fill="#000000" font-family="sans-serif" font-size="8.4" lengthAdjust="spacing" textLength="119.4" x="121.2" y="614.9426">DisplayCandidateApplicationsUI</text><rect fill="#E2E2F0" height="19.5727" rx="1.5" ry="1.5" style="stroke:#181818;stroke-width:0.3;" width="157.8" x="250.8" y="53.7727"/><text fill="#000000" font-family="sans-serif" font-size="8.4" lengthAdjust="spacing" textLength="149.4" x="255" y="67.0371">DisplayCandidateApplicationsController</text><rect fill="#E2E2F0" height="19.5727" rx="1.5" ry="1.5" style="stroke:#181818;stroke-width:0.3;" width="157.8" x="250.8" y="601.6781"/><text fill="#000000" font-family="sans-serif" font-size="8.4" lengthAdjust="spacing" textLength="149.4" x="255" y="614.9426">DisplayCandidateApplicationsController</text><rect fill="#E2E2F0" height="19.5727" rx="1.5" ry="1.5" style="stroke:#181818;stroke-width:0.3;" width="63" x="414.6" y="53.7727"/><text fill="#000000" font-family="sans-serif" font-size="8.4" lengthAdjust="spacing" textLength="54.6" x="418.8" y="67.0371">JobApplication</text><rect fill="#E2E2F0" height="19.5727" rx="1.5" ry="1.5" style="stroke:#181818;stroke-width:0.3;" width="63" x="414.6" y="601.6781"/><text fill="#000000" font-family="sans-serif" font-size="8.4" lengthAdjust="spacing" textLength="54.6" x="418.8" y="614.9426">JobApplication</text><rect fill="#E2E2F0" height="19.5727" rx="1.5" ry="1.5" style="stroke:#181818;stroke-width:0.3;" width="54.6" x="581.4" y="601.6781"/><text fill="#000000" font-family="sans-serif" font-size="8.4" lengthAdjust="spacing" textLength="46.2" x="585.6" y="614.9426">WordQueue</text><rect fill="#E2E2F0" height="19.5727" rx="1.5" ry="1.5" style="stroke:#181818;stroke-width:0.3;" width="59.4" x="642" y="601.6781"/><text fill="#000000" font-family="sans-serif" font-size="8.4" lengthAdjust="spacing" textLength="51" x="646.2" y="614.9426">WordCounter</text><rect fill="#E2E2F0" height="19.5727" rx="1.5" ry="1.5" style="stroke:#181818;stroke-width:0.3;" width="54.6" x="765" y="53.7727"/><text fill="#000000" font-family="sans-serif" font-size="8.4" lengthAdjust="spacing" textLength="46.2" x="769.2" y="67.0371">FileAnalyzer</text><rect fill="#E2E2F0" height="19.5727" rx="1.5" ry="1.5" style="stroke:#181818;stroke-width:0.3;" width="54.6" x="765" y="601.6781"/><text fill="#000000" font-family="sans-serif" font-size="8.4" lengthAdjust="spacing" textLength="46.2" x="769.2" y="614.9426">FileAnalyzer</text><rect fill="#FFFFFF" height="516.9328" style="stroke:#181818;stroke-width:0.6;" width="6" x="47.1" y="79.9453"/><rect fill="#FFFFFF" height="516.3328" style="stroke:#181818;stroke-width:0.6;" width="6" x="177.9" y="79.9453"/><rect fill="#FFFFFF" height="400.7232" style="stroke:#181818;stroke-width:0.6;" width="6" x="326.7" y="116.6818"/><rect fill="#FFFFFF" height="356.1867" style="stroke:#181818;stroke-width:0.6;" width="6" x="443.1" y="142.4438"/><rect fill="#FFFFFF" height="36.1365" style="stroke:#181818;stroke-width:0.6;" width="6" x="605.7" y="436.732"/><rect fill="#FFFFFF" height="115.1842" style="stroke:#181818;stroke-width:0.6;" width="6" x="668.7" y="229.3383"/><rect fill="#FFFFFF" height="18.7746" style="stroke:#181818;stroke-width:0.6;" width="6" x="789.3" y="248.1129"/><path d="M59.4,84.1453 L103.2,84.1453 L103.2,89.7199 L97.2,95.7199 L59.4,95.7199 L59.4,84.1453 " fill="#EEEEEE" style="stroke:#000000;stroke-width:0.8999999999999999;"/><rect fill="none" height="438.0598" style="stroke:#000000;stroke-width:0.8999999999999999;" width="772.2" x="59.4" y="84.1453"/><text fill="#000000" font-family="sans-serif" font-size="7.8" font-weight="bold" lengthAdjust="spacing" textLength="16.8" x="68.4" y="93.1623">loop</text><text fill="#000000" font-family="sans-serif" font-size="6.6" font-weight="bold" lengthAdjust="spacing" textLength="72" x="112.2" y="92.4674">[for every application]</text><polygon fill="#181818" points="319.5,114.2818,325.5,116.6818,319.5,119.0818,321.9,116.6818" style="stroke:#181818;stroke-width:0.6;"/><line style="stroke:#181818;stroke-width:0.6;" x1="183.9" x2="323.1" y1="116.6818" y2="116.6818"/><text fill="#000000" font-family="sans-serif" font-size="7.8" lengthAdjust="spacing" textLength="119.4" x="188.1" y="113.5242">createListOfTopWords(application)</text><path d="M65.4,98.7199 L65.4,125.1199 L174.6,125.1199 L174.6,104.7199 L168.6,98.7199 L65.4,98.7199 " fill="#FEFFDD" style="stroke:#181818;stroke-width:0.3;"/><path d="M168.6,98.7199 L168.6,104.7199 L174.6,104.7199 L168.6,98.7199 " fill="#FEFFDD" style="stroke:#181818;stroke-width:0.3;"/><text fill="#000000" font-family="sans-serif" font-size="7.8" lengthAdjust="spacing" textLength="96.6" x="69" y="110.1369">After preparing to display all</text><text fill="#000000" font-family="sans-serif" font-size="7.8" lengthAdjust="spacing" textLength="94.8" x="69" y="120.5115">Applications of a Candidate</text><polygon fill="#181818" points="435.9,140.0438,441.9,142.4438,435.9,144.8438,438.3,142.4438" style="stroke:#181818;stroke-width:0.6;"/><line style="stroke:#181818;stroke-width:0.6;" x1="332.7" x2="439.5" y1="142.4438" y2="142.4438"/><text fill="#000000" font-family="sans-serif" font-size="7.8" lengthAdjust="spacing" textLength="69.6" x="336.9" y="139.2861">createListOfWords()</text><polygon fill="#181818" points="574.2,158.8184,580.2,161.2184,574.2,163.6184,576.6,161.2184" style="stroke:#181818;stroke-width:0.6;"/><line style="stroke:#181818;stroke-width:0.6;" x1="449.1" x2="577.8" y1="161.2184" y2="161.2184"/><text fill="#000000" font-family="sans-serif" font-size="7.8" lengthAdjust="spacing" textLength="21.6" x="453.3" y="158.0607">create</text><rect fill="#E2E2F0" height="19.5727" rx="1.5" ry="1.5" style="stroke:#181818;stroke-width:0.3;" width="54.6" x="581.4" y="147.2438"/><text fill="#000000" font-family="sans-serif" font-size="8.4" lengthAdjust="spacing" textLength="46.2" x="585.6" y="160.5082">WordQueue</text><path d="M408.6,177.6164 L452.4,177.6164 L452.4,183.191 L446.4,189.191 L408.6,189.191 L408.6,177.6164 " fill="#EEEEEE" style="stroke:#000000;stroke-width:0.8999999999999999;"/><rect fill="none" height="240.941" style="stroke:#000000;stroke-width:0.8999999999999999;" width="417" x="408.6" y="177.6164"/><text fill="#000000" font-family="sans-serif" font-size="7.8" font-weight="bold" lengthAdjust="spacing" textLength="16.8" x="417.6" y="186.6334">loop</text><text fill="#000000" font-family="sans-serif" font-size="6.6" font-weight="bold" lengthAdjust="spacing" textLength="68.4" x="461.4" y="185.9385">[the number of files]</text><polygon fill="#181818" points="634.8,200.7656,640.8,203.1656,634.8,205.5656,637.2,203.1656" style="stroke:#181818;stroke-width:0.6;"/><line style="stroke:#181818;stroke-width:0.6;" x1="449.1" x2="638.4" y1="203.1656" y2="203.1656"/><text fill="#000000" font-family="sans-serif" font-size="7.8" lengthAdjust="spacing" textLength="105.6" x="453.3" y="200.008">createThread(queue, fileName)</text><rect fill="#E2E2F0" height="19.5727" rx="1.5" ry="1.5" style="stroke:#181818;stroke-width:0.3;" width="59.4" x="642" y="189.191"/><text fill="#000000" font-family="sans-serif" font-size="8.4" lengthAdjust="spacing" textLength="51" x="646.2" y="202.4555">WordCounter</text><polygon fill="#181818" points="661.5,226.9383,667.5,229.3383,661.5,231.7383,663.9,229.3383" style="stroke:#181818;stroke-width:0.6;"/><line style="stroke:#181818;stroke-width:0.6;" x1="449.1" x2="665.1" y1="229.3383" y2="229.3383"/><text fill="#000000" font-family="sans-serif" font-size="7.8" lengthAdjust="spacing" textLength="15.6" x="453.3" y="226.1807">run()</text><polygon fill="#181818" points="782.1,245.7129,788.1,248.1129,782.1,250.5129,784.5,248.1129" style="stroke:#181818;stroke-width:0.6;"/><line style="stroke:#181818;stroke-width:0.6;" x1="674.7" x2="785.7" y1="248.1129" y2="248.1129"/><text fill="#000000" font-family="sans-serif" font-size="7.8" lengthAdjust="spacing" textLength="103.2" x="678.9" y="244.9553">getContentFromFile(fileName)</text><polygon fill="#181818" points="681.3,264.4875,675.3,266.8875,681.3,269.2875,678.9,266.8875" style="stroke:#181818;stroke-width:0.6;"/><line style="stroke:#181818;stroke-width:0.6;stroke-dasharray:2.0,2.0;" x1="677.7" x2="791.7" y1="266.8875" y2="266.8875"/><text fill="#000000" font-family="sans-serif" font-size="7.8" lengthAdjust="spacing" textLength="56.4" x="684.9" y="263.7299">contentFromFile</text><polygon fill="#181818" points="455.7,342.1225,449.7,344.5225,455.7,346.9225,453.3,344.5225" style="stroke:#181818;stroke-width:0.6;"/><line style="stroke:#181818;stroke-width:0.6;stroke-dasharray:2.0,2.0;" x1="452.1" x2="671.1" y1="344.5225" y2="344.5225"/><path d="M677.4,274.6875 L677.4,415.0875 L811.8,415.0875 L811.8,280.6875 L805.8,274.6875 L677.4,274.6875 " fill="#FEFFDD" style="stroke:#181818;stroke-width:0.3;"/><path d="M805.8,274.6875 L805.8,280.6875 L811.8,280.6875 L805.8,274.6875 " fill="#FEFFDD" style="stroke:#181818;stroke-width:0.3;"/><text fill="#000000" font-family="sans-serif" font-size="7.8" lengthAdjust="spacing" textLength="73.8" x="681" y="286.1045">Now, each thread will</text><text fill="#000000" font-family="sans-serif" font-size="7.8" lengthAdjust="spacing" textLength="104.4" x="681" y="296.4791">count the words from their file.</text><text fill="#000000" font-family="sans-serif" font-size="7.8" lengthAdjust="spacing" textLength="2.4" x="681" y="306.8537">&#160;</text><text fill="#000000" font-family="sans-serif" font-size="7.8" lengthAdjust="spacing" textLength="92.4" x="681" y="317.2283">For each word, will call the</text><text fill="#000000" font-family="sans-serif" font-size="7.8" lengthAdjust="spacing" textLength="114.6" x="681" y="327.6029">WordQueue's "addWord" method</text><text fill="#000000" font-family="sans-serif" font-size="7.8" lengthAdjust="spacing" textLength="2.4" x="681" y="337.9775">&#160;</text><text fill="#000000" font-family="sans-serif" font-size="7.8" lengthAdjust="spacing" textLength="90" x="681" y="348.3521">That method checks if the</text><text fill="#000000" font-family="sans-serif" font-size="7.8" lengthAdjust="spacing" textLength="102" x="681" y="358.7268">word is already on the queue:</text><ellipse cx="684.3" cy="366.559" fill="#000000" rx="1.5" ry="1.5" style="stroke:#000000;stroke-width:0.0;"/><text fill="#000000" font-family="sans-serif" font-size="7.8" lengthAdjust="spacing" textLength="107.4" x="688.2" y="369.1014">If yes, increment the number of</text><text fill="#000000" font-family="sans-serif" font-size="7.8" lengthAdjust="spacing" textLength="121.8" x="681" y="379.476">occurrences of that word (and adds</text><text fill="#000000" font-family="sans-serif" font-size="7.8" lengthAdjust="spacing" textLength="112.2" x="681" y="389.8506">the name of the file if it's the first</text><text fill="#000000" font-family="sans-serif" font-size="7.8" lengthAdjust="spacing" textLength="94.2" x="681" y="400.2252">time that file has that word)</text><ellipse cx="684.3" cy="408.0574" fill="#000000" rx="1.5" ry="1.5" style="stroke:#000000;stroke-width:0.0;"/><text fill="#000000" font-family="sans-serif" font-size="7.8" lengthAdjust="spacing" textLength="86.4" x="688.2" y="410.5998">If no, add it to the queue.</text><polygon fill="#181818" points="598.5,434.332,604.5,436.732,598.5,439.132,600.9,436.732" style="stroke:#181818;stroke-width:0.6;"/><line style="stroke:#181818;stroke-width:0.6;" x1="449.1" x2="602.1" y1="436.732" y2="436.732"/><text fill="#000000" font-family="sans-serif" font-size="7.8" lengthAdjust="spacing" textLength="117" x="453.3" y="433.5744">getSortedListOfMostUsedWords()</text><polygon fill="#181818" points="455.7,470.4686,449.7,472.8686,455.7,475.2686,453.3,472.8686" style="stroke:#181818;stroke-width:0.6;"/><line style="stroke:#181818;stroke-width:0.6;stroke-dasharray:2.0,2.0;" x1="452.1" x2="608.1" y1="472.8686" y2="472.8686"/><text fill="#000000" font-family="sans-serif" font-size="7.8" lengthAdjust="spacing" textLength="138" x="459.3" y="459.3363">list of words (sorted in descending order</text><text fill="#000000" font-family="sans-serif" font-size="7.8" lengthAdjust="spacing" textLength="142.2" x="459.3" y="469.7109">of occurrences, only showing the first 20)</text><path d="M614.4,444.532 L614.4,481.132 L766.2,481.132 L766.2,450.532 L760.2,444.532 L614.4,444.532 " fill="#FEFFDD" style="stroke:#181818;stroke-width:0.3;"/><path d="M760.2,444.532 L760.2,450.532 L766.2,450.532 L760.2,444.532 " fill="#FEFFDD" style="stroke:#181818;stroke-width:0.3;"/><text fill="#000000" font-family="sans-serif" font-size="7.8" lengthAdjust="spacing" textLength="117.6" x="618" y="455.949">This happens after the Application</text><text fill="#000000" font-family="sans-serif" font-size="7.8" lengthAdjust="spacing" textLength="123.6" x="618" y="466.3236">object waits for each Thread to end,</text><text fill="#000000" font-family="sans-serif" font-size="7.8" lengthAdjust="spacing" textLength="139.2" x="618" y="476.6982">ensuring that no progress is disregarded</text><polygon fill="#181818" points="339.3,496.2305,333.3,498.6305,339.3,501.0305,336.9,498.6305" style="stroke:#181818;stroke-width:0.6;"/><line style="stroke:#181818;stroke-width:0.6;stroke-dasharray:2.0,2.0;" x1="335.7" x2="445.5" y1="498.6305" y2="498.6305"/><text fill="#000000" font-family="sans-serif" font-size="7.8" lengthAdjust="spacing" textLength="41.4" x="342.9" y="495.4729">list of words</text><polygon fill="#181818" points="190.5,515.0051,184.5,517.4051,190.5,519.8051,188.1,517.4051" style="stroke:#181818;stroke-width:0.6;"/><line style="stroke:#181818;stroke-width:0.6;stroke-dasharray:2.0,2.0;" x1="186.9" x2="329.1" y1="517.4051" y2="517.4051"/><text fill="#000000" font-family="sans-serif" font-size="7.8" lengthAdjust="spacing" textLength="41.4" x="194.1" y="514.2475">list of words</text><path d="M6,530.6051 L49.8,530.6051 L49.8,536.1797 L43.8,542.1797 L6,542.1797 L6,530.6051 " fill="#EEEEEE" style="stroke:#000000;stroke-width:0.8999999999999999;"/><rect fill="none" height="61.473" style="stroke:#000000;stroke-width:0.8999999999999999;" width="244.8" x="6" y="530.6051"/><text fill="#000000" font-family="sans-serif" font-size="7.8" font-weight="bold" lengthAdjust="spacing" textLength="16.8" x="15" y="539.6221">loop</text><text fill="#000000" font-family="sans-serif" font-size="6.6" font-weight="bold" lengthAdjust="spacing" textLength="72" x="58.8" y="538.9271">[for every application]</text><polygon fill="#181818" points="59.7,584.8781,53.7,587.2781,59.7,589.6781,57.3,587.2781" style="stroke:#181818;stroke-width:0.6;"/><line style="stroke:#181818;stroke-width:0.6;stroke-dasharray:2.0,2.0;" x1="56.1" x2="177.3" y1="587.2781" y2="587.2781"/><text fill="#000000" font-family="sans-serif" font-size="7.8" lengthAdjust="spacing" textLength="101.4" x="63.3" y="552.9967">display application along with</text><text fill="#000000" font-family="sans-serif" font-size="7.8" lengthAdjust="spacing" textLength="110.4" x="63.3" y="563.3713">list of words and their number of</text><text fill="#000000" font-family="sans-serif" font-size="7.8" lengthAdjust="spacing" textLength="94.8" x="63.3" y="573.7459">occurrences and list of files</text><text fill="#000000" font-family="sans-serif" font-size="7.8" lengthAdjust="spacing" textLength="93" x="63.3" y="584.1205">where each one appears in</text><!--SRC=[ZLN1Rjim3BthAuXSbXHf4GmxvJ2WI54WGzjXQu9TUb5bEjPcIwuaDyY-VgJasd9R53l5iadgyRr7HgfW7SmsdG-sGGUtqiW3kXb83wf_sQHtefKkQALRQGBChhHlQtdQI5FeGWQyRDjQAncqDNw_ZVdxxV-dRAm9pjPrV_Lcz_DcalpDFcRX798T9v6_h2j-TDWX1yM7DvytjZE1cgM0NULG5fE8QrtZfP7rwMyAuVDF2Y86HD2XHjZVVrcjLd0Ez_ZKeL48LreUd6o4a2heP-hj3Nd31s95rDQsK1Bn-8pk139hHUotSFur4h06HU02tcWVlfSxsp9sFy-Y5sFPo9WmbXvhB8E0ov9RR1rIRzeS85WeaW0Wwrha_7cm9KWOX15e2k1IGd1PnfD5Js4bJ1cGN1UHQqPLeXndPoyL4W-XGZ1TyqXe2KP9RFlNUKcbCJ6TvqzSRXbJxcI3Y_VJrk0wGmWpSNhLqmz7ZXgluO21tOWcN3lRy9VvUCDG8dF5-0ZdsQrgMaGK-5xo069ASbBIwKD5KjxPun8ekoAkOl1HiuAARHpfEx88KD9DVDGkKd8X15opnpYH8vOn3nJ9ps5Y79LF7cQoAFWyWmP3PGjAtbKoz2TG5Qe_7dIPChaSQ4zEOZmd8BuPHnHaBU0CjYMSq2z16rAimHxd8BC0grJd70zFT5_WksBLERaG28mNAOLeJm4Oks88EX3WzC9vuYTeYeaLOaGb_LXlqQCnTibLAPSdOG1xCNezqwVt1tzYYxxlu-YKU-i25caKRgqFUu_5cv58MoWjfVFNmrHJBZUOD9pxM91uWmAz8WGyk_G9tOEXg8os9R5Udy1NzXZd-uKF-BnQvCsaspC_xIfIhg8rWZJvCgu9JixTPnz_eo82fGu-BIesKMzLuezmBOaUtwNLmcGRIyl67XnwpywWNUFm80buaQsJ2O_3cfjGa4EVx9AqYYXfl_qW9Ut1KRaFLYrlMYhtQbElnpMP_-7KbXezwb0zcAbYRDSqT8ExIQdCtHpmaXAtsuCvLkWmSMeDyaKe7T5cHk1PI_oF8Vu1]--></g></svg>